<?xml version="1.0" encoding="UTF-8"?>
<svg id="Layer_2" data-name="Layer 2" xmlns="http://www.w3.org/2000/svg" viewBox="0 0 146.58 172.83">
  <defs>
    <style>
      .cls-1 {
        fill: #42322c;
        fill-rule: evenodd;
        stroke-width: 0px;
      }
    </style>
  </defs>
  <g id="Layer_1-2" data-name="Layer 1">
    <path class="cls-1" d="M79.34,156.92c-5.07-.33-10.23-2.72-12.83-6.45-3.77-5.39,1.1-19.45,5.85-21.48,8.18-3.49,16.3-.83,20.01,5.47,5.28,8.96,2.62,23.46-13.03,22.45h0ZM19.19,154.03c-7.55-9.59-28.67.31-14.29,2.79,9.44,1.63,13.95-2.52,14.29-2.79h0ZM134.95,153.49c-6.56-.15-16.99,1.69-20,4.72,4.27,5.01,23.27-.85,31.63.19-1.64-5.13-5.41-4.77-11.63-4.91h0ZM38.86,166.74c-.03-3.36-8.2-7.88-20.96-3.64-3.91,1.3-1.78.72-3.46,1.99,3.97,4.74,17.21,4.47,24.42,1.64h0ZM54.89,161.26c-7.46-.37-10.27,2.13-10.97,2.79.62.62,3.56,3.61,9.39,4.85,13.69.67,16.11-6.92,1.58-7.64h0ZM124.5,97.61c2.37-.88,4.59-.07,5.47-.89.89-.83.43-3.31.73-6.69.17-1.83.09-3.44-.14-4.8-1.24-7.1-6.97-7.58-6.61.19l.56,12.19h0ZM83.02,109.25l7.71.16c.18-7.37-.21-15.41-4.55-16.87-3.6,2.42-4.32,6.59-3.16,16.71h0ZM116.92,98.66l.66-13.26c.04-6.82-8.03-6.2-7.19-.29.49,3.47-1.12,10.68.17,13.39.45.94,5.47-.53,6.37.17h0ZM21.43,114.71l7.44-.35c.31-9.4.96-14.6-4.12-17.32-1.86,1.61-3.26,3.44-3.26,5.5l-.05,12.17h0ZM28.39,88.44l6.21-.15c.74-9.56-.21-19.86-3.03-21.06-4.02,1.85-4.95,6.78-3.17,21.21h0ZM21.62,88.6c.6-10.21,1.89-17.4-3.55-22.06-3.38,3.97-3.48,8.89-2.67,22.12l6.22-.06h0ZM74.08,148.44c8.18,14.45,27.48-8.08,11.21-14.6,2.53,10.6.51,14.33-11.21,14.6h0ZM84.94,165.64c-14.78,2.29-16.15,4.58.09,7.2.12.02,7.1-.19,7.71-.23,6.68-.36,13.01-.14,17.41-3.77-3.39-5.5-8.92-3.34-17.64-3.29-.72,0-7.37.06-7.57.1h0ZM97.12,130.49c9.09-8.28,29.11.67,36.59,1.62-7.19.85-11.74.94-18.51,2.2-7.16,1.34-11.16,3.01-13.4,2.64-1.9-2.62-2.9-4.07-4.68-6.46h0ZM46.93,124.77l-.03-2.92,19.08-.73.4,5.97c-4.59.47-5.22.22-9.18.14-9.74-.21-7.45.4-10.26-2.46h0ZM75.52,87.28c8.44-.06,13.39-1.33,20.06.45l1.25,33.27-2.84,4.91c-7.08-6.5-8.48-4.26-18.36-4.23l-.1-34.4h0ZM46.6,115.45c2.3-4.31,1.15-3.34,8.57-4.21,16.2-1.9,11.17,1.44,12.06,3.48l-20.63.72h0ZM139.32,123.69c-12.66-3.06-20.63-3.15-35.84-1.62-.9-11.29-.39-21.2-.51-32.71-.11-10.48,8.09-20.59,18.69-27.77,13.11,16.05,16.23,14.63,16.76,32.13l.9,29.97h0ZM47.08,104.23c2.93-5.99-.06-4.87,21.12-6.19-.27,9.74,3.52,6.11-14.33,7.19-8.49.52-3.8.57-6.79-1h0ZM39.23,128.93l-27.71,1.83c-2.22-7.19-.52-62.61-.94-74.55l29.48-.5-.83,73.21h0ZM47.81,86.69c7.93-1.78,15.16-3.09,20.19.02-.79,6.73,7.15,6.69-20.47,6.53l.28-6.55h0ZM48.33,78.06c2.21-5.67-5.12-3.9,19.2-4.76-1.84,8.27-9.7,6.78-18.02,5.37-.28-.07-.79-.41-1.18-.62h0ZM66.53,68.08l-17.37-.66c-.62-7.37-2.04-5.61,6.04-6.59,12.85-1.57,10.64-.68,11.33,7.25h0ZM95.93,80.88l-17.21-.64c11.3-24.62,15.11-19.86,31.2-19.99-6.12,6.99-9.54,13.04-13.99,20.62h0ZM65.84,55.02c-12.85,1.37-11.81,1.92-16.29-1.27.83-7.67,7.4-5.86,15.56-5.28l.73,6.55h0ZM55.03,43.68c2.28-4.74,6.21-10.58,13.07-15.66l.18,14.32-13.25,1.34h0ZM10.49,49.04c14.83-16.54,16.79-15.84,23.1-22.61l8.48-9.36,19.41-.56-.27,7.08-10.2.76-.56,12.59-9.19.4.21,11.47-30.98.21h0ZM74.44,74.04V.33c-3.07-.48-8.23-.48-8.26.31l-.26,6.77-21.36.68-.68-7.33c-.1-1.08-4.1-.44-8.74-.24l.5,14.56-12.98,1.19c-1.24,8.88-.38,10.49-.23,12.18-.87.92-4.45.46-11.56,1.36-.95,6.8.28,7.93.32,11.11-3.13,1.37-9.46,2.1-9.84,2.32,1.26,31.31,2.43,62.27,3.19,93.49l54.75-1.2c-2.27,4.99,1.45,3.35-8.62,3.78l-25.96,1.69c-7.36,1.98-7.27,1.55-8.61,5.41,10.77,2.87,28.02-2.34,38.15.43l2.98,1.83c-6.52,3.92-10.09,1.53-17.67,2.1-15.89,1.19-9.31,6.69-9.15,7.1.41.08.95.2,1.22.22,20.5,1.6,13.17-5.09,38.54,4.85,14.41,5.65,27.02.05,30.21-10.72,7.02.1,20.76,2.04,23.94-4.03-4.77-4.95-13.66-3.15-21.81-2.95,11.36-7.7,43.56.29,43.87-9.07.01-.38-6.85-3.28-6.85-3.66,0-.36,6.39-.46,6.38-.8l-2.01-37.28c-.61-11.3-1.83-22.07-12.61-31.79-3.08-2.78-6.71-7.05-8.76-7.99l-14.06-1.74c-.63-3.81-.53-2.36-.49-6.46.11-12.45,6.33-2.41,5.53-14.56l-19.49-.12c.32,10.84,4.04,2.91,5.38,12.5.45,3.22.19,4.88.32,8.48-1.5,0-4.63.01-5.74.16-5.3.67-6.85,2.93-10.25,7.66l-6.43,10.29c-1.47,2.05-1.51,1.84-2.87,3.2h0Z"/>
  </g>
</svg>