<?xml version="1.0" encoding="UTF-8"?>
<svg id="Layer_2" data-name="Layer 2" xmlns="http://www.w3.org/2000/svg" viewBox="0 0 114.92 93.18">
  <defs>
    <style>
      .cls-1 {
        fill: #42322c;
        fill-rule: evenodd;
        stroke-width: 0px;
      }
    </style>
  </defs>
  <g id="Layer_1-2" data-name="Layer 1">
    <path class="cls-1" d="M53.28,74.28c3.6,5.44-1.66,2.38,7.97,5.63,7.53,2.54,21.94,6.21,29.21,5.46-2.98-11.14-9.45-4.84-18.39-11.11,11.51-.19,11.14,3.92,19.24,8.61l12.28,3.13c7.26.56,5.99,1.27,11.31-2.39-3.87-6.76-12.5-2.69-22.37-9.38-28.84-19.54-41.26-.64-41.98-22.25-.29-8.71,2.05-18.68,6.42-23.92,9.22,1.15,6.49,5.68,18.7,7.22,27.76,3.5,19.62-29.15,4.65-22.54,3.91,7.37,9.2,6.21,2.77,14.44-13.61-4.18-11.13-13.59-29.12-13.33-.29-7.37.97-6.83-2.58-13.33-3.55,1.61-.72-4.31-4.44,4.28-4.01,9.24-2.29,49.23-1.42,58-10.45.27-14.18,1.96-23.02,4.98-10.86,3.72-12.25,2.13-22.51,3.4,2.44,17.22,24.77-3.34,53.28-1.32,6.71.48,13.99.91,18.79,4.4-10.07.05-10.98-4.74-18.8.02h0ZM75.38,85.75c-6.95-.71-5.45.63-7.52,3.45,3.52,2.16,4.53,6.63,12.89,1.87-.87-4.2,2.83-4.47-5.37-5.31h0ZM47.66,79.82c-.36-1.41.04.34-.24-2.35-.56-5.29.42-.18-.46-3.49-.63-.06-1.39-.2-1.89-.24-5.55-.43-4.71-1.84-9.76,2.4,4.19,4.38,3.33,3.53,10.89,3.67-3.35,2.71-3.55,2.08-3.72,7.17,6.81.17,16.6,1.83,21.41-1.52-3.54-6.25-6.6-4.67-16.23-5.65h0Z"/>
  </g>
</svg>