<?xml version="1.0" encoding="UTF-8"?>
<svg id="Layer_2" data-name="Layer 2" xmlns="http://www.w3.org/2000/svg" viewBox="0 0 219.72 169.51">
  <defs>
    <style>
      .cls-1 {
        fill: #42322c;
        fill-rule: evenodd;
        stroke-width: 0px;
      }
    </style>
  </defs>
  <g id="Layer_1-2" data-name="Layer 1">
    <path class="cls-1" d="M204.74,168.64l14.98-2.21c-2.74-9.49-14.71-17.97-20.52-29.16l-14.6-1.22.23-2.91c1.66-4.55,7.25-4.11,5.12-10.72-.87-2.69-2.89-3.79-5.62-4.12-11.38.33-12.35,7.07-6.89,11.1.25,2.12.44,4.37.26,6.55-9.49,0-30.96,1.26-37.14-7.64l2.89-5.64-.58-3.7-4.18,1.25-3.11,3.12c-1.2,1.21-3.83-2.5-6.63-3.48-5.51-1.93-8.59-2.41-8.87-2.8-.24-.33.62-1.6.17-3.61-.21-.97-.81-1.75-1.83-3.38-2.12.58-3.28,1.44-3.96,2.37-1.01,1.39-.99,2.97-1.51,4.1-1.34.42-13.47,1.99-16.09,2.58-3.33-4.31-1.45-6.15-7.46-7.85-2.7,4.48-1.99,4.28-.91,9.98l-10.28,6.48c-5.21-4.64-3.61-4.77-9.29-4.74.36,3.05.12,5.28,2.93,9.21-2.06,2.47-4.78,4.21-6.84,5.06-6.5.73-16.7-1-21.96-1-.86-9.11,2.87-5.56,3.41-12.51.76-9.92-12.38-13.36-17.73-4.72-3.62,5.84,3.63,9.78,6.11,16-6.4,6.34-11.35,8.19-17.17,15.88-14.32,18.92-4.15,6.26-17.64,15.83,1.65,1.42-.82,3.14,7.32,2.65,23.23-1.32,45.94-2.75,69.11-1.01,6.42-15.75,13.18-28.42,35.34-28.42s18.56,13.79,25.38,28.76c9.52-.74,14.3-2.51,26.85-2.47,7.51.02,17.95,2.05,23.01,1.14.95-6.59-1.32-2.87-2.66-11.4,9.47.74,15.45-.15,23.78,3.93-3.33,1.75,1.59.37-4.99,1.98l-11.01.95c.76,2.49,1.48,4.7,2.14,6.69,3.42-.45,8.74-1.01,10.49-.87h0ZM76.36,137.38l5.46,6.55c-3.9,2.5-9.63,4.49-15.88.41,2.6-1.87,6.45-4.44,10.42-6.96h0ZM87.2,139.61l-4.71-6.02c4.02-2.4,7.51-4.3,9.09-4.77.65,2.09,2.5,4.91,1.95,6.26-.48,1.2-4.02,2.9-6.33,4.53h0ZM111.19,125.51l-1.33,6.46-8.85,1.64-2.38-6.6c5.58-1.11,7.53-3.77,12.56-1.51h0ZM117.72,127.03c4.76-3.49,11.26.16,14.37,3.94-1.41,2.51-1.38,5.78-2.42,6.21-.82.34-3.02-2.03-5.99-2.55-10.4-1.84-6.24-1.01-5.96-7.61h0ZM42.88,146.51l-.03-3.97c2.56-.08,13.15.7,15.71.92-2.34,5-10.78,4.67-15.68,3.05h0ZM136.36,141.12c.41-.23,2.47-4.98,2.76-5.06,10.09,9.44,12.98,3.87,14.89,6.61.44.63.61,2.62.33,4.1-16.34,3.03-17.98-5.64-17.99-5.65h0ZM177.77,147.93l-17.87-.77c.7-.79.05-2.33-.08-4.91-.08-1.47,14.04-.97,17.87-.83l.08,6.52h0ZM184.36,148.51l.23-6.58c.37-.24.87-2.01,8.38,1.76,2.48,1.25,3.18,3.82,4.45,5.96-1.48-.07-12.22-.9-13.06-1.15h0ZM60.92,160.77c2.34-7.51,6.59-9.1,14.48-7.82-6.17,10.59-4.46,8.12-8.16,8.15l-6.32-.33h0ZM177.49,154.68c-1.77,4.6,2.96,5.61-9.72,4.46-6.69-.61-4.84-.69-7.13-3.65l16.85-.8h0ZM140.3,157.39c1.17-1-1.84-2.41,6.9-2.47,8.88-.06,5.9,1.55,6.99,2.47-4.51,1.85-9.42,2.62-13.89,0h0ZM34.74,144.74l.6,16.7-17.78.24c4.46-6.77,9.61-12.92,17.18-16.94h0ZM42.77,161.27v-7.72s14.72,1.98,14.72,1.98l-14.72,5.74h0Z"/>
    <path class="cls-1" d="M126.55,93.16c-4.87,4.99-13.64,15.6-.43,8.88,1.45-.74,3.97-3.18,5.16-4.4.26-.27.51-.52.75-.76,2.18-2.66,4.3-3.86,5.87-6.45,7.71-12.65-7.98-.73-11.35,2.73h0ZM129.07,109.9c5.53-2.4,10.64-8.13,16.7-12.18,10.56-7.06,32.15-17.72,23.82-39.43-4.42-11.52-12.62-18.19-19.78-24.96-16.04-15.14-.41-18.22-.36-27.62-8.48-1.07-10.15,2.27-12.86,9.01-11.55-10.21-14.12,5.4-12.41,10.27,8.3-1.3,3.9-3.31,10.93-8.94.48,11.15,4.16,18.94,10.06,23.74,4.74,3.86,5.8,2.16,9.58,7.28,2.11,2.87,4.45,7.66,6.14,10.75,5.34,9.7,1.1,18.15-5.6,24.45-2.65,3.48-14.24,12.58-18.03,14.63-5.36,2.9-8.94,7.26-8.18,13.01h0ZM147.69,49.79c-.77,2.59,1.1,19.94,2.42,22.31,7.75-2.41,6.53-18.53-2.42-22.31h0ZM113,27.64c-3.3-19.97,12.91-14.93,12.12-27.45-16.44-2.78-27.89,24.25-15.79,34.45,6.36,5.37,14.96,4.47,19.91,11.85,7.71,11.52,7.51,24.56-4.73,32.07-8.11,4.97-18.61,10.73-20.34,17.48-3.58,13.99,7.98,1.73,10.83-2.08,1.81-2.42,6.2-4.24,12.21-7.35,8.79-4.54,14.37-9.6,14.4-21.88.05-26.1-13.69-28.29-28.6-37.1h0Z"/>
  </g>
</svg>