<?xml version="1.0" encoding="UTF-8"?>
<svg id="Layer_2" data-name="Layer 2" xmlns="http://www.w3.org/2000/svg" viewBox="0 0 228.32 150.21">
  <defs>
    <style>
      .cls-1 {
        fill: #42322c;
        fill-rule: evenodd;
        stroke-width: 0px;
      }
    </style>
  </defs>
  <g id="Layer_1-2" data-name="Layer 1">
    <path class="cls-1" d="M155.08,26.27c5.08,1.06,9.94,5.96,8.48,12.6-1.31,5.96-6.31,9.97-12.77,8.14-7.23-2.05-10.54-9.36-9.04-14.69,1.28-4.56,6.25-7.53,13.33-6.06h0ZM110.29,64.98c-1.4-1.99-13.84-10.54-15.29-4.42-1.36,5.73,14.28,5.02,15.29,4.42h0ZM76.34,145.57c-3.22-8.34-7.34-6.05-13.58-6.05-3.96,4.93,9.69,4.69,13.58,6.05h0ZM40.2,139.04c3.51,4.07,13.19,7.3,17.03,3.62-3.2-2.94-13.63-6.65-17.03-3.62h0ZM16.69,117.43C23.92,106.77.04,112.55,0,112.88c-.14,1.31,6.23,4.5,16.69,4.55h0ZM44.11,130.39c-1.18-8.06-8.53-5.04-16.66-6.14,1.5,7.4,9.27,4.8,16.66,6.14h0ZM153.11,146.58c3.03,3.19,9.21,6.03,15.7.49-2.34-4.37-13.24-1.97-15.7-.49h0ZM175.8,57.97c-7.37-4.18-13.04,5.1-4.59,5.01,3.75-.04,4.56-2.45,4.59-5.01h0ZM161.87,87.23c-.27-4.45-1.75-9.68-6.72-9.64-10.7.07,5.03,8.78,6.72,9.64h0ZM65.45,59.82s9.89-6.52.51-11.46c-1.14,1.2-6.16,4.96-5.14,6.95,1.74,3.41,1.88,4.15,4.63,4.51h0ZM142.04,92.61c5.07,1.33,8.78,2.23,9.34-4.81-5.2-2.95-8.67-2.13-9.34,4.81h0ZM154.75,42.53c3.98-3.12,6.43-6.25-.58-10.16-.81.6-3.47-1.43-2.86,5.21.44,4.79,2.16,4.02,3.44,4.95h0ZM150.48,142.23c-3.57-1.73-12.1-1.84-17.13-1.12,1.16,3.78,3.87,5.05,8,5.7,6.1.96,8.29-1.89,9.13-4.59h0ZM197.94,121.56c16.51,3.02,11.71-2.02,12.02-4.46-16.4-6.55-12.02,4.4-12.02,4.46h0ZM93.69,86.5c.51,5.63-.36,4.18,4.38,7.09-1.49,5.12-2.9,4.5-2.1,9.85,14.54,1.96,10.37-19.52-2.27-16.94h0ZM139.54,100.3c4.18,8.78,21.33,3.36,22.85-4.5-3.7-4.11-4.42-1.85-8.9.47-4.95,2.56-9.55,1.82-13.94,4.03h0ZM168.23,124.87c5.95,3.93,18.87,3.76,23.78.39-.29-3.21-4.16-4.36-10.65-4.53-18.14-.48-12.49,1.01-13.13,4.14h0ZM127.74,27.36c-9.26-1.88-5.25,1.98-12.66.51-5.61-1.11-3.74-3.86-10.23-4.5,0,13.09,20.1,15.86,22.89,3.98h0ZM115.18,57.66c-.41,14.03,19.16,11.79,19.66-.18.2-4.88-4.41-7.71-5.32.07-5.24,6.87-6.34.36-14.34.11h0ZM182,57.18c-.37,10.8-6.07,10.07-2.87,16.34,10.88-1.57,16.3-26.08-2.93-24.37,2.92,5.03,2.72,2.98,5.8,8.03h0ZM56.01,131.3c2.34.38,7.53.3,10.1.35,21.67.38,21.02-.61,23.41-2.3-4.41-5.23-26.21-4.87-34.12-4.68-6.72,1.58-12.86,4.47.61,6.63h0ZM113.17,103.22c5.19-1.72,4.88.88,6.11-7.91.48-3.43.65-8.28-.24-12.1-2.23-9.55-8.92-10.35-19.2-10.23,4.14,11.11,7.76,4.46,11.58,8.59,4.78,5.17-.89,11.08,1.74,21.65h0ZM173.22,37.78c12.92-.45,20.55,8.01,21.32,21.44.89,15.68-3.5,19.77-18.95,20.17-5.38-5.91-6.03-8.35-14.88-12.03-8.22-3.42-15.08-2.58-21.4.73-10.08,5.28-19.64,16.87-15.87,32.3,7.96-2.17,4.54-1.41,7.84-11.12,7.6-22.36,31.87-22.1,38.98-5.28,1.2,2.85.97,6.57,1.09,10.31.34,10.37-13.37,17.78-29.38,15.74-8.85-1.13-11.29-5.11-16.25-8.75-7.64,3.72-4.65,9.05-21.96,12.71-27.62,5.83-25.41-15.55-22.67-32.25-7.43-.59-16.08,2.43-15.74-5.3.17-3.81.43-1.68.85-3.68,2.69-12.99-11.46-2.82-16.82-11.56-5.06-14.03,6.2-19.3,18.27-18.03,5.96.63,10.06,3.68,10.69,9.78,1.16,11.4-8.67,2.4-6.27,11.5,12.66,7.94,15.68-7.58,12.82-16.26-2.8-8.48-11.43-12.24-22.1-13.34,2.13-14.03,18.34-23.74,23.02-5.81,1.07,4.09.3,3.02,2.28,6.81,8.7,16.63,31.59,18.84,30.21,3.14-3.52-2.12-6.76,5.28-11.13,3.76-15.99-6.01-18.3-18.99-8.19-29.85,9.08-9.75,29.78-6,36.51,4.94,4.8,7.8-8.63,23.99,7.07,33.93,6.63,4.2,13.95,4,20.12.34,7.41-4.39,4.95-6.52,10.52-14.35h0ZM71.6,88.91c.11,8.07-4.47,34.73,30.83,33.1-.1,6.02.73,8.92.65,12.18-7.8,1.24-26.95-1.3-28.61,3.27,6.14,10.02,44.27,3.22,56.31,2.9-2.67-8.63-11.94-6.53-21.68-6.54l.37-12.2c10.66-6.11,3.01.9,17.3-10.7,4.7,4.07,11.53,4.53,19.12,6.75,1.16,5.5,2.57,11.38.53,12.24-5.21,2.18-10.64,0-12.54,5.58,3.14,2.89,5.51,2.85,12.59,2.93l32.23-2.67c-2.73-5.97-5.03-5.49-13.81-5.23-5.93.18-4.41-.44-10.75-.57l-.9-13.09c16.78-6.09,26.9-6.25,24.92-30.19l6.75-.54.03,18.77c-5.3,4.13-7.06-.22-4.89,7.43,6.73,2.24,17.79.38,25.42-.71l22.84-3.87c-4.47-5.02-4.75-4.14-12.77-3.04,2.26-3.32,2.26-3.72,1.37-6.86-6.42-2.1-7.32-1.89-14.56-.73,1.67,7.82,3.87,8.18,3.87,8.18l-14.81.48c-.05-8.98-.51-19.9,4.36-24.79,12.15-12.22,9.81-51.26-25.46-50.83-4.43-9.31-14.23-11.65-25.67-9.76C140.32,7.93,131.77,1.57,116.2.16c-17.12-1.55-21.46,8.43-29.45,15-8.62-3.77-14.45-3.43-22.08,1.48-6.45,4.16-7.98,10.13-8.92,19.77-19.93,5.56-22.32,30.58,1.84,36.14.05,9.24,2.02,11.75.65,21.73-.7,5.11-2.93,11.95-.94,16.56l-35.63,3.36c5,6.59,15.1,4.06,23.91,3.39,4.81-.37,8.88-.68,13.68.56,17.85,4.59,11.48,3.73,15.27,1.97-3.21-6.13-4.19-5.3-10.26-7.62-.88-4.75-.57-8.03.13-12.51,1.1-7.07-.16-7.13,2.68-11.7l4.53.62h0Z"/>
  </g>
</svg>