<?xml version="1.0" encoding="UTF-8"?>
<svg id="Layer_2" data-name="Layer 2" xmlns="http://www.w3.org/2000/svg" viewBox="0 0 310 188.12">
  <defs>
    <style>
      .cls-1 {
        fill: #42322c;
        fill-rule: evenodd;
        stroke-width: 0px;
      }
    </style>
  </defs>
  <g id="Layer_1-2" data-name="Layer 1">
    <path class="cls-1" d="M149.18,129.08l-33.09,2.86c2.78-2.02,2.36-1.33,4.96-3.23,19.95-14.54,80.97-46.5,102.33-29.61-20.25,0-26.6,1.64-42.51,9.44-24.01,11.78-24.95,18.38-31.69,20.54h0ZM234.59,9.37c3.41,2.12-4.79,3.42,5.04,1.28.59-.13,14.9-3.8,10.88-8.16-5.79-6.27-17.53.53-15.92,6.88h0ZM226.96,136.53c-1.88-12.01-5.66-5.71-7.77-3.72,4.57,5.41,1.45,1.64,7.77,3.72h0ZM277.69,128.83c-.57-5.82-1.25-6.49-6.06-6.25-.01.02-4.56.2-.17,5.13,2.13,2.39,3.21,1.09,6.23,1.12h0ZM256.5,129.08c-.45-.26-1.01-.72-1.35-.79-7.19-1.62-5.49-.15-8.21,2.66,4.13,3.12-2.29,4.34,6.61,2.2,5.66-1.36,1.01-.35,2.94-4.06h0ZM153.7,182.1c-.43-6.97-1.02-6.84-7.22-5.41-4.74,5.62,2.02,6.66,7.22,5.41h0ZM204.09,142.38c4.45,6.04,9.16,2.54,11.32-3.06-3.69-.58-3.34-1.42-7.63-.05-3.98,1.27-1.69.61-3.69,3.11h0ZM249.21,13.44c2.15,3.25-2.62,4.39,6.58,2.69,5.29-.98,5.24-1.94,7.98-4.55-4.24-3.2-7.5-6.65-14.55,1.87h0ZM136.98,184.12c.78-7.73-3.11-10.44-8.77-10.61l-2.72,2.2c2.9,3.55,1.68,8.52,11.49,8.41h0ZM118.72,184.87c-2.23-5.74-6.7-11.3-12.71-9.63-1.09,1.43-3.97-2.97-.56,4.87.15.35,5.54,8.94,13.28,4.76h0ZM103.91,188.12c-2.94-9.09-12.15-17.76-19.39-10.54,5.39,5.27,10.97,8.49,19.39,10.54h0ZM292.2,36.65c-1-3.9-5.22-10.05-13.41-9.24.53,5.57,8.47,15.93,12.13,16.36.49-.84,3.46,1.41,1.28-7.13h0ZM67.37,166.38c-8.98-5.58-19.7,7.26-22.11,13.16l3.2,2.69,18.91-15.85h0ZM286.57,67.53c3.68,2.68-2.16,4.01,8.19,2.27,5.68-.96,13.08-4.69,15.24-10.29-8.54-1.1-18.6,1.06-23.43,8.02h0ZM246.44,21.03c.29.28,2.51,3.86,2.84,4.29,18.33,23.39,8.75,22.88,20.05,28.26-2.29-15.46-8.5-31.69-22.89-32.55h0ZM265.26,66.31c.26.51-.05,1.33.03,1.71.07.34.05,1.17.18,1.55,1.57,4.75-3.07-3.3,1.11,2.42,1.2,1.64,2.4,1.7,4.23,2.7,15.83,8.66,17.47,14.04,23.79,16.65,1-11.54-19.8-26.53-29.34-25.02h0ZM183.63,133.86c7.3.8,11.58-3.66,17.64-6.77,2.96-1.52,5.69-2.77,9.27-3.73.99-.26,5.51-1.13,5.76-1.22,4.88-1.72.35.68,3.62-2.39-4.39-6.7-10.64-4.65-21.52.81-7.09,3.56-13.6,6.5-14.77,13.29h0ZM9.49,104.74c2.42,2.58-.91,3.47,9.59,8.95,6.48,3.38,27.83,18.22,32.25,18.25-.89-9.09-29.15-27.83-41.84-27.2h0ZM274.81,60.07c5.32,3.72,20.73-1.6,23.77-8.16-6.64-2.24-10.48-.1-17.07.78-2.03-16.03-5.48-27.01-18.13-29.66,2.83,10.01,5.38,6.65,9.25,16.2,4.63,11.4-.27,8.33,9.59,15.19-7.58,2.64-4.94.41-7.4,5.65h0ZM282.23,114.31c-2.33-28.37-37.97-59.03-51.14-54.96,2.4,3.54-3.58,2.33,6.62,7.34l22.96,16.15c8.24,9.49,10.06,26.11,21.55,31.47h0ZM14.46,130.95c4.38,6.77,13.85,7.66,26.39,14.96-8.5,9.04-26.89,16.52-32.57,26.08,3.86,2.07-2.77,5.25,7.86,1.3l23.53-17.57c12.29-7.94,10.2-2.53,10.45-2.39-7.68,5.52-20.27,11.94-19.55,21.61l4.28.47c.35-.11.89-.38,1.22-.56,3.27-1.72,7.52-12.14,24.29-16.69-2.46-17.75-37.04-32.74-45.89-27.21h0ZM76.57,155.19c3.73,4.23-.08,3.71,7.78,2.8l27.34-6.76c14.39-3.26,28.41-6.02,43.93-2.42-8.85,3.11-17.82,2.71-27.95,5.31-13.11,3.36-21.05,4.09-23.84,10.41,3.97,3.07-3.96,2.33,6.09,2.38l31.92-7.7c29.32-3.71,22.68,6.11,37.1,8.77-.2-11.94-2.28-4.96-6.58-14.24,7.6,3.72,6.57,4.92,12.51,9.06l5.56-3.86c-5.19-14.43-34.16-21.51-56.23-19.28-10.97,1.11-21.61,3.76-31.67,6.22-14.78,3.62-23,3.2-25.96,9.33h0ZM154.06,30.53c2.04-5.42-3.15-1.84,5.89-6.31,19.16-9.48,31.61-13.66,52.87-10.13-2.4-8.23-6.2-9.46-16.93-8.06-16.82,2.19-36.02,9.69-49.91,17.76-4.36-2.11-4.95-3.3-8.98-5.7-10.64-6.34-10.04-1.57-10.84-1.16-.47,6.11,8.58,8.03,14.27,13.31-2.44,1.59,2.34-.62-3.89,2.21-3.87,1.76.21-.02-4.16,1.53-14.15,5.03-36.51,21.02-48.82,15.45l5.76-4.49c11.88-6.51,26.5-12.89,40.31-13.66,4.43-.24,2.53-.03,4.42-1.04-.61-4.38,2.28-6.39-8.54-5.25-17.12,1.8-33.66,12.65-49.35,18.1-7.46,2.59-6.66-5.44-15.63-1.12,6.89,8.74,15.36,10.22,26.88,16.47,12.98,7.04,13.41,22.21,21.45,24.13l.06-12.44c14.54-7.08,33.97-22.67,51.31-22.26,4.38.1,2.67.78,6.66-1.56-.23.56-.63,1.23-.74,1.65-2.12,8.31,4.32,9.3,8.53,17.01-23.77,3.59-60.07,9.36-77.71,26.14-4.29-2.82-20.86-20.32-35.19-31.25-6.13-4.68-14.37-8.82-23.03-10.43-8.08-1.5-21.53-5.18-26.98-2.6,7.76,11.73,40.8-.96,78.92,50.04-3.92,3.61-8.11,7-11.7,10.95-17.46-23.92-33.28-32.41-60.21-40.48-9.58-2.87-8.65-.5-10.13.21,2.41,3.7-1.32.93,4,4.18,10.52,6.43,24.78,7.42,34.99,13.48,9.71,5.76,22.51,20.25,26.48,28.95l-5.19,5.47c-5.55-6.88-57.05-45.76-68.92-33.43,3.81,4.38,1.55,2.46,8.59,4.44,26.09,7.34,40.81,25.91,56.92,30.91-4.13,6.03-6.87,5.65-5.37,14.64,5.44-1.18,8.34-6.69,12.24-11.2,5.58-6.44,4.64-7.1,15.63-6.55-2.28-9.49-2.17-6.04,4.25-12.69,23.84-24.62,47.45-26.84,79.82-32.26,7.08-1.18.14.82,4.59-2.61.88-.68,3.77-2.81,5.35-4.61l9.74,6.87c-10.02,6.15-49.17,15.42-63.36,20.29-14.62,5.02-44.26,19.75-43.72,38.61,10.09.37,15.81-16.32,24.93-22,20.46-12.74,48.19-18.16,71.31-25.69,25.37-8.26,22.95-.59,30.53,2.56-32.03,3.37-40.8,6.52-66.25,19.51-12.05,6.15-24.06,11.26-34.27,19.81-3.41,2.85-3.44,4.29-5.22,6.05-3.9,3.84-7.04,2.57-13.26,7.99,5.92,3.22-3.96,3.17,7.97,1.55.24-.03,4.81-1.35,5.78-1.56,13.55-2.82,28.74-4.58,42.99-4.12,25.28.81,18.56,2.75,35.15,11.88,5.93,3.26,7.42,2.67,12.66.61-1.14-5.01-9.66-8.36-14.68-11.63-6.82-4.44-12.13-5.91-20.64-7.2,7.43-10.3,30.3-20.34,41.86-22.87,14.47-3.16,26.58-1.03,31.86,12.46,3.68,9.4.51,5.99,7.04,8.49.81-1.77,1.2-.53,1.15-3.89-.05-3.39,0-.57-.54-2.73l-6.92-15.68c-14.84-26.91-35.52-29.56-49.24-45.22l8.92-2.76c6.27,7.19.6,3.13,10.1,7.32,4.45,1.96,6.87,3.28,11.15,5.62,39.8,21.73,32.48,46.94,47.29,48.73-.07-6.04-6.23-15.13-9.6-21.15-11.38-20.29-28.95-33.84-52.22-41.51,11.6-8.34,33.63-11.27,45.95-7.66l-1.43-6.48c-15.87-5.72-39.23,5.09-55.09,10.08-9.33,2.93-8.67,3.04-14.27-2.24,5.61-4.8,22.21-11.55,30.8-14.83,17.36-6.64,22.81-8.12,38.53-.62-.85-6.87.85-7.08-5.01-9.73-.15-.07-7.47-1.6-8.91-1.82l-1.34-2.57c-.17-.32-.5-.95-.67-1.27-1.6-3.01,0-.67-2.02-3.6-16.43-2.82-25.98,1.04-39.77,6.01-11.54,4.15-23.84,13.06-35.26,8.67h0ZM97.85,57.24c10.81-5.41,44.75-27.37,56.22-19.17-1.42,4.38,2.45,1.56-5.15,4.89l-19.49,8.51c-8.86,4.26-15.92,9.51-25.52,13.28l-6.05-7.51h0ZM167.26,40.27c2.35-2.7.03-1,3.38-3.4.69-.49,2.91-1.51,3.83-1.93,13.39-6.12,39.02-17.47,51.94-12.18l-8.74,3.23c-2.92.77-4.76,1.26-7.21,2.09-5.1,1.73-10.18,3.69-14.82,5.71-18.12,7.91-21.02,11.48-28.38,6.47h0Z"/>
  </g>
</svg>