<?xml version="1.0" encoding="UTF-8"?>
<svg id="Layer_2" data-name="Layer 2" xmlns="http://www.w3.org/2000/svg" viewBox="0 0 145.33 153.31">
  <defs>
    <style>
      .cls-1 {
        fill: #42322c;
        fill-rule: evenodd;
        stroke-width: 0px;
      }
    </style>
  </defs>
  <g id="Layer_1-2" data-name="Layer 1">
    <path class="cls-1" d="M35.63,121.06c-9.23.22-28.19-2.6-35.63,2.42.99.76,1.93,1.75,3.67,2.69,7.35,3.96,24.88,2.31,32.84,1.98,16.76-.69,24.48,2.92,35.43,3.98-2.18-.01-46.12.39-47.15,7.85-.11.82,25.28-.47,50.55.18,20.86.54,41.5,3.15,48.87,2.77-10.29-6.85-20.1-9.51-40.76-10.51,10.06-.25,20.63-1.41,28.12-.87,11.74.84,22.62,4.1,33.76,3.94-1.56-6.77-4.75-6.55-12.06-8.24-6.04-1.39-10.4-1.54-15.63-2.61,3.57-6.8,9.64-36.6,6.59-43.99-6.82-7.68-13.85-3.97-22.86-6.49l-.08-24.24c.45-.3,1.01-.7,1.39-.86l4.83-1.5c.25-.05,4.67-.24,5.6-.35.59-14.7-40.34-38.61-51.53-47.23l-.92,54.75-3.49.2-10.32-15-11.08-13.2-7.95,10.51c-8.04,14-18.47,21.67-21.4,33.65,1.45,1.65,3.53,3.21,3.72,3.42,7.71,8.7-1.4,29.86,5.43,42.4l25.41-1.25c2.1,3.54,1.74,2.93,3.26,5.48l-8.61.09h0ZM41.58,84.34l.17-7.96c.12-5.61-6.33-9.48-5.73.7.17,2.89-.4,5.67.37,6.67,1.49,1.94,4.65.22,5.19.59h0ZM25.82,77.53c.17,3.14-.1,5.27.58,6.65l5.48-.27c.41-2.43.12-4.84-.23-7.37-1.01-7.38-6.21-7.75-5.84.99h0ZM72,112.12c15.64-.25,7.33-29.83-4.45-20.88,7.77,9.55,4.61,8.2,4.45,20.88h0ZM83.82,43.82c-1,2.11-4.38,2.33-5.27,2.16-3.55-.66-3.79-4.97-1.64-7.13,1.67-1.67,5.25-1.77,6.8.35.97,1.32.33,4.14.11,4.62h0ZM78.52,32.43c-11.94,3.25-9.32,16.51-2.06,18.72,6.55,1.99,11.13-2.03,12.65-6.09,2.41-6.42-1.69-15.05-10.58-12.63h0ZM71.2,151.26c12.17-.03,21.65,1.8,33.47,2.05-4.15-9.32-16.36-9.2-28.29-9.56-6.45-.2-38.73-1.16-41.88,2.41,11.8,5.62,31.49,5.1,36.7,5.09h0ZM68.13,121.79c-6.68-.18-12.07-2.03-16-7.62-14.22-20.47,17.99-43.7,33.9-25.19,10.71,12.47,4.83,33.4-17.9,32.8h0ZM93.04,54.03l3.06,27.92,19.71,2.09c2.07,7.47-2.63,20.39-3.78,30.28l-18.55,1.8c14.19-27.91-10.95-44.8-27.85-42.46-13.28,1.84-28.96,12.94-24.98,35.02l-19.25,1.89c-.82-3.29-4.6-39.71-4.39-44.13,3.23-4.06,14.79-19.41,18.24-27.33,4.76,3.78,10.07,11.75,12.79,17.16-8.41.82-11.72.12-17.39,4.25,4.76,5.43,12.02.96,21.58,1.11l26.03.2c-2.21-6.38-7.21-5.37-10.81-6.67l1.5-42.28c13.33,8.68,21.89,15.63,32.05,25.86-7.81,5.87-8.6.78-7.97,15.29h0Z"/>
  </g>
</svg>