<?xml version="1.0" encoding="UTF-8"?>
<svg id="Layer_2" data-name="Layer 2" xmlns="http://www.w3.org/2000/svg" viewBox="0 0 167.04 209.54">
  <defs>
    <style>
      .cls-1 {
        fill: #42322c;
        fill-rule: evenodd;
        stroke-width: 0px;
      }
    </style>
  </defs>
  <g id="Layer_1-2" data-name="Layer 1">
    <path class="cls-1" d="M74.44,179.81c15.27-2.79,15.53-30.07-6.08-30.96,2.82,9.67,6.88,5.55,8.79,13.44,2.01,8.29-3.01,8.45-2.71,17.52h0ZM22.58,147.3c.81.37-.03,3.65,7.34.68,2.85-1.15,2.85-1.97,4.01-4.5-4.79-3.35-12.75-3.67-11.35,3.82h0ZM58.91,107.64c3.75-6.63,2.71-8.85-1.87-12.11-3.15,2.26-3.9.58-3.64,6.46.31,7.21,2.39,4.9,5.51,5.65h0ZM22.17,135.47c4.91,2.82,9.79,3.12,16,.19-.88-5.08.59-5.68-7.11-5.57-5.39.07-8,1.11-8.88,5.38h0ZM105.54,139.71c1.88-8.41,3.19-14.48-1.86-19.35-5.2,4.77-6.73,15.54,1.86,19.35h0ZM59.86,206.32c4.57,3.58,8.11,2.59,14.27,3.18,2.42.23,11.17-.51,14.53-4.84-2.55-2.55-4.78-3.47-11.07-3.34-6.81.14-14.95.33-17.73,5h0ZM116.36,140.64c1.2-2.16,2.66-4.75,3.13-8.69.78-6.5-.47-7.56-1.86-10.31-11.3-1.29-7.66,16.06-1.27,19h0ZM33.98,198.45c3.61,2.56,3.43,2.28,13.75,3.01,14.25,1.01,13.43-6.66,13.54-6.9-20.73-3.97-26.23-.2-27.29,3.89h0ZM111.24,197.62c.78-1.7-.66-1.29-4.46-3.54-.98-.58-3.48-1.2-4.08-1.33-17.58-3.86-19.94-1.43-21.19,5.16,7.62,2.99,29.06,1.2,29.74-.29h0ZM116.68,163.37c-6.32-.45-25.52,3.03-9.4,7.98,9.3-.13,34.52.98,38.83-1.71-4.55-5.58-17.2-6.52-29.44-6.27h0ZM92.98,44.26c0-.96,1.73-4.11,3.38-4.19,1.14-.05,3.09,2.36,3.32,3.23.13.5.37,1.81-.07,2.62-.6,1.13-2.04,1.75-2.58,1.8-.5.04-2.14-.03-3-.78-.91-.8-1.04-2.3-1.05-2.68h0ZM104.86,42.7c-.27-6.93-5.66-10.73-14.03-5.73-4.91,2.93-6.59,12.17.8,15.04,8.43,3.28,13.59-.25,13.23-9.32h0ZM87.46,174.09c-2.4,7.01-6.58,10.78-17.37,10.53-33.91-.78-22.65-64.85,13.66-37.58,4.71,3.54,6.38,19.27,3.71,27.05h0ZM9.13,117.9l.21-7.18c8.81.57,21.57-1.09,29.43,1.09,1.44.4,1.26,3.35,1.08,4.65-7.98.33-27.15-1.87-30.72,1.45h0ZM102.89,74.1l3.64,35.88c12.02,2.3,11.1-.42,22.56.77-.64-9.84.15-10.8,1.52-15.91,6.84,8.53,17.89,15.6,27.16,25.67l-17.22-.11c-.67,10.96,3.3,19.58,4.7,30.91l-48.71.97c-7.87-27.9-52.25-25.06-55.3,6.82l-30.49.31,7.57-36.62,27.21-.05.09-32.29c.14-.18,9.37-11.13,9.46-11.22,4.05-1.46,7.38.98,8.67,4.84,2.46,7.32.32,20.3.82,25.32l27.69-.65c0-20.87.7-49.75-13.46-59.78,1.07-9.58,10.15-26.55,14.76-35.39,8.71,10,11.07,19.36,21.16,28.87-3.71,9.47-11.82,5.83-11.82,31.67h0ZM53.24,187.61c8.28,1.41,10.08,6.37,24.06,3.69,9.17-1.76,10.45-7.81,18.87-8.54,21.85-1.88,29.36,4.33,34.09-5.59-11.09-2.46-22.59-2.31-34.23-1.2.41-5.01,1.74-9.61,1.22-15.03,27.13-6.02,48.44-.61,55.88-2.11l-2.47-31.74,16.38-.49c-2.23-15.75-18-24.04-23.2-29.28-5.39-5.02-18.97-20.26-22.23-6.4l-.19,10.7-7.41,1.2c-2.95-5.13-1.97-2.02-2.62-9.64-3.93-46.48,7.31-43.4,21.45-49.33-7.32-4.28-13.99-1.76-25.77-23.47-3.15-5.81-5.42-10.4-8.95-15.72-4.53-6.82-3.4-5.89-6.45.9-14.3,31.78-25.09,36.63-32.17,41.06,7.85,6.3,14.56-3.12,22.9,17.16,2.7,6.57,2.74,31.38,1.93,38.42l-13.47-.19c.36-5.71,1.32-17.6-1.16-21.89-2.82-4.88-11.45-10.69-17.13-11.51l-14.87,21.79-.59,15.21-32.28-.28-2.93,7.19c-4.51,14.97-.66,10.86,8.29,13.79-.22,7.91-2.07,14.17-3.98,21.9-.83,3.36-4.52,16.03-3.08,18.27l38.53-.53,1.76,4.65c-19.7,3.29-27.52-.62-30.86,6.06,8.08,6.15,23.81,1.4,34.26.88-3.06,2.75.68,2.24-7.11,3.97-7.99,1.78-13.48-1.49-13.49,7.32,11.05,3.29,16.67-3.01,27.01-1.25h0Z"/>
  </g>
</svg>