<?xml version="1.0" encoding="UTF-8"?>
<svg id="Layer_2" data-name="Layer 2" xmlns="http://www.w3.org/2000/svg" viewBox="0 0 382.42 245.36">
  <defs>
    <style>
      .cls-1 {
        fill: #42322c;
        fill-rule: evenodd;
        stroke-width: 0px;
      }
    </style>
  </defs>
  <g id="Layer_1-2" data-name="Layer 1">
    <path class="cls-1" d="M259.07,91.72c5.37-5.17,3.52-4.52,11.06-8.85,32.25-18.54,31.7-3.96,42.58-.83-3.26-31.67-46.72-5.04-56.98,2.33-13.39-5.51-52.32,14.06-61.17,20.73-5.72-3.55-3.97-4.95-11.52-7.34-4.32-23.8-15.66-10.68-24.9-13.33-5.45-1.57-8.39-3.49-15.13-4.98-29.3-6.48-49.02,2.68-73.48,19.88-7.94,5.59-6.31,8.69-6.31,8.64-.02-.21.19.62.28.92,4.93,1.28,14.47-7.3,19.73-10.94,33.29-22.99,45.22-12.52,74.96-9.19-3.88,12.48-2.32,11.89-8.55,14.21-14.51,5.42-9.8,5.72-12.44,6.7-14.27.28-33.77,8.43-44.76,14.14-6.6,3.43-13.09,6.51-19.29,10.84-13.62,9.51-11.78,11.08-9.18,15.29,4.02-2.33,3.27-3.28,8.01-6.38,2.77-1.81,5.07-3.25,8.13-5.33,12.7-8.62,48.82-27.16,58.25-22.52,2.54,2.76,3.28,4.98,8.18,5.76l-2.23-9.51c6.79-4.74,7.79-2.45,15.82-2.27,3.09-12.03-.7-19.57,12.13-19.74,6.93,8.23,1.48,7.31,6.17,15.92,7.33,1.47,2.7-2.54,7.88,1.92-1.47,6.04-9.34,6.09-4.46,18.23,10.03.45,9.22-9.47,13.86-14.11l38.87-19.58c13.94-4.38,13.02-1.52,24.48-.62h0ZM315.61,35.08c5.23,3.65,20.63,1.05,27.23-1.51,3.81-1.48,5.59-4.61,9.66-6.87,4.88-2.71,11.22-2.04,13.98-5.71-14.47-4.33-25.28,6.05-25.29,6.05-8.85,5.86-20.96-.59-25.58,8.04h0ZM192.3,186.59c7.81-9.93,23.56-52.3,56.64-46.1,8.18,1.53,7.78,9.06,21.57,4.65,15.41-4.93-.47-11.84,52.83-22.41-2.64-10.39-21.34-3.45-30.23-.17-13.3,4.91-17.97,13.62-27.36,16.68-10.38,0-11.51-7.72-28.17-5.31-23.29,3.37-45.56,30.62-47.93,47.96-39.52-10.98-87.61,12.63-83.81,34.64,8.77-2.64,2.38.51,8.31-7.47,23.6-31.78,64.36-21.04,78.14-22.45h0ZM265.75,133.87c10.53-5.59,18.99-20.09,37.94-24.17,8.38-1.8,10.22.43,16.52-.08-.56-21.5-41.91,5.65-45.89,7.27l1.1-4.57c9.07-5.65,20.3-12.62,31.02-14.25,6.43-.97,10.2.58,14.92-2.9-8.72-16.09-45.9,11.32-51.06,13.49-12.28-16.06-44-2.18-57.61,5.25-12.81,7-33.25,22.49-43.33,32.25-26.79-13.3-90.79,17.29-70.53,31.89,5.65-6.63,2.72-8.6,11.3-14.88,19.97-14.62,38.85-16.52,60.7-9.87,3.99-3.38,6.8-4.46,10.33-7.58,23.02-20.35,49.26-44.34,83.43-35.55,1.71,3.28,1.04-.37,1.6,6.35l8.38,2-11.93,7.7c-8.24-3.92-12.07-9.89-25.19-9.06-17.77,1.12-44,20.88-54.53,33.72-3.38,4.12-2.32,5.06-7.31,9.84-22.72.99-35.22-.03-54.7,9.89-12.75,6.5-32.5,17.22-33.5,31.4,7.75-.51,5.91-2.09,10.67-7.39,3-3.34,5.42-5.21,8.69-8.04,6.18-5.35,12.75-8.86,21.02-12.38,7.51-3.2,17.58-6.27,26.18-6.67,9.34-.43,22.82,3.19,28.06-2.47,7.05-7.62,7.87-12.55,16.04-19.13,11.38-9.16,28.06-24.38,44.25-22.42,5.77.7,13.13,7.88,23.43,10.34h0ZM287.07,23.39c-3.82,2.83-10.74,4.29-16.04,6.97-5.52,2.79-9.12,5.79-13.62,7.85-9.34-10.2-11.66-13.7,7.73-11.98-1.39-7.61-3.17-14.25-.13-20.25,5.85,5.88,3.8,8.51,7.07,15.82,11.55-1.87,3.39-4.7,14.26-5.04l.74,6.63h0ZM367.09,16.72c7.96,4.14,9.1,1.55,15.32-4.29-2.62-1.33-11.83,2.83-15.32,4.29h0ZM184.51,70.13c4.21,5.39,8.86,2.73,16.76.7,23.72-6.1,36.6-6.57,48.4-16.72,19.69-16.96,36.73-30.68,58.73-19.94,4.33-6.95-6.79-10.78-15.87-10.81,1.48-13.97-4.01-14.86-16.62-12.83-3.26-11.16-5.08-10.91-15.17-10.27-5.18,6.5-4.58,8.59-4.19,18.46-18.09,1.43-15.11,12.2-3.87,23.05-17.98,24.41-55.78,16.44-68.17,28.38h0ZM323.7,90.48c1.75,3.46,7.55.64,13.91-2.15-2.13-3.86-6.69-2.94-13.91,2.15h0ZM177.98,72.69c-3.69,1.66-7.18,1.95-5.6,4.43.78,1.23,12.79,5.37,5.6-4.43h0ZM362.71,33.96c-4.1-.81-20.63,7.2-11.77,9.09,4.23.9,21.76-7.11,11.77-9.09h0ZM169.59,74.42c-9.78-3.14-11.7,10.73-3.08,5.78,2.66-1.52,4-5.48,3.08-5.78h0ZM340,81.82c2.68,8.88,6.8,1.62,11.12-1.03-1.59-2.67-5.17-2.26-11.12,1.03h0ZM151.43,116.48c2.75,7.66.21,3.03,5.16,9.48,7.78,10.16,9.39,3.7,6.15-3.16-1.77-3.76-5.55-5.54-11.31-6.32h0ZM169.13,124.91c1.3,1.14,3.21,3.14,4.51-1.68,5.19-8.06-5.99-17.42-6.01-17.42-2.59,6.58-2.04,15.53,1.5,19.1h0ZM259.93,156.94c.72,1.64-1.82,6.67,9.55,3.8,6.27-1.58,6.56-2.03,8.09-7.14-4.19-1.53-13.4-1.13-17.63,3.34h0ZM320.19,56.78c7.14,4.28,16.06-1.92,25.03-5.38-3.46-2.89-12.53-1.56-17.12-1.04-6.44,1.92-5.59.96-7.9,6.42h0ZM327.15,77.12c6.39-.42,6.65-1.62,11.13-4.5.37-.24,4.1-2.44,4.13-2.47,2.79-2.44,3.54-2.03,5.29-6.29-8.37-1.49-20.4,2.89-20.55,13.25h0ZM289.33,144.57c2.18,6.3,1.63,5.98,8.42,4.43,3.98-.91,8.33-2.12,11.26-3.3-3.73-8.8-15.7-4.36-19.68-1.13h0ZM171.54,201.1c-4.09-1.88-12.51-1.54-16.58.39-4.03,1.91-3.03,2.56-3.87,3.86,6.8,8.26,2.28-1.48,25.67,2.95-1.52-5.12.71-4.47-5.23-7.2h0ZM209.88,184.38c.45-.2,5.43-10.76,15.24-17.95,11.19-8.21,27.37-13.18,27.64-13.46-12.09-6.69-55.49,16.23-42.88,31.42h0ZM259.07,75.63c.24-.41.52-.97.67-1.27l1.23-2.46c1.48-2.72.23-1.22,1.82-3.14.98-1.18,3-2.46,4.65-3.56,3.94-2.63,7.02-4.64,11.55-6.86,14.83-7.26,14.73-2.67,27.92-2.17-.47-17.25-39.32-6.68-52.11,12.84-14.91.04-68.9,11.83-64.28,24.54,4.77,2.07,7.5-2.58,14.15-5.98,17.93-9.17,33.63-11.99,54.4-11.94h0ZM124.4,125.75c3.35,6.31,4.58,9.33,14.38,9.52-.81-5.88,0-4.88-5.66-7.65-3.1-1.52-4.58-2.05-8.72-1.87h0ZM43.47,128.56c6.72,5.08,14.91,1.67,15.17-6.3-19.17.54-14.6,4.27-15.17,6.3h0ZM75.51,123.28c6.74.41,26.96-12.01,34.13-15.65,19.87-10.07,32.07-7.12,37.32-10.79-7.16-9.32-31.22,1.78-40.55,5.96-9.51,4.26-28.6,11.07-30.9,20.48h0ZM85.14,227.05c8.37,9.49,16.74-4.71,16.75-4.74-1.86-1.24-13.25-.62-16.75,4.74h0ZM0,143.58c6.72,6.91,20.25-2.74,21.12-7.95-7.5-1.18-17.87,1.61-21.12,7.95h0ZM30.69,142.33c3.55,2.66,8.12,1.34,13.86-1.21,4.16-1.85,4.09-2.46,3.83-7.04-2.95.13-6.79.51-9.34,1.38-7.37,2.54-6.76,3.05-8.35,6.87h0ZM66.09,223.71c7.48,7.76,21.23-8.48,21.85-12.32-7.3-2.72-20.03,7.33-21.85,12.32h0ZM18.39,158.23c3.46,1.01,16.54-.79,18.75-7.94-7.29-3.03-22.27,2.27-18.75,7.94h0ZM55.65,194.5c3.83,4.48,7.47.62,13.98-3.01,5.53-3.07,8.47-5.25,10.34-9.8-7.17-4.47-21.67,8.64-24.32,12.81h0ZM32.02,163.61c4.9,5.15,16.44,3.75,19.73-6.34-5.97-.55-16.5.27-19.73,6.34h0ZM34.07,190.1c7.76,3.23,24.92-4.15,28.66-13.91-8.5,1.22-24.96,7.65-28.66,13.91h0ZM52.63,244.79c7.41,2.85,23.24-5.63,26.72-11.9-5.21-2.06-24.94,1.65-26.72,11.9h0ZM112.77,229.66c6.53-2.27,2.99-5.43,15.26-13.46,6.72-4.4,13.39-5.22,18.49-9.67-9.9-6.58-42.14,11.24-33.75,23.13h0ZM40.24,213.45c8.89,5.58,33.43-3.35,36.23-11.82-5.66.27-35.13,9.88-36.23,11.82h0ZM65.97,173.12c7.33.31,7.34-4.94,12.28-10.07,19.41-20.12,36.9-17.22,47.03-22.81-5.22-11.52-14.67-2.67-17.79-1.31-6.65,2.89-11.24,3.02-17.77,7.28-8.59,5.61-23.67,16.45-23.75,26.91h0Z"/>
  </g>
</svg>