<?xml version="1.0" encoding="UTF-8"?>
<svg id="Layer_2" data-name="Layer 2" xmlns="http://www.w3.org/2000/svg" viewBox="0 0 198.38 213.45">
  <defs>
    <style>
      .cls-1 {
        fill: #42322c;
        fill-rule: evenodd;
        stroke-width: 0px;
      }
    </style>
  </defs>
  <g id="Layer_1-2" data-name="Layer 1">
    <path class="cls-1" d="M161.86,65.77c2.15-10.25,10.21-29.43,13.67-39.6,3.89-11.46,5.95-2.47,9.07-13.8,1.38-4.99-.22-7.19-.8-12.37-6.98,1.95-10.19,5.34-13.57,10.81-1.51,6.65,7.61-.88-4.39,30.67-2.26,5.96-7.58,25.7-10.47,28.76-3.97-3.85,2-7.65.09-18.27-7.5-4.94-13.19-3.16-19.23,2.36-1.34,8.97,3.21,8.3-3.92,9.71-.8-1.64-.49-.35-1.02-3.46.22-15.35-19.76-15.52-18.79-3.15l.46,5.93c-7.84,1.12-5.03,1.23-7.09-7.01-4.25-17.01-20.04-5.93-21.38-2.58-.62,10.87,2.54,12.48,3.89,21.78-.69.12-2.53.58-3.16.72L56.89.28c-2.69,1.07-5.26,1.62-8.1,4.76-6.89,7.62-1.43,17.22-10.03,20.9-7.18,2.86-9.21-3.55-17.9-3.52-21.26.06-10.4,25.73-10.43,28.04-.11,8.71-2.55,13.56-9.98,7.38-2.72,5.11,7.37,13.94,17.64,4.5,9.1-8.36-1.2-13.74,2.91-26.43,12.23-1.71,32.89,24.12,38.23-19.47l22.6,60.96c-13.53,5.92-4.44,20.42-1.9,35.31-3.02,1.46-3.66,5.95-8.84,5.58-4.11-5.08-.63-2.46-5.77-4.87l-14.47-44.02-4.74-2.99.24,7.02c0,3.12,11.9,31.12,14.27,42.98l-2.83,3.25c-2.14,2.85.1-1.52-1.68,3.11,1.56.53,7.36-2.05,6.52-1.05-.98,1.17-1.34,2.9-.86,3.13,2.14,1.06,3.77,2.55,5.17,5.59,2.82,6.12-.62,9.63,8.53,8.97l-3.31-13.51c5.98-5.83,8-2.43,11.65-5.56,2.13,12.99,7.38,15.19,7.85,26.84.24,5.96,13.51,47.2,12.56,52.72l-10.76.64c.55,5.35.86,5.5,5.87,7.37,6.41.69,12.48.72,13.4-2.68,2.09-7.73-9.18-40.62-9.8-45.58l7.11,1.24c1.78,8.71-.51,16.52,2.86,24.47l8.74,24.16c3.94,4.02,10.44,5.69,17.15,1.42-.67-8.24-16.52-25.37-16.37-37.28.07-5.65-.79-14.97,2.93-19.33-.17,10.02,6.89,14.03,6.07,24.64-3.69,9.53-11.95,9.85,12.58,9.03l-.38-22.2,3.97-8.94c-.27,10.3-2.48,16.38,1.26,28.11,16.08,3.07,14.94,4.07,16.89-1.08-3.13-3.78-5.01-3.5-10.1-5.24.59-8.68-1.57-27.04-3.19-35.83l10.85-21.84,4.03,2.86c-1.24,6.06-4.21,9.15.19,13.84,5.33-3.98,3.62-7.97,6.37-11.33,3.32-4.05,2.72,1.49,8.88-.55.36-6.34-4.65-1.64-6.8-7.22l22.4-47.58-7.5,5.05-17.37,34.6c-2.8,5.8.99,3.6-3.01,5.65-4.77,2.37-4.05-1.53-6.72-4.3-1.55-1.61.72-4.96.97-7.3,3.02-30.25-10.75-9.96-2.67-21.26l4.31,2.33c6.69-5.15,8.26-18.02,6.98-21.68-1.55.31-7.38-.64-11.49,1.68h0ZM102.77,139.81c-1.94-4.68-1.49-7.05-1.54-13.12-.06-8.23-.89-8.07,1.74-12.01,5.28.04,5.03-1.4,5.75,4.65.79,6.63-.48,17.81-5.95,20.48h0ZM146.78,128.81c-2.83-2.59-4.52-3.43-4.51-9.43.02-9.74,4.62-9.2,5.05-9.38l-.55,18.81h0ZM95.85,134.48c-3.38-2.57-12.13-15.29-1.68-17.8,2.21,3.78,1.5,12.24,1.68,17.8h0ZM151.84,129.64l.39-19.49c2.19,3.09,5.92-2.95,5.91,4.71l-6.29,14.78h0ZM128.65,101.83l10.31,1.49c-1.13,11.34-4.3,17.42-10.73,21.6l-.07-5.56-.05-7.34.53-10.19h0ZM121.54,121.87c-8.36-1.83-10.31-10.45-8.9-20.97l10,1.4-1.09,19.56h0ZM145.97,92.66l12.97.27-.34,11.65-12.77-.8.14-11.12h0ZM107.09,89.85l-1.19,18.29c-6.51-1.62-3.72.48-5.3-5.99-.9-3.67.07-5.01-5.09-3.34l-.07,10.31-6.36,2.1-3.46-17.76c4.29-4.28,13.74-5.06,21.48-3.59h0ZM111.64,77.45l28.1,3.35.09,15.91-9.5-1.71c-1.86-3.13-.62-.09-1.45-3.65-1.05-4.52,1.12-3.11-2.44-7.91-4.44,2.09-3.41-.51-4.08,11.36l-9.94-.77-.78-16.58h0ZM159.81,72.97c2.84-3.53,4.73-3.32,11.29-5.5-1.48,4.9-.45,8.61-3.21,11.47-.63-.36-3.48-1.88-4.43-2.59-2.11-1.56-2.3-1.86-3.64-3.38h0ZM93.8,70.54c1.12-2.28,4.58-3.64,7.3-5.05-.31,6.09-.57,5.58-3.99,8.74-3.11-1.68-1.93.03-3.3-3.69h0ZM149.11,61.41c-5.32.36-4.83.46-7.48-2.2.14-5.78,3.02-5.93,8.13-3.78l-.65,5.98h0ZM124.89,54.85l-.77,14.47c-4.44-2.5-3.14.78-5.48-5.64-.99-2.72-.65-4.27-.51-6.69.27-4.69,1.17-2.97,6.76-2.14h0ZM91.18,63.65c-1.05-7.54-.23-12.51,7.53-8.84,1.89,5.03,1.92,2.89-1.68,5.72-2,1.57-3.69,2.23-5.85,3.12h0Z"/>
  </g>
</svg>