<?xml version="1.0" encoding="UTF-8"?>
<svg xmlns="http://www.w3.org/2000/svg" version="1.1" viewBox="0 0 665.5 441.3">
  <defs>
    <style>
      .cls-1 {
        fill: #594b39;
      }
    </style>
  </defs>
  <!-- Generator: Adobe Illustrator 28.6.0, SVG Export Plug-In . SVG Version: 1.2.0 Build 709)  -->
  <g>
    <g id="Layer_1">
      <g id="Layer_2">
        <g id="Layer_1-2">
          <g>
            <path class="cls-1" d="M397.5,114.1c-3.6-2.5-6.9-5.8-10.9-7.4-2.8-1.1-6.4,0-12.9.5,8.7,6.3,14.3,10.4,19.9,14.5-.3.9-.5,1.9-.8,2.9-11.9-1-23.8-2-35.6-2.9-2.3,4.9-4.5,9.8-7,14.7-.1.2-2-.5-3.1-.8-4.4-21.2-6.5-22.8-26.9-19.8.3,3,.6,6,1.1,10.2-3.2-.8-6.3-1.6-10.9-2.8,1.1,5.1,1.9,8.8,2.7,12.6.8,3.8,1.6,7.5,2.6,12.1h-9.5v15.4c-6.2-8.2-10.5-13.9-15.3-20.1-6.8,4.1-13.7,8.3-22.4,13.6,4.1,4,8.2,7.9,12.2,11.8-4.4,1.3-8.7,2.5-13.4,3.9-2.9-5.2-5.9-10.5-9.2-16.3-9.4,8.6,7.1,14.8-1.2,25.3-2.2-4.8-4.2-9.3-6.2-13.8-1.3,1-2.5,2-3.8,3,1.2,3.3,2.5,6.5,4.3,11.4-5.9-1.1-10.6-1.9-15.8,2.6-9.5,8.4-20.8,14.8-31.9,22.4,3.3.9,6.3,1.7,9.6,2.5-1,.7-1.8,1.9-2.4,1.7-16.8-2.9-26.8,8.4-38.2,17.9v11.5c-14.4,9.6-33.7,12.7-43.7,30.6,5.4,1.9,10,3.6,15.7,5.6-.7,5.6-1.5,9.5-9,11-13.1,2.6-25.9,6.5-38.7,10.5-12.3,3.9-20.3,11.8-20.6,25.5-.2,10-4.6,16-14,20.5-9.2,4.5-18.7,10.3-22.7,21.2,13,3.5,15.3,2.5,38.2-16.1-4.2,15.8-20.1,26.1-42.2,27.2-17.4.9-28.4-7.4-35.8-27.7,13.5,1.7,14.7,20.7,30.1,19.2,5.3-17.2,18.3-28.4,34.8-36.5,1.7-14.3,4.1-29.5,16.9-36.9,11.7-6.7,25.9-9.1,39.4-13.5-.3-4.3-3-11.3-.6-14.1,5.9-7.1,13.7-12.9,21.5-18.1,6.4-4.3,13.8-7.1,19.6-9.9,4.4-10.5-7.4-20,1.4-28.5,6.4-6.2,13.5-11.6,20.4-17.5,2.6,2.7,4.8,5,8,8.3,18-7.8,34.2-17.7,43.4-36.2,5.6-11.4,14.8-18,26.3-22,12.1-4.2,22.8-9.6,32.2-19.4,13.6-14.1,30.3-22.6,51.7-15.5,5.8,1.9,13.8-1.9,20.5-3.8,9-2.6,17.6-7,26.7-8.6,21-3.7,39-13.1,56.1-25.2,8.7-6.2,17.4-12.3,26.6-17.6,8.2-4.8,13.9-11.1,15.8-20.6.2-1.1.5-2.2.8-3.3,7-21.5,16.4-24.9,34.9-13.9,13.7-5.3,26.2-11.5,39.5-15.1,11.1-3,22.5,7.2,19.8,17.8-2.6,9.9.6,17.2,4.5,25.2,1.7,3.4,1.7,7.6,2.4,11.4-1,.5-2.1,1-3.1,1.5-3.5-2.5-6.8-5.1-10.4-7.3-3.8-2.3-7.8-4.3-12.6-7-4.4,3.1-8.8,6.2-13.9,9.9,2.2,5,4.3,8.8,5.6,13,1.2,4,1.7,8.2-.3,14.4-4.3-2.9-8.5-5.9-12.8-8.8-5.4-3.7-9.8-2.9-14.9,1.7-10.2,9.2-15,20-11.8,33-2.3,1.1-3.7,2.2-4.3,1.9-9.4-5.5-16.6-5-23.8,4.7-4.7,6.4-12.8,10.3-21.2,16.7-1.7,4.5,11.6,10.9,1.1,19-3.5-2.6-7-5.1-10.4-7.7-7.1-5.4-14.3-8.8-22.9-2.3-1.9,1.4-5.6,2.2-7.6,1.3-9.1-4-12.1,2.6-15.5,8.3-1.4,2.3-1.4,5.4-2.4,8-5.5,14.9-11.1,29.9-17.5,46.7,16.3-15.2,31.8-29.8,48.2-45.1,2.1,1.3,4.6,2.4,6.5,4.2,17.1,15.8,16.3,26.8-2.1,42.2-10.2,8.5-19.4,18.1-28.1,28.5,10.4-.6,18.6-5.8,25.7-12.1,12-10.8,23.6-22.2,34.8-33.8,5.7-5.9,11.2-5.5,18.2-3.4,13,3.9,18.2.7,17.8-12.6-.2-6.9,1.6-10.5,6.4-12.9,8.2,4.8,16.3,13.2,23.8,12.8,9.6-.5,18.8-8.2,28.3-12.9v-28.9c6.7,3,11.8,4.7,16.3,7.4,15.5,9.4,31.6,1.4,33.6-17,1.1-9.5,3.7-17.1,7.9-22.7,2.9,6,5.3,11.1,8.1,16.8,3.4.7,7.2,1.2,10.8,2.4,8.7,3.1,13.9,9.2,14.8,18.6.8,9,1.8,17.6-8.6,23-14.3,7.4-27.7,16.5-42.2,23.5-15.2,7.4-29.4,16.1-40.7,28.7-12.8,14.3-30.6,20.4-46.2,30-.9.6-2.3,1.3-3.1,1-16.6-6.7-25.2,6.3-33.9,15.3-30.1,31.3-68.7,45-109.2,55.1-7.8,1.9-13.3,4.3-18.7,11.4-10.5,13.7-23.4,25.6-35.6,37.8-3.5,3.5-8,7.8-15.8,2.8,8.9-7.7,17-14.1,24.1-21.3,6.9-6.9,12.8-14.8,21.1-24.5h-34.3c2.4,5.1,4.4,9.3,5.6,12-8.4,11.6-16.4,22.6-24.4,33.7-1.1-.7-2.3-1.3-3.4-2,2.7-4.4,5.4-8.8,8.9-14.4-12.4-3.3-19.3,2-25,10l.4.3c-4.9-6.5-9.8-13-16.2-21.6,0-16.1,4.6-22.1,24.8-28.1-7.8-15.6-26.6-27.2-17.8-49.7,19.8-2.9,36-14.6,52.5-26,18.7-12.9,37.8-25.4,56.3-38.6,8.8-6.3,14.4-15.2,17-26.1,2.1-8.6,5.1-17,7.8-25.5l-.3.2c3-6.1,6.1-12.3,9.4-19,2.5,0,4.5,7.1,10,1.8,2.1-2,8.2,0,12.9.2,2.9-8.2,6.4-17.9,9.8-27.3,8.7,1.2,15,2.1,21.1,3,.3,4.6.6,8.7,1,15.2,14-7.5,1.3-21.1,10.5-29,1.4,5.4,2.6,9.9,3.8,14.4,1,.2,1.9.4,2.8.7,2.8-7,5.7-14.1,8.4-21,1.8,1.5,3.5,2.9,6.4,5.4.8-4.9,1.4-8.8,2-12.8,2.4.7,5,1.9,5.3,1.5,1.9-2.9,2.7-6.9,5.2-9,1.4-1.1,5.6,1.8,8,1.1,3.6-1.1,6.7-3.8,10-5.8,1.8-1.1,5.4-2.1,5.3-3-.5-10.9,10.4-12.2,15.3-18.4,5.5-7,12.3-6.9,19.3-1.8.4.3,1.7-.5,2.6-.8-2.3-3.6-4.5-7.2-6.5-10.2,3-4.4,5.3-7.9,7.7-11.4-13.3-8.2-25.9-7.7-36.6,3.8-8,8.6-15.1,7.7-23.8,3.2-2.8-1.5-5.7-2.9-8.2-4.2-5.3,5.3-17.1,29.1-16.6,34.5.2,2.2,3.1,4.1,4.7,6.1-26.7,19.1-59,27.2-87.5,42.9,1.9,4.2,3.4,7.3,5.8,12.6-7.4-4.4-12.5-7.5-19.3-11.6.7,6,1.1,8.7,1.4,11.4l-.9.8h0l.4.6ZM297.6,275.4c-2.3,4.1-9.3,5.6-7.3,14.9,11.2-8,20.9-14.8,30.6-21.7,1.8,2,3.7,4,5.1,5.5,8.7-3.7,16.8-7.2,28-12-4.4,6.9-7,10.9-10.4,16.3,8.1-.2,10.8,3.7,9.4,13.4,11.9-10.5,21.2-18.6,30.9-27.1,7.6,9.6-3.6,13-6.4,17.8-3.4,5.9-10.9,9.4-17.2,14.3,23.7-1,35.4-24.1,57.3-27.9-2.1,3.5-4.2,7-8.2,13.8,16.2-8.8,28.7-15.6,41.2-22.4,2.5,3.6,5.2,7.4,8.1,11.6,13.1-15,25-28.7,36.9-42.4,2.5,1.9,4,3.9,5.1,3.7,15.5-2.8,32-3.1,45.2-12.6,6.5-4.7,13.9-11.8,15.3-18.9,2.2-11.2,9.2-14.3,17.7-17.4,12.6-4.6,25.2-9.3,37.8-13.9,1.1-1.1,2.3-2.2,3.4-3.3,8.8-.7,13.8-5.6,16.8-13.8,2.4-6.7,6.4-12.8,9.7-19.1,1,.4,2,.9,3,1.3-.8,5.3-1.5,10.6-2.5,17.4,12.2-10.4,12.6-14.9,5-26.1-7.6-.6-14.2-1.2-20.8-1.7-12.5,16.7-25.6,32-49,36.7-13.6,2.7-26.7,10.8-32.4,26.3-1.8,4.9-6.6,8.8-10,13.1-1.3-1.1-2.5-2.3-3.8-3.5,6.2-4.3,9.5-10,10.1-19-5.5,1.8-9.5,3.1-13.8,4.5,1.5,5.5,2.8,10.1,4,14.7-5.2,2.7-10.4,5.4-15.7,8.1-1.3-4.7-2.3-8.4-4.2-15.3-4.6,8-7.5,13.1-11.5,20.2-1.1-6.9-1.7-11.1-2.8-18.4-4.1,9.4-6.8,15.6-9.5,21.8-.7-.3-1.5-.6-2.2-.9,1.4-7,2.7-14.1,4-21.1-1.2-.7-2.4-1.4-3.6-2.1-3,2.5-6,5.1-9,7.6l.3-.3c-7,4-9.3,10.1-10.5,17.9-.8,5.4-3.6,12.7-7.7,15-10.4,5.6-20,12.3-30.6,18.2v-12.7c-11,5.5-20.1,10.4-29.6,14.7-3.9,1.8-8.4,3.1-12.6,3-9.9-.2-19.9-2.3-29.8-1.8-13.1.7-23.6-2.4-29.1-15.5-11.4,7.3-21.4,13.8-34.6,22.3,8.1,0,13.4,0,9.8,6.9-4.9-.5-9.7-1.1-14.6-1.4-8.4-.5-11,3.1-9.7,13.8,4.8-.8,9.5-1.7,14.2-2.5h.2ZM436.5,176.6c-5.4,6.1-11.1,10.3-13.6,16-3.9,8.7-12.7,2.9-17.9,8.2-16.5,16.5-35.4,29.8-57.9,39.3,28,16.8,93.5-19.7,89.5-63.4h-.1ZM306.9,317.1c-.2-1.6-.4-3.2-.6-4.8-7.9,1.1-16.2,1.4-23.7,3.9-3.4,1.1-5.3,6.8-7.9,10.4l2.6,2.6c9.9-4,19.7-8.1,29.6-12.1ZM278.9,338.5c8.3,8.5,15.2,3.4,22.6-1.1-6.9-10.7-10-10.5-22.6,1.1ZM351,227.8c17.3-3.5,26-9.7,31.6-22.6-12.3,8.8-21.9,15.7-31.6,22.6ZM437.2,199c10.2-5.7,15.1-9.9,16.7-16.1.6-2.5-1-5.6-1.9-10-5.5,9.6-9.9,17.3-14.8,26.1h0ZM331.2,287.6c-10.5,3-17.5,6.4-24.5,13.1,12.7,4,17.9-2.8,24.5-13.1ZM319.5,327.7c-3.3-7.6-8.3-7.8-13.2-3.8-1.2,1-.7,6.9.9,8.2,6.3,5,9-.6,12.3-4.4h0ZM582.9,138.9c-3.8,7.3-5.1,12.1,1.7,13.9,2.3.6,5.4-1.9,9.9-3.6-4.4-3.9-7.3-6.5-11.5-10.3h-.1ZM526.9,168.2c-2,2.6-3.5,4-4.1,5.7-.2.5,2,2.8,2.8,2.6,1.9-.3,3.6-1.6,5.3-2.5-1-1.5-2.1-3-4-5.8h0ZM447.9,120.8c1.1.6,2.2,1.2,3.3,1.7,1.1-4.5,2.2-8.9,3.3-13.4-.8-.2-1.5-.5-2.3-.7-1.4,4.1-2.9,8.3-4.3,12.4h0Z"/>
            <path class="cls-1" d="M234.4,248.1c.7-9.6,15.6-15.7,2.3-25.2-13.3,6.4-9.8,18.3-7.9,31.1-9.9-6.1-9.3-13.7-7.3-21.3,2.7-10.3,9.5-16.1,21.7-16.2,2.6,4.1,5.6,8.6,9.6,14.8,4.8-5.2,9.3-9.7,13.4-14.7,8.1-10,17.3-19.4,23.6-30.5,9.7-17.1,25.2-22.9,42.5-28.6,17.9-5.8,35.5-7.3,56.3-4.2-2.8,4.2-4.5,7.9-7.2,10.6-12.6,12.4-25.3,24.8-38.4,36.7-8.2,7.4-19.1,6.8-28.5,4.7-7.7-1.7-12.7-.6-18.3,4-7.4,6-14.8,12-22.7,17.2-7.1,4.7-12.5,12.1-23.2,11.6-4.6-.2-9.6,5.8-15.9,10.1h0ZM326.7,192.8c0-1,.1-2,.2-2.9-5.8-3.1-11.7-6.3-18-9.7-3.9,5.6-7,10.2-10.9,15.8,11.3-1.3,20-2.2,28.7-3.2h0ZM352,176.6c2-4.8,5.3-8.8,4.6-11.9-1.3-5.7-6.8-4.3-10.9-2.8-1.8.6-3.1,2.4-5.6,4.4,4,3.4,7.1,6.1,12,10.3h-.1Z"/>
            <path class="cls-1" d="M223.3,258.6c-8.8,5.1-11.2,13.2-11.2,23.4,8,3,13.6-3.7,22.1-3-5.8,4.6-11.6,9.1-18.1,14.3,15,3.5,22.5-1,28-17.4,3.6,4.3,6.3,7.6,9.4,11.3-6.9,9.5-14.4,16.2-26.1,16.9,4.3,11.2,12.6,15.4,24.7,12.4v-16.5c6.9,6.5,9.3,13.6,4.9,24.1-9.8-.5-19.9-1-30.1-1.5l.2.3c-7.1-10-14.2-20.1-22.2-31.5-5.3,5.1-10.3,10-15.3,14.8l.4-.3c-4.1-.9-9.7-.3-11.9-2.8-9.4-10.6-17.9-22-28.1-35,5.5-4,9.2-6.6,12.9-9.2-2.8,9.9-1.5,18.3,10.4,25,2.2-4.5,6.3-8.8,5.6-12.2-1.6-8-6.7-14-16.5-12.5,3.3-3.4,6.6-6.9,10.9-11.3,5.7,10,10.4,18.1,14.9,26.1-7.6,10.4-8.2,19-2,25.8,5.5-5.1,10.9-10.2,17-16-4.1-6.7-7.4-12.4-10.9-17.9-9.3-14.2-6.4-25.3,8.9-32.3,2.4-1.1,5.3-1.4,7.7-2,4.9,9.4,9.5,18.4,14.2,27.4l.3-.3h0ZM203.2,238.9c-9.3,9-10.6,16.5-3.9,22.6,3.3-2.5,6.7-5,10.9-8.2-2.2-4.6-4.2-8.7-7-14.4h0Z"/>
            <path class="cls-1" d="M226.8,322.5c1.2,2.5,1.9,5.7,3.8,7.5,5.2,4.8,10.9,9,16.4,13.4-1.7,2.9-2.4,4.3-3.2,5.7-10.7,18.8-32.5,18.2-48.7,27.2-3.9,2.2-10.7.4-15.8-1.1-4.6-1.4-8.7-4.9-13.8-7.9-9.2,8.2-18.7,16.3-32.5,13-11.8-2.8-21.1-8.9-27.2-20.7,3.6,1.6,7.4,2.8,10.6,4.9,22.8,15,31.8,13.5,47.1-7.9.6-.8,1.9-1,2.6-1.4,7.3,5.6,13.8,13,21.9,16.1,4.7,1.8,12.1-3.2,20.1-5.8-4-5.1-6.6-8.3-9.4-11.9,5-5.7,10-11.4,16.7-19.1-14.6-6.3-27.6,7.3-40.6-1.7,5-9,10-18,15.1-27l-.4.3c5.4,1,12.2-2,15.4,5.9.9,2.2,9.2,11.9,9.4,13.6,4.2-.9,8.5-1.9,12.7-2.8l-.2-.3h0ZM235.8,342.5c-12.1-7.5-19.2-4.4-23.3,9.1,7.9.9,15.7-2.1,23.3-9.1ZM206.3,324.5c-15.9-10.6-16.2-10.5-20,5.7,6.2-1.8,11.4-3.2,20-5.7Z"/>
            <path class="cls-1" d="M248.5,397.7c8.8,29.9,38.2,41.3,60.3,12.9,2.8,9.2-.5,14.2-8,17.6-19.1,8.6-34.9,5.5-50-9.8-1.6-1.6-3.2-3-5.6-5.3-15.8,10.9-32.7,20.2-52.5,14.1-9.8-3-15.6-11.6-17.5-23.2,7.2,5.7,13.7,14.3,21.8,16.4,8.9,2.3,20.4.9,28.9-2.9,8.4-3.7,14.6-12.5,22.7-19.9h0Z"/>
            <path class="cls-1" d="M417.5,424.4c3.3-9.5,5.8-16.7,9.2-26.4,3.2,4.6,4.7,7.2,6.7,9.4,7.3,8.3,14.4,16.7,22.2,24.5,5.4,5.4,11.7,2.4,17-.9,6.3-4,12.3-8.6,19.3-11.5-6.9,12.1-17.8,18.9-30.8,21.7-3.3.7-8.1-3-11.6-5.5-6.6-4.9-12.7-10.5-20.2-16.8-10.6,19.9-25.7,9.7-39.1,7.6-10.3-1.6-12.9-5.6-17.5-21.5,8.5,6.2,14,11.9,20.7,14.7,7,2.9,15.1,3,24.1,4.6h0Z"/>
            <path class="cls-1" d="M283.6,356c7.1,6.2,13.4,13.7,21.4,18.2,16.3,9.2,29.2,5.8,41-9.1,1.7-2.1,2.1-5.2,3.2-7.8.8,1.3,1.6,2.6,2.5,4,5.3,5.8,9.7,13.1,16.1,17.2,10.1,6.5,15,4.9,23.3-4.3,7-7.7,13.8-15.6,22.3-25.3,1.8,9.2-3.3,11.8-6.1,15.3-3.5,4.3-7.3,8.5-11.1,12.6-13.1,14.5-17.9,15.3-34.7,5.9-4.3-2.5-8.4-5.4-12.5-8-26.7,15.2-51.6,11.8-67.5-8.7-3.8-4.8-3.6-8,2.6-9.8l-.4-.3h0Z"/>
            <path class="cls-1" d="M563.9,375.3c-14.2,5.6-28.4,12.1-43.2,2.3-25.5,16.2-45.6,11.6-66.8-14.8,2.6-4.8,5.3-4.2,9.1-.8,5.8,5.2,11.5,10.9,18.3,14.4,16.1,8.6,24.4,5.8,34.9-9.4,1.4-2,3.9-3.3,6.2-5.2,7.1,3.9,6.8,16,17.5,14,7.6-1.5,15.4-2.5,23-3.8.3,1,.6,2.1.9,3.2h0Z"/>
            <path class="cls-1" d="M53.5,400.3c2.4,2.7,5.3,5.2,7.1,8.3,6.5,11.1,16.1,14.9,28.5,12.9,2.2-.4,4.5-.8,6.7-.6,9.8.8,15.9-3.2,18.3-13,.6-2.5,2.3-4.7,3.8-7.5,5.3,9.7-.6,23.7-10.8,25.3-10.4,1.6-21.3,2.2-31.8,1.4-12.9-1-21-10.5-21.8-26.8h0Z"/>
            <path class="cls-1" d="M164.1,310.3c-17.1,16-25.2,19.1-41.6,16-1-15.5,10.4-24.1,20.2-36.4,7.6,7.3,14.5,13.8,21.4,20.4ZM130.8,320c13.3,1.1,13.4,1.1,23.6-9.7-8.9-8.9-10.6-10.2-14.4-7.8-6.3,3.9-10.5,9.4-9.2,17.5h0Z"/>
            <path class="cls-1" d="M102.5,324c-2,5.8-4.5,11.5-5.9,17.4-1.4,5.8-1.6,11.8-2.7,20.5-10.3-17.3,4.6-30.8,0-45.3,9.2-3.5,14.4,1.1,21.3,7.4h-12.7Z"/>
            <path class="cls-1" d="M223.1,258.9c6.1,2.1,12.3,4.2,20.6,7.1-13.5,4.5-13.9,4.3-20.3-7.3l-.3.3h0Z"/>
            <path class="cls-1" d="M304.1,229.9c-5,.9-10,1.9-17.5,3.2,5.1-10.7,11.7-6.9,17.1-7.5.1,1.4.3,2.9.4,4.3h0Z"/>
            <path class="cls-1" d="M408.3,140.5c-1.6-1.9-4.9-4.3-4.5-5.6,2.6-8.6-2-14.6-6.3-20.8l.9-.8c6.5,1.9,9.8,5.9,9.4,12.9-.3,4.8.1,9.7.2,14.5l.3-.2h0Z"/>
            <path class="cls-1" d="M394.1,157.2c.3-4.7.6-9.4.9-14.1.8-.2,1.5-.4,2.2-.6.5,1.6,1.5,3.1,1.4,4.6-.3,3.5-1.1,6.9-1.8,10.4-1-.1-1.9-.3-2.9-.4h.2Z"/>
            <path class="cls-1" d="M616.8,170.4h-10.8c7.3-9.9,13-17.5,19.2-25.7,10.8,11.3-1.6,15.7-5,22.3-1.1,1.1-2.3,2.2-3.4,3.3h0Z"/>
            <path class="cls-1" d="M321.1,268.8c-8,2.3-16,4.6-23.9,6.9,3.4-3.5,6.8-7,10.1-10.4,5-.2,11.2-5.1,13.8,3.6h0Z"/>
            <path class="cls-1" d="M482.1,197.7c1.4.7,3.8,1.3,3.9,2.1.8,8.3-2.9,14.9-8.7,20.9,1.7-7.8,3.4-15.5,5.1-23.3l-.3.3Z"/>
            <path class="cls-1" d="M523.4,36.3c-4.2,2.1-7.7,3.9-13.5,6.8.9-4.3.8-6.5,1.8-8.1,3.5-5.6,7.2-6.3,11.7,1.2h0Z"/>
          </g>
        </g>
      </g>
    </g>
  </g>
</svg>