<?xml version="1.0" encoding="UTF-8"?>
<svg id="Layer_2" data-name="Layer 2" xmlns="http://www.w3.org/2000/svg" viewBox="0 0 245.03 199.38">
  <defs>
    <style>
      .cls-1 {
        fill: #42322c;
        fill-rule: evenodd;
        stroke-width: 0px;
      }
    </style>
  </defs>
  <g id="Layer_1-2" data-name="Layer 1">
    <path class="cls-1" d="M60.58,47.54l7.01-12.14,4.78,6.04c7.11,9.29,21.1,13.72,26.25,24.07,2.99,6.02,4.64,7.84,7.15,13.75l-9.18,6.19c-.34,5.26,6.7,28.39,17.5,28.62l-9.36-25.42c5.49-1.63,6.31-4.27,10.18-7.05-3.39-19.76-23.14-17.36,5.4-32.42,9.75,4.76,8.24,3.77,18.29.32l-4.93,28.18c15.43-5.53,9.57-43.25,28-63.58,3.66,8.76,9.74,21.23,12.4,30.04,2.65,8.76,4.98,25.74,13.39,29.26,3.76-6.43-2.14-14.16-3.72-22.34,9.19-4.09,9.56-8.97,17.04-12.65,14.2,21.13,10.35,12.3,33.08-.14-1.5,7.58-1.05,15.36-5.33,35.44-1.39,6.5,0,18.8,2.08,27.7,1.14,4.87,2.96,6.71,3.53,10.71-17.23,4.04-18.28,5.68-29.88,11.11-19.85-6.15-31.98-2.25-39.21,11.9-5.37,10.52-.86,12.52-11.92,17.92-8.92,4.36-11.08,6.44-17.88,12.03-15.78-8.19-20.63-25.49-44.38-11.86-19.23-18.54-25.32-11.81-54.47-6.36-8.98-6.38-13.9-10.25-23.46-14.44,2.32-17.77-2.48-29.69-4.71-46.28l19.99,12.51c6.78,4.56,6.17,13.47,15.5,15.72-.05-8.32-5.1-13.86-9.13-18.32l-1.86-63.88c3.06,1.45,18.12,14.28,20.57,17.16,9.17,10.79,5.91,18.86,17.82,23.06-2.05-11.6-6.26-16.47-10.52-24.84h0ZM190.02,179.59c.63,1.6-1.81,6.42,14.55,5.86,17.57-.59,13.77-3.85,15.14-6.77-5.58-.74-26.71-1.96-29.68.91h0ZM194.92,99.8c2.8-6.65,1.47-11.5-3.73-14.56-3.77,6.63-2.52,11.68,3.73,14.56h0ZM181.87,108.73c5.09-5.24,5.19-12.73-1.86-16.66-1.21,2.12-2.43,2.78-1.48,9.01.7,4.62,1.38,5.02,3.35,7.64h0ZM137.79,151.38c7.58-4.06,6.3-8.5,5.01-17.82-7.23,3.59-6.68,8.91-5.01,17.82h0ZM110.75,197.53c3.46.96,4.19,1.35,9.14.82,9.22-.99,6.26-1.42,7.92-5.77-6.35-1.94-14.21-2.97-17.06,4.95h0ZM206.71,76.67c4.84-1.86,8.14-7.16,8.48-12.71.84-13.78-10.56-.49-8.48,12.71h0ZM31.58,112.02c-3.8-5.5-2.83-5.93-10.82-7,1.5,8.51,8.83,12.93,12.94,17.86,3.87-4.43,1.62-5.46-2.12-10.86h0ZM214.47,162.5c3.79,3.98,1.92,3.94,10.32,3.09,7.03-.71,5.91-.93,8.82-4.28-4.89-5.27-17.39-5.45-19.14,1.19h0ZM92.34,125.56c3.5-7.16.94-20.66-5.59-23.98-4.33,6.32-.11,21.4,5.59,23.98h0ZM124.05,76.87c5.13-3.76,8.63-12.76,8.31-20.86-7.1-1.26-6.56.08-8.25,6.57-1.64,6.27-2.92,10.01-.07,14.29h0ZM175.12,82.91c3.1-13.15-7.69-34.58-8.17-18.61-.23,7.47,2.12,15.98,8.17,18.61h0ZM148.3,145.54c5.84-3.94,8.32-15.6,8.73-24.72-6.77-.08-6.23,2.85-8.44,11.01-1.53,5.68-3.36,9.25-.29,13.7h0ZM61.55,80.08c1.28-6.54-.69-6.55-3.34-13.33-2.8-7.14-1.82-8.43-9.31-10.24-1.18,9.38,5.26,20.44,12.66,23.57h0ZM220.92,95.75l3.29-29.53c.17-5.29-3.58-8.08-5.74-2.76-.68,1.67-.77,2.79-1.08,4.59-.51,3.04-.78,7.2-1.1,10.35-1.03,9.92-2.76,13.29,4.63,17.35h0ZM81.98,97.9c-1.05-10.24-2.67-12.7-10.84-14.8l2.51,9.52-5.68,3.42c-.42,9.32,3.83,26.24,11.3,30.64.85-1.61,4.03,1.62-.12-11.8-1.28-4.15-2.01-7.12-3.26-11.38.29-.3.75-.67.93-.84l5.14-4.76h0ZM154.97,102.71c-4.04-6.46-1.27-5.4-8.54-6.91-5.52,5.68-6.46,21.24-5.06,31.48,7.38-3.03,6.4-16.31,6.72-16.97,2.92-6.03,7.51,14.13,15.25-10.49,1.82-5.79,3.87-10.39,4.32-17.16-9.76,2.04-9.47,10.6-12.7,20.04h0ZM131.51,44.33l-12.91-4.38-18.68,14.75c-6.1-3.05-21.05-16.88-23.48-21.02-3.56-6.07-.26-5.75-6.48-10.53-6.75,3.41-11.23,11.36-14.1,17.58-5.94-3.16-10.46-7.3-14.06-11.7-2.35-2.87-3.32-4.71-5.76-7.25-3.96-4.11-2.25-3.71-8.57-3.56-5.11,15.22,1.4,50.48-.45,70.74-19.01-8.84-32.89-35.5-24.53,7.21,11.7,59.72-7.73,31.14,15.47,48.36l.94,22.08c-1.62,0-6-.42-6.88-.37-8.69.48-9.66,3.72-1.45,5.93,3,.81,7.74,1.14,10.88,1.29,8.01.38,14.39.98,19.35-2.82-5.21-4.34-5.44-3.29-15.73-3.05l1.02-18.75,6.93,6.28c3.13-.47,6.23-1.21,9.04-1.77,6.76-1.34,5.2-.84,8.15.49l2.39,32.23c-2.58-.68-4.05-2.19-6.84-2.81-7.26-1.61-26.65-9.1-32.68,2.34l12.77-.74c10.68,2.83,4.07,1.19,10.56,6.16,12.44-.95,17.81,4.49,28.94,6.56,2.49.46,32.74,1.86,36.44,1.78-1.91-5.48.07-4.76-7.13-6.72-3.05-.83-8.36-1.55-11.54-1.87-11.15-1.11-12.28,1.24-23.29-2.52-.69-12.37-2.75-32.96-.24-39.02l16.04-.43,14.87,15.01c6.9-3.43,5.69-7.67,15.82-8.04l.47,23.2c-9.12,1.18-12.94-2.18-15.74,4.93,5.88,3.58,29.51,2.86,36.63.33-1.24-4.54-9.78-2.12-13.39-4.92l.11-18.94c11.39,4.75,12.11,10.86,20.85,14.63,6.77-4.93,9.59-10.03,19.06-13.76l.72,13.79c-8.2,3.49-10.93,1.85-14.01,10.28,6.38,2.19,16.52-3.66,25.12-6.11,10.56-3.01,23.02-2.03,26.56-10.12l-30.6,2.87c-.99-21.86.23-11.32,4.53-18.42,2.8-4.63,3.84-20.2,14.91-24.02,1.84,10.72,1.06,19.45,1.07,23.26-4.51,3.68-10.54-.02-11.36,7.89,9.67,1.19,28.46,2.12,33.98-4.09-5.18-3.94-8.13-4.49-15.62-4.03l-1.14-24.56c13.16.89,13.24,4.1,20.87,2.65,2.68-.51-1.34-2.7,5-1.06,1.09,6.29,2.11,9.77,1.19,11.65-2.78,5.66-13.27-3.42-12.64,5.65,6.65,3.92,33.36,2.69,40.95-.5-2.68-7.54-4.29-6.43-21.01-4.64l.06-21.06,22.15-3.13-7.04-14.15-.7-35.86c1.34-6.12,1.77-7.94,2.49-14.38,2.72-24.31,8.76-33.88-11.63-20.88-5.86,3.73-9.01,6.79-14.56,9.84-1.43-1.16-1.48-.77-3.09-2.71-3.33-4-3.55-8.76-8.75-9.66-7.59,1.03-12.9,8.75-20.15,12.49-2.24-6.86-6.44-13.36-9.12-20.8-2.88-7.99-3.74-16.43-9.25-21.47-12,5.19-12.55,31.56-31.71,44.33h0Z"/>
  </g>
</svg>