<?xml version="1.0" encoding="UTF-8"?>
<svg id="Layer_2" data-name="Layer 2" xmlns="http://www.w3.org/2000/svg" viewBox="0 0 192.74 126.56">
  <defs>
    <style>
      .cls-1 {
        fill: #42322c;
        fill-rule: evenodd;
        stroke-width: 0px;
      }
    </style>
  </defs>
  <g id="Layer_1-2" data-name="Layer 1">
    <path class="cls-1" d="M93.93,64.62c14.01-3.18,21.29,7.44,20.62,15.73-.72,8.91-8.84,16.6-18.36,15.44-19.36-2.36-22.3-26.62-2.26-31.17h0ZM28.39,116.86c.77,2.82,8.86,4.7,27.36,4.61-1.49-4.56,2.75-6.41-6.38-7.05-6.33-.17-18.23-.41-20.97,2.44h0ZM120.21,125.86c2.35.79,3.06.72,5.51.69,4.22-.04,14.29-1.07,16.5-1.99-1.66-4.62-9.27-3.99-18.37-4.78-10.21-.89-9.15,4.24-3.65,6.08h0ZM160.29,118.24c3.38,2.41,5.44,2.88,10.06,2.45,11.37-1.06,9.99.6,13.54-4.83-7.98-4.05-21.53-6.57-23.6,2.39h0ZM98.29,71.54c1.05,2.55,3.48,3.62,4,5.01,2.3,6.17,2.4,7.47-4.54,13.95,15.31-.93,19.47-17.59.54-18.97h0ZM0,106.95c5.44,3.23,30.26,1.92,34.64.1-2.41-6.19-14.32-6.41-20.25-5.82-6.83.68-11.66.72-14.39,5.72h0ZM66.97,117.17c2.51,9.91,31.23,8.72,37.35,4.02-4.48-5.97-25.94-5.57-37.35-4.02h0ZM98.96,111.56c1.11,3.38,6.38,3.36,31.11,4.39,3.85.16,32.04-2.09,15.64-6.28l-17.21-.28c-8.38-.75-22.56-1.64-29.54,2.17h0ZM41.46,102.13c4.6,9.39,9.8,6.2,19.79,8.94,8.92,1.18,19.36,1.79,26.25-1.92-5.24-9.29-36.17-8.1-46.04-7.02h0ZM145.65,64.05l.15,20.02-8.32.02-.27-19.25c1.29-5.06,7.88-7.04,8.44-.79h0ZM185.33,83.26l-8.3.04.44-12.41c.38.06,9.05,1.22,7.86,12.37h0ZM56.85,89.14c-2.58-5.26-5.93-27.21,3.75-32.91-.37,6.48-1.66,13.52-1.96,19.63-.4,8.3,5.53,10.59-1.79,13.28h0ZM103.2,42.06l-.64,16.42-9.26-.13c.52-7.65-.32-15.25,9.9-16.29h0ZM87.72,39.24l-1.32,22.84c-14.92,1.81-1.21-11.47-17.94-14.67-10.6-2.02-21.03,3.51-20.59,11.91l.34,31.09-7.85-.11.37-38.38c.05-12.2,2.66-10.18,16.86-11.3.38-.03,1.61.37,1.92.33,2.99-.41,1.73-12.79,1.65-15.25,14.18-.22,56.9-2.98,71.36-.27,2.98,1.11.5,7.16,1.9,16.44l21.76-.07c2.26,9.62,2.43,32.65,2.78,41.8h-6.6c-1.11-5.38-.72-12.83-1.42-20.65-.63-7.08-8.43-12.56-15.68-8.12-2.24,1.38-3.91,6.35-3.79,9.1l.9,19.86-6.05.06c-6.24-21.44,8.5-46.2-19.54-49.72-6.92-.87-13.64,1.36-19.09,5.12h0ZM78.8,18.62l14.89-10.37c4.23,4.02,8.72,8.23,13,10.47l-27.89-.1h0ZM140.04,103.97c15.74.28,37.32,1.98,52.69,2.82-1.34-7.08-.55-5.7-22.79-7.85-21.17-2.05-34.33-1.25-55.46-1.76,3-5,13.73-3.78,20.86-4.82l52.97,1.11c1.86-5.01,6.41-32.58-15.83-27.09-1.53,8.8-.22,12-3.19,16.84l-4.72.15-.85-45.24c-.66-2.69-.81-9.1-3.91-12.27-2.37,3.36-2.81,6.1-3.84,8.65l-15-.07-1.15-9.19c-1.09-8.67-13.82-6.14-21.77-6.19-2.92-4.58-18.91-16.64-23.97-19.06-10.96,6.48-15.72,12.33-24.55,18.66-3.33,2.38-4.24.56-14.73,3.01-2.92,3.92-.3,8.66-1.38,13.54l-14.69-.15c-.66-3.66-1.63-7.31-4.03-8.16-2.48,2.14-3.38,5.13-3.27,8.63l.74,23.02-.17,31.5c-5.95.93-5.54.48-10.99,0-5.06-.45-10.98-.7-14.97,2.75,16.52,13.48,70.22-7.11,89.1,12.23,14.61.29,29.65-1.34,44.89-1.06h0Z"/>
  </g>
</svg>