<?xml version="1.0" encoding="UTF-8"?>
<svg xmlns="http://www.w3.org/2000/svg" version="1.1" viewBox="0 0 590.3 495.5">
  <defs>
    <style>
      .cls-1 {
        fill: #594b39;
      }
    </style>
  </defs>
  <!-- Generator: Adobe Illustrator 28.6.0, SVG Export Plug-In . SVG Version: 1.2.0 Build 709)  -->
  <g>
    <g id="Layer_1">
      <g id="Layer_2">
        <g id="Layer_1-2">
          <g>
            <path class="cls-1" d="M388.7,490.3c-9.5.5-19,.5-28.4,1.8-17,2.4-34.5-4.6-51.4,3-3.6,1.6-9.5-1-14.1-2.5-19.8-6.3-39.3-13.7-59.4-19.2-17.3-4.7-35.1-8.1-52.9-10.5-7.1-.9-17.4,0-21.6,4.4-16.3,17.1-38.4,15-58.2,20.3-5.2,1.4-10.6,2.2-15.9,3.3-3.1-6.7-.6-9.1,5.7-9.9,13.7-1.7,27.3-3.8,38.3-5.3,18.8-59.4,36.6-116.1,54.7-172.8,2.7-8.6,5.7-17.2,9.8-25.2,6.1-12.1,2.8-24.2,1.1-36.3-.2-1.4-3-2.4-4.9-3.8-2.7,13-4.9,24.2-20.9,28.3-11.7,3-1.7,12.3,0,18.7-7.3,1.7-14.6,2.6-21.2,5.1-14.9,5.7-29.1,12.6-45.8,11.6-5.2-.3-10.6,2.9-16,4-8.7,1.8-17.5,4.6-26.2,4.4-16.8-.5-33.3-.9-49,6.7-3.3,1.6-8.1.3-12.1-1.1,21.7-11.7,36-13.9,68.1-11.2-7.8-45.4-15-90.2-23.4-134.9-4.7-24.9-4.7-48.1,12.1-69.1,7.8-9.7,13.6-20.9,20.9-31.1,9.3-13,22.4-17.8,38.2-17.1,25.6,1.1,49.1,9.6,71.4,21,5.4,2.8,9.4,10,12.1,16,13.7,30.8,16.9,64.2,23,96.9,3,16.3,4.2,32.9,6.3,50.4,3.1,1,6.4,1.8,9.4,3.1,16.4,7.5,28.7,3.6,39.1-11.5,4.9-7.1,12.8-12.9,20.3-17.4,10.7-6.4,20-6.5,31.9,2.6,16.5,12.7,27.9,27.4,37.4,45.7,6.9,13.2,10.4,28.8,24.7,38.7,6.5,4.4,8.9,16.7,10.4,25.9,5.8,34.7-4,67.4-14.1,100-4.1,13.2-8.6,26.5-11,40.1-1.7,9.8-3.3,21.6,15.2,22.6-1.1,1.4-2.2,2.8-3.2,4.2h-.4ZM202.3,326.4c-1.7,3.6-3.4,7.2-5.1,10.9-.9,11.3-11.2,6.9-17.3,9.1-7.6,29.3-22.4,55.6-23,86.8,11.9-14.1,18.8-32.5,36.6-40.8-2.1,4.4-5.3,7.7-8,11.5-2.4,3.4-4.2,7.2-7.4,12.9,27.5-12.5,52.1-23.6,76.7-34.8.7,1.3,1.4,2.6,2.1,3.9-17.7,11.2-33.8,24.9-54.3,31.8-1.7.1-3.4.3-5,.4-9.9,6.4-20,12.4-29.5,19.3-18.2,13.2-18.6,14.2-19.4,30.6,5.8-6.6,9.2-11.5,13.6-15.2,7.7-6.5,16-12.4,24.1-18.5-1.1,6.1-2.3,12.2-3.6,19.4,16.5,1.9,29.7,9.9,45.7,4-6.1-5.1-18.7-1.6-14.2-14.3,2.2-.4,4.5-.9,6.7-1.3,28.3-14.6,52.8-36.7,85.9-42.4-3.4,6.3-8.3,10.3-13.2,14.5-10,8.4-20,16.9-30,25.3-1.8,5.2-3.6,10.4-5.4,15.5-4.1,1.9-9.3,2.8-12.1,5.9-4.9,5.2-.3,6.2,4.3,6.2,18.1,12,21.6,11.9,35.3-.1,6.2-5.5,12.8-10.7,19.2-15.9,8.9-7.2,19.5-9.9,31.7-8.2-4.9,18.2-28.3,23.8-32.2,48.6,11.5-6.4,19.4-10.7,27.3-15.1,3,2.2,6.3,4.5,10.2,7.4,2.7-14.5,4.1-27.4,7.5-39.8,8.6-32.1,18.5-63.9,26.9-96.1,5.8-22,4.2-42.7-15.7-58.3-3.1-2.4-5.1-6.2-7.8-9.7-6.2.7-12.1,1.4-18.9,2.2,1.3-7.5,2.8-13.4,3.3-19.4,1.5-16-3.1-30.3-13.7-42.3-2.8-3.2-9.5-6.9-12-5.6-10.2,5.2-19.8,12-29.2,18.8-8.1,5.9-11.4,14.2-5.6,27.7-17.9-6.1-31.5-10.8-41.9-14.4-9.2,7.7-16.4,13.2-22.8,19.4-4,3.8-7.8,8.7-1.1,13.9,1.6,0,3.1.1,4.7.2-2.7,6-4.9,12.2-8.1,17.9-5.2,9.3-11.1,18.3-17.4,28.6,4.2-.5,6.1-.7,8.1-.9,1.4.2,2.8.4,4.2.6h0l-.2-.2ZM64.1,128.7c-.6-6.1-1.2-12.2-1.8-18.4-10.7,12.3-14.9,24.5-11.9,39.3,4.2,20.4,6.6,41,9.8,61.6,2.3,14.8,4.6,29.6,7.5,48.6,7.7-11.2,13-18.9,20.3-29.6-.6,7.2-.8,10.1-1.2,16.4,16.6-17.8,23.1-39.4,43-49.6-1.6,6.9-5.2,12.4-8.8,17.8-10,15-20.2,29.9-29.8,45.2-2.2,3.4-2.6,7.9-3.9,11.9,10.7-11.8,18.6-24.8,27.3-37.2,8.4-11.9,14.3-26.4,31.3-31.1-11.4,14.9-22.7,29.8-34.1,44.6,17.5-9.2,25.4-28.6,47-37-17.2,25.4-32.5,48-47.9,70.7.2.1-1.7-1.4-4-3.3-1.1,4-2.2,7.7-3.2,11.5,11.7,5.3,17.8,2.3,22-8.4,7.8-19.6,18.6-37.3,35-51.1,5.2-4.4,10.7-7,15,1.9-4.5,6.1-8.9,12-13.4,17.9.6.3,1.2.7,1.8,1,10-8.4,20-16.8,29.5-24.8-1.8-21-2.7-41.9-5.6-62.4-2-14.3-5.5-28.7-10.6-42.2-3.3-8.7-9.6-17.2-16.8-23.1-12.2-10.1-26.2-18.1-41.3-28.2-15.9,19.6-31.1,38.2-46.3,56.8-3,3.7-6.2,7.2-9.3,10.8,0-3.2,0-6.4.2-9.6h.2ZM130.7,64.3c15.1,11.5,27.2,19.5,37.8,29.1,14,12.6,27,25.5,26.9,47.2-.1,21.3,2.9,42.6,4.5,63.8,2.7-12.5-.4-25.8,3.3-36.9,6.6-19.5.9-37-3.9-54.7-8.6-31.4-29.6-46.5-68.5-48.5h-.1ZM364.5,410.3c1.3.8,2.6,1.6,3.9,2.4,26.5-37.9,30.3-50.9,26.1-87.6-.9-7.8-1.5-15.8-8.6-19.7-.9,14.7-1.8,28.8-2.7,42.9-.1,2-.4,5.4.5,5.9,14.4,6.9,4.1,13.7.2,20.7-6.5,11.8-13,23.7-19.5,35.6h0v-.2ZM309,460.3c-9,4.8-20.6,7.4-23,23.1,16.5-.2,16.3-15.2,23-23.1ZM344.5,243.8c1.5,9,3.1,17.9,4.8,28.2,12.5-9.3,11.7-14.3-4.8-28.2ZM152.6,261.9c-7.4,8.9-13.1,16-18.9,23,1,1,1.9,2,2.9,2.9,6.1-2.5,12.2-5,18.1-7.4-.7-6.1-1.2-11.1-2.1-18.5h0ZM80.6,262.1c-1.4-.6-2.9-1.1-4.3-1.7-1.3,5.8-2.6,11.6-4,17.4,1.2.3,2.4.6,3.7.9,1.5-5.5,3.1-11,4.6-16.6h0ZM202.7,254.9c1.5.7,3,1.4,4.5,2,1.5-3.2,3.1-6.4,4.3-9.8.1-.3-3-1.7-4.6-2.6-1.4,3.4-2.8,6.9-4.1,10.3h0Z"/>
            <path class="cls-1" d="M357.5,225.8c-4.1-19.3-8.9-34.6-10.4-50.2-1.9-19.2-2.1-38.7-1-58,1-17.2,4.4-34.3,7.1-51.4,6.8-41.3,22.8-53.7,60.9-64.3C427.8-1.9,445.3,0,458.6,5.4c10.1,4.1,17.5,17.1,23.9,27.6,24,39.4,37.2,81.6,31.9,128.7-1.7,14.9,1,30.2,1.9,47.9,16.2.7,32.6,1.7,49.1,2.1,10.4.2,19.4,2,25,17-21.3-16.8-43.8-5.2-64.7-11.2-23-6.6-47-9.7-70.6-14.3-4-.8-8.7-3.3-12-2.1-20.7,7.1-43.9,4.1-63.3,16.7-6,3.9-13.8,5.1-22.2,8h-.1ZM390.2,27c-2.9,4.9-5.8,9.8-8.7,14.6-3.7,9.8-7.5,19.7-11.4,30.1,3.6-.2,5.6-.3,7.5-.4l-.3-.3c2.2,2.4,6.8,5.4,6.3,7.1-5.4,19.7-7.4,40.8-23,56.4-10.6,10.7-12,23.2-4.9,40.1,13.9-20.3,26.1-38.1,40.1-58.5,1.8,12.4,2.2,19.3-4.9,26.3-7.4,7.4-11.9,17.5-17.6,26.4,1.2.9,2.5,1.7,3.8,2.6,11.4-13.4,22.8-26.9,34.4-40.6,12.9,16.2,19.5-6,29.9-3.2-5.7,10.3-10.2,20.6-16.7,29.4-6.9,9.4-20.8,16.4-22.7,26.2-2.7,13.9-20.9,9.6-21.3,23.1,25.8-1.2,31-3.9,34.9-17.7-2.9-.5-5.7-1-11.9-2.1,18.8-16.6,34.9-30.8,51-45,1.4,1.2,2.8,2.5,4.2,3.7-8,9.3-16,18.6-24.1,27.9,8.5-3.7,15.1-9.4,21.8-14.9,8.9-7.3,11.8-2,13.2,5-8.7,9-16.7,17.3-25.7,26.6,14.9,6.4,27.4,11.7,42.6,9.6-.4-4.1-.6-6.7-.9-9.3-3.1-28.9-5.5-57.9-9.6-86.7-1.6-11.4-4.9-23.6-11-33.1-10.7-16.8-24.2-31.7-36.5-47.5-5.5-7-12.8-8.4-20.5-5.4-6.3,2.5-11.9,6.5-17.9,9.8h0v-.2ZM486.2,120.4c5.2-6.6,9.8-11.3,12.9-16.8,1.2-2.1-.9-6.1-1.5-9.2-12.2,2.7-7.6-6.7-7.8-11.6-.3-7.2,2.5-15.1-9.3-21.5,2,20.6,3.8,38.7,5.7,59.1h0ZM358.2,96.1c-4.6,13.4-5.1,23.8-1.3,31,8.7-9.5,8-19.2,1.3-31ZM467.3,32.5c-2.7,9.7-1.1,17.6,4.9,23.7,3.7-8.9,2.1-16.8-4.9-23.7ZM457.7,30.9c-1.1-5.8-2.1-11.5-3.6-17.2,0-.2-5.9-.2-6.8,1.2-5,7.5-.4,12.3,10.5,16h-.1ZM371,191.2c-2-.7-4-1.4-5.9-2.2-1.2,5.9-2.4,11.7-3.5,17.6,1.3.3,2.6.6,4,.9,1.8-5.4,3.7-10.9,5.5-16.4h-.1ZM388.2,174.8c.9.5,1.9,1.1,2.8,1.6,2-3.4,4.1-6.8,6.1-10.2-.9-.5-1.9-1.1-2.8-1.6-2,3.4-4.1,6.8-6.1,10.2h0Z"/>
            <path class="cls-1" d="M517.2,438.4c1.3-10.1-.7-18-12.2-17.9-2.8-16.1-5.4-30.7-7.9-45.2,1.4-.3,2.8-.6,4.1-.9,2.9,11.6,5.8,23.2,9.9,39.2.8-17.4,1.3-30.4,1.9-43.5,1.5,0,2.9.1,4.4.2v37.9c.8.2,1.6.4,2.5.6,4.2-13,8.5-26,12.7-39,1.1.3,2.2.5,3.3.8-.4,4.3-.4,8.7-1.2,12.9-3.6,17.5-7.3,35-11.5,52.3-.3,1.2-4.2,1.5-6.4,2.1l.4.4h0Z"/>
            <path class="cls-1" d="M516.8,438c-6,2.5-12,6.9-18.2,7.2-9.5.5-19.2-1.5-28.8-2.9-24.7-3.6-49.5-8.5-71.5,10.3,5.5-11.9,10.9-16.6,23.9-17.9s26.2-1,39.3-.3c18.6.9,37.1,2.7,55.7,4.1l-.4-.4h0Z"/>
            <path class="cls-1" d="M53.5,361.9c16-12.6,34.2-17.1,53.7-15.4,5.4.5,10.4,5.9,14.8,11-24.2-10.5-45.8,1.2-68.5,4.4Z"/>
            <path class="cls-1" d="M479,256.7v20.1c1,.2,2,.4,2.9.6,2.1-5.9,4.2-11.7,6.4-17.7,8.4,13.8,3.3,30.5-13,38-2-14-9.2-27.1,3.6-40.9h.1Z"/>
            <path class="cls-1" d="M516.7,258.1c2,9.2.2,19.7-5.3,31.7,5.9,1.6,11.7,3.2,17.5,4.7v4.4c-10.1,1.3-20.1,2.6-34.2,4.4,5.7-10.1,9.6-16.3,12.8-22.9,3.2-6.5,5.6-13.3,9.2-22.2h0Z"/>
            <path class="cls-1" d="M538.4,443.9c-10.4-3.4-11.6-10.2-8.8-17.1,7.4-18.6,15.1-37.2,30.8-51.6-5.6,11.1-11.4,22-16.6,33.3-5,10.9-14.2,21.3-5.4,35.4h0Z"/>
            <path class="cls-1" d="M20.4,416.7c4.8,9.8,9.7,19.5,14.5,29.3-9.6-7.1-19-14.2-19.5-26.7,1.6-.9,3.3-1.7,4.9-2.6h0Z"/>
            <path class="cls-1" d="M41.8,423.8c5.6,7.5,7.9,15.9,4,30.1-3.7-12.4-6.2-20.6-8.7-28.9,1.6-.4,3.1-.8,4.7-1.2h0Z"/>
            <path class="cls-1" d="M64.1,419.8v28.4h-2.7v-28.4h2.7Z"/>
            <path class="cls-1" d="M263.7,439.5c5-2.2,10.6-3.5,14.8-6.8,10.8-8.4,19.7-5.8,30.3,3.6-12.1,9.9-23.6,19.2-35.1,28.5h-21.3c1.9-3.3,3.9-6.6,5.9-10,1.8-5.2,3.6-10.4,5.4-15.5h0v.2Z"/>
            <path class="cls-1" d="M214.3,443.3c-7.4,5.4-15.2,8.4-28.4,5.4,26.1-24,54.5-38.1,82.7-52.4,1,1.4,2,2.7,3,4.1-5.6,4-11.4,7.7-16.6,12.1-11.5,9.6-22.7,19.6-34,29.5-2.2.4-4.5.9-6.7,1.3h0Z"/>
            <path class="cls-1" d="M210.8,280c5.8-8.8,11.5-17.5,19.3-29.4,3.4,7.6,5,11.1,7.3,16.1-7.5,4.5-14.7,9-22,13.4-1.6,0-3.1-.1-4.6-.2h0Z"/>
            <path class="cls-1" d="M198,325.8c4.3-6.8,8.5-13.6,12.8-20.4,1.2.8,2.4,1.5,3.6,2.3-2.7,5-5.4,10-8.1,15-1.3,1.2-2.7,2.5-4,3.7-1.4-.2-2.8-.4-4.2-.6h-.1Z"/>
            <path class="cls-1" d="M202.3,326.4c1.3-1.2,2.7-2.5,4-3.7,1.9.2,3.8.3,8.2.7-5.9,6.3-5.4,16.8-17.3,13.9,1.7-3.7,3.4-7.3,5.1-10.9h0Z"/>
            <path class="cls-1" d="M63.9,138.3c-.7,2.4-1.3,4.8-2.3,8.6-4.1-8.9-3.2-15,2.5-18.2,0,3.2,0,6.4-.2,9.6h0Z"/>
            <path class="cls-1" d="M185.9,434.8c3.9-5.5,7.8-11.1,11.6-16.6,1.7-.1,3.4-.3,5-.4-.4,10.7-8.5,13.9-16.7,17h0Z"/>
            <path class="cls-1" d="M390.2,27h9.9c-6.1,8.2-9.3,15.1-18.6,14.6,2.9-4.9,5.8-9.8,8.7-14.6Z"/>
            <path class="cls-1" d="M284.9,313c-1.3,21-15.1,29.4-24,42.2-2.8-3-4.6-4.8-5.7-6,9.3-11.4,18-22.1,29.6-36.3h.1Z"/>
            <path class="cls-1" d="M301.8,339c3.5,7.9,6.9,15.8,11.2,25.5-5,1.1-9.7,2.2-16.3,3.7.8-11.2,1.4-20.3,2-29.4,1,0,2,.2,3.1.2h0Z"/>
            <path class="cls-1" d="M217,346.6c7.6-5.6,13.1-9.6,18.6-13.7,1.3,1,2.6,2.1,3.9,3.1-2.4,5.8-4.7,11.6-7.8,19.1-5.1-3-8.7-5.1-14.8-8.6h.1Z"/>
            <path class="cls-1" d="M321.8,414.8c-2.3,1.9-4.5,3.8-6.8,5.8-.7-.8-1.3-1.5-2-2.3,2.2-2,4.5-3.9,6.7-5.9.7.8,1.4,1.6,2.1,2.4h0Z"/>
            <path class="cls-1" d="M131,120c2.2,6,3.2,7.8,3.5,9.8.2,1.9-.3,4-.4,5.3-7.1,1.1-13.8,2.1-24.9,3.9,6.8,5.1,9.8,7.3,13.4,10-6.2,3.3-11.8,8-18,9.1-4,.7-8.9-3.8-16.6-7.6,15.8-11.1,28.4-20,43.1-30.4h-.1Z"/>
            <path class="cls-1" d="M97,201.6c-7.7,13-13.8,23.5-20.5,34.9-9.3-23-2.9-35.3,20.5-34.9Z"/>
            <path class="cls-1" d="M78.7,137.1c3.4-12.1,10.2-17.8,18.6-25.1-2,7.4-8.2,15.8-18.6,25.1Z"/>
            <path class="cls-1" d="M112,191.7c2.2-2.6,4.4-5.2,6.6-7.8.7.6,1.5,1.2,2.2,1.8-2.2,2.6-4.4,5.2-6.6,7.9-.8-.6-1.5-1.3-2.2-1.9h0Z"/>
            <path class="cls-1" d="M473.8,172.3v18.3c-9.9-4.1-9.9-10.2,0-18.3h0Z"/>
            <path class="cls-1" d="M377.6,71.3c6.3-9.2,12.5-18.4,18.8-27.6,1.6,1.2,3.2,2.5,4.8,3.8-8,7.9-16,15.7-23.9,23.6l.3.3h0Z"/>
            <path class="cls-1" d="M419.3,100.1h-21.2c8.3-5.8,15.2-5.7,20.9.4l.3-.4h0Z"/>
            <path class="cls-1" d="M418.9,100.6c4.3-1.2,8.6-2.4,15.1-4.2-6.5,6.6-11.4,7.9-14.8,3.8-5-6.1-.3.4-.3.4h0Z"/>
          </g>
        </g>
      </g>
    </g>
  </g>
</svg>