<?xml version="1.0" encoding="UTF-8"?>
<svg xmlns="http://www.w3.org/2000/svg" version="1.1" viewBox="0 0 494.4 364.4">
  <defs>
    <style>
      .cls-1 {
        fill: #594b39;
        fill-rule: evenodd;
      }
    </style>
  </defs>
  <!-- Generator: Adobe Illustrator 28.6.0, SVG Export Plug-In . SVG Version: 1.2.0 Build 709)  -->
  <g>
    <g id="Layer_2">
      <g id="Layer_1-2">
        <g>
          <path class="cls-1" d="M138.2,269.9c8.4,14.8,59.6-17,59.8-26.6-5.3-1.9-11,3.6-19.9,10.1-4,2.9-4.4,4.5-9.8,7.2-11.3,5.8-16.7,5.7-30.1,9.3h0ZM232.2,240.3c23,17.8,16.7-4.3,39.1,14.9,8.6,7.4,21.3,23.8,38.3,16.6-4.9-4.4-12.8-2.3-21.5-10.1-24.6-24.4-29.3-23.2-40.4-21.6-4.4.1-12.6-7.7-17.9-11.2-16.5-11-32.2-3.5-41.3,5.6-18.7,18.8-15.9,12.6-32.7,23.1-1.1.3-1.5,1.7-.6,1.9,27.2,5.5,39.1-48.5,77-19.2h0ZM254.7,273.2c4.6,8.1,15.8-2.5,12.6-4.3-2.5-1.4-10.8,2.9-12.6,4.3h0ZM157.4,280.2c-2.7-5.1-6.7-3.5-14.9-1.2,5.2,6.3,8.7,3.1,14.9,1.2h0ZM170.9,283.6c-5.9-4.7-11.5-2.3-14.5,2.2,6.9,1.7,11.9,2.4,14.5-2.2h0ZM220.9,250.5c.2-1.9-6.4-.1-12.4,1.7-5.7,7.2,11.4,5.4,12.4-1.7h0ZM204.1,245.2c6.1,3.6,11.7-1.6,10.4-4.3-.6-1.2-5.4-.4-7.6-.6-6.3-.5-2.8,4.8-2.8,4.9h0ZM245.8,269.1c8.4,1,13.6.3,17.1-6.5-10.5-1.1-13.2-2.2-17.1,6.5h0ZM235.4,259.3c10,3.7,14.9,1,15.7.6,3.9-2.1,6.3-3.4,6.9-9.3-5.7-.5-5.9-.1-10.7,2.1-5.7,2.6-10.4,2-11.9,6.6h0ZM186.4,283.7c6.6-.7,10.2-3.8,14.3-7.3,7.2-7.9,7-10.1,6.6-11-5.5-1.9-18.7,11.1-20.9,18.3h0ZM161.4,275.8c1.5,1.2,5.4,6.4,15.8.5,7.1-4,19.9-11.2,21.7-18.8-5,0-28.6,18.3-37.5,18.2h0Z"/>
          <path class="cls-1" d="M0,57.5c27.5,8.8,43.1-28.5,67.9-41.2,17.9-9.2,20.7-14.3,37.9.4,15.2,13,15.3,15.7,37,7.5,19.5,14.4,24.2,22.4,42.7,21-4.9-13.9,2.5,4.6-29.5-20.7-17.4-13.8-9.4-7.3-29.8-2.5-19-1.5-21.7-58-94.6,16.8C12.2,58.6,5.7,49.5,0,57.5h0ZM133.2,50.6c-3-7.1-4.8-5.4-8.5-2.6,2.9,4.7-.9,2.2,3.2,3.8,6.8,2.6,4.8-.9,5.3-1.2h0ZM23.1,74.5c5.7,3.4,7.6,2.4,11.6-2.3-5.1-4.4-8.8-1.8-11.6,2.3h0ZM119.2,50.1c-4-3.4-4.3-3.7-11.3-2.8.5,8.9,8.3,8.3,11.3,2.8h0ZM112.6,73.5c-1-11.4-.3-8.2-4.9-10.7-3.9,4.6-4,3-1.6,9.4l6.5,1.3h0ZM69.1,80.3c6.5.4,9.9-2.8,11.1-9.3-7.3-1.6-10.6,2.1-11.1,9.3h0ZM90.3,76.2c7.4-1.4,3.9.9,7.3-4.5,1.7-2.7,2.1-4,1.5-8-8.8.2-9.3,5.3-8.8,12.5h0ZM127.1,60.7c-4.9-3.6-.7-1.8-8.1-2.7.6,7.3,5,13.4,12.4,9.2-1-3.3-1-4.1-4.3-6.6h0ZM143.6,64.2c3.8,7.5,1.9,3.9,8,6-.4-4.2-1.6-19.2-8-13.6-2.3,2-1.5,4.5,0,7.5h0ZM65.7,28.1c8.1.5,13.6-2.2,15.5-8.1-3.9-2.5-4.9-2.8-10.1,0-4.6,2.5-4.6,2.7-5.4,8.1h0ZM82.4,64.1c6.9.9,14.4-8.7,14.3-15.3-5.7-2-4.7-1.4-9.5,4.7-2.5,3.2-4.8,5.5-4.8,10.6h0ZM69.2,40.6c5.7.5,14.5-4.8,16.2-12-6.2-3.5-16.8,1.7-16.2,12h0ZM156.9,54.4c-5,3.9,4.4,16.7,15,15.7-1.3-6.4-3-6.2-6.9-10.3-1.8-1.8-5.2-7.6-8.1-5.3h0ZM74.7,51.8c9.5.4,14.6-7.4,16.7-16.2-9.6-.2-14.1,7.5-16.7,16.2h0ZM54.2,75.7c9.7.4,20-7.3,18.7-15.7-5.4-1.5-5.9.7-10.5,5-6,5.6-7.1,3-8.2,10.7h0ZM56.8,56.3c5.8-5.9,8.3-6.9,5.8-13.2-6.8,2.8-20,14.3-22,18.5,3.9,2.5,4.5,1.7,8.4.9-4.4,5.6-7.9,13.3,1.8,7.5l12.7-12.1c-3.5-3.2.9-.9-4.3-1.7-3.1-.5-.8,4.6-1.8.1,0-.2-.5,0-.7,0h0ZM60,31.3c-9.6.4-7,4.1-12.4,10.1-5.5,6.1-16.3,13.2-23.6,17-26.8,13.9,4.9,8.9,23-5.7.3-.2.7-.6,1-.8,6-5,11.3-11.2,12-20.7h0Z"/>
          <path class="cls-1" d="M264.1,212.6c19.5,7.1,53.3-33.3,74.8-31.5,23.6,2,26.3,24.5,49.6,27.2,13.4,1.5,34.6,4.6,39.1,3,3-1.1,4-3.8,4.3-4.4-18.8-2.6-53.1-5.7-62.4-18.4-5.4-7.4-19.4-17.4-34.2-15.8-12.9,1.4-38.5,20.9-49.6,28.8-8.7,6.2-15.4,4.2-21.6,11h0ZM326.7,229.3c-2.3-6.3-8.4-14.1-14.7-12.6-.9,1.3-.4,4.4.9,6,4.3,5.1,7,7,13.8,6.6h0ZM337.8,205.7c.5-8.7-3.5-15.1-10.9-12.7-3,6.2,4.4,11.4,10.9,12.7h0ZM401.2,214.5c.8,9.9,14.5,7.1,23.1,5.4-3.3-5.6-16.9-5.3-23.1-5.4h0ZM336.9,221.5c-3.2-6.3-5.6-8.6-7.6-9.4-6.4-2.4-6.7,3.9-1.9,9.2,4,4.3,10.1,7.5,14.3,4.8,0-.4-4.6-4.2-4.8-4.7h0ZM389.3,224.7c-6.1.8-8.2,6.8,3.4,8.3,15,2,21-1.5,21.8-2.2-3.1-5.2-17.8-7.1-25.2-6.1h0ZM356.1,220.7c-3.9-2.8-5.8-7.4-9-10-2.8-2.3-14-6-5,5.1,8.6,10.7,11,16.5,26.6,16.6,14.3.1,10.8-4.1,11.8-6.9-8.1-1.1-18.1-.3-24.4-4.9h0ZM364.2,207c-7.2-5.2-9.4-11.4-16.5-16.7-8.8-6.7-9.7-1.5-4.1,5.7.2.3.6.7.8,1,24.6,31.6,20.6,17.9,53.5,23.6-.4-4.9-4.8-8.1-15.8-8.1-5.9,0-11.3-.7-17.9-5.4h0Z"/>
          <path class="cls-1" d="M290.3,323.6c11.1,1.8,18.5-5.3,25.9-10.3,35.6-24.2,39.3-11.3,53.5-7.7,7.4,1.9,36.4,7,42,3.3-5.5-3-15.9-6.5-24.2-7.7-36.2-5.2-28-15.9-48-7.6-24,10.1-19.9,10.5-37.6,22.1-7.1,4.7-7.6.7-11.6,7.9h0ZM442.6,355.4c-3.1,0-15.3-3-9.9,2.5,3.8,4,9.6-1.2,9.9-2.5h0ZM426.5,353.9c-.6-.9-2.3-4.8-6.9-3.6-4.1,1.1-.2,9.3,6.9,3.6h0ZM414,361.3c4,4,8.2,3.8,11.7,1.1-3.3-3-6.2-5.2-11.7-1.1h0ZM480.2,346.7c-3.3-7.4-6.2-7.2-14.4-7.3,1.6,7.1,4.1,3.8,14.4,7.3h0ZM481.2,353.1c3.8-1.4,1.9-2.2-3.6-3.7-6.7-.9-9.6-2.8-10.4,2.9,2,.6,6.4,3.6,14,.8h0ZM456,347.4c-7.5-1.2-5.3-1-7.9.8,1.2,1.5-2.2,3.2,8.1,4.7,6.8,1,6.4-4.4-.2-5.5h0ZM423,341.2c2,4-1.2,4.2,5.6,6.8,8.7,3.3,10.5-1.2,10.9-1.5-1.7-2-1.7-2.9-7-4.5-5.5-1.6-4.2-1.2-9.5-.7h0ZM458.2,342.7c-3.7-6.3-23.8-13.7-30.2-11.2,1.5,1.8-3.3,1.6,5.2,6l20.8,6.8c3.7-.2,2.1-.5,4.1-1.6h0ZM379.7,346.7c13.6,3.1,27-19.3,50.6-22.3,11.2-1.5,16.4,7,26.2,10.5,7.6,2.8,31.4,5.9,37.9,1.2-5.8-3.1-8.9-4.1-18-4.1-28.9-.2-26.7-17.5-47.4-14.1-18,2.9-47,24.3-49.2,28.9h0ZM334.8,323.7c-2.2-4.9,0-2.7-5.3-4-8.8-2.2-2.8,9.8,5.3,4h0ZM347.5,313.9c-7.6-.8-9.9-4.3-13.6-1.7,2.8,9.2,7.5,7.6,13.6,1.7h0ZM334.5,332.4c7.6.9,12.2,2.1,12.4-1.8,0-.5-7.6-9.2-12.4,1.8h0ZM358.4,325.9c4.6,1,16.9,4.9,12.9-3.3-1.8-.3-4.4-.6-5.4-.8-3.9-.7-6.4-.8-10.1-2.4-.6-.2-1.6-.7-2.7-1.2-12.5.7,0,6.4,5.3,7.6h0ZM387.4,318.7c9.2-3-3.1-5.6-5.7-6-21.4-3.4-29.2-9.3-34.2-5.5,2.1,3.9,1.4,3.1,5.5,5.7,8.5,5.4,20.4,4,30.8,5.5,1.2.2,2.4.3,3.6.4h0Z"/>
          <path class="cls-1" d="M163.3,180.8c5.6,3.2,8,2.5,14.2-.6,6.9-3.5,7.4-7.6,16.7-20.7,14.6-20.4,41.6,12.9,62.3,6.8,8.9-2.6,5.5,1.6,8.7-3.3-.8-.6-3.3-1.8-8.3-3-.7-.1-3.8-.3-3.8-.3-3.5-.3-4.9.2-8.5-.5-4.6-.9-8.3-2.9-12-4.8-7.5-3.8-15.1-8.2-26.5-8.2-20.2,0-22.3,25-37.4,31.4-4.5,1.9-3.8-1.2-5.4,3.2h0ZM78.7,199.7c11.1-3.8,20.6-27.6,40.2-17.9,7.4,3.7,29.5,32.2,37.2,14.6-5.6-4-4.8-.6-11.9-4.4-9.3-5-17.2-18.1-28.9-19.3-17-1.8-37.4,15-36.5,27h0ZM97.6,189.6c1.9,4.8.9,3.7,6.7,4.9,7.2,1.6,1.8-.3,4.1-1.9-2.3-1.4-4.7-3.6-10.8-3.1h0ZM88.8,203.9c.5.6,6.7,9.8,9.5-3.8-9.8-2.6-8,1-9.5,3.8h0ZM115.9,209.6c5.9-6-5.7-10-13.1-9.1.7,5,.6,5.1,4.8,7.7,2.9,1.7,6.2,3.5,8.2,1.4h0ZM125.2,196.1c-4.4-3.4-5.6-5.4-12.7-4.4-.6,6.7,1.1,6.8,6.8,10.2,3.9,2.4,6.8,4.8,12.7,5.6.4-8.1-1.8-7.4-6.9-11.4h0ZM16.6,157.9c4.9,3.3,6.7,1.2,12.9-2.8,4.7-3.1,6.4-4.2,11.2-7.4,6.8-4.5,17.2-8.5,25-12.4,18.5-9.3,33,18.4,55.2,16.9-2.3-4.1,1.3-3.8-9.2-9.4-6.7-3.3-13.3-6.7-20-10-10.7-6.2-12.7-11.4-27.7-4.8-5.1,2.3-7.7,4.9-13,7.5-4.7,2.4-8.6,3.6-12.8,5.9-7,3.9-18.4,11-21.7,16.3h0ZM50.1,148.9c-3.9,4,12.2,12.5,13.7,6.4,0-.2-3.4-2.2-3.3-2.4-2.3-.6-8.1-3.3-10.4-3.9h0ZM62.2,162.8c-5.6-2.5-9.4-6.1-14.5-4.3,1.8,3,4,7.4,8.9,6.9,4.7-.5,4.4,1.1,5.5-2.6h0ZM69.8,165.8c2.9,4.5,8,6.4,14.7,3.7,0-.4-3-9.7-14.4-7.8-4.7.8,2.1,2.1-.2,4.1h0ZM122.6,152.8c2.5,4.5,3.2,4.6,10.9,5.3,8.1.8,8,1.1,11.9-2.6-4.8-3.5-16.3-7-22.8-2.7h0ZM76.1,142.1c1.6,7-2,4.3,7.9,7.9,4.5,1.6,7.2,2.6,12.2,3,0-7.7.8-6.7-7.5-9.6-6-2.1-5.8-2.4-12.7-1.3h0ZM99.9,160c-5.5-2.9-11.2-4.7-17.2-6.9-16.1-5.7-20.8.8-7.3,5.5,8.8,2.8,17.6,5.5,26.4,8.3,2.3-3.5,3-4.5,1.3-7.6,8.5-.7,9.8,5,11.5-2.6-2.9-.4-11-3.7-13.9-4.1-3.2,1.5-3.5,3.9-.8,7.4h0ZM134,125.3c17.2,8.6,11.4-23.7,47.6-5.5,9.4,4.7,40,30.9,42.3,5.6-9.1,1.2-5.5,4.6-13.7,3.1-8-1.5-40.5-32.5-59.7-17.8-5.5,4.9-11,9.7-16.5,14.6h0ZM161.3,137.2c.5.7-8.5-9-15.2-.5,7.3,3,11.9,5.4,15.2.5h0ZM166.9,128.4c-1.4-5.8-4.4-4.7-12.9-5.4,0,4.5.8,5.1,6.2,7.9,5.8,3,6.7-2.4,6.8-2.4h0ZM119,139.6c.2.1-.7,5.3,10.2.4,3.8-1.7,4.1-2.5,5.2-6.6-4.6-1.6-16.3-1.4-15.4,6.2h0ZM174.3,127.3s-6.5,1.8,2.7,11.5c-8.4-.7-6.9-3.4-11.7-1.7,3.2,10,24.1,10.7,13.1-1.4,8.5,3.4,18.3,6.9,23.4,3.8-1.8-4.2-.7-1.4-7.8-5.9-3-1.9-15-6.8-19.8-6.3h0ZM210.8,187.1c-3.9-6.2-10.3-6.2-13.3-1.5,1,.8,6.7,1.9,13.3,1.5h0ZM207.6,177c-2.5-4.7-11.1-6.5-12.1-2.4,2.9,1.1,6.2,6.8,12.1,2.4h0ZM253.9,181.3c2,2.6,7.9-.7,10.9-1-1.7-4.8-16.4-6.1-10.9,1h0ZM147.3,188.1c8.9-2.4,11.5,1.1,13.7-5.7-7.3-2.2-14.2-1.3-13.7,5.7h0ZM252.2,183.8c-4.3-4.9-11.3-7.2-14.2-.1,6,3.2,10.6,4,14.2.1h0ZM226.4,179.1c-14.1-4.2-10.3.4-11.5,1.7,4.6,3.8,11.9,6.7,20.7,5.5-1.6-6.1-2.5-5.2-9.2-7.2h0ZM204.9,164c1.9,5,.6,3.3,8.2,6.1l21,5.6c8.7,1.1,8.4,0,11.3-2.4-4.4-3.7-4.4-2.4-11.4-3.6-13.9-2.4-21.3-9.9-29.1-5.7h0Z"/>
        </g>
      </g>
    </g>
  </g>
</svg>