<?xml version="1.0" encoding="UTF-8"?>
<svg xmlns="http://www.w3.org/2000/svg" version="1.1" viewBox="0 0 905 681">
  <defs>
    <style>
      .cls-1 {
        fill: #594b39;
      }
    </style>
  </defs>
  <!-- Generator: Adobe Illustrator 28.6.0, SVG Export Plug-In . SVG Version: 1.2.0 Build 709)  -->
  <g>
    <g id="Layer_1">
      <g id="Layer_2">
        <g id="Layer_1-2">
          <g>
            <path class="cls-1" d="M565.5,414.4c-15.1,13.8-26.5,30.1-31.2,50.3-4.2,18-16.5,27.5-34.1,31.7,4.8-7.2,10.5-14.1,14.2-21.9,4-8.4,7-17.6,8.9-26.7.8-3.7-1.6-9-4.1-12.2-4.4-5.5-10-10.1-15.4-15.2,1.4-2.6,2.9-5.3,4.3-7.9-.5-.8-1-1.5-1.5-2.3-7.9,3.6-15.7,7.2-25.6,11.8-3.4-5-6.9-10.1-10.9-15.9,6.3-1.5,12.8-3.1,19.4-4.6-.1-1-.2-2-.4-3-7-.5-13.9-.9-23.3-1.5,11.9-3.6,21.7-6.6,33.3-10.1-3.6-1.9-5.3-2.8-7-3.8,1.9-3.1,3.7-6.2,5.6-9.3,7.4-3.2,19.5-4.9,21.3-10,3.5-10.1,10.4-16.8,15.9-25.1-15.2,9-29.3,18.9-36.9,35.5-2-2.1-6-4.7-5.6-6.2,1-4.1,3-9.9,6.2-11.3,11.2-4.8,13.4-13.7,14.3-24.3.9-10.2,3.2-19,15.2-23.8,5.8-2.3,8.6-12.1,10.6-20.3-2.7,2.2-5.4,4.3-8.2,6.6-7.4-2.4-9.4-8.1-9.4-15.3s.4-12.5-.8-18.5c-.8-4-4.1-7.6-6.3-11.3-1.1.4-2.2.7-3.4,1.1-.7,7.9-1.3,15.8-2,23.7-2.2-10.1-10.2-14.9-16.6-20.7-2.2,6.4-4.4,13.2-7,20.9,4.5-.6,9.1-1.2,15.2-1.9,0,5.3,1.7,11.9-.2,13.1-9.7,6.5-7.1,15.2-6.9,24.1.1,10.8-1.2,21.8-10.9,28.8-5.4,3.9-5.7,8.4-5.8,14.5,0,12.5-5.8,22.9-15.9,30.1-3,2.2-7.6,2.1-14.7,3.9,5.4-10.7,10.8-17.7,12.3-25.5,1.5-7.6-1.1-16-2.1-26.4-.6,1.4-.5-.1.3-.5,15.4-8,23.5-18.9,17.6-37.5-1.5-4.7,2.1-10.8,2.6-16.3,1.3-12.9,4.4-26.3-4.1-37.7-1.3.1-2.6.2-4,.3.5,6.5,1.1,13,1.7,19.5-.8.2-1.5.4-2.2.6-2.8-6.5-5.6-12.9-8.4-19.4-.8,0-1.7.1-2.5.2.7,6.9,1.4,13.9,2.1,21-12.9-1.2-11.5-14.5-18-21.1-3.8-.1-7.5-.3-14.1-.6,4.8,7,7.5,10.9,10.1,14.9,0,5.5.2,11,.3,16.5,1.2-.1,2.5-.3,3.7-.5,1.1-5.8-.3-11-4.3-15.8.7-5.2-2.2-11.4,4.5-14.8,1.4,6.5,1.5,13.8,4.6,19.3,5.8,10.5,3.8,19.7-2.8,27.9-8.4,10.4-11,21.7-9.4,34.5s-4.6,21-15.5,26.9c-5.6-9.4,5.1-14.8,4.5-22.1-.6-7.5-4.2-14.8-4.9-22.3-.3-3,3.6-6.5,5.9-9.6,3.2-4.3,6.6-8.5,10-12.9-7.1-6.5-13.5-8.3-20.9-5.5-1.8-3,2-10.5-8.8-8.3,3.9,3.5,6.5,5.7,9,8,2.6,2.8,5.3,5.7,8.2,8.8-8.5,14.8-23.8,9.6-37,12.9,4,9.5,13.9,5.3,20.3,10.1-4.9,8.9-11,8.3-17.8,2.3-2.9,7.1,3.5,12.5,19.4,16.3-7.2,3.4-12.2,5.8-18.5,8.7h18.1c.2.5.4,1,.6,1.5-4.6,1.7-9.2,3.5-18,6.8,8.1,1.8,12.3,2.7,16.5,3.6.1.6.3,1.2.4,1.8-7.2,1.1-14.4,2.3-24.9,4,9.6,3.4,16.3,5.8,25.1,9-4.9,3.3-8.5,5.7-13.5,9,4.3,2.1,8,3.9,13.5,6.5-4.3,3-7.7,5.3-9.6,6.6-1,13.1-1,25.4-3.1,37.2-1.2,6.9-5.1,13.7-9.2,19.5-8.9,12.9-16.1,14.5-31.4,9.3-3.1-1.1-6.5-1.1-9.8-1.6-.5-2.7-.8-5.5-1.6-8.1-8.5-26.5-2.6-41.6,21.7-55.8,1.2-.7,1.8-2.4,2.6-3.4-3.9-7-9.3-7.4-14.3-3.3-13.7,11.3-24.7,25-23.4,43.7.7,10.4.8,23.3,15.4,26.6,1.2,3.7,2.4,7.4,3.8,12,6,.8,12.3,1.7,19.1,2.6-5.3,9.4-14,5.6-21.1,6.4-1.9,27.9-31.4,31.3-52.7,22.4-3.1,4.9-2.7,11.3,1.2,19.4-5.6,4.7-11.3,9.3-16.9,14,1,1.2,2.1,2.4,3.1,3.6,9.9-8.1,19.9-16.2,30.5-25,6,2.6,9.1,7.3,9.4,13.9,12.2-.5,10.2-14.8,20.9-18.1-3.7,8.2-7.4,16.4-11.6,25.6,6.8-.3,11-2.7,12.9-8.7.6-2.1.3-4.8,1.6-6.3,9.5-11.1,19.3-22,29.6-33.6,8.9,9.4,4.1,22.5,8.1,33.8-2.2-1.7-4.4-3.5-7.8-6.1-1.5,4.2-2.1,8.6-4.3,11.8-2,2.8-6.1,6.7-8.5,6.2-11.3-2.2-17.7,4.7-24.8,11-3.8,3.4-7.7,6.6-11.5,9.9-4.8,4.1-9.6,4.2-15.6,2-7.1-2.6-14.8-3.3-22.2-5.3-2.9-.8-6.1-2-8.2-4-9.1-9.2-18.8-12.5-31.9-8.5-8.4,2.6-17.9,2.8-26.7,2.2-9.7-.8-19.3-3.8-31.9-6.5-7.4,6.1-19.2,10.3-32.5,10.4-13.7,0-25.1-5-34.9-15.7-13.3,7.5-25.8,17.8-42.1,12.5-5.2-1.7-9.8-5.5-14.7-8.3l1.2-4.1c4,0,8.5-1.2,11.9.2,21.7,8.9,28.2,7.2,42-13.7,3.7,3.4,7.4,6.4,10.6,9.8,8.2,9,18.8,12.3,30.4,12.3s20.3-2,24.8-13.7c.9-2.4,3.5-4.1,6.1-6.9,6.1,5.6,10.9,12.6,17.4,15.3,6.9,2.8,15.5,2.2,23.3,1.9,7.5-.2,15.9,1.1,22.7-7.3-3-2-5.4-3.6-7.9-5.2-17.6-11.4-23.7-29.6-27.1-48.5-2.6-14.3-2.1-29.1-3.8-43.6-1.2-9.9-2.4-20.2-5.9-29.5-10.1-26.3-35.2-31.3-54.7-11.1-6.6,6.8-12.2,14.7-17.1,22.9-12.3,20.6-27.9,38-48.5,50.5-17.1,10.4-36.6,11.4-55.5,9.7-16.9-1.5-30-17.8-31.7-37-4.5-49,12.6-72.8,52-94.5,9.9-5.4,16.7-3,23,6.3,6.4,9.5,7.6,18.2,3.1,28.9-3-2.9-5.5-5.3-8-7.8-8.1-8.1-14.6-8.5-23.7-1.6-14.6,11.1-21,41.4-11.6,56.9,3.9,6.5,9,9.8,18.2,8,19.9-4,32.6-14.6,41.4-32.9,7.3-15.1,16.1-29.2,22-45.2,11.6-31.2,36.3-47.4,69.2-50.9,15.5-1.6,28.8,6.9,35.7,20.9,20.2,41,34.3,84.3,45.4,128.5,4.5,17.8,14,31.6,27.6,43.1,14.4,12.1,36.1,4.4,39.1-13.7,1.5-8.5-1.4-15.3-8.6-20.4-33.9-24.4-47.1-59.8-54.1-99.2-4.9-27.6.8-54.9,0-82.3-.4-14.6-.6-29.2-1.4-43.8-.5-9.8-3-18.6-12.4-24.5-3.4-2.1-5.6-6.6-7.6-10.4-12.5-24.1-32.4-27.4-51.4-7.7-6.2,6.4-10.9,14.3-17.1,20.8-19.1,20.4-43.1,24-68.8,12.4-30.9-14-38.7-40.2-38.7-70.6s8.3-43.1,22.2-60.7c18.7-23.6,61.2-21,78.1,3.9,9.5,14.1,1.4,32.1-17.5,37.1-1.1-4.8-1.6-9.8-3.3-14.3-4.1-10.9-14.5-14.4-24.6-8.7-11.6,6.6-18.8,21-16.6,34.2,1.2,7.2,2.7,14.4,5.1,21.3,5.3,14.8,18.6,18.3,30.6,8.3,4.3-3.6,8.7-7.3,12.2-11.6,15.5-18.7,36.1-29.1,59.2-32.8,22.3-3.5,44.1-1.5,63.3,14.1,43.1,35,58.1,84.4,41.2,138.3-9.4,30.1-6.2,59.9,3.5,89.4,2.1,6.3,3.5,12.8,5.2,19.2-8.8-5.2-13.8-13.1-15.8-22.8-6.6-31.1-9.8-62,1.5-93,3.1-8.3,4.2-17.4,5.9-26.2.5-2.7.8-7.4-.4-8.1-10.4-5.5-4.2-12.7-3-19.8.7-4.1-1-8.7-1.9-13.1-.1-.7-1.4-1.2-2.2-1.7-1.6,3.2-3.3,6.3-5.6,10.8-6.1-10.9,1.3-24.7-11.6-31.9-1.7,6.2-3.3,11.8-4.8,17.3-.8,0-1.5-.1-2.3-.1-.8-3.8-1.6-7.6-2.8-13.7-1.7,5-2.5,7.3-3.3,9.6-2.5-6.3-2.5-12.2-2.7-18.1,0-.5-1.5-.9-3-1.8-1.4,4.1-2.8,8.1-4.6,13.2-5.9-26.5-15.3-43.9-26.4-49.8,3,9.8,6.1,19.5,8.9,28.9-7.2,8.7-6.4,16.2,2.4,22.6,1.2.9,2.5,1.9,3.1,3.1,5.3,11.6,10.4,23.4,13.8,31.1,10.7,7.9,19.3,13,26.2,19.8,6.2,6.1,4.5,12.5-2.6,16.5-6.9,3.9-13.3,2.2-16.8-5-2.1-4.4-3.4-9.2-6.4-17.6,0,9.4.1,14.9,0,20.3-.3,16.8.5,33.8-1.3,50.5-3.9,36,5.5,69.1,20,101.2,4.7,10.5,12.1,19.4,25.6,28.3-4.9-20.9,1.6-36.2,9.8-51,8.6-15,26-16.7,40-26.5,1-17.9,2-36.8,3-55.8,1.8-33.2,17.8-58.3,49.5-66.5,34.7-8.9,70.2-9.2,102.1,12.7,15.4,10.7,25.5,25.7,31.7,42.5,4.4,11.8,4.8,25.1,6.8,37.8,2.6,16.1-2.8,30.1-13,42.1-7.6,8.9-16,17.2-24.4,25.5-11,10.9-12.1,19.2-3.8,32.6,2.9,4.7,5.2,9.8,8.4,15.8,8.1-11.1,17-21,23.2-32.4,4.9-9.1,7.3-19.8,9.4-30.1,2.9-14.2,4.5-28.8,6.6-43.1,2.5-17.5,7.8-33.6,20.7-46.8,10.3-10.5,17.5-23.3,22.4-37.3,7.7-21.9,7.7-43.3-.6-65.3-9.5-25-28-43.1-44.3-62.9-3.5-4.3-7.1-8.9-11.5-12.2-17.8-13.2-21.9-31.4-21.1-52.2.8-20,23.4-54.9,42.2-61,7.5-2.4,17-2.4,24.6-.2,19.1,5.6,33.3,18.1,42.6,36,5.9,11.3,4.7,23,1.4,34.4-.9,3.1-6.3,6.6-9.9,6.9-5.2.5-10.6-1.8-16.4-2.9.2-4.3,0-7,.5-9.7,1.9-11.2-2.3-20.3-11.6-24.9-9.7-4.7-19.6-1.7-28.2,8.6-6.4,7.6-7.1,17.7,0,26.3,6,7.3,13.3,13.7,20.5,19.9,6.4,5.4,13.3,10.4,20.4,14.9,21.5,13.4,33.3,34.3,44.4,55.8.8,1.5,1.4,3.2,1.5,4.8,1.3,32.4,5.4,65-4.5,97-4.6,14.8-11.6,27.3-23,38.3-19.1,18.6-27.2,43.3-34.5,68.1-.4,1.3.7,3.1,1.2,5.1,10.5-7,20.5-13.9,30.8-20.3,19.3-12.1,39.2-17.1,62.4-10.2,19.3,5.7,39.9,6.5,60,.6,14.8-4.4,18.7-7.9,18.8-23.5,0-15.2,5.6-28.4,11.2-41.9,11.3-27.3,36.4-34.1,61.1-38.8,16.8-3.2,50.8,26.4,51.7,43.8.4,8.2-2.7,18.7-8.2,24.6-7.7,8.4-18.5,14.3-28.8,19.6-6,3.1-11.9-.4-15.4-7.7,1.7-1.8,3.4-3.8,5.3-5.8,10.3-10.8,9.2-23.4-3-33-8.3-6.6-23-3.9-29.2,6.9-4.6,8.1-7.2,17.6-9.6,26.7-1.4,5.3-.6,11.2-1.3,16.8-1.3,11.5.2,24.1-8,33.7-12.2,14.4-26.9,25.7-45.6,30.2-4.6,1.1-10,.2-14.8-.9-12.6-2.9-24.9-6.9-37.5-9.7-26.2-5.8-43.6,5.3-50.4,31.6-.6,2.2-1.1,4.4-1.1,6.6-.3,61.8-36.6,101-83.1,133.7,6.8,2.1,22.7,1.2,29.8-3.7,9.1-6.2,17.3-13.6,25.9-20.5,18.2,27.2,47.8,33.2,67.8,12.9,3,1.8,6.2,3.7,9.4,5.5,15.3,8.9,22.2,8.4,36.5-2.5,4.8-3.7,9.7-7.3,16.7-12.6-5.5,10.2-22.8,27.3-29.2,28.1-5.3.7-11.2-.3-16.3-2-8.2-2.5-15.8-2.7-24.5-1.3-23,3.6-46.2,4.5-64.4-15.4-28,20-56.5,32.1-86.5,7.6-35.5,10.6-70,17.9-106.4,0-8.5,1.2-14.1,15.3-26.9,10.1-9.8-4-19.9-7.2-31.3-11.3-20.1,16.4-45.4,16.8-70.8,14.1-8.9-1-18.6-3.9-25.2-16.4,6,1.4,9.8,1.4,12.6,3,16.1,9.1,33.6,9.1,51,7.3,13-1.3,25.5-5.4,29.4-20.8.5-1.8,2.6-3.2,4-4.8,17.5,16.4,21.5,16.2,36.5-2.8-10.9-1.9-13.9,10.7-22.5,11,9.4-22.6,14.9-28,32.4-36.1,9.9-4.5,18-4.5,25.6,3.9,2,2.3,4.9,3.8,10.2,7.8-2.4-6.1-3.4-8.9-4.9-12.8,14.8-.9,29.1.2,43.4-3,6.1-1.4,14.4,1.9,20.4,5.3,17.1,9.8,27.5,8.6,43.3-8.2-4.7.7-8.1,1.2-15.5,2.3,7.1-10.6,12.5-18.6,17.8-26.5,3.2-2.2,6.5-4.5,9.7-6.7,13.1-6.2,17.9-16.1,16.5-30.8-.9-9.5,2-19.4,3.6-32.5-11.7,11.1-21,19.9-30.3,28.7l-2.5-2.5c3.5-4.5,7-9,10.9-14.2-1.6-3-3.3-6.2-5-9.5,3-2.2,6-4.4,11.6-8.6-9.5.6-12.3,3.1-11.5,8.7h-.2ZM160.3,310.9c-3.4,2.3-6.9,4.6-10.4,6.9-4.8,1.2-7.9,3-7.5,9.1.6,10.3.2,20.7.2,31-.5.3-1.1.5-1.6.8-2.3-5.8-4.6-11.5-6.4-16.2-3.4,12.6-.8,27.5-10,39.7-2.8-2-5.6-4-10.9-7.8-.4,10-.8,17.3-1.2,25.8-3.3-2.6-5.3-4.2-8-6.4-2.4,4-4.8,7.6-6.9,11.4-10.8,19.4-30.8,22.1-49.5,27-2.2.6-5.4-1.2-7.7-2.6-8.2-5.3-13.7-12-15.5-22.5-3.6-21,.6-38.8,16.3-53.6,1.5-1.5,2.4-3.6,3.7-5.4,8.2-.7,16.4-1.5,25.5-2.2-4.2-6.9-8.7-9.8-15.3-5.6-3.6,2.3-6.7,5.4-10,8.2-34.7,14.4-41.3,60.5-35.2,84.8,2.2,8.6,7.5,14.8,16.1,18.7,1.7-3.5,3.2-6.6,4.9-10.4,3.1,3.2,5.3,5.5,7.5,7.8,2.3-2.2,4.2-3.9,6.2-5.7,5.9,3.4,9.7,12.4,18.4,6.7-.2-3.5-.4-6.6-.7-10.3,7.9.7,13.3,11,20.6,2.3-1.7-2.9-3.4-5.7-6.3-10.8,7.4,2,12.1,3.3,13.7,3.7,7.2-6.8,12.4-12.6,18.5-17.1,4.5-3.4,10.2-5.2,14.2-7.1,10.1-13,19.7-25.4,29.4-37.6,8.1-10.3,19-12.9,31.6-11.1,13.1,1.9,23,8.2,30.2,19.2,7.4,20.9,8.2,42.8,10,64.5.9,11,1.3,22.3,8.8,31.7-.4-13,5.4-25.9-1.1-38.9-1.9-3.7-1.8-9-1.1-13.2.5-3.3,2.8-7.8,5.4-8.8,2.2-.8,6.9,1.9,9,4.3,9.9,11.4,5.5,22.6-2,33.8,5.1,4.7,10.3,9,14.9,13.9,7.7,8.2,7,16.5-1.4,24.6-1.6,1.5-3,3.1-6.4,6.8,14.4-1.9,26.6,0,35.5-12.4-16.1-16-24.7-35.8-30.4-57.1-4.4-16.2-9.5-32.2-14.4-48.2-.5-1.5-1.4-2.9-2.4-4.7-4.3,4.1-7,6.7-8.1,7.8-6.8-1.5-11.7-2.6-16.6-3.7,5-9,10.1-17.9,15.1-26.9-.7-.4-1.3-.8-2-1.2-3.1,2.6-6.2,5.1-12.4,10.2,2.8-8.5,4.4-13.4,6.2-18.9-3.2.5-5.1.9-8,1.4,1.9-7.7,3.5-14.1,5.3-21.4-3.6-1-6.6-1.9-9.5-2.7-.3-3.2-.6-6.3-.9-10.8-4,3.6-6.9,6.1-12.8,11.4,1.8-6,2.4-8,3.1-10,.8-2.5,1.5-5,2.2-7.5-9-2.7-15.6,2.3-19.7,15.1,3.2,1.7,6.8,3.1,9.9,5.2,5.1,3.7,5.2,10,1.5,13.1-4.2,3.7-10.7,5.9-16.4,6.6-5.6.6-8.8-4-9.7-9.7-.4-2.7-1.6-5.4-2.4-8,12-3.3,11.1-13.3,13.9-25.1-7.4,3.7-12.1,6-16.9,8.4h0v-.3ZM189.5,145.9l.3-.3c-6,3.9-12.5,7.2-18,11.7-7.4,6-13.7,13.3-21.2,19.2-12.4,9.8-21,8.9-32.9-1.4-9.9-8.6-10.3-20.8-12.8-32.1-5.4-24.2,10.1-46.3,34-49.4,1-2.9,1.9-5.5,3.4-10.1,4.9,6.4,8.3,10.8,14,18.2.5-6.7,1.6-9.9.7-12.4-3.7-9.7-12.6-10.4-21-10.3-24.2.2-43.3,19-46.3,44.3-.8,6.8-4,12.9,2.2,19.5,2.2,2.3-1.8,9.5-.6,13.8,3.3,12.6,10.1,24.2,8,38-.2,1.7,1.5,3.6,2.4,5.7,3-2.2,5.1-3.7,7.8-5.7,3.7,7,4.4,15.8,14.5,17.8-1-4.6-1.8-8.2-2.8-12.5,11,2.2,10.8,17.9,24.1,15.5-3.8-5.3-7.3-10-10.7-14.8.8-.6,1.5-1.3,2.3-2,7.7,5,15.4,10,24.1,15.6,5.5-6.1,10.1-11.2,14.4-16-3.6-4.5-6.1-7.6-10.4-13,7.9,1.5,12.5,2.4,17.7,3.4-.8-3.7-1.3-6.2-1.7-8.4,16.1-6.8,31.8-13.4,48.6-20.5,0-1.4.9-5.4-.5-6.6-4.4-3.6-9.6-6.1-14.4-8.9-1.4,3.4-2.9,6.9-5.1,12.2-2.5-7.6-4.2-12.6-6.5-19.7-5.5,3.7-9.5,6.4-13.5,9.1h-.1ZM639.7,295.5l-.3.4c9.9-4,13.3-12.8,16.4-22,11-32.3,6.3-65.6,5.7-98.6,0-2.1-1-4.4-1.9-6.4-9.2-18.8-20.1-35.9-37.7-48.6-14.9-10.8-28.7-23.4-42-36.1-12.1-11.5-13-25-4.2-37.7,10.6-15.4,22.5-19.3,39-12.6,1.8.7,3.6,1.3,5.5,2,1.1-3.8,1.8-6.1,3.5-12.1,4.1,13,7.1,22.3,10,31.7,3.2-1,5.7-1.8,8.1-2.6-2.6-23.5-25.5-45.5-47.3-45.4-7,0-14,1.4-12.1,11.7,0,.5-4.3,1.9-7.3,3.1.5,3.3,1.1,7.5,1.7,11.7-1.5,1.2-3,2.4-4.4,3.6-1.5-4.4-3-8.8-4.4-13.2-1,.9-1.9,1.8-2.9,2.7v21.9c-4.9-1.5-8.9-2.7-14.5-4.4,4.5,8.4,8,14.8,12.7,23.5-7.8-1.5-12.4-2.3-16.4-3.1-6.6,12.5,6.3,11.2,10,16.2-3.4,2.8-6.4,5.4-9.4,7.9.4.9.8,1.8,1.3,2.6,5.2-.5,10.4-1,18.4-1.7-5.3,4.7-8.3,7.3-13.5,12,7.5,1,11.9,1.6,16.3,2.2-1,3-2,5.9-3.2,9.5,4.5.4,8.1.8,11.2,1.1-.2,4-.4,6.9-.7,10.8,5.7-.9,9.9-1.6,16.7-2.7-3.6,5.2-5.8,8.3-10,14.2,9.6-1.1,15.8-1.8,24.2-2.8-4.6,5-8,8.7-11.3,12.3.5.8.9,1.7,1.3,2.5,5-.9,9.9-1.9,15.3-2.9-1.7,4.4-3.2,8.3-5.2,13.1,4.3-1,6.8-1.6,12.4-2.9-8,10.2-5.7,17-.8,24.9,11.6,18.7,11.5,40,7.8,60.6-4,22.4-14.5,42.4-29.3,59.9,1.8,1.3,3.8,2.7,7,5-17.2,3-17.6,2.9-20.2,11.4-7.2,24.1-11.3,48.8-12.2,74.7,16.5-12.7,25.8-23.6,27.5-32.5-4.8,2.2-9.2,4.3-13.7,6.3-.8-1.1-1.6-2.2-2.4-3.3,6.7-5,13.4-9.9,20-14.8-3.6-4-5.3-5.9-7.8-8.8,7.8-6.9,15.8-13.1,22.7-20.3,7.2-7.5,13.5-16,20.1-24.1h.3ZM797.9,295.8l.3-.3c-2.5,6-5,12-7.6,18.3,5.2.9,8.3,1.5,14.3,2.6-6.9,4.1-11,6.5-16.2,9.6,3,4.3,5.3,7.6,7.5,10.8-4.2,2.8-8.4,5.6-13,8.8,4.1,3.9,6.7,6.3,11.9,11.2-9-.9-14.2-1.4-20.3-2,1.5,4.5,2.9,8.4,4.4,12.9-6-.2-11.7-2.1-12.3,5.7-4.7-3.8-8.7.2-12.8,1.3-2.3-2.7-4.5-5.2-7.4-8.5v8.5c-10.6-7.4-24.2-12.4-40.9-15.2-2.8-.5-5.5-1-8.3-1.6-35.6-7.6-73.3,12-88.9,44.5-9,18.8-11.6,38.1-13.2,58.3-1.9,24.2-6.2,47.5-32.3,60.2-18.1,8.8-34.4,13.1-51.5-.5-5.9-4.7-11.9-5.8-18.5-1.1-3,2.1-6.5,3.4-8.1,4.3,2,4.1,3.7,7.8,5.8,12.2-7.1.9-13.6,1.7-20.4,2.6,5.2,13.1,12.3,3.2,18,2.8,7.5-.5,15-2.8,21.7-4.2.9,4.2,1.7,7.6,2.2,9.9-3.1,3.4-6.5,7-9.9,10.7-5.6-5.2-11.5-6.8-18.5-1.9,6.4,9.1,12.2,7.5,18.3,1.6,17.1-3.7,34.3-7.4,52.2-11.2,2.7,1.7,6.4,3.9,10.6,6.5.8-3.5,1.3-6,1.9-8.5,3.9.6,7.5,1.2,11.6,1.9-4.2-19.1,16.2-8.7,19.4-18.5-.9-2-1.9-4.3-2.9-6.5,7.5-4.7,14-8.8,20.6-12.9-10.8-15.2-9-32.9,5.3-53-10.6-10.9-7.9-22,1.3-32.3,8.5-9.5,15.4-19.5,17.7-32.6.9-5,5.7-9.6,9.4-13.7,4-4.5,8.6-4.4,12.7.5-1,13.1-7.3,23.5-15.7,32.8-3,3.3-4.6,6.6,1,9.2,7.8-11.5,15.5-22.9,23.7-34.9-.7-2.9-1.7-6.8-2.7-11,5.5,1.4,9.6,2.5,13.7,3.5,8.6,2.1,17.3,0,25.6.4,10.9.5,21.4,7.5,32.4,10.6,12.2,3.4,25.8,7.3,37.1.6,17.3-10.3,31.1-24,28.2-47.5-1.8-15.3,2.8-30,9.3-44,6.7-14.2,17.6-20.5,33.5-20.3,4.3,0,8.7-1.7,14.2-2.9,1.2,3.6,2.4,7.1,3.5,10.7.5,1.5,1,3,1.4,4.5,3.1-4,3.3-6.2,4.1-8.2.6-1.6,2-2.9,3-4.3,1,.4,2.1.8,3.1,1.1-1.5,9.2-3,18.3-4.5,27.5,1,.2,2,.5,3,.7,3.3-5.6,6.6-11.2,9.9-16.8l3,1.4c-1.2,6.4-2.4,12.8-3.9,21.1,11.3-8.9,13.1-13.9,10.1-23.8-5-16.5-27.7-33.3-45-32.5-7.1.3-13.6,1.7-19.3,8-7,7.6-16.8,12.7-24.6,19.8-3.7,3.4-5.6,8.8-8.3,13.3h0v-.2ZM432,521.1c-12.1,10.4-13,25.5-20.4,37.5h-7.5c16.7,10.2,23-6.7,34.4-13.3,7.2,13.8,17.8,19.8,33.7,16.2-7.4-20.4-29.5-24.2-40.2-40.5h0ZM546.8,289.8c-2,6-4.2,10.9-5.4,16.1-1.6,7.1-5.5,12.5-12.1,14.5-10.4,3-9.7,9.7-8.1,19.7,8.2-5.7,14.9-10.3,21.5-15.1,15.4-11.1,16.1-16.2,4-35.2h0ZM432.9,271.6c-1.4-5.6-1.8-8.8-3-11.7-5-11.3-10.6-12.9-20.7-5.5-10,7.3-18.6,15.9-20.8,29.8,5.8,3,8.9,11.4,19.2,6.7-5.2-4.4-9.3-7.9-14.3-12.2,6.5-6.6,12.4-12.6,18.7-18.9,6.6,3.7,12.3,6.9,21.1,11.8h-.2ZM538.8,348.4c4-1.1,7.4-2,12.5-3.4-2.7,11.8-9.5,18-16.7,24-3.3,2.7-8,5.5-2.2,10.3,22.4-13.5,31.5-37.5,22-55.1-4.8,7.5-9.9,15.5-15.5,24.2h0ZM369.2,448.2c16.2-10.7,16.7-25.2,19.6-38.5.9-4.3,0-8.6-6.8-10.9-4.1,16.1-8.1,31.4-12.8,49.4h0ZM368.9,395.7c-16.6,4.5-22,13.5-23.6,25.3-1.5,10.7.5,14.9,9.8,20.7-8.5-18.5,3.7-30.2,13.8-46h0ZM647.3,452.2c-1.1-.6-2.2-1.2-3.3-1.7-4.6,2.9-9.2,5.8-14.3,9.1,2.2,7.4,4.3,14.1,6.3,20.8,1,0,2,0,2.9-.1,2.8-9.4,5.6-18.7,8.3-28.1h0ZM244.9,465.4c-1.3.7-2.7,1.4-4,2,1.3,5.1,2,10.5,4.2,15.2,1,2.1,4.8,2.9,7.4,4.2,1.1-3.2,3.9-7.5,2.8-9.6-2.4-4.5-6.8-8-10.4-11.9h0ZM637.2,426.7c-1.3-.4-2.6-.9-3.9-1.3-2.7,4.2-6.2,8.2-7.9,12.8-.6,1.6,2.5,5.4,4.8,7,.9.6,5.6-1.9,6-3.6,1-4.8.8-9.9,1-14.9h0ZM178.5,344.1c3.6-4.3,7.8-7.2,7.5-9.4-.4-2.6-4.6-6-7.4-6.3-2.2-.2-6.8,3.7-6.9,5.8,0,2.7,3.5,5.4,6.8,9.9h0ZM290,236.5c.2,10.1,4.3,14.7,12.4,13.9-4.2-4.8-7.5-8.4-12.4-13.9ZM620.7,473.4c-4.3,5.9-8.7,10.6-1.9,17.7,6.1-5.6,8.9-10.5,1.9-17.7ZM280.6,518c-1.4-1.7-2.7-3.4-4.1-5-5,.4-8.9,2.2-10.7,9.8,3.5-.7,5.5-.9,7.3-1.6,2.5-.9,5-2.1,7.5-3.2h0ZM480.3,304.6c.8.1,1.7.3,2.5.4,1-6.4,1.9-12.8,2.9-19.2-.8-.1-1.7-.3-2.5-.4-1,6.4-1.9,12.8-2.9,19.2ZM239.3,151.5c-5.2,8.1-8.4,13.6,3.4,16.9-1.2-5.9-2.1-10.3-3.4-16.9ZM588.5,389.2c8.5,1.3,9.8-2.1,9.2-10.4-3.8,4.3-6.1,6.8-9.2,10.4ZM652.7,387.4c-.9-.4-1.8-.9-2.7-1.3-1.5,3-3,6.1-4.5,9.2.9.4,1.7.8,2.6,1.2,1.5-3,3-6.1,4.5-9.1h.1ZM573,499.2c1.1,1,2.1,1.9,3.2,2.9,1.7-2.9,3.4-5.8,5-8.7-.7-.5-1.3-1-2-1.5-2.1,2.4-4.1,4.9-6.2,7.3h0ZM244.1,506c1-.2,2-.3,3-.5-1.1-3.6-1.9-7.2-3.4-10.6-.4-.9-2.6-1-5.8-2.2,2.6,5.6,4.3,9.4,6.1,13.3h0ZM241.9,428.1c-1.1.2-2.2.3-3.2.5.5,3.4,1,6.8,1.5,10.2,1.1-.2,2.2-.4,3.4-.5-.5-3.4-1.1-6.8-1.6-10.2h0ZM576.3,484c-.5-.5-1-1-1.6-1.4-2,2.1-3.9,4.2-5.9,6.3.6.5,1.1,1,1.7,1.5,1.9-2.1,3.8-4.3,5.8-6.4h0ZM536.8,270.3c-1.5-.1-3-.2-4.5-.4-.2,3-.4,6.1-.5,9.2.9.1,1.7.3,2.6.5.8-3.1,1.6-6.2,2.4-9.3h0ZM514.7,397.8c-.8-.9-1.5-1.7-2.3-2.5-1.5,2.2-3.1,4.5-4.6,6.7l1.9,1.4c1.6-1.8,3.3-3.7,5-5.5h0Z"/>
            <path class="cls-1" d="M457.3,465c.3-11.4,8.2-23.7,18.8-33.9,9.6-9.2,24.9-4,29.2,10.3,4.1,13.5,5.2,27.5-3.6,40.4-6.8,10-17.8,14.3-29.2,10.9-10.1-3-14.9-10.5-15.1-27.6h0ZM469.4,480.5c6.9-14.2,13.1-27.8,15.3-45.4-19.6,16.5-23.3,28.3-15.3,45.4h0ZM491.7,476.9c5.5-4.1,7.6-9.7,6.2-16.6-2.6,6.8-4.4,11.7-6.2,16.6Z"/>
            <path class="cls-1" d="M377.2,670c-11,11.2-25.6,9.5-39.8,5.7-13.6-3.6-17.3-12.6-13.8-31.3,3,4.2,5.6,6.6,6.6,9.6,4.5,13.4,7.1,16.1,19.3,16.9,10.3.7,20.7.9,24.5-12,.6-1.9,2.3-3.5,4.2-6.3,10.1,9,15.6,23.3,31.8,22.1,14.1-1.1,24.6-6.4,27.4-23.9,9.1,10.2,3,15.5-1.5,20.3-7.9,8.5-19,10.9-29.4,9.7-9.4-1-18.3-6.5-29.4-10.8h0Z"/>
            <path class="cls-1" d="M297.8,598.2c-16.1,18.5-34.5,18.1-65.4-.5-18.3,13.8-38.4,22.2-61.2,8.6-4.5-2.7-11.2-3.8-8.4-11.7,12.6,3.6,24.8,8.7,37.5,10.4,14.7,1.9,22.7-9.8,30-20.1,10.8,6.5,20.4,14.5,31.5,18.2,11.6,4,24.3,2.1,36-4.9Z"/>
            <path class="cls-1" d="M583.6,600.1c2.4,2.3,5.3,4.2,7.1,6.9,13.8,20.2,29.8,18.8,40.9-3.7.9-1.9,2.6-3.4,4-5.2,8.3,5.9,16.2,11.5,24.1,17,9.3,6.6,18.6,6.2,28.3.4,5-3,10.6-5.3,16.6-6.5-8.6,9.4-18.8,18.5-31.3,17.5-12.2-1-23.9-7.7-37.4-12.4-10.2,8-21.8,17.2-38,11.5-10.9-3.8-13.7-13.5-17.8-22.3,1.2-1.1,2.3-2.2,3.5-3.3h0Z"/>
            <path class="cls-1" d="M440.7,627.9c-34.3,11.6-49,9.2-64.5-13.3,5.7,1.6,8.9,2,11.6,3.3,6.5,3,12.5,8.2,19.1,9.2,15,2.2,29.6.8,36.1-18.4,2.6,3,4.9,4.3,5.1,5.9,2,13.4,11,16.5,22.9,17,14,.7,26.8-.6,36.7-12.1.8-.9,2.8-.8,4.7-1.3-12.6,24.4-46.6,28.7-71.8,9.6h0Z"/>
            <path class="cls-1" d="M428.8,450c1.6-1.2,3.3-2.4,4.9-3.6.9.3,1.7.6,2.6,1-1.5,4.2-2.5,11.9-4.5,12.2-9.8,1.2-10.5,8.6-12.4,15.2-2.6,9.3-8.5,8.8-17.2,5.8,4.1-4.3,7.5-7.8,11.7-12.2-4.3-2.3-7.4-3.9-12.8-6.8,7.2-2.3,12.1-3.8,18.9-5.9-3.9-3-6.1-4.7-9.6-7.4,3.8-2.5,7.2-4.7,12-7.8-3.4-3.2-6.2-5.8-11-10.2,6-.6,9.7-.9,14.8-1.4-2.2-3.1-3.9-5.5-6.6-9.5,5.7-.3,10.3-.6,15.9-.9,1.1,4.4,2.1,8,2.9,11.6,1,4.1.5,5.2-4.7,5.5-2.7.2-4.9,8.1-7.2,12.5.8.6,1.6,1.2,2.5,1.9h-.2Z"/>
            <path class="cls-1" d="M572.2,475.1c-3.2,2.2-6.5,4.5-9.7,6.7-.4-2-5.5-7.8-7.8-8.3,9.7-10.4,19.2-20.6,28.8-30.9.7.3,1.4.5,2.1.8-4.5,10.5-8.9,21.1-13.4,31.6h0Z"/>
            <path class="cls-1" d="M584.5,434.6c-7.9,7.6-15.8,15.3-23.7,22.9-.8-.8-1.6-1.7-2.5-2.5,7.7-7.8,15.5-15.6,23.2-23.4l3,3h0Z"/>
            <path class="cls-1" d="M403.7,493.5c-.7-1.8-1.4-3.5-2.2-5.3.9-.3,2.5-1.2,2.7-.9,1.2,1.5,2.1,3.2,3.2,4.9-.9.3-1.9.7-3.7,1.3h0Z"/>
            <path class="cls-1" d="M797.9,295.8c3.9-1.2,7.8-2.4,13.3-4.1-4.6,6.2-8.9,7.5-13,3.8-6.1-5.5-.3.3-.3.3h0Z"/>
            <path class="cls-1" d="M639.7,295.5c-4.1.8-10.9,3.3-11.7,2-2.8-4.4-4.5-10.1-4.6-15.3,0-6.1,8.4-18,16.2-25.2,5.7,5.6,7,12.1,5,19.6-1.7,6.5-3.5,12.9-5.3,19.4l.4-.4h0ZM629.1,287.6c1.8.5,3.6,1,5.5,1.5,1-5.3,2.1-10.6,3.2-15.9-1-.3-2.1-.6-3.1-1-1.8,5.1-3.7,10.2-5.5,15.3h-.1Z"/>
            <path class="cls-1" d="M637.4,156.9c6.3,5.7,13.1,10.4,18,16.6,5.7,7.1,1.9,13.3-11.2,20.9-11.8-10.6-14.5-22.9-6.8-37.5h0ZM643.1,171.4c-1.2.7-2.3,1.3-3.5,2,1.8,4,3.7,7.9,6.7,14.5,6-10.3,2.1-13.6-3.2-16.4h0Z"/>
            <path class="cls-1" d="M643.6,212c12.7,7.4,16.7,20.8,8.9,31.6-1.9,2.6-6.3,4.8-9.5,4.8s-5.4-3.9-6.3-6.7c-3.8-11.2,1.3-20.6,6.9-29.7h0ZM649,226.1h-4.8v12.1c1.2,0,2.3.1,3.4.2.5-4.1.9-8.3,1.4-12.4h0Z"/>
            <path class="cls-1" d="M591.6,318c4-.8,8-1.5,12-2.3.2.9.4,1.7.7,2.6-3.9,1.1-7.8,2.2-11.7,3.4-.3-1.2-.6-2.4-.9-3.7h0Z"/>
            <path class="cls-1" d="M294.1,308.7c9,9.4,9.3,20.9,7.5,32.5-.4,2.6-3.8,6.7-6,6.8-3.2.1-7.7-1.8-9.7-4.4-7.8-10.2-4.4-24.2,8.2-35h0ZM290.5,339.5c1.5,0,2.9-.1,4.4-.2,3.3-5.8,2.4-11.4-5.1-16.7.3,5.6.5,11.3.8,16.9h0Z"/>
            <path class="cls-1" d="M301.4,297.9c-12.7.5-21-6.9-21.2-16-.1-6.7,6.1-14.4,11.6-14.2,6.1.2,17.4,13.9,16.1,21.4-.7,3.8-5.1,7-6.6,8.9h.1ZM304,287.5c-5.9-4-9.4-6.4-12.9-8.8-.9,1.8-2.9,3.8-2.5,5.3,1.5,5.7,5.5,7.4,15.4,3.5h0Z"/>
            <path class="cls-1" d="M149.7,317.4c1.2,4,2.5,8,4,12.8,2.1-6.7,4.1-13.2,6.2-19.6,1.2,5.7,2.4,11.5,3.6,17.2-4.5,5.2-3.6,15.6-15.2,14.8-3.7-8.4-3.6-16.8,1.4-25.1h0Z"/>
            <path class="cls-1" d="M189.5,145.9c8.5-1.1,7.6,5.6,7.9,10.4,0,1.1-4.4,2.5-6.8,3.8l.2.4c-.3-5-.6-10-1-15l-.3.3h0Z"/>
            <path class="cls-1" d="M190.6,160.1c-1.7,2.7-3.3,5.5-6.1,10.1-1.6-5.4-2.8-9.5-4-13.6.8-.7,1.6-1.3,2.4-2,2.7,1.9,5.3,3.8,8,5.8l-.2-.3h0Z"/>
            <path class="cls-1" d="M156.1,200.2h13.6c-4.4,6.6-8.4,7.4-13.6,0Z"/>
          </g>
        </g>
      </g>
    </g>
  </g>
</svg>