<?xml version="1.0" encoding="UTF-8"?>
<svg xmlns="http://www.w3.org/2000/svg" version="1.1" viewBox="0 0 847.9 597.8">
  <defs>
    <style>
      .cls-1 {
        fill: #594b39;
      }
    </style>
  </defs>
  <!-- Generator: Adobe Illustrator 28.6.0, SVG Export Plug-In . SVG Version: 1.2.0 Build 709)  -->
  <g>
    <g id="Layer_1">
      <g id="Layer_2">
        <g id="Layer_1-2">
          <g>
            <path class="cls-1" d="M37,460.8c11.2,5.9,24.3,5.7,35.7,12.4,5,2.9,12.2,4.4,18.4,7.3,6,2.8,11.3-1.1,15.8-5.5,3.6-3.6,5.5-9.7,11.4-9.6,1.3.8,1.9.9,2.1,1.3,6.6,18.7,14.6,23.4,34.5,20,25.9-4.4,36.4-18.5,33.4-44.4-1.3-11.2-1.7-22.5-3.7-33.5-1.9-10.5,1-18.4,9.7-25.2,5.1,6.9,3.2,18.5,15,21.3,13.2-27.2,26.3-54.6,19.8-86.7-1-4.8,0-10,.1-15,1-.2,2-.5,3-.7,5.7,6.9,11.4,13.8,17.8,21.5,10.7-13.2,20.5-25,29.7-37.1,1.4-1.8.3-5.6,0-8.4-2.8-18.9-.3-37.4,5-55.6.8-2.6,4.3-4.5,6.6-6.7,1.9,2.5,4.3,4.8,5.5,7.6,5,12.4,9.5,24.9,14.6,37.3,2.1,5.2,9.3,7.9,14.7,5.5,9.9-4.5,19.8-9.3,29.3-14.5,2.8-1.5,4.6-4.9,6.9-7.5,11-12.7,21.4-26,33.3-37.9s17.4-12.5,31.4-17c-2.4,5.4-2.8,8.8-4.7,10.2-16.1,11.6-19.2,27.6-17.4,46.2,9.2,1.3,17.8,2.4,25.1,3.4,12.5-7.2,24-14.8,36.4-20.5,7.3-3.4,15.9-3.7,24.4-5.5,1.8,8.7-4.2,10.9-8.1,13.9-12.2,9.4-20.9,20.9-25.4,37.2,8.3,5.9,16.6,11.9,26.4,18.8,10.4-13.2,24.2-20.1,40.6-23,6.6,4.3,7,9.6,2.5,16.1-4.9,6.9-9.3,14.1-14.3,20.9-8.1,11-14.6,22.3-11.5,36.8.9,4.2.2,8.7.2,12.9,19.8,8,30.1,17,31,27.1-15.3,1.7-31.9,2-43.1,14.9-3.6,4.2-5.1,10.2-7.5,15.2,12.1,5,22.8,9.5,32.9,13.7-.2,7.9-4.5,7.4-8.5,7.6-12.5.8-22.7,6.4-31.4,15.2-4.3,4.4-6.2,9-2.1,14.5,3.6,4.7,6.8,9.8,11,14,6,6.1,13.4,8.5,21.8,4.9,9.7-4.1,21.7-4.5,26.4-16.9.5-1.4,4.7-1.2,6.4-2.6,6.3-5.2,15-9.7,17.9-16.5,4.4-10.1,5.4-21.9,6.5-33.1,1-9.8,0-19.8.4-29.8,0-2.9.4-6.3,1.9-8.6,1.6-2.5,4.8-3.9,7.3-5.8,1.5,2.3,3.8,4.4,4.2,6.9.8,4.3.2,8.9.9,13.3.5,3.2,2.1,6.4,5.8,10,2-5.2,4.5-10.3,5.8-15.6,1.5-6.2,1.6-12.8,3-19.1,1.5-6.7.2-12.2-3-18.3-9.3-17.6-6.5-36.8-5.1-55.5.5-6.9,6.6-12.7,13.9-18.1,5.2,12.8-4.4,26.1,6.1,37.4,5.5-7.2,7-15.3,8.3-23.3,1.1-7.6,4.1-15.5-2.9-22.5-2.1-2-2.5-6.4-2.5-9.8-.2-12.4-.3-24.8.3-37.1.3-5,2.6-9.8,4-14.8,1.2.1,2.3.2,3.5.3,2.6,11.2,5.2,22.3,7.7,33.5.9.2,1.8.4,2.7.6,4-9.8,8.3-19.6,11.9-29.5.9-2.4,0-5.7-.6-8.5-4.9-27.1-2.3-53,11.6-77.2.5-.9,2.4-1,4.9-2,4.6,13.3-4.1,27.9,4.1,40.4,13.8-13.5,27.1-26.6,42.3-41.4-.6,1.9.2.8,0,0-7.7-24.3,1-47,7-69.8,2.8-10.6,8.1-20.1,16.9-27.5,7.6-6.3,14.3-13.8,21.4-20.7,3.1-3,7.2-4.9,10.2-.9,1.5,2,1.2,6.7,0,9.3-10.7,21.4-10.8,21.3-11.5,40.7,9.3-10,18.2-17.6,24.5-27,8.2-12.1,20.7-14.7,32.9-18.6,4.9-1.5,8.8,3.7,6.4,8.2-2.8,5.2-6.3,10.1-10,14.8-9.6,12.4-14.7,26.5-18,42.7,11.3-2.7,21-5.3,30.9-7.4,12.5-2.7,23.4,2.7,34,8.2,5.5,2.8,6.2,8.4.9,11.8-24.1,15.2-44.8,35.8-74.6,41.8-25,5.1-42.3,22.1-56.4,43.1-16.2,24.1-23.3,51.1-29.3,78.9-8.5,39.2-8.7,78.7-8.2,118.5.3,23.7-2.3,47.5-4.2,71.2-.4,4.7-3.3,9.2-5.4,13.7-2.8,6.2-5.9,12.3-9.4,19.6,18.8,11,37.9,8,59,5.7-24.4,12.8-53.5,9.4-75.2-6.6-33.8,14.9-67.6,21.9-104.9,8.6-6.9,2.6-15.8,5.6-24.5,9.2-14.1,5.8-26.2,3.5-36.2-8.3-1.6-1.9-3.5-3.4-5.7-5.4-12,1.2-20,10.2-32.2,17.6,1.8-4.9,2.6-7.2,3.4-9.4l-.2.3c7.1-4.4,14.3-8.8,21.1-13-1.1-25.5,18.1-33,36-41.7-8.7-8.3-17.9-.7-25.5-2.6-3.4-5.2-6.5-9.9-10.2-15.6,11.1,2.5,15-5.7,20-13.3,8-12,21-15.7,34.3-18.3,1.8-.4,3.6-.5,5.3-2-12.6-1.2-24.5,2.5-38.3,6.2,7-11.8,19.8-8,28.6-14.3-6.9-1-14.7,0-17.4-3.2-2.8-3.4-.7-10.9-.8-16.5,0-3,.6-6.4-.6-8.8-8.9-17.3.1-31,8.5-44.9,1.9-3.2,3.9-6.4,6.7-10.9-13.5,1.7-15.5,14.9-22.1,18.7-11.5-6.7-21.5-12.4-31.4-18.4-5.1-3.1-8.2-7.2-4.8-13.6,2.3-4.3,4.2-8.8,4.8-15-4.3,3.3-8.6,6.6-13.9,10.6-.5-2.7-.8-4.9-1.2-7,8.8-6.2,18.2-11.9,25.1-24.6-12.8,6.9-23.1,11.6-24.8,24.8-2.8.4-7,2.2-8.2,1-9.1-8.8-19.2-9-29.7-4.1-6-11.4-6.1-13.4-3.1-37.8-11.9,5.4-12.2,23.7-28.5,24.4-.4,4.2-.7,8.5-1.1,14-4.8,1.1-9.5,2-14.1,3.3-5.6,1.6-11.6,2.8-16.7,5.5-10.2,5.4-18.7,13.8-31.9,13-4.1-.3-9.1,3.9-12.6,7.2-8.3,7.8-16.8,15.5-23.5,24.6-6,8-9.6,17.7-15.3,28.7h-15.9c-3.2,10.6,3.7,21.9-4.7,30.5l.3-.3c-2.2,3.2-5.2,6.1-6.6,9.6-5.1,13.1-9.7,26.4-14.4,39.6-6.2-4.9-12.6-10-19.6-15.6-3.4,10-1.7,18.5,3.5,26,3.2,4.6,3.6,8.6,2.1,13.7-2.6,8.5-4,17.4-6.7,25.9-1.3,4-3.4,8.5-6.4,11.2-18.4,16.5-52.2,15.8-71.4-1.6-20.5,17.2-38.6,3-58.1-5.6-2.3,1.8-5.5,3.4-7.7,5.8-9.3,10.4-22.7,8.9-34.4,11.1-9.1,1.8-15.5-6.8-14.6-16,16.2,16.2,31.5,8.7,46.7-1.8-3.2-4-6.4-8-9.5-12l-.2.3h0l-.7.7ZM649.2,388.2c1.4-1.9,3.3-3.6,4.1-5.7,2.3-6.3-1.9-4.4-5-3.6,4.3-16,8-32.3,13.3-48,4.5-13.2,6.1-26.5,5.3-40.4-2,2.7-3.5,5.5-4.4,8.6-3.5,11.7-5.2,24.2-10.7,34.8-6.7,13-6.3,26.6-8.5,40.1-.6,3.8,1.6,5.3,5.3,4.6.3,3.3.6,6.6.9,10-8.8,3.4-6.1,10-5.7,18.5,6.5-6.8,8.3-12.2,5.4-18.9h0ZM662.5,267.7c3,1.4,6,2.8,9.4,4.4.7-5.2,1.5-10.4,2.2-15.5-.6-.3-1.3-.5-1.9-.8-3.1,4-6.3,8.1-9.4,12.1-1.7,1.8-3.4,3.7-5.1,5.5,1.6-15.5,15.5-24.2,19.7-38-14.4,14.6-25.1,21.8-32,21.5,14-5.7,19.2-16.6,26.2-26.9-3.5-.9-5.7-1.5-7.5-2-1.6-18,17.3-24.3,21.4-40.1-4.7,1.2-8.5,2.2-14.1,3.7,5.2-7.9,8.5-14.5,13.3-19.6,5.1-5.3,11.8-9.2,17.8-13.7-.5-.6-1-1.3-1.6-1.9-3.8,1.7-7.6,3.4-14.5,6.4,3-3.6,3.6-4.9,4.6-5.5,13.3-7.5,27.2-14.1,39.8-22.6,16-10.7,33.8-15.8,51.8-21.2,19.9-6,35.4-18.8,51.3-33.8-3.8-2.4-6-4.8-8.5-5.3-14.6-2.4-33.7-2.3-45.6,14.3-1.9,2.7-5.9,3.9-8.9,5.8-1.3-3.5-4.1-7.2-3.5-10.4,1.7-9.8,3.6-19.7,7.2-28.8,4.8-12.2,11.4-23.7,17.6-36.4-14.9,1.6-20.3,15.1-29.4,23.1-11.5,10-22.1,21.6-20,38.8-11.1,1-11.8.9-11.4-7.8.8-15.5,2.4-31.1,3.8-47.9-8.8,4.6-14.6,10.9-17.7,18.6-10.1,25-19.7,50.2-7.7,77.4,2.8,6.5,1,9.7-5.8,12.1-12.9,4.6-23.9,12.3-31.4,23.9-15.4,23.9-27.5,49.4-37.2,76.1-2,5.4-1.1,11.9-1.6,19.8-7.8,3-9.4,12.5-11.7,21.6-4.1,16.3-8.2,32.7-12.2,49-4.4,17.8-8.5,35.6-13,53.4-8.2,33.2-20.9,64.1-47,87.8-2.4,2.2-4.2,5-6.5,7.6,7.7,7.4,16.5,9.3,25.5,8.8,11.9-.6,23.7-2.2,35.5-3.6,9.3-1.1,18-3.1,16.1-16-.4-2.5,2.2-5.4,3.3-8.1,6.6-15.8,12.6-49.4,11.1-62.1-12.5,51.8-15.5,59.5-27.3,65.7,4.2-10.6,9.2-19.3,11.1-28.6,5.8-28.6,11-57.4,15.2-86.3,3-20.6,7-40.6,14.6-60.3,4.1,2.4,7,4.1,12,7.1.8-8.4,1.5-15,2.1-21.6h0v.3ZM644.2,151.9c-.6.1-1.2.3-1.8.4-1.2,13.4-2.5,26.7-3.7,40.1,1.2.4,2.3.7,3.5,1.1,3.7-7.1,7.5-14.2,10.8-20.5-3.2-7.8-6-14.5-8.8-21.1h0ZM588.7,295.8c0,16.7-2.5,32.2,6.2,49.1,3.6-9,8-15.2,4.9-23-3.2-8-6.7-15.9-11.1-26.1h0ZM304.7,272.8c1-13.9-2.8-23.1-11.2-33.6,0,13.3-4.6,25.3,11.2,33.6ZM569.7,389.4c0,11.3,0,23.6,0,39.1,7-9.8,9.6-16.1,4.4-24.3-2.7-4.3-3.1-10.1-4.5-14.8h0ZM614.7,239c-.7.2-2.1.4-2.1.7-.9,8.2-1.5,16.5,3.5,24.5,10.8-9.6,1.9-17.2-1.4-25.1h0ZM646.8,464.8c.9.7,1.8,1.4,2.8,2,7.2-4.5,9-11.7,8.6-20.1-3.8,6-7.6,12-11.3,18.1h0ZM660.1,395.4c8.9,0,8.6-4.6,7.1-13-3.3,6.1-5.2,9.6-7.1,13ZM288.5,279.4c1.1-.2,2.3-.4,3.4-.6,0-1.5.6-3.5-.1-4.5-1.4-1.9-3.5-3.2-5.3-4.7-.5.5-1,.9-1.5,1.3,1.2,2.9,2.4,5.7,3.6,8.5h-.1ZM643.2,431.5c-1-.6-1.9-1.1-2.9-1.7-1.1,3.4-2.3,6.9-3.4,10.3.7.3,1.4.5,2.1.8,1.4-3.1,2.8-6.3,4.2-9.5h0ZM656.5,308.6c-.8-.2-1.6-.4-2.4-.6-.8,3.4-1.7,6.7-2.5,10.1.7.2,1.3.4,2,.5,1-3.3,1.9-6.7,2.9-10h0ZM666.1,406.9c-.6-.2-1.3-.4-1.9-.6-.8,2.3-1.6,4.6-2.4,6.9.6.2,1.2.4,1.8.6.8-2.3,1.7-4.6,2.5-6.9h0Z"/>
            <path class="cls-1" d="M428.1,462.6c-2.3.7-4.7,1.4-10.2,2.9,3.3-6.7,5.2-11.5,7.8-15.8,17-27.8,23.4-57.4,16.9-89.7-2.5-12.6-7.5-23.5-17.4-31.9-6.8-5.8-13.3-11.9-20.1-17.6-13.1-11.1-36.7-12-51.5-2.9,8.5,0,17.9-.1,27.3,0,3.4,0,7.8-.5,10.1,1.3,11.8,9.4,27.1,14.9,34.4,29.4,2,3.9,4,8.1,4.6,12.4,4.7,31.9,1.2,63.2-9.3,93.6-3.1,9-8.6,16.4-19.5,20,1-2.6,1.6-5.4,2.9-7.8,2.9-5,6.2-9.7,9.3-14.5.8-3,1.7-5.9,3.4-12-7.3,5.5-15.3,4.3-17.1,12.1h14c-14.3,9.4-28.5,18.8-44.5,29.4.6-9.1,6-12.2,9.9-16.3,15.1-16,28.1-33.3,34.5-54.8,3.6-12.1,1-23.9-2.1-35.2-3.8-13.5-17.3-20.3-32-18.5-17.8,2.2-30.1,12.7-38.5,27.5-9.8,17.2-19.3,34.7-27.6,52.6-6.3,13.5-11.9,27.1-22.1,38.5-7.4,8.1-6,13.4,3.5,18.8,12.5,7,25.7,7.8,38.8,2.4,3.7-1.5,6.5-5.7,9.2-9,2-2.5,3.3-5.6,5.9-10.3,9.1,15.9,21.9,19.1,38.3,13.7-9.1,11.3-13.2,11.5-37.6,3.3-20.7,14.8-45,16.4-69.1-2.3-4.5,2-9.9,3.6-14.3,6.5-14.5,9.8-30.2,7.9-45.9,5.3-9.1-1.5-13.5-8.4-15.8-18,2.5,1.4,5,2.7,7.4,4.3,4,2.7,7.5,6.7,11.8,8.3,11.4,4.3,14.9,1.6,18.5-10.5,2.1-7.1,5.8-13.7,10-23.3-7.6,7.5-13.1,13-19,18.8-3.8-6.8,1.1-9.8,3.8-12.4,9.6-9.3,13.8-21.4,19.2-33.1,11.1-23.8,24.3-46.5,35.8-70.1,9-18.5,23.4-32.1,38.3-45,20.7-18,45.2-28,71.2-14,20.8,11.2,39.5,27.1,46.6,51.4,8.9,30.4,4.1,59.9-8.7,88.3-3.7,8.1-7.3,16.2-10.9,24.4l.3-.3h-.5ZM315.1,406.9c1.2-2.8,2.4-5.5,4.2-9.4-7.6,2.6-5.4,6.2-3.8,9.7-10.3,2.5-12.9,11.9-19.1,19.5,6.8,2.1,9.8-.5,11.9-4.9,2.3-4.9,4.6-9.9,6.8-14.8h0ZM359.3,343.8c-7.7,3.1-15.7,5.6-22.9,9.6-9.2,5.1-17.9,10.6-29.2,7.4-3.8,5.6-10.2,9.3-9.3,18.4,9.9-3.6,18.3-6.6,27.8-10.1-2.9,6.8-5.1,11.8-7.4,16.9,1,.6,2,1.2,2.9,1.9,9.2-4.1,10.6-15,16.8-21.8,6.9-7.6,14-15,21-22.5,6.2-1.4,12.5-2.7,18.8-4.1,14.6-3.3,26.3,1.3,35.1,13.3,2.8,3.8,5.5,7.8,8.2,11.6,1.7-6.3,1.4-11.9-.1-17.2-.7-2.4-4-6-5.6-5.7-7,1.2-8.6-4-10.6-8.2-9.6-19.3-35.8-24.5-55.1-11.7,7.9,4.8,15.5,2.4,23,.2,8.5-2.4,13.7-.3,19.3,8.2-9.1-.4-18.2-.8-25.5-1.1-3,6.3-5,10.6-7.1,14.9h0ZM261.6,427c1.1.3,2.1.6,3.2.9,3-4.8,6.4-9.5,9.1-14.5,3-5.6,5.4-11.6,7.9-17.5,2-4.8,3.9-9.7,5.9-14.6-1.2-.4-2.4-.9-3.6-1.3-7.5,15.6-14.9,31.2-22.4,46.9h-.1ZM326.7,340.6c9.5,2.5,17.4,2,27.1-1.9-10.1-4.2-18.3-9.8-27.1,1.9ZM314.2,353.8c.7,1,1.4,1.9,2.1,2.9,4.4-1.8,8.7-3.7,15.2-6.4-5-2.7-7.5-4-10.5-5.6-2.4,3.2-4.6,6.2-6.8,9.1h0ZM283.1,432.4c-7.5-1.8-11,1.8-11.7,8.9,3.9-3,7.8-5.9,11.7-8.9ZM309.6,341.1c.6.8,1.2,1.6,1.8,2.4,1.3-1.1,2.8-2.1,3.9-3.4.9-.9,1.4-2.2,2-3.3-.8-.6-1.6-1.2-2.4-1.8-1.8,2-3.6,4.1-5.4,6.1h.1ZM332.5,323.4c-.5-.6-1.1-1.1-1.6-1.7-2.1,2.1-4.2,4.1-6.3,6.2.5.5,1,1,1.4,1.5,2.2-2,4.3-4,6.5-6h0ZM288,396.9c.8.8,1.7,1.6,2.5,2.4,1.4-1.7,2.8-3.3,4-5.1,0,0-1.7-1.7-1.9-1.6-1.6,1.3-3.1,2.8-4.6,4.2h0ZM267,460.1c-4.4-1-5.8-1.8-6.7-1.4-1,.4-1.6,1.9-2.4,3,1.2.4,2.4,1.2,3.5,1.1,1.2-.1,2.4-1.1,5.6-2.6h0Z"/>
            <path class="cls-1" d="M143.4,123.4c3.3-.5,7.8-2.3,8.6,2.6,1.5,9.5,1.9,19.1,0,29.8-2.3-3.5-4.7-7-7.6-11.3-1.9,5.1-3.6,9.6-5.3,13.9-14.4-1.8-28.7-2.7-31.4-22-9.3,5.6-8.3,13.1-7.8,20.1.4,4.8,3,10.1-5.4,12.6-2-4.4-4-9-6.8-15.4-1.1,7.7-3.3,13.7-2.6,19.3,3,22-9.7,34.2-26.4,43.7-7.2,4.1-15.9,5.4-23.4,8.9-4.5,2.1-10,5.5-11.6,9.7-1.4,3.6.8,10.2,3.7,13.3,2,2.1,8.6,1.9,12,.3,8-3.7,15.6-8.6,23-13.6,7.2-4.8,14-10.4,22.1-16.4,5.3,10.6,12.7,13,23,9.2,4.2-1.6,7.4,1.8,5.5,7.8-4.9,1.1-10.1,2.9-15.4,3.3-22.5,2-34.5,16.9-44.2,34.9-2.7,5.1-2.7,9.3,3.3,11.9,13.3-12.9,30.7-20.2,41.2-35.9,1.9-2.8,8.7-5.1,11.9-3.9,13.5,4.9,21.7-1.4,29.4-14l13.6,13.6c1.7-1.8,3.9-4.2,7.3-7.8-4.3-1.4-7.1-2.3-11-3.5,4.4-4.9,9.3-5.6,16.4-6.6.3,5.5,1,10.1.8,14.7-1.2,28.4-16.8,50.3-32.8,71.9-12.7,17.1-26.7,33.4-37.8,51.5-13.1,21.2-22.8,44.2-17,70.4,1.2,5.6-.8,8.5-7.7,8.3-3.2-13.6-3.2-27.2.8-40.6,5.8-19.1,13.1-37.5,24.8-53.8,5.1-6.8,10.3-13.6,15.4-20.4,1.9-3.6,3.7-7.3,6.6-12.7-5.7,1.5-9.3,2.4-12.7,3.2,2.4,3.7,4.4,6.7,6.3,9.8-9.7.9-19.5,1.5-29.2,2.9-1.8.3-3.3,3.4-6.4,6.9h18.7c.6,4,1.1,7.3,1.5,10.7-9.7,1-19.6,1.5-29.1,3.4-2.8.5-4.7,4.9-7.2,7.6,9.5,7.5,10.4-3,15.5-4.9,1.9,1.2,3.9,2.5,7,4.4-8.1,7.7-17,10.3-27.6,12,4.5,1.8,9,3.6,16.2,6.5h-23.2c-2.9,7.7-5.9,15.7-9.3,24.5,6-.2,9.4-3.5,10.2-9.7,4.7-.5,9.7-1,14.8-1.5.5,1.1,1.1,2.2,1.6,3.4-5.8,4.8-10.9,11-17.4,14-10.2,4.7-12.1,11.6-10.2,21.5,5.9,1.8,11.5,3.5,17,5.1,0,.9-.2,1.9-.3,2.8-5.3-.2-10.6-.5-17-.8-.3,7.2-.7,14.4-1,21.6l.2-.3c-5.9,3.8-7.3-.9-7.4-4.8-.2-7.4,1-14.8,1.1-22.2.7-30.2,11.6-56.5,27.9-81.8,13.4-20.8,32-36.1,48.7-53.5,10.7-11.1,19-23.7,27.1-38.3-19.1-3.3-35.1-1.7-46.5,14.4-6.3,8.8-11.8,18.2-18.2,26.8-2.5,3.3-6.7,5.3-11.8,9.2-8.4-13-16-25-24.8-38.7,14-2.1,21.7-8.7,24.6-22.4-4.7,2.1-8.4,3.9-12.2,5.3-4.6,1.7-9.2,3.9-14,4.2-10,.8-13.9-3.1-16.3-13.2-1.3-5.5-5-10.6-5.9-16.1-1.1-6.5-1.7-13.8.1-20,2.7-8.8,9.9-10.1,17.7-4.7,3.2,2.2,6.3,4.7,9.6,7.3,3.3-4.5,7.8-10.6,12.3-16.8,5.9,2.3,10.5,4.1,15.6,6.1,10.6-4.1,14.6-13.2,13.4-23.5-1.6-14,2.1-26.8,7.2-39,9.4-22.4,12.8-44.6,4.6-67.9-1.6-4.5-1.5-8.9,5.1-11.4,1.2,2.3,3.1,4.6,3.7,7.1,5.1,22.2,10,44.5,14.9,66.7,1.3,6,2.6,11.9,12.3,12,3.7-9.4,8-19.2,11.4-29.4,5.5-16.3,12.4-31.2,27.3-41.4,4.3-2.9,7.4-7.9,10.7-12.2,3.9-5.2,7.5-5.6,11.7-1.5,0,1.8.4,3.1,0,3.7-13.4,16.8-17.3,36.3-16.8,57.2.1,4.9-1.4,9.8-1.9,14.7-.8,8.6-3.1,17.7,8.4,22.9-15.3,4.7-18.1,2.7-16.8-10.1,2.1-21.6,4.2-43.2,6.6-67.8-14.4,12.5-21.9,25.5-23.1,42-6.3,5.4-7.7,12.7-9,20.1,1,.4,2.1.7,3.1,1,1.9-7.1,3.7-14.2,5.6-21.3h0l.4.4ZM144.7,281.9c-9.6,5.5-22.5,5.6-29,20.5,11.3-8,26.3-4.7,29-20.5ZM131.6,302.8c-9.9,4-17.4,7-25,10,8.8-.4,19.9,5.7,25-10ZM19.6,206.7c-4.6,8-7.5,11.8-4.2,17,4.2-2.4,7.6-4.3,12.2-6.8-2.7-3.4-4.7-5.9-8-10.2ZM155.2,265.5c-.8-1.1-1.6-2.2-2.5-3.3-5.9,4.5-11.7,9-17.6,13.5.7.9,1.4,1.8,2,2.7,6-4.3,12-8.6,18.1-13h0ZM59,205.8c-7.4.7-11.1,4.1-11,10.2,3.6-3.3,6.4-5.9,11-10.2ZM100.4,122.3h3.8c-.2-2.6-.3-5.2-.5-7.8h-2.5c-.3,2.6-.6,5.1-.8,7.7h0Z"/>
            <path class="cls-1" d="M168.3,353.3c-2.8-1.9-5.6-3.7-8.9-5.9,8.1-21.8,30.5-33.3,38.3-57.2-4.2,2.5-6.6,4-10.6,6.4,4.3-9.2,7.8-16.7,10.8-23.1,12.5,2.9,19.1-10.5,32.2-7.9-8.3-13.2-17.9-6.5-26.9-5.6-3.2-9.6.4-17.6,4.3-25.3,7.4-14.6,2.9-27.5-4.5-41.8-7.3,5.6-13.4,10.4-19.7,15.2-2.5-5.2-4.8-10.1-7.5-15.8,3.5-7.5,24.4,1,16.9-18.4-3.6,2.5-7,4.8-10.3,7-1.1-.6-2.3-.9-2.6-1.6-3-7.5-1.1-13.5,3.3-20.5,12.4-19.7,40.4-45.3,63.7-57.2,4.4,4.8,1.6,9-1.3,13-7.4,10.6-15,21-22.1,31.7-4.4,6.6-8.4,13.5-11.9,20.5-4.1,8.2-5,16,0,25.3,6.7,12.7,10.2,26.8,5.1,41.7-1.4,3.9-.2,8.8-.2,13.9,3.7,1.4,7.9,1.9,10.7,4.3,4.8,4,9.5,8.5,12.5,13.8,3.3,5.9.2,9.4-6.4,8.6-16.4-1.8-19.1.2-26.1,14.7-5.8,11.9-12.7,23.3-19.2,35.3,4.3,1.6,9.5,2.9,13.8,5.6,2.5,1.5,4.4,5.3,4.7,8.3.1,1.5-3.8,4-6.3,5-19.8,7.6-35.5,20.1-43.6,40-3.2,8-3.8,17.2-5.9,27.8,7-1,12.4-1.8,19.7-2.9-1.9,4.2-2.8,7.3-4.6,9.9-2.5,3.6-5.3,7.2-8.5,10.3-9.4,9.3-10.3,19.3-5,31.2,2.4,5.4,5.9,11.5,2.8,18.1-10.2,1.1-5.7-9.1-10.8-12.6-2.9,2.6-5.8,5.2-9.3,8.3-1.6-9.2,12.8-13.1,5.4-23.3-4.2,4.6-7.9,8.6-11.6,12.7-.8-.6-1.6-1.2-2.4-1.8,4.9-8,9.9-16,14.8-24-.6-.7-1.2-1.4-1.9-2-3.4,2.8-6.9,5.5-11.9,9.6,1.5-5.7,2.7-9.9,3.8-14.1-1.5-.9-3.1-1.7-3.1-1.8,1.7-8,2.8-15.1,4.7-21.9,1.7-5.9,7.9-14.2,6-16.7-6.3-8.3,3-10,4.4-14.5,1.6-5.5,5.3-10.4,10.5-15.1-.6,3.7-1.2,7.3-2.3,13.8,7-8,14.2-12.5,16.9-21.2,4.1-2.5,8.4-4.9,12.4-7.6,4-2.6,7.8-5.4,11.7-8.2-.8-1-1.6-2-2.4-2.9-7.6,5.7-19.2,6.3-21.4,18.9h-.2ZM188.6,161.9c.9.8,1.7,1.6,2.6,2.5,5.7-6.2,11.4-12.5,17.1-18.7,2.6-2.9,4.8-6.7,8.1-8.3,10.6-5.2,10.8-4.8,13.4-16.3-18.2,9.7-30.6,24.4-41.2,40.8h0Z"/>
            <path class="cls-1" d="M173,221.7c3.1,3,5.8,4.3,5.9,5.9.6,9.4,2.6,19.3.2,28-5.6,20.5-11,41.6-23.4,59.3-9.4,13.3-20.7,25.3-31.8,37.2-16.2,17.2-24.9,38.3-29.4,60.7-1.7,8.3,3,18.2,5.7,27.1,1.4,4.6,4.7,8.6,7.6,13.7-6.4,2.7-10.6,1.5-13.6-4.2-8.2-15.4-12.7-31.4-5.9-48.6,9.1-23.1,18.8-45.8,37.9-63.1,8.4-7.6,15.9-16.5,22.4-25.8,14.6-20.8,20.3-45,24.4-69.5,1-5.9.1-12.1,0-20.6h0Z"/>
            <path class="cls-1" d="M435.3,508.1c4.8,16.1,14.6,21.4,28.4,19.4,11.5-1.7,23.4-3.1,28.4-16.6,10.8,13,24.4,17.6,40.8,13.9,3.7-.8,7.5-1.6,13.3-2.9-18,14.1-37.8,15.5-52.6,5-9.9,2-19.5,4.2-29.3,5.8-4.8.8-10.3,1.5-14.7,0-14.3-4.8-28.3-2.5-42.3,0-16.5,3-31.6,2-42.9-11.9-9.3,4.6-12.5,15.8-24.5,16.6,9-10,18.1-19.9,27.8-30.6,2,2.4,3.9,3.5,4.3,5.1,3.8,12.9,6.5,16,19,16s19.7-1.7,29.5-3.4c2.9-.5,5.6-3.6,7.8-6,2.2-2.4,3.6-5.5,6.8-10.4h.2Z"/>
            <path class="cls-1" d="M107,220.3c-9.2-13.7-7.3-24.3,3-35.6,6.9-7.6,15.2-8.4,23.5-9.6,6-.9,12.4,1.2,19.8,2.1-2.7,12.1-8.6,21.6-17.1,28.3-8.4,6.6-16,16.6-29.1,14.8h0Z"/>
            <path class="cls-1" d="M332.2,574.5c-8,4.8-15.6,10.4-24.1,14.1-5.6,2.4-12.4,2.5-18.6,2.5s-3.8-3.6-5.2-7c23.1,5.9,37.2-5.2,48.9-25.5,6.1,14.3,14.9,21.6,27.3,25.6,13.7,4.3,22.6-1.3,30-12.1,20.9,21.2,42,14,64,1.6-8.6,17.7-33,21.6-64,11.4-15.9,14.2-37.7,5.5-58.2-10.6h0Z"/>
            <path class="cls-1" d="M101.1,522.6c22.3,16.4,36.5,12.8,55-7.4.8.5,2,.9,2.3,1.6,7,22.6,20.7,25,39.3,18.4,9.5-3.3,18.1-9.4,28.2-14.9.8,1.1,2.7,3.1,4,5.5,7.1,12.6,13.3,14.9,26.9,9.3,5.7-2.3,11.3-5,17.2-6.8-15.9,18.7-32.6,19.3-51.3,2.3-22.1,8.6-44.7,25.7-67.3-.9-18.9,4.6-39.7,18.9-54.2-7h-.1Z"/>
            <path class="cls-1" d="M192.5,570.8c6.1,18.9,7.3,19.8,27.6,20.5,11.9.4,15.3-2.8,22.1-20.9,5.4,2.8,5,7.7,2.8,11.3-3,4.8-7,9.9-11.8,12.7-12.1,7.2-36.3,2.2-46.7-9.2-6.4,2.7-12.9,6.2-19.9,8.3-16.2,5-23.4,1.5-29.3-14.4,10.7,2.2,18.1,15,29.5,8.4,8.7-5,16.8-10.9,25.7-16.7h0Z"/>
            <path class="cls-1" d="M440.4,483.2c-9,2.1-17.7,6.5-27.5,3.5-6.4-2-7-2.1-9.5-8.5,10.4.5,21.4.9,32.3,1.8,1.5.1,2.9,2.3,4.4,3.5l.2-.3h.1Z"/>
            <path class="cls-1" d="M45.4,439.4c3.6,5.2,5,8.7,7.6,10.5,2.4,1.7,6,1.7,10.2,2.8-5.2,4.2-9.9,6.5-15.4,3.5-5.1-2.7-6.2-7.2-2.3-16.8h-.1Z"/>
            <path class="cls-1" d="M59.7,429.6c-9.7.4-12.4-4.3-13.5-12.7,7.2,1.5,10.8,5.2,13.5,12.7Z"/>
            <path class="cls-1" d="M257.1,365.3c6.9,1.3,11.6,2.2,16.2,3.1-5.5,4.9-10.9,3.9-16.2-3.1Z"/>
            <path class="cls-1" d="M433.7,288.3c-6.8,4.9-11.6,4.9-16.1-5.3,6.5,2.1,11,3.6,16.1,5.3Z"/>
            <path class="cls-1" d="M344.4,276.4c3.8,5.2,6.4,8.6,11.1,15-6.4-3.4-10.2-5.2-13.7-7.6-.4-.3,1.2-3.5,2.6-7.4h0Z"/>
            <path class="cls-1" d="M435.8,315.8c4.8-1.2,9.6-2.4,15.1-3.7-4.2,5.4-9.2,6.7-15.1,3.7Z"/>
            <path class="cls-1" d="M308.1,312.4c-5.4,1.2-9.6,0-13.2-9.4,6.6,2.9,10.5,4.5,14.4,6.2-.4,1.1-.8,2.1-1.2,3.2h0Z"/>
            <path class="cls-1" d="M478.1,373.8c-7.9,6.2-12.5,5.8-16.9-3.6,5.8,1.3,10.2,2.2,16.9,3.6h0Z"/>
            <path class="cls-1" d="M289.9,339.7c-9,3.2-13.3,1.7-14.4-7,4,1.9,7.9,3.8,14.4,7Z"/>
            <path class="cls-1" d="M474.6,344c-7.8,3.1-13.6,1.9-17.5-3.6,5.7,1.2,10.2,2.1,17.5,3.6Z"/>
            <path class="cls-1" d="M226.4,438c-8.3,5.8-12.2,3.5-17.6-4.1,6.8,1.6,11,2.6,17.6,4.1Z"/>
            <path class="cls-1" d="M244.8,409.6c-7.4,2-10.7,0-10.7-8.6,4.6,3.7,7.7,6.2,10.7,8.6Z"/>
            <path class="cls-1" d="M427.8,462.9c3.5,1.6,6.9,3.2,10.4,4.7-6.5,2.9-9.8,1-10.1-5l-.3.3Z"/>
            <path class="cls-1" d="M385.9,263.2c2.1,4.3,3.9,7.9,6.6,13.3-6.8-4.1-8.9-8.5-6.6-13.3Z"/>
            <path class="cls-1" d="M214.1,463.3c-9.2-.2-11.7-2.4-11.1-10.1,3.9,3.6,6.4,5.8,11.1,10.1Z"/>
            <path class="cls-1" d="M323.5,294.5c-3-1.9-5.9-3.9-8.9-5.8.6-1,1.2-1.9,1.8-2.9,3.2,1.8,6.5,3.6,9.7,5.4-.9,1.1-1.7,2.1-2.6,3.2h0Z"/>
            <path class="cls-1" d="M476.8,319h-6.9c0-.7,0-1.5-.1-2.2l6.7-.8c.1,1,.2,1.9.3,2.9h0Z"/>
            <path class="cls-1" d="M450.5,446.9h-6.8v-2.5h6.9v2.6h-.1Z"/>
            <path class="cls-1" d="M234.1,370.4c3,2.4,6,4.7,10,7.8-5.3-.3-8.5-3-9.7-8.1-1.8-7.7-.3.3-.3.3h0Z"/>
            <path class="cls-1" d="M757,64c2.2,12.8-4.1,32-11.9,38.3.4-13.9,6-24.8,11.9-38.3Z"/>
            <path class="cls-1" d="M712.3,73c10.8,11.8,6.5,23.6,9.5,35-8.6-4.3-10.6-11.9-9.5-35Z"/>
            <path class="cls-1" d="M611.2,443.9c-6.2.2-10.7,1.7-13.7.2-4.4-2.2-8.1-6.4-6.4-13.1,6.4,4.1,11.9,7.6,20.1,12.9h0Z"/>
            <path class="cls-1" d="M594.8,402.5c5,1.7,9.7,3.4,15.1,5.3-2.3,4.6-6.1,5.7-10.7,4-4-1.5-6.3-4.5-4.5-9.3h.1Z"/>
            <path class="cls-1" d="M579.2,457.5c4.5,1.9,9.1,3.8,14.7,6.1-8.3,5.5-13,3.4-14.7-6.1Z"/>
            <path class="cls-1" d="M611.8,369.5c2.8,1.4,5.6,2.8,9.5,4.8-6.2,4.4-8.8,2.1-9.5-4.8Z"/>
            <path class="cls-1" d="M656,218.8c-2.6-1.2-5.2-2.4-7.7-3.7.6-1.2,1.1-2.3,1.7-3.5,2.6,1.2,5.2,2.4,7.8,3.6-.6,1.2-1.1,2.3-1.7,3.5h0Z"/>
            <path class="cls-1" d="M617.1,328.2c2.9.8,5.8,1.6,10.4,2.9-5.5,4.1-8.6,4.3-10.4-2.9Z"/>
            <path class="cls-1" d="M623.9,282.4c5.8,1.5,8.6,2.1,11.3,2.8v2.3c-1.9.4-4,1.4-5.7,1-1.3-.3-2.3-2.3-5.6-6.1h0Z"/>
          </g>
        </g>
      </g>
    </g>
  </g>
</svg>