<?xml version="1.0" encoding="UTF-8"?>
<svg xmlns="http://www.w3.org/2000/svg" version="1.1" viewBox="0 0 245 199.4">
  <defs>
    <style>
      .cls-1 {
        fill: #594b39;
        fill-rule: evenodd;
      }
    </style>
  </defs>
  <!-- Generator: Adobe Illustrator 28.6.0, SVG Export Plug-In . SVG Version: 1.2.0 Build 709)  -->
  <g>
    <g id="Layer_2">
      <g id="Layer_1-2">
        <path class="cls-1" d="M60.6,47.5l7-12.1,4.8,6c7.1,9.3,21.1,13.7,26.2,24.1,3,6,4.6,7.8,7.2,13.8l-9.2,6.2c-.3,5.3,6.7,28.4,17.5,28.6l-9.4-25.4c5.5-1.6,6.3-4.3,10.2-7.1-3.4-19.8-23.1-17.4,5.4-32.4,9.7,4.8,8.2,3.8,18.3.3l-4.9,28.2c15.4-5.5,9.6-43.2,28-63.6,3.7,8.8,9.7,21.2,12.4,30,2.6,8.8,5,25.7,13.4,29.3,3.8-6.4-2.1-14.2-3.7-22.3,9.2-4.1,9.6-9,17-12.6,14.2,21.1,10.4,12.3,33.1-.1-1.5,7.6-1.1,15.4-5.3,35.4-1.4,6.5,0,18.8,2.1,27.7,1.1,4.9,3,6.7,3.5,10.7-17.2,4-18.3,5.7-29.9,11.1-19.9-6.2-32-2.2-39.2,11.9-5.4,10.5-.9,12.5-11.9,17.9-8.9,4.4-11.1,6.4-17.9,12-15.8-8.2-20.6-25.5-44.4-11.9-19.2-18.5-25.3-11.8-54.5-6.4-9-6.4-13.9-10.2-23.5-14.4,2.3-17.8-2.5-29.7-4.7-46.3l20,12.5c6.8,4.6,6.2,13.5,15.5,15.7,0-8.3-5.1-13.9-9.1-18.3l-1.9-63.9c3.1,1.5,18.1,14.3,20.6,17.2,9.2,10.8,5.9,18.9,17.8,23.1-2.1-11.6-6.3-16.5-10.5-24.8h0ZM190,179.6c.6,1.6-1.8,6.4,14.6,5.9,17.6-.6,13.8-3.9,15.1-6.8-5.6-.7-26.7-2-29.7.9h0ZM194.9,99.8c2.8-6.7,1.5-11.5-3.7-14.6-3.8,6.6-2.5,11.7,3.7,14.6h0ZM181.9,108.7c5.1-5.2,5.2-12.7-1.9-16.7-1.2,2.1-2.4,2.8-1.5,9,.7,4.6,1.4,5,3.4,7.6h0ZM137.8,151.4c7.6-4.1,6.3-8.5,5-17.8-7.2,3.6-6.7,8.9-5,17.8h0ZM110.8,197.5c3.5,1,4.2,1.4,9.1.8,9.2-1,6.3-1.4,7.9-5.8-6.3-1.9-14.2-3-17.1,4.9h0ZM206.7,76.7c4.8-1.9,8.1-7.2,8.5-12.7.8-13.8-10.6-.5-8.5,12.7h0ZM31.6,112c-3.8-5.5-2.8-5.9-10.8-7,1.5,8.5,8.8,12.9,12.9,17.9,3.9-4.4,1.6-5.5-2.1-10.9h0ZM214.5,162.5c3.8,4,1.9,3.9,10.3,3.1,7-.7,5.9-.9,8.8-4.3-4.9-5.3-17.4-5.4-19.1,1.2h0ZM92.3,125.6c3.5-7.2.9-20.7-5.6-24-4.3,6.3-.1,21.4,5.6,24h0ZM124.1,76.9c5.1-3.8,8.6-12.8,8.3-20.9-7.1-1.3-6.6,0-8.2,6.6-1.6,6.3-2.9,10,0,14.3h0ZM175.1,82.9c3.1-13.2-7.7-34.6-8.2-18.6-.2,7.5,2.1,16,8.2,18.6h0ZM148.3,145.5c5.8-3.9,8.3-15.6,8.7-24.7-6.8,0-6.2,2.8-8.4,11-1.5,5.7-3.4,9.2-.3,13.7h0ZM61.5,80.1c1.3-6.5-.7-6.6-3.3-13.3-2.8-7.1-1.8-8.4-9.3-10.2-1.2,9.4,5.3,20.4,12.7,23.6h0ZM220.9,95.8l3.3-29.5c.2-5.3-3.6-8.1-5.7-2.8-.7,1.7-.8,2.8-1.1,4.6-.5,3-.8,7.2-1.1,10.3-1,9.9-2.8,13.3,4.6,17.3h0ZM82,97.9c-1.1-10.2-2.7-12.7-10.8-14.8l2.5,9.5-5.7,3.4c-.4,9.3,3.8,26.2,11.3,30.6.8-1.6,4,1.6-.1-11.8-1.3-4.2-2-7.1-3.3-11.4.3-.3.8-.7.9-.8l5.1-4.8h0ZM155,102.7c-4-6.5-1.3-5.4-8.5-6.9-5.5,5.7-6.5,21.2-5.1,31.5,7.4-3,6.4-16.3,6.7-17,2.9-6,7.5,14.1,15.2-10.5,1.8-5.8,3.9-10.4,4.3-17.2-9.8,2-9.5,10.6-12.7,20h0ZM131.5,44.3l-12.9-4.4-18.7,14.8c-6.1-3-21-16.9-23.5-21-3.6-6.1-.3-5.8-6.5-10.5-6.8,3.4-11.2,11.4-14.1,17.6-5.9-3.2-10.5-7.3-14.1-11.7-2.3-2.9-3.3-4.7-5.8-7.2-4-4.1-2.2-3.7-8.6-3.6-5.1,15.2,1.4,50.5-.5,70.7-19-8.8-32.9-35.5-24.5,7.2,11.7,59.7-7.7,31.1,15.5,48.4l.9,22.1c-1.6,0-6-.4-6.9-.4-8.7.5-9.7,3.7-1.4,5.9,3,.8,7.7,1.1,10.9,1.3,8,.4,14.4,1,19.4-2.8-5.2-4.3-5.4-3.3-15.7-3.1l1-18.8,6.9,6.3c3.1-.5,6.2-1.2,9-1.8,6.8-1.3,5.2-.8,8.2.5l2.4,32.2c-2.6-.7-4-2.2-6.8-2.8-7.3-1.6-26.6-9.1-32.7,2.3l12.8-.7c10.7,2.8,4.1,1.2,10.6,6.2,12.4-.9,17.8,4.5,28.9,6.6,2.5.5,32.7,1.9,36.4,1.8-1.9-5.5,0-4.8-7.1-6.7-3.1-.8-8.4-1.6-11.5-1.9-11.2-1.1-12.3,1.2-23.3-2.5-.7-12.4-2.8-33-.2-39l16-.4,14.9,15c6.9-3.4,5.7-7.7,15.8-8l.5,23.2c-9.1,1.2-12.9-2.2-15.7,4.9,5.9,3.6,29.5,2.9,36.6.3-1.2-4.5-9.8-2.1-13.4-4.9v-18.9c11.5,4.8,12.2,10.9,21,14.6,6.8-4.9,9.6-10,19.1-13.8l.7,13.8c-8.2,3.5-10.9,1.9-14,10.3,6.4,2.2,16.5-3.7,25.1-6.1,10.6-3,23-2,26.6-10.1l-30.6,2.9c-1-21.9.2-11.3,4.5-18.4,2.8-4.6,3.8-20.2,14.9-24,1.8,10.7,1.1,19.4,1.1,23.3-4.5,3.7-10.5,0-11.4,7.9,9.7,1.2,28.5,2.1,34-4.1-5.2-3.9-8.1-4.5-15.6-4l-1.1-24.6c13.2.9,13.2,4.1,20.9,2.6,2.7-.5-1.3-2.7,5-1.1,1.1,6.3,2.1,9.8,1.2,11.6-2.8,5.7-13.3-3.4-12.6,5.6,6.6,3.9,33.4,2.7,40.9-.5-2.7-7.5-4.3-6.4-21-4.6v-21.1c0,0,22.2-3.1,22.2-3.1l-7-14.2-.7-35.9c1.3-6.1,1.8-7.9,2.5-14.4,2.7-24.3,8.8-33.9-11.6-20.9-5.9,3.7-9,6.8-14.6,9.8-1.4-1.2-1.5-.8-3.1-2.7-3.3-4-3.6-8.8-8.8-9.7-7.6,1-12.9,8.8-20.1,12.5-2.2-6.9-6.4-13.4-9.1-20.8-2.9-8-3.7-16.4-9.2-21.5-12,5.2-12.6,31.6-31.7,44.3h0Z"/>
      </g>
    </g>
  </g>
</svg>