<?xml version="1.0" encoding="UTF-8"?>
<svg id="Layer_2" data-name="Layer 2" xmlns="http://www.w3.org/2000/svg" xmlns:xlink="http://www.w3.org/1999/xlink" viewBox="0 0 9.26 6.94">
  <defs>
    <style>
      .cls-1 {
        fill: #558373;
      }

      .cls-1, .cls-2, .cls-3, .cls-4, .cls-5, .cls-6, .cls-7, .cls-8, .cls-9, .cls-10, .cls-11, .cls-12, .cls-13, .cls-14, .cls-15, .cls-16, .cls-17 {
        stroke-width: 0px;
      }

      .cls-2 {
        fill: url(#linear-gradient);
      }

      .cls-3 {
        fill: url(#radial-gradient);
      }

      .cls-4 {
        fill: #2f2f24;
      }

      .cls-5 {
        fill: #434135;
      }

      .cls-6 {
        fill: #8eca80;
      }

      .cls-7 {
        fill: url(#radial-gradient-2);
      }

      .cls-8 {
        fill: url(#radial-gradient-3);
      }

      .cls-9 {
        fill: url(#radial-gradient-4);
      }

      .cls-10 {
        fill: url(#radial-gradient-6);
      }

      .cls-11 {
        fill: url(#radial-gradient-8);
      }

      .cls-12 {
        fill: url(#radial-gradient-5);
      }

      .cls-13 {
        fill: url(#radial-gradient-7);
      }

      .cls-14 {
        fill: #4a7267;
      }

      .cls-15 {
        fill: #88c984;
      }

      .cls-16 {
        fill: #4f4b3f;
      }

      .cls-17 {
        fill: #535344;
      }
    </style>
    <linearGradient id="linear-gradient" x1="73.33" y1="5.89" x2="73.34" y2="6.12" gradientTransform="translate(78.4) rotate(-180) scale(1.06 -1)" gradientUnits="userSpaceOnUse">
      <stop offset=".01" stop-color="#402e19"/>
      <stop offset=".19" stop-color="#4a7966"/>
      <stop offset=".25" stop-color="#416757"/>
      <stop offset=".38" stop-color="#2e4237"/>
      <stop offset=".52" stop-color="#20251f"/>
      <stop offset=".65" stop-color="#16100e"/>
      <stop offset=".79" stop-color="#100403"/>
      <stop offset=".92" stop-color="#0e0000"/>
    </linearGradient>
    <radialGradient id="radial-gradient" cx="13939.86" cy="-6527.76" fx="13939.86" fy="-6527.76" r="7.34" gradientTransform="translate(941.1 480.22) rotate(-180) scale(.07 -.07)" gradientUnits="userSpaceOnUse">
      <stop offset="0" stop-color="#6abf64"/>
      <stop offset=".15" stop-color="#795923"/>
      <stop offset=".92" stop-color="#0e0000"/>
    </radialGradient>
    <radialGradient id="radial-gradient-2" cx="13902.6" cy="-6568.99" fx="13902.6" fy="-6568.99" r="19.44" gradientTransform="translate(941.1 480.22) rotate(-180) scale(.07 -.07)" gradientUnits="userSpaceOnUse">
      <stop offset="0" stop-color="#a6d494"/>
      <stop offset=".36" stop-color="#97cc6f"/>
      <stop offset=".79" stop-color="#80be86"/>
      <stop offset="1" stop-color="#54af92"/>
    </radialGradient>
    <radialGradient id="radial-gradient-3" cx="13902.35" cy="-6548.72" fx="13902.35" fy="-6548.72" r="27.01" gradientTransform="translate(941.1 480.22) rotate(-180) scale(.07 -.07)" gradientUnits="userSpaceOnUse">
      <stop offset="0" stop-color="#a8d597"/>
      <stop offset=".4" stop-color="#97cc6f"/>
      <stop offset=".74" stop-color="#80be86"/>
      <stop offset=".97" stop-color="#558373"/>
    </radialGradient>
    <radialGradient id="radial-gradient-4" cx="13822.36" cy="-6550.73" fx="13822.36" fy="-6550.73" r="33.7" gradientTransform="translate(941.1 480.22) rotate(-180) scale(.07 -.07)" gradientUnits="userSpaceOnUse">
      <stop offset="0" stop-color="#9acf86"/>
      <stop offset=".46" stop-color="#97cc6f"/>
      <stop offset=".74" stop-color="#80be86"/>
      <stop offset=".95" stop-color="#4a7267"/>
    </radialGradient>
    <radialGradient id="radial-gradient-5" cx="13857.12" cy="-6521.41" fx="13857.12" fy="-6521.41" r="26.9" gradientTransform="translate(941.1 480.22) rotate(-180) scale(.07 -.07)" gradientUnits="userSpaceOnUse">
      <stop offset="0" stop-color="#aed8a3"/>
      <stop offset=".46" stop-color="#97cc6f"/>
      <stop offset=".74" stop-color="#80be86"/>
      <stop offset=".98" stop-color="#558373"/>
    </radialGradient>
    <radialGradient id="radial-gradient-6" cx="13844.13" cy="-6559.47" fx="13844.13" fy="-6559.47" r="18.5" gradientTransform="translate(941.1 480.22) rotate(-180) scale(.07 -.07)" gradientUnits="userSpaceOnUse">
      <stop offset="0" stop-color="#b1d9a7"/>
      <stop offset=".46" stop-color="#97cc6f"/>
      <stop offset=".74" stop-color="#80be86"/>
    </radialGradient>
    <radialGradient id="radial-gradient-7" cx="13867.87" cy="-6545.45" fx="13867.87" fy="-6545.45" r="29.35" gradientTransform="translate(941.1 480.22) rotate(-180) scale(.07 -.07)" gradientUnits="userSpaceOnUse">
      <stop offset="0" stop-color="#add7a1"/>
      <stop offset=".46" stop-color="#97cc6f"/>
      <stop offset=".72" stop-color="#80be86"/>
      <stop offset=".97" stop-color="#558373"/>
    </radialGradient>
    <radialGradient id="radial-gradient-8" cx="13874.36" cy="-6571.73" fx="13874.36" fy="-6571.73" r="19.59" xlink:href="#radial-gradient-7"/>
  </defs>
  <g id="Layer_1-2" data-name="Layer 1">
    <g>
      <path class="cls-14" d="M1.18,2.33L1.54.22h0s-.35,2.02-.36,2.11Z"/>
      <path class="cls-14" d="M.41,5.92s.06-.02,0-.14c-.07-.11-.19-.21-.13-.12.06.09.06.25.14.25Z"/>
      <rect class="cls-14" x=".56" y="5.83" width=".25" height=".24"/>
      <rect class="cls-2" x=".3" y="5.91" width=".29" height=".08"/>
      <polygon class="cls-3" points="0 4.54 .23 4.4 .3 4.69 0 4.54"/>
      <path class="cls-16" d="M.15,3.98l-.02.39.41.56,1.08-.05-.11-.32s-.65-.67-1.35-.59Z"/>
      <path class="cls-1" d="M.83,6.07s-.05.49.07.57c.11.09.04.12.36.06.32-.06,1.18-.09,1.37-.06.19.04-1.8-.57-1.8-.57Z"/>
      <polygon class="cls-14" points="9.26 3.92 7.08 5.23 6.99 5.12 9.23 3.87 9.26 3.92"/>
      <path class="cls-14" d="M7.25,5.11s.01,1.05-.77,1.53c-.46.28-.62.3-.62.3,0,0-1.49.02-2.27-.12-.79-.15-2.29-.32-2.61-.52-.32-.21-.7-1.28-.7-1.28,0,0,5.74,1,6.94.1h.02Z"/>
      <polygon class="cls-5" points="6.99 4.91 5.8 4.91 5.46 5.12 6.31 5.34 6.99 4.91"/>
      <polygon class="cls-17" points="5.63 5.05 3.3 4.9 3.16 4.5 2.49 4.38 2.15 4.33 2.09 4.43 3.08 4.59 3.2 5.03 5.41 5.24 5.63 5.05"/>
      <polygon class="cls-6" points="5.49 5.16 5.32 5.5 3.28 5.51 2.33 5.45 2.63 5.37 3.14 5.03 5.49 5.16"/>
      <polygon class="cls-14" points="3.08 4.59 2.51 4.97 2.67 5.41 3.2 5.03 3.08 4.59"/>
      <path class="cls-6" d="M1.42,4.22l-.49.33,1.58.42.56-.38s-1.46-.32-1.66-.37Z"/>
      <polygon class="cls-14" points="1.39 4 1.42 4.22 .96 4.54 .9 4.22 1.39 4"/>
      <polygon class="cls-6" points=".15 3.98 .9 4.22 1.39 4 .66 3.86 .15 3.98"/>
      <path class="cls-4" d="M6.96,4.89l.04.68s-1.03.19-1.83.21c-.8.02-1.55.02-2.35-.07-.8-.09-1.66-.14-2.08-.35-.41-.21-.58-1.06-.58-1.06l2.52.62.09.33s.1.15,1.18.15,1.35-.01,1.35-.01l.19-.32,1.47-.18Z"/>
      <path class="cls-14" d="M.43,5.92s.04.05-.02.17c-.05.11-.01.15-.01.2s-.15-.11.03-.37Z"/>
      <path class="cls-1" d="M6.93,4.94l.04.65s-1.03.18-1.83.2c-.8.02-1.55.02-2.35-.06-.8-.09-1.66-.14-2.08-.34-.41-.2-.58-1.01-.58-1.01l2.52.59.08.32s.1.15,1.18.15,1.35,0,1.35,0l.2-.31,1.47-.17Z"/>
      <g>
        <path class="cls-15" d="M5.12,5.62s.03.06.06.06.06-.03.06-.06c0-.04-.03-.06-.06-.06s-.06.03-.06.06Z"/>
        <path class="cls-15" d="M4.75,5.62s.03.06.06.06c.03,0,.06-.03.06-.06,0-.04-.03-.06-.06-.06-.03,0-.06.03-.06.06Z"/>
        <path class="cls-15" d="M5.47,5.6s.03.07.06.07c.04,0,.06-.03.06-.07,0-.03-.03-.06-.06-.06-.03,0-.06.03-.06.06Z"/>
        <path class="cls-15" d="M4.37,5.62s.03.06.06.06.06-.03.06-.06c0-.04-.02-.06-.06-.06s-.06.03-.06.06Z"/>
        <path class="cls-15" d="M4.01,5.62s.03.06.06.06.06-.03.06-.06c0-.04-.02-.06-.06-.06s-.06.03-.06.06Z"/>
        <path class="cls-15" d="M3.64,5.59s.03.06.06.06c.03,0,.06-.03.06-.06,0-.04-.03-.07-.06-.07-.03,0-.06.03-.06.07Z"/>
        <path class="cls-15" d="M3.28,5.57s.03.07.06.07c.04,0,.06-.03.06-.07s-.03-.06-.06-.06c-.03,0-.06.03-.06.06Z"/>
        <path class="cls-15" d="M2.9,5.52s.02.06.06.06.06-.03.06-.06c0-.04-.03-.06-.06-.06s-.06.03-.06.06Z"/>
        <path class="cls-15" d="M2.55,5.48s.02.06.06.07c.03,0,.06-.02.06-.06,0-.04-.02-.07-.06-.07-.03,0-.06.02-.06.06Z"/>
        <path class="cls-15" d="M2.18,5.43s.02.07.05.07c.03,0,.06-.02.06-.06,0-.03-.02-.06-.05-.07-.03,0-.06.02-.06.06Z"/>
        <path class="cls-15" d="M1.82,5.38s.02.07.05.07c.03,0,.06-.02.06-.06,0-.04-.02-.07-.05-.07-.03,0-.06.02-.06.06Z"/>
        <path class="cls-15" d="M1.44,5.3s.02.07.06.07c.03,0,.06-.02.06-.06,0-.04-.02-.07-.05-.07-.03,0-.06.02-.06.06Z"/>
      </g>
      <path class="cls-14" d="M1.17,4.89S.03,4.54,0,4.54s.12.93.12.93l1,.28.17-.05-.13-.82Z"/>
      <path class="cls-14" d="M7.61,5.1s-.08-.02-.05-.09c.02-.07.17-.25.28-.16.11.09.14.25.09.37-.05.12-.2.25-.37.35-.17.09-.65.25-.93-.03-.28-.28-.31-.56-.31-.56l.67-.08s.18.55.62.19Z"/>
      <path class="cls-1" d="M7.64,5.08s-.05-.15.05-.17c.1-.02.19.01.2.14,0,.13-.13.39-.47.52-.34.13-.62.12-.8-.15-.19-.26-.24-.4-.24-.4l.56-.08s.14.36.41.31c.27-.05.28-.18.28-.18Z"/>
      <polygon class="cls-14" points="3.73 .1 3.82 5.31 3.64 5.29 3.67 .08 3.73 .1"/>
      <g>
        <rect class="cls-14" x="3.63" y="2.28" width=".17" height=".25"/>
        <polygon class="cls-14" points="3.48 2.42 3.94 2.42 3.98 2.13 3.44 2.13 3.48 2.42"/>
        <polygon class="cls-14" points="3.51 2.4 3.92 2.4 3.96 2.15 3.47 2.15 3.51 2.4"/>
      </g>
      <path class="cls-14" d="M3.14,4.54l.46-2.15h0s-.45,2.06-.46,2.15Z"/>
      <path class="cls-14" d="M3.58,2.33l.1-2.21h-.01s-.09,2.12-.08,2.21Z"/>
      <path class="cls-14" d="M3.65.06s.02.06.06.06.06-.03.06-.06-.03-.06-.06-.06-.06.03-.06.06Z"/>
      <polygon class="cls-14" points="1.57 .2 1.49 4.45 1.29 4.46 1.51 .2 1.57 .2"/>
      <path class="cls-14" d="M.17,4.02l1.04-1.47h0S.19,3.96.17,4.02Z"/>
      <g>
        <rect class="cls-14" x="1.37" y="2.38" width=".17" height=".25"/>
        <polygon class="cls-14" points="1.22 2.53 1.68 2.53 1.72 2.23 1.18 2.23 1.22 2.53"/>
        <polygon class="cls-14" points="1.25 2.5 1.65 2.5 1.69 2.25 1.21 2.25 1.25 2.5"/>
      </g>
      <path class="cls-14" d="M.65,3.85l.49-1.2h0s-.47,1.16-.48,1.2Z"/>
      <path class="cls-14" d="M1.48.16s.03.07.06.07c.03,0,.06-.03.06-.07,0-.04-.03-.06-.06-.06-.03,0-.06.03-.06.06Z"/>
      <path class="cls-7" d="M2.05.64s.6.5.51,1.09c-.09.6-.37.61-.56.75-.19.15-.73.17-.83.09-.1-.09.85-.46.46-1.01-.38-.55-.37-.77-.37-.77l.8-.16Z"/>
      <path class="cls-8" d="M2.1,2.33s.58.34.58,1.1c-.01.75-.52,1.05-.52,1.05h-.77s.58-.5.26-.98c-.31-.49-.53-.89-.53-.89l.98-.27Z"/>
      <path class="cls-14" d="M2.12,2.33L3.7.33v-.02s-1.54,1.94-1.58,2.02Z"/>
      <path class="cls-14" d="M5.12,5.48l.64-2.87h-.02s-.62,2.76-.62,2.87Z"/>
      <polygon class="cls-14" points="5.84 .14 5.94 5.02 5.77 5.01 5.78 .14 5.84 .14"/>
      <g>
        <rect class="cls-14" x="5.75" y="2.5" width=".17" height=".25"/>
        <polygon class="cls-14" points="5.61 2.64 6.07 2.64 6.11 2.35 5.57 2.35 5.61 2.64"/>
        <polygon class="cls-14" points="5.64 2.62 6.04 2.62 6.08 2.37 5.6 2.37 5.64 2.62"/>
      </g>
      <path class="cls-9" d="M8.84,4.06s-1.25-1.08-1.81-1.8c-.56-.72-1.16-1.46-1.16-1.46,0,0,.35.6.52,1.01.17.41.04.73.25,1.3.21.57.34.68.34.68,0,0,1.1.06,1.87.27Z"/>
      <path class="cls-14" d="M8.89,4.03L5.87.76h-.02s2.91,3.18,3.04,3.26Z"/>
      <path class="cls-12" d="M6.6,4.86s.6-.84-.02-1.54c-.62-.71-.54-.56-.54-.56,0,0,.28.88.17,1.22-.11.34-.42.49-.42.49,0,0,.58.34.81.4Z"/>
      <path class="cls-10" d="M5.91.83s.83,1.09.67,1.62c-.16.52-.46.67-.46.67l-.31-.33s.48-.9.1-1.96Z"/>
      <path class="cls-14" d="M5.75.1s.03.06.06.06c.03,0,.06-.03.06-.06s-.03-.06-.06-.06c-.03,0-.06.03-.06.06Z"/>
      <path class="cls-14" d="M3.68,2.14l2.1-1.36v-.02s-2.04,1.31-2.1,1.38Z"/>
      <polygon class="cls-6" points="1.15 4.92 1.05 4.94 1.12 5.72 1.26 5.68 1.15 4.92"/>
      <polygon class="cls-6" points="1.13 4.88 1.01 4.9 0 4.56 .12 4.52 1.13 4.88"/>
      <path class="cls-13" d="M3.57,2.36s.58.74.36,1.4c-.21.66-.33.89-.33.89,0,0,.44.26.62.11.18-.15,1.12-.54.7-1.57-.42-1.03-.81-1.06-.81-1.06l-.54.23Z"/>
      <path class="cls-14" d="M1.54.2l2.08,1.91h.02S1.63.25,1.54.2Z"/>
      <path class="cls-14" d="M3.71.15l2.02,2.26h.02S3.8.21,3.71.15Z"/>
      <path class="cls-11" d="M4.15.27l-.53.28s.81.87.46,1.19c-.35.32-.41.28-.41.28l.45.11s1.19-.5.04-1.86Z"/>
      <g>
        <g>
          <path class="cls-15" d="M5.06,6.12c.06,0,.12,0,.18,0,0-.07,0-.13,0-.2h-.18c0,.07,0,.13,0,.21Z"/>
          <path class="cls-15" d="M5.07,6.1c.06,0,.11,0,.17,0,0-.06,0-.12,0-.18-.06,0-.11,0-.17,0,0,.06,0,.12,0,.19Z"/>
          <path class="cls-15" d="M5.09,6.09s.08,0,.12,0c0-.05,0-.1,0-.15-.04,0-.08,0-.12,0,0,.05,0,.1,0,.15Z"/>
        </g>
        <g>
          <path class="cls-15" d="M2.88,6.09c.05,0,.11,0,.16,0,0-.07,0-.14,0-.2h-.16c0,.07,0,.13,0,.2Z"/>
          <path class="cls-15" d="M2.89,6.09c.05,0,.1,0,.15,0,0-.07,0-.13,0-.19h-.15c0,.06,0,.12,0,.18Z"/>
          <path class="cls-15" d="M2.91,6.07s.07,0,.11,0c0-.05,0-.1,0-.15-.04,0-.07,0-.11,0,0,.05,0,.1,0,.15Z"/>
        </g>
        <g>
          <path class="cls-15" d="M3.22,6.12c.06,0,.12,0,.18,0,0-.08,0-.15,0-.22h-.18c0,.07,0,.13,0,.21Z"/>
          <path class="cls-15" d="M3.23,6.11c.06,0,.11,0,.17,0,0-.08,0-.14,0-.2-.06,0-.11,0-.17,0,0,.06,0,.12,0,.2Z"/>
          <path class="cls-15" d="M3.25,6.09s.08,0,.12,0c0-.06,0-.11,0-.16-.04,0-.08,0-.12,0,0,.05,0,.1,0,.16Z"/>
        </g>
        <g>
          <path class="cls-15" d="M3.61,6.13c.06,0,.12,0,.18,0,0-.09,0-.16,0-.23h-.18c0,.07,0,.13,0,.22Z"/>
          <path class="cls-15" d="M3.62,6.12c.06,0,.11,0,.17,0,0-.08,0-.15,0-.21h-.17c0,.06,0,.12,0,.2Z"/>
          <path class="cls-15" d="M3.65,6.1s.08,0,.12,0c0-.06,0-.11,0-.16h-.12s0,.1,0,.16Z"/>
        </g>
        <g>
          <path class="cls-15" d="M3.98,6.14c.06,0,.12,0,.18,0,0-.09,0-.16,0-.23h-.18c0,.07,0,.13,0,.23Z"/>
          <path class="cls-15" d="M3.98,6.12c.06,0,.11,0,.17,0,0-.08,0-.15,0-.21h-.17c0,.06,0,.12,0,.21Z"/>
          <path class="cls-15" d="M4.01,6.1s.08,0,.12,0c0-.06,0-.12,0-.17-.04,0-.08,0-.12,0,0,.05,0,.1,0,.17Z"/>
        </g>
        <g>
          <path class="cls-15" d="M4.34,6.13c.06,0,.12,0,.18,0,0-.09,0-.16,0-.22h-.18c0,.07,0,.13,0,.23Z"/>
          <path class="cls-15" d="M4.35,6.12c.06,0,.11,0,.17,0,0-.08,0-.14,0-.2h-.17c0,.06,0,.12,0,.21Z"/>
          <path class="cls-15" d="M4.37,6.1s.08,0,.12,0c0-.06,0-.11,0-.16h-.12s0,.1,0,.16Z"/>
        </g>
        <g>
          <path class="cls-15" d="M4.7,6.13c.06,0,.12,0,.18,0,0-.08,0-.15,0-.21h-.18c0,.07,0,.13,0,.22Z"/>
          <path class="cls-15" d="M4.71,6.11c.06,0,.11,0,.17,0,0-.07,0-.14,0-.2-.06,0-.11,0-.17,0,0,.06,0,.12,0,.2Z"/>
          <path class="cls-15" d="M4.73,6.09s.08,0,.12,0c0-.06,0-.11,0-.16-.04,0-.08,0-.12,0,0,.05,0,.1,0,.16Z"/>
        </g>
      </g>
    </g>
  </g>
</svg>