<?xml version="1.0" encoding="UTF-8"?>
<svg id="Layer_2" data-name="Layer 2" xmlns="http://www.w3.org/2000/svg" viewBox="0 0 147.22 95.83">
  <defs>
    <style>
      .cls-1 {
        fill: #42322c;
        fill-rule: evenodd;
        stroke-width: 0px;
      }
    </style>
  </defs>
  <g id="Layer_1-2" data-name="Layer 1">
    <path class="cls-1" d="M85.84,68.3c-13.55,3.69-15.13-.55-21.92-6.66v-22.03c11.17,4.64,23.4,3.1,30.81-.77.41-.21.55,4.82-.42,5.08-3.3.88-5.51.81-8.81,1-1.53.09-2.97-.08-3.38,1.86-.09.42.61,2.82.62,3.96,0,.3.25.44.63.49,2.09-.68,6.58-.5,11.93-.9l.56,7.48c.82,5.76-4.56,8.99-10.02,10.48h0ZM70.55,53.89c.45,2.73-.27,2.26,2.45,2.07l8.54-.86c.09-1.83.09-4.29-1.5-5.43-2.19-1.57-10.37-1.09-9.5,4.22h0ZM83.9,59.04c1.76,1.11,6.69.89,8.11-.55.81-.81,1.49-4.84-.97-5.15-1.99-.25-4.3-.1-6.23.13-3.26.39-2.33,3.83-.91,5.57h0ZM75.84,83.81c-8.75-3.79-25.3,2.32-24.41,5.33.44,1.49,6.62,1.18,11.58.31,6.74-1.19,6.16-2.37,12.83-5.64h0ZM69.9,92.25c5.45,7.04,13.12,2.38,15.86-2.76-5.86-3.58-11.45-2.4-15.86,2.76h0ZM79.37,82.91c3.86,6.85,28.34,3.76,34.94.11-8.76-5.79-29.86-4.09-34.94-.11h0ZM82.08,13.27c8.1-2.45,2.01-2.76,12.38-3.27l.45,20.84c-3.61-1.11-7.87-1.93-12.79-1.67l-.04-15.89h0ZM65.04,12.27c7.32-2.02,6.76-1.43,13.61,1.03l.32,15.65c-4.68.29-10.89,1.64-13.85,3.27l-.09-19.95h0ZM129.86,76.59c-3.02-4.41-8.32-4.84-15.27-6.48-15.53-3.67-12.12.48-13.54-6.28,7.21-4.03,35.92,7.01,46.17,3.27-1.75-5.6-3.49-3.81-5.34-8.05-2.33-5.33,2.21-1.77-2.71-8.63-4.87,4.56-3.84,6.57-10.05,8.81.85-7.16,4.58-17.72.46-23.1-2.12,9.44-8.79,13.68-7.52,22.22-1.78-2.83-4.79-2.7-5.35-8.48-2.72,1.14-3.66,7.08-3.71,7.18-3.8-.88-8.46.4-11.4-2.64l-.31-44.68,6.29-.53c7.82-.66,4.69-5.35-.16-5.38-5.29-.03-12.12-.54-12.39-.56-3.75-.31-8.56-.04-10.21-.59-2.85-.96-1.46-2.77-6.47-2.66-3.63-.1-4.89,2.2-6.68,3.34-1.1.7-5.56.67-9.68.78-7.87.21-5.03-1.08-13.45,1.31l-.33,16.31c-3.3-1.54-8.01-3.57-11.04-2.52,2.14,6.53,4.02,10.1,14.41,7.82,1.12-3,1.02-12.4,1.14-16.63l6.54.19c.06.37.09,11.99.06,12.83-.39,12.07,3.22,31.82-11.41,31.55-3.72-8.15.06-9.07-5-14.89-9.06,7.86,3.15,11.78-6.04,17.76l-2.3-5.2c-2.64-11.14-2.17-9.55-9.97-14.82-2.85,6.72,4.96,14.5,3.04,21.96-5.51-2.82-2.98-4.8-10.44-9.43-.1.41-3.91,4.98,2.59,11.96-8.98,2.49-15.67,2.73-19.77,7.65,10.74,2.6,17.04-1.06,31.61-4.9,10.84-2.86,10.7-2.66,23.21-2.96-5.23,4.08-29.34,10.86-37.73,12.89,23.02,10.35,31.75-13.79,47.03-1.2-7.35,1.45-13.94,1.7-16.64,8.02,6.64,3.24,19.83-3.09,27.27-4.2,16.85-2.52,53.46.28,55.1-1.01h0Z"/>
  </g>
</svg>