<?xml version="1.0" encoding="UTF-8"?>
<svg id="Layer_2" data-name="Layer 2" xmlns="http://www.w3.org/2000/svg" viewBox="0 0 184.07 206.34">
  <defs>
    <style>
      .cls-1 {
        fill: #42322c;
        fill-rule: evenodd;
        stroke-width: 0px;
      }
    </style>
  </defs>
  <g id="Layer_1-2" data-name="Layer 1">
    <path class="cls-1" d="M92.1,157.95c-1.38-15.82,10.66-20.35,22.2-20.46,11.14-.11,17.95,6.03,19.14,14.42.84,5.89-1.4,13.63-5.48,17.97-2.68,2.85-6.49,6.07-13.11,6.56-13.55.99-21.87-5.73-22.75-18.48h0ZM128.49,150.06c-3.7-5.97-9.61-11.51-15.77-4.61,6.26,2.27,15.07,9.68,5.87,16.08-.75.52-3.58,1.8-4.88,2.7-5.33,3.69-3.43,5.16,2.88,4.86,5.82-.27,14.81-5.84,13.46-13.93-.27-1.63-.88-3.43-1.56-5.11h0ZM32.42,61.09c2.61-2.22,9.64-4.23,11.85-4.51.96-.12,1.88-.54,3-.84l.09,10.54c-7.24-1.02-10.42-4.8-14.94-5.19h0ZM52.85,55.22c1.11-.07,2.23-.13,3.27-.12,11.31.1,22.96-.3,33.03,5.75-12.85,2.38-11.77,7.49-33.82,7.49-1.36-4.59-2.13-8.99-2.48-13.13h0ZM101.36,62.23c-.19-3.69-4.45-6.79-7.17-8.54-7.22-4.64-32.34-7.01-41.53-6.03.28-8.61.12-15.63,1.6-19.78.99-2.79,3.85-4.23,3.85-4.22-3.12-7.96-3.89-4.31-5.65-12.2-1.89-8.5,1.11-7.34-4.79-11.46-3.56,4.9-1.95,6.31-2.55,13.52-9.48.24-12.23.71-19.15,6.12-9.05,7.07-11.53,20.78-20.44,9.95-1.46-1.78-2.79-4.84-4.89-8.08-3.77,17.51,10.02,27.59,25.19,17.97,11.14-7.07-1.33-12.6,21.22-11.45l.17,20.51c-.29.05-.59.12-.86.19-2.32.59-3.47.67-5.82,1.53-5.83,2.13-12.99,4.93-16.3,10.6-1.12,1.92-1.41,2.29-1.41,4.83.17.12,6.84,16.62,7.54,18.41,2.5,6.41,1.56,18.23.84,25.35-3.72,37.18-1.92,14.7-14.92,37.3,8.23,21.68,30.45,26.02,52.23,24.26,22.28-1.79,15.11-5.14,17.83,1.85-10.58,3.9-34.14.1-40.26,3.73,2.89,9.4,16.09,6.91,31.2,5.04,4.65-.57,12.16-2.07,17.12-1.47,5.59.68,7.92,3.69,14.87,4.33,12.76,1.19,61.55-2.28,69.8-8.52-2.12-2.17.08-.4-6.93-2.48l-14.43.55c-3.79.54-8.26,1.35-11.97,1.63l-9.17-1.05,3.53-6.46c18.86-.2,21.09,1.74,35.04-3.57l-.32-47.48c.39-.18.95-.43,1.38-.61l5.35-1.95c5.55-4.66.8-22.49-2.95-29.28l-33.26-.38-.65-20.4c-23.19-6.32-24.39-20.9-32.53-19.96l-.46,45.27-19.08-.06c.6-5.23,5.44-10.08,7.74-17.13.88-2.7,1.12-8,1-10.4h0ZM58.17,114.48c-1.38,8.39,4.57,7.62,12.82,5.12-.2-3.29.11-4.39-3.3-5.98-7.07-3.3-9.46.83-9.51.86h0ZM151.55,139.33c-2.02,4.48-8.04,12.63,4.75,14.94.44-1.48,1.84-5.57,1.78-7.56-.31-10.54-4.16-4.31-6.53-7.38h0ZM68.86,204.06c5.95,3.92,20.79,1.87,27.6.53-.56-1.59-6.13-6.08-17.05-5.86-8.97.18-9.78.89-10.54,5.33h0ZM167.25,201.33c-5-10.79-25.98-3.82-28.24-1.63,4.42,4.49,21.03,2.9,28.24,1.63h0ZM103.38,200.82c5.15,6.12,24.53,1.32,29.54,3.45-3.68-9.63-20.35-6.85-29.54-3.45h0ZM40.31,197.26c14.33.85,16.78-.84,18.61-3.45-2.6-4.24-22.08-3.38-27.22-3.51-12.76,4.83,4.29,6.71,8.61,6.96h0ZM145.37,118.23l1.64,8.36c.57,3.99.8,5.17,2.5,7.96,11.43-.47,14.71-21.45-.98-16.81-4.5,1.33,1.63-.6-3.15.49h0ZM58.54,189.24c4.45,6.83,16.68,3.16,23.95,2.66,6.7-.46,11.42.36,15.49-4.12-4.72-5.68-3.65-2.26-16.51-1.61-11.38.58-17.91-2.63-22.93,3.06h0ZM112.29,196.17l26.04-1.7c12.96-.84,8.1-4.58.63-6.06-4.48-.89-10.09.09-12.8.04-5.64-.1-11.23-.68-16.59-.62-12.61.14-10.51,6.68,2.73,8.34h0ZM58.98,95.19c11.2,0,20.88-5.15,28.25-8.45l-.48,19.75,40.06.42,18.65.06.08-13.62h28.81s.97,14.91.97,14.91l-8.89,2.53c-.43,19.95,1.79,24.82-.04,47.92l-24.8,1.39c1.71-6.16-.02-20.72-5.73-25.16l.35-18.17-2.64-4.69c-7.07,7-4.38,4.1-5.62,19.11-12.85-2.66-19.6-.39-31.62,2.72.05-9.18,2.69-9.75-3.79-13.95-8.17,5.37-3,8.11-3.47,16.94-4.09,4.9-7.66,15.19-4.9,23.25-21.78,6.32-51.64,4.14-58.99-15.48l5.81-5.33c7.62,2.37,9.7,6.79,20.7,8.22,7.29.95,19.32,1.78,24.81-2.65-.41-.41,1.85-1.03-4.66-3.31l-17.78-1.58c-7.12-.91-12.09-3.38-16.87-6.62,1.94-5.07,1.71-4.65.82-10.84,24.33,6.81,13.85,1.98,16.27-.02-10.05-10.17-11.81-2.68-15.9-11.19,5.23-3.17,4.91-1.03,10.42-.97,4.88.05,2.47.37,5.39-2-4.19-6.48-6.25-4.9-15.02-7.19l.35-9.29c5.44,1.6,10.92,3.32,19.45,3.32h0ZM125.61,77.72c3.54-4.79,6.54-2.99,9.26,2.09l2.52,18.52-12.71-.08.93-20.53h0ZM93.23,68.72c-.03,12.19-24.32,17.8-32.38,18.27-15.14.89-27.28-8.52-30.62-17.48,13.24,4.68,24.05,6.75,33.28,6.14,14.58-.98,25.81-7.41,29.72-6.93h0Z"/>
  </g>
</svg>