<?xml version="1.0" encoding="UTF-8"?>
<svg id="Layer_2" data-name="Layer 2" xmlns="http://www.w3.org/2000/svg" viewBox="0 0 831.75 266.92">
  <defs>
    <style>
      .cls-1 {
        fill: #42322c;
        fill-rule: evenodd;
        stroke-width: 0px;
      }
    </style>
  </defs>
  <g id="Layer_1-2" data-name="Layer 1">
    <path class="cls-1" d="M451.21,177.13c-.45,6.94,8.76,9.89,19.85,13.23,13.8,4.15,16.07.75,29.22,7.87-6.19,8.51-18.41,15.63-24.86,20.39,3.51,4.52,6.15,5.63,18.24-3.19,3.36-2.45,4.71-4.53,7.72-7.18,38.79-34.19,30.41-42.37,61.82-74.4,10.71-10.93,16.62-23.21,30.65-30.01,8.7,3.17,15.22,13.52,27.63,10.1,13.33-3.66,24.31-25.35,37.87-.23,9.25,17.13,7.32,28.84,16.87,44.88,10.9,18.31,14.58,18.73,34.86,21.53,11.73,1.62,17.18,17.04,39.44,16.1,9.63-.41,11.37-.21,14.63-3.72-8.08-7.04-14.22-2.19-23.95-5.59-5.71-1.99-13.8-9-19.48-12.25-15.65-8.97-29.03,4.4-39.29-23.18,6.91-8.71,11.16-6.99,20.73-19.47,26.93-35.12,22.26-9.2,41.57-2.59,8.12,2.78,15.65-7.36,22.59-10.67,8.11,7.9,15,20.64,22.43,25.54-6.26,5.02-5.4-10.1-20.03-7.06l2.17,6.86c4.83,6.5,31.32,20.91,48.6,15.8-1.17-4.91-2.15-3.22-7.23-6.18,8.58-.47,13.87,1.11,18.5-3.41-3.81-2.61-2.46-.77-11.63-3.08-12.63-3.19-22.64-1.55-34.9-21.12-15.59-24.87-16.59-16.49-36.57-4.25-10.2-4.35-8.34-9.37-16.37-13.69-26.14-14.04-34.14,33.2-53.31,34.66-7.52-17.89-5.84-28.58-19.04-42.49-15.77-16.61-30.01,1.16-43.7,5.83l-20.34-11.63c-12.07-1.92-41.35,39.84-55.7,52.64-22.96-26.21-13.82-6.87-37.47-16.45-16.89-6.84-20.43-10.08-28.64-25.43-27.48-51.38-73.87,4.9-97.59,24.62-9.58,7.96-18.09,16.75-30.77,23.38-18.32,9.59-22.29,1.78-36.55,17.54-16.46,18.2-23.14,17.81-29.75,25.41,7.91,5.38,21.69-7.75,27.27-13.01,10.77-10.15,7.36-13.3,27.23-17.58,23.97-5.15,40.25-25.94,54.32-37.01,28.85-22.69,55.42-60.26,79.72-17.23,8.31,14.71,10.77,16.23,22.02,24.83-23.72,2.38-20.58-17.39-35.76-15.9.11,2.37-2.45-.85,1.19,5.94.04.08,3.07,3.58,3.25,3.8,2.59,3.19,3.63,5.39,6.8,7.93,6.23,5,13.45,5.58,24.07,6.17,15.62.87,19.06,16.97,39.38,19.53l-2.7,5.81-24.18-13.97c-24.34-12.4-32.18,2.72-41.13-14.77-4.31-8.42-.46-8.84-8.81-10.18-1.02,1.97-1.41.33-1.39,3.96l6.26,15.74c5.9,7.7,10.82,7.13,23.17,7.25,17.43.16,27.14,13.27,41.05,18.01-2.68,4.7-3.29,5.5-6.2,8.66-3.04-4-9.68-7.71-15.38-11.26-23.02-14.36-19.4,6.73-40.75-11.38-6.84-5.81-7.71-11.26-17.54-9.92,1.61,7.87,6.36,11.84,11.48,15.93,30.63,24.52,11.16-6.17,49.71,17.46,2.03,1.24,3.65,1.87,4.71,2.81,5.88,5.24,1.66,2.57,1.72,3.46l-2.82.89c-3.04-.39-16.07-5.84-25.62-7.63-14.57-2.72-18.43-12.66-29.28-7.46h0ZM708.25,252.94c4.47,2.08,14.13,2.9,16.35-1.87-6.77-3.12-13.68.05-16.35,1.87h0ZM501.02,254.87c2.39,5.69,15.23,6.64,20.15,4-.32-8.46-8.89-4.76-12.99-5.73-2.24-.53-6.77,1.34-7.16,1.73h0ZM479.67,264.74c.14.07,2.96,5.58,12.78-1.17-4.88-8.03-14.01-3.95-12.78,1.17h0ZM484.27,249.44c-7.1.23-7.31-.92-12.1-.74,1.71,7.68,12.23,7.66,17.48,6.65,14.54-2.79,3.75-6.21-5.38-5.91h0ZM569.59,171.05c1.37-.89,5.15-.59,5.68-1.29,3.08-4.1-9.18-6.39-13.68-6.17-2.97.14-.1,2.46,8,7.47h0ZM581.07,160.75c1.89-7.33-5.27-9.99-11.18-9.33,1.11,5.21,6.25,8.43,11.18,9.33h0ZM419.78,227.87c-.38-9.07-7.62-9.86-15.95-8.96.43,7.5,8.43,9.92,15.95,8.96h0ZM590.91,145.01c-.97-5.71-5.02-7.16-8.89-5.18-.26.13-.78.52-.97.7-3.6,3.43,3.37,10.16,9.86,4.49h0ZM752.53,140.02c-.37,1.54-1.34,3.52-1.31,4.62.16,5.68,8.96,6.87,13.67,8.06-1.47-8.03-3.57-10.72-12.36-12.69h0ZM338.03,233.03c-6.74-8.17-20.61-1.78-21.14-.51-4.25,10.35,19.17,2.86,21.14.51h0ZM633.52,254.23c3.69,2.21,2.65,1.69,8.19,2.56l8.76-.86c-1.75-3.66.26-5.09-8.27-5.8-5.49-.46-7.86-.52-8.68,4.11h0ZM436.22,220.15c.08-.35-5.61-9.64-9.54-13.08-2.75-2.4-6.32-2.23-6.42.58-.48,8.91,9.67,14.05,15.96,12.5h0ZM557.36,236.35c4.29,4.52,17.26,1.96,22.4-1.99-.93-3.11-17.79-8.69-22.4,1.99h0ZM645.58,160.02c2.25-3.77,2.61-1.77.9-8.82-1.13-4.65-1.87-8.2-3.17-10.55-2.5-4.5-7.47-5.4-6.5,2.45.82,6.7,5.32,15.07,8.77,16.93h0ZM544.82,208.37c4.18,3.01,22.01,4.07,25.78-.33-5.41-6.46-17.61-4.14-25.78.33h0ZM294.83,210.98c5.38,1.75,17.03,4.06,21.65,1.39-4.32-6.87-20.68-11.67-21.65-1.39h0ZM642.02,190.29c-2.41-11.35-2.9-15.77-5.83-17.91-5.18-3.78-5.23-1.1-5.78,2.87,0,0,1.48,5.06,1.52,5.17,4.79,12.18,6.3,8.62,10.09,9.86h0ZM669.72,248.46c4.48,5.83,10.82,3.46,21.07,3.36,8.95-1.71,3.87-1.36,5.42-3.36-6.83-4.01-19.36-3.7-26.48,0h0ZM331.51,214.24c3.48,2.51,1.02,2.4,9.66,2.54,4.34.07,9.06.1,13.43.12-4.74-12.74-22.71-7.46-23.08-2.67h0ZM586.36,127.23c1.34,7.33-.61,4.14,7.08,7.89,3.79,1.84,6.04,3.06,11.39,3.18-1.28-8.13-9.78-16.14-18.47-11.07h0ZM724.02,223.82c-1.42-9.49-11.79-8.09-21.95-7,.79,5.74.96,6.71,7.33,7.56,3.91.52,10.53-.2,14.62-.56h0ZM653.68,216.53c.34-8.41-.53-7.36-6-10.68-5.37-3.26-4.77-4.19-11.98-3.2.68,9.14,8.08,12.8,17.99,13.88h0ZM469.15,240.25c7.4,0,9.7.66,15.27-2.04-.78-1.45,2.56-5.33-13.4-5.33-23.35,0-9.07,7.37-1.86,7.37h0ZM710.27,238.74c5.02,3.58,18.85,3.09,26.96,2.33-2.2-5.23-5.03-6.42-12.96-7.05-6.68-.52-12.41-.05-14,4.71h0ZM449.84,214.32c4.25-9.07-7.51-21.84-17.53-19.25,1.33,7.34,2.51,6.35,7.42,10.78,4.9,4.42,5.58,7.44,10.11,8.47h0ZM323.78,200.37c5.81,6.02,14.06-.65,38.24,4.84-.95-2.65.84-6.28-11.61-6.86-4.36-.21-25.1-2.54-26.62,2.02h0ZM679.3,225.54c.81-8.27-1.1-9.88-6.06-13.5-2.69-1.96-10.16-8.13-14.08-4.56-5.42,4.93,15.07,16.6,20.14,18.06h0ZM745.07,161.62c2.78,7.34,26.39,23.65,28.77,17.54,1.36-3.5-5.11-8.06-12.18-11.95-6.45-3.55-13.34-6.66-16.59-5.58h0ZM620.04,125.68c-2.27-11.22-22.45-15.12-27.4-14.52-.34,7.56,2.21,7.8,8.61,10.52,6.32,2.68,11.12,4.18,18.8,4h0ZM500.39,240.06c8.63,2.44,8.29,2.18,17.33,1.5,11.84-.89,10.54.18,14.37-4.57-4.94-1.98-35.56-9.71-31.71,3.07h0ZM276.4,223.57c2.74,8.92,7,4.36,25.74,3.89,7.23-.18,6.63.73,11.92-2.03-.34-.36-.77-1.49-.97-1.12-.26.46-.19-1.6-5.38-2.78-5.27-1.2-25.32-1.98-31.32,2.04h0ZM513.74,224.88c5.47,3.66,25.62.5,33.16-.64,23.29-3.51-1.95-8.76-19.42-6.31-7.16,1-13.13,1.93-13.74,6.95h0ZM472.2,206.99c-3.72-11.89-5.25-9.45-14.05-14.98-8.23-5.18-7.33-10.61-16.38-9.78-1.48,11.48,18.11,21.69,30.43,24.76h0ZM766.62,155.21c1.01,3.83-1.05,5.69,12.56,12.41,1.31.39,30.52,8.54,18.01-1.16-.25-.19-3.44-1.79-3.81-1.96-6.7-3.11-11.32-4.92-15.35-7.13-3.66-2.01-6.77-4.7-11.42-2.15h0ZM647.99,237.27c5.31,4.49,41.29,3.4,47.94,3.17-4.05-8.66-42.67-10.4-47.94-3.17h0ZM645.12,175.72c4.09,9.55,30.75,36.29,47.53,37.21-4.07-12.83-18.34-12.55-34.74-34.16-1.96-2.58-2.83-4.67-5.57-5.71-3.77-1.43-6.8.67-7.22,2.66h0ZM711.84,201.97c3.15,8.56,12.76,9.69,24.51,9.66-2.56-11.37-7.86-6.63-27.15-15.07-14.72-6.43-35.92-12.46-45.42-36.62-2.03-5.17-2.92-10.21-4.36-16-2.2-8.87-5.02-16.14-12.63-19.47.11,13.63,11.81,44.25,19.41,55.33,7.88,11.49,23.84,22.32,45.63,22.18h0ZM508.67,141.6c9.23-.45,11.32-2.53,17.91,3.49,4.41,4.02,4.67,4.03,9.26,7.63l-2.28,5.59c-7.74-1.39-21.26-10.52-24.9-16.71h0Z"/>
    <path class="cls-1" d="M162.51.4c-3.79-2.66-10.31,8.93-1.92,8.14,6.63-.62,3.39-7.11,1.92-8.14h0ZM163.04,93.03l.46-53.98c1.72-5.4,8.78.07,13.48,8.02,2.08,3.51,7.11,9.83,9.95,11.43,7.13,4.04,17.16,1.47,24.41-3.45,16.96-11.52-.32-28.44-12.68-22.67,25.85,3.6-4.94,37.76-14.25,1.22-1.62-6.36-10.05-7.99-19.85-9.29-1.82-9.37,2.69-9.72-4.18-13.26-6.13,1.86-3.59,8.17-3.87,25.85l.55,52.93c-13.1-5.33-34.37-.66-47.14,3.31-26.11,8.12-42.03,26.85-57.23,46.03l-36.1,27.16c-6.97,4.22-15.5,4.5-16.58,11.34,9.6.06,26.92-9.63,33.87-14.61l26.37-22.05c21.21-31.9,44.08-43.26,82.12-47.16,2.88-.29,8.71-.3,14.17,2.33l.08,17.17c-10.06,4.09-20.01,11.82-19.6,24.07,13.02-4.11,9.53-12.54,18.67-13.81,10.27,8.54-4.05,8.92,10.8,15.19.66-4.29,1.85-10.75,3.89-15.75,7.72,9.45-2.89,11.94,12.5,15.8-6.18-20.69-.19-21.43-19.33-24.62l-.12-13.91c6.72,1.6,26.15,10.5,31.36,0-1.58-1.09-27.62-6.39-31.77-7.3h0ZM157.56,181.93c14.17-9.95-15.33-14.51,0,0h0ZM172.48,187.71c6.92-1.69,6.01-6.45,3.38-10.27-5.65,2.18-7.72,3.82-3.38,10.27h0ZM111.72,174.15c5.07.29,8.89-1.12,9.06-7.19-1.08-.88.18-2.14-3.98-1.98-.37.01-3.3,1.34-3.33,1.37-3.17,2.88-2.06,3.89-1.75,7.81h0ZM218.6,198.59c-2.13-7.12-7.6-17.65-15.03-6.78,5.17,6.59,2.15,4.58,15.03,6.78h0ZM168.91,197.65c-1.51-8.47-1.02-10.73-8.91-10.89-2.24,9.61.39,10.88,8.91,10.89h0ZM150.31,183.75c-6.84-1.06-10.68,12.05.44,15.36,1.84-5.48,2.75-9.77-.44-15.36h0ZM53.77,196.58c5.52-.09,5.79-.85,9.5-4,5.66-4.81,5.07-2.63,4.45-9.89-8.06.15-14.71,6.12-13.95,13.89h0ZM178.41,199.61c9.88-2.98,7.7-3.95,10.59-7.65,3.82,2.48-1.28,4.56,10.07,5.66-.84-6.3-2.15-9.64-5.98-10.01-11.23-1.05-16.58,4.15-14.67,12h0ZM90.94,198.5c7-.36,19.06-12.53,16.96-18.74-5.43-6.67-17.31,13.16-16.96,18.74h0ZM121.88,205.5c12.12-1.04,17.7-19.41,15.16-25.2-8.03.36-5.44,2.42-9.69,10.99-3.08,6.2-4.13,6.65-5.47,14.21h0ZM71.75,180.91c7.37-1.05,17.62-11.41,20.35-15.7,5.22-8.21,1.5-6.16.08-7.31-5.75-2.02-6.55,4.75-11.16,9.48-4.96,5.09-8.41,4.12-9.27,13.53h0ZM107.77,202.45c9.78.41,22.96-18.66,16.22-27.66-8.04,3.44,1.94-4.73-8.95,13.59-2.91,4.9-6.26,7.78-7.27,14.07h0ZM77.03,192.06c13.17-.85,34.43-28.58,30.8-39.71-9.44,1.99-3.8.81-9.28,10.17-8.3,14.16-18.67,18.84-21.51,29.53h0ZM34.44,186.13c6.69,4.37,12.28-.77,18.05-4.36,16.97-10.57,13.07-7.39,27.43-22.97,1.51-1.64,5.25-5.19,6.38-6.83,5.26-7.72,1.73-5.69.16-7.04-6.68-2.7-7.4,2.84-11.7,8.68-6.83,9.26-16.66,15.88-26.57,22-15.11,9.34-11.16,3.01-13.74,10.53h0ZM25.01,177.49c16.67-.83,28.26-10.72,37.13-19.64,6.62-6.66,21.29-21.19,23.84-30.99-6.41-.6-5.99-2.03-10.94,4.65-6.45,8.71-4.13,11.02-18.66,22.45-27.4,21.55-29.09,13.31-31.37,23.53h0ZM101.34,130.17c.02-15.13,8.6-11.21,8.61-17.67-1.12-.46,2.22-2.95-5.84-.8-6.85,1.82-19.72,18.66-3.73,29.02,24.63,15.96,62.97,4.36,96.84,11.51,26.94,5.69,27.23-4.61,46.78-5.83,6.51,9.95,14.67,19.09,26.37,23.89,11.3,4.64,10.32,1.29,11.2.92-2.55-8.21-3.11-4.81-11.47-9.97-24.4-15.06-14.7-24.53-35.24-23.53-12.95,16.47-42.24,3.61-63.97,3.02-24.52-.67-52.92,5.72-69.55-10.55h0Z"/>
  </g>
</svg>