<?xml version="1.0" encoding="UTF-8"?>
<svg id="Layer_2" data-name="Layer 2" xmlns="http://www.w3.org/2000/svg" viewBox="0 0 291.49 203.49">
  <defs>
    <style>
      .cls-1 {
        fill: #42322c;
        fill-rule: evenodd;
        stroke-width: 0px;
      }
    </style>
  </defs>
  <g id="Layer_1-2" data-name="Layer 1">
    <path class="cls-1" d="M182.12,131.85c7.23-6.87,15.22-10.21,27.73-6.94,1.03,5.38,2.06,10.75,3.1,16.13-3.57,4.12-9.27,8.07-16.46,9.06-17.27,2.37-15.22-12.1-14.37-18.24h0ZM223.63,180.36c-18.59.95-37.18,1.9-55.77,2.85,0,.03-3.58-1.2-.15,4.1,5.49,8.47,43.5-3.32,63.2,2.26,3.61,1.02,6.5,2.79,9.47,3.65,11.63,3.36,10.68-1.06,11.25-1.43-5-6.44-10.62-5.03-20.28-11.16,7.27-.97,16.9-1.39,25.29-1.32,10.2.08,15.56.29,23.49.64-10-11.47-51.4-5.8-57.13-6.74-1.81,3.72-1.28,4.09.63,7.15h0ZM139.38,137.16c-2.6-2.11-18.27-9.32-15.52-1.33,2.5,5.01,13.13,6.8,15.52,1.33h0ZM101.16,139.03c6.62,1.36,14.88.66,19.14-3.18-4.92-3.87-14.67-1.01-19.14,3.18h0ZM226.73,51.63c2.99-4.03,4.76-9.33-1.86-12.15-3.27,5.71-1.09,8.74,1.86,12.15h0ZM153.99,17.6c-.11.27-3.52-.09.1,5.91,2.08,3.46,19,.54-.1-5.91h0ZM75.8,97.25c-1.1-9.99-.03-10.33-9.5-9.71.45,7.45,2.09,8.73,9.5,9.71h0ZM248.69,137.21c1.65-8.94,2.91-12.08-7.59-12.32,2.71,14.39-.22,8.93,7.59,12.32h0ZM112.24,40.89c2.71-1.66,4.29.31,5.04-7.66.72-7.7-.31-7.28-4.32-9.09-3.28,5.33-2.14,11.23-.72,16.75h0ZM78.97,122.68c5.52.12,16.38-1.55,19.75-4.89-5.01-5.76-19.4-4-19.75,4.89h0ZM215.21,82.64c11.15-.83,14.03-13.31-3.67-16.28,5.58,6.77,7.32,10.3,3.67,16.28h0ZM162.48,172.83c5.75,4.09,19.67,2.99,24.16-.44-2.04-3.34-1.89-4.16-8.47-4.66-6.32-.48-16.08-.25-15.69,5.1h0ZM272.36,104.7c.88-1.76,1.32-4.22,1.11-6.13-.67-6.23-4.12-5.85-10.22-6.52.97,4.47,2.78,25.24,9.11,12.66h0ZM18.03,148.61c5.42,10.69,13.44,2.8,20.95,4.92.7-4.22-14.26-10.29-20.95-4.92h0ZM91.58,194.97c.21,7.76,19.13,7.07,25.4,2.64-1.95-4.16-19.71-5.34-25.4-2.64h0ZM79.67,136.7c3.54-.07,21.57-.77,24.91-6.06-6.4-4.49-24.21-2.97-24.91,6.06h0ZM83.47,100.36c2.46-12.34.47-19.53-12.35-20.49,2.99,7.06,3.97,4.59,5.9,9.9,2.87,7.92-1.38,7.37,6.45,10.58h0ZM282.78,151c-5.86-.69-13.93-.87-19.5.41,3.01,12.89,45.53.4,19.5-.41h0ZM134.46,76.37c.91-.25,10.02-3.64,10.21-14.76.12-7.5-6.16-8.04-13.11-7.61.93,6.01,4.94,6.25,5.45,9.78.34,2.34-2.7,6.99-2.55,12.59h0ZM55.56,196.46c4.94,5.65,26.63,5.44,28.46-.63-5.97-4.27-24.24-4.99-28.46.63h0ZM168.07,104.13c4.71,5.6.11,1.29,19.47,3.72-.34-14.04-14.65-13.45-19.47-3.72h0ZM17.46,161.95c3.38,5.82,11.86,6.74,18.42,4.95,18.46-5.04,1.8-7.56-6.88-7.85-11.04-.37-9.07,1.07-11.54,2.9h0ZM166.89,201.54c5.78,2.12,16.44,2.46,22.51,1.23,8.17-1.66,4.06-1.34,6.02-3.52-3.25-3.19-25.72-7.76-28.53,2.29h0ZM157.64,113.65c-.29-16.12-19.19-21.43-24.73-13.56-7,9.96,5.73,5.07,9.78,5.53,8.06.9,5.23,5.3,14.94,8.03h0ZM141.31,132.64c7.36.05,4.27-9.41,24.08-4.35-1.13-18.55-25.52-7.89-26.28-1.51-1.26,10.55.1,3.01,2.2,5.86h0ZM249.5,166.23c5.38,3.49,23,.58,34.9,1.66-1.64-5.16-9.51-5.93-17.43-6.3-8.31-.38-16.66-.11-17.47,4.63h0ZM106.35,123.77c8.87.15,4.34-5.68,15.89-5.53,8.05.1,10.23,4.85,17.26,7.16-.77-10.7-5.64-14.96-17.22-15-10.18-.03-18.51,2.97-15.92,13.37h0ZM7.6,173.86c9.61,8.16,45.45,6.9,53.98-.72-1.91-2.27-1.94-3.8-15.04-2.21-14.48,1.76-33.65.56-38.94,2.92h0ZM219.95,125.46c2.51-3.41,8.27-4.31,11.9-6.83,7.14-4.98,6.76-6.28,14.63-.73,2.95,2.08,8.48,4.82,11.16,6.99,2.3,12.95.75,15.3-11.47,17.33-5.19.86-7.75.8-12.98.55-7.32-.36-7.24.64-11.76-3.3-3.42-3.04-5.7-8.26-1.48-14.01h0ZM206.11,109.73c-1.28-16.92,19.62-17.1,25.88-15.81,0,4.68.02,9.35.03,14.03-12.13,4.94-16.53,12.41-25.91,1.78h0ZM271.81,118.97c-6.85-2.61-14.53-2.31-19.6-6.72-3.16-2.75-7.76-9.49-5.52-16.06,4.47-13.11,24.31-13.85,35.07-6.11,4.49,15.69-3.45,22.66-9.95,28.9h0ZM237.63,92.78c-4.64-5.83-5.13-5.32,0-12.23,2.01,1.77,5.36,2.82,7.37,4.59-2.01,2.31-5.36,5.33-7.36,7.64h0ZM205.03,61.97c11.25-3.22,18.82-.04,25.78,3.98-.53,21.41-16.13,25.14-24.84,19.27-6.02-4.06-8.75-12.7-.94-23.25h0ZM241.65,64.55c3.92-2.41,6.07-3.78,9.5-6.95,13.98-12.91,24.67,2.43,25.37,11.09-5.11,3.11-15.07,8.68-21.53,9.78-10.12,1.73-12.96-3.31-13.35-13.92h0ZM152.95,57.5c-.57,14.34-8.9,23.42-23.2,23.42-9.62,0-16.8-4.72-17.66-12.11-.79-6.75,1.18-10.94,3.81-14.45,10.27-13.73,28.92-11.23,37.06,3.15h0ZM100.33,96.13c1.7-13.79-7.22-25.25-20.19-31.87-.48-.25-2.07-1.13-2.4-1.33-.66-.57-1.32-1.13-1.98-1.7,10-9.91,12.16-8,27.67-1.71.44,15.3,3.29,24.52,16.74,28.23,14.22,3.93,24.46-.05,31.43-8.02,3.08,2.15,6.16,4.29,9.24,6.44,15.71,7.85,24.37-4.1,28.6-6.3,2.99,5.42,7.71,11.08,13.98,14.01-6.83,6.84-7.05,10.46-4.09,21.77-19.22,2.1-29.4,11.07-24.82,31.48-6.83,2.24-13.67,4.47-20.5,6.71-8.75-3.65-6.93-8.07-20.3-4.81-7.49,1.83-13.27,5.2-20.49,6.63-5.87-4.88-8.67-7.49-12.65-12.63-16.63-.97-17.53,8.77-32.44,8.37-13.11-.35-8.34-6.45-10.54-10.89-2.7-5.44-4.63-1.09-10.84-7.34-4.89-26.63,15.74-18.71,32.91-22.77-1.73-16.03-22.44-.72-29.29-14.56-6.07-19.3,23.13-36.74,38.36-14.27,2.05,3.03,3.86,6.79,5.28,11.36-8.96,20.44,5.26,11.84,6.33,3.19h0ZM194.23,61.23c-4.85,10.29-1.96,3.47-8.6,9.24-4.12,3.58-11.48,18.39-27.3,3.34.48-6.23,1.93-8.34,2.45-15.81.87-12.71,25.76-12.44,33.46,3.22h0ZM200.66,55.01c1.34-7.81,3.7-10.83,9.31-14.21,2.97-1.79,11.55-6.94,14.81-7.08,6.53-.29,10.79,4.74,12.96,8.96,1.65,3.22,2.7,4.98,2.39,9.19-1.32,17.89-11.91-6.24-39.47,3.15h0ZM167.48,40.67c2.74-18.21,30.62-26.42,36.96-5.54-4.09,4.48-6.23,6.76-10.39,11.96-5.06-5.48-16.92-5.44-26.57-6.41h0ZM90.9,46.31c-.5-16.28,16.13-34.94,39.03-31.98-1.38,10.51,2.15,18.23-5.49,24.72-7.62,6.48-9.76,3.03-15.95,13.78-5.87-2.18-11.73-4.35-17.6-6.53h0ZM167.84,22.07c-5.49,4.53-6.61,6.31-8.01,13.71-7.77-5.44-13.23-7.84-22.98-8.62,1.61-18.25,19.7-28.2,30.99-5.1h0ZM135.34,8.39c-25.1-10.03-52.8,13.2-52.92,37.41-20.61,10.79-7.49,12.91-22.92,19.82-6.55,2.94-31.76,23.32-10.48,40.38-.26.37-24.76,19.31-3.43,37.51,12.19,10.4,6.38,20.62,40.21,12.47-.39,8.11-.78,16.22-1.17,24.34-13.85.23-36.9-.72-49.24,2.87-.62,1.67,3.59,4.37,2.97,6.03-12.36-1.9-30.18-5.67-38.35,2.16,5.38,6.4,36.72,3.56,47.1,3.56.56-1.91-2.99-4.85-2.43-6.76,17.95-1.61,38.49-1.63,57.11-.19,13.52,1.04,43.74,8.05,53.37,3.45-5.21-9.28-52.93-10.85-62.35-11.38.02-9.39.04-18.77.06-28.16,8.51-1.35,7.26,4.69,15.12,9.5,7.3,4.46,12.07.22,19.93-1.95.13,4.39.26,8.78.4,13.17.38,12.53,7.77,9.75,7.12,2.82-.62-6.58-.08-16.79.06-18.97,14.19-2.21,4.46,9.88,29.65,1.69,26.07-8.48,10.76-.16,32.25-.69-.07,10.88,1.79,16.21,9.42,20.06,1.9-9.91-1.55-18.12.48-22.55,5.99-.2,8.4-5.19,11.64-8.2,4.58,1.82,10.57,2.49,17.76,3.54.74,3.93-.57,14.3.76,18.31.47,1.42,6.77,1.28,7.98,1.55-.98-9.59-.97-15.12-1.12-19.41,13.29-6.59,21.7-1.55,22.6-23.25,10.51-3.26,18.56-9.86,22.05-18.92,6.86-17.82-1.67-21.53-7.63-30.57,8.1-21.02-10.2-42.06-31.71-30.22-7.66-6.85-10.81-30.84-37.8-18.93-13.69-14.33-12.05-16.8-37.78-9.84-2.61-7.38-9.45-14.16-16.63-17.23-11.74-5.03-15.22,1.59-22.07,6.59h0Z"/>
  </g>
</svg>