<?xml version="1.0" encoding="UTF-8"?>
<svg id="Layer_2" data-name="Layer 2" xmlns="http://www.w3.org/2000/svg" viewBox="0 0 181.64 183.01">
  <defs>
    <style>
      .cls-1 {
        fill: #42322c;
        fill-rule: evenodd;
        stroke-width: 0px;
      }
    </style>
  </defs>
  <g id="Layer_1-2" data-name="Layer 1">
    <path class="cls-1" d="M20.63,81.4c5.18-9.2,7.75-26.88,11.27-37.61l10.96-28.31c1.54-2.32,1.73-1.91,3.11-3.21,9.88,10.23,22.99,31.28,27.98,33.93,6.06-3.29,3.92-3.77,8.13-10.02,3.37-5.01,3.62-5.97,8.66-7.89,9.38,13.94,5.99,29.72,22.56,33.7l11-6.43c.1,10.05,1.96,17.25,1.99,28.42.03,12.57-.19,13.78,4.75,22.57,9.45-1.67,6.54-3.46,11.68-9.85,8.06-10.03,11.11-11.89,19.77-19.38,1.51-1.31,2.76-2.58,5.04-4.22.72-.51,3.89-2.65,4.57-2.85l-5.2,64.06c-8.91-1.79-14.54-9.38-21.77-8.88-28.59,1.94-14.62,17.79-40.47-10.27-8.33,1.02-13.92,4.36-22.66,6.62-16.27,4.21-8.46,2.19-19.71-1.93-19.47-7.14-36.31,5.42-49.86,5.08-5.31-9.5-7.91-41.61-5.77-52.66l13.99,9.13h0ZM104.49,93.32c.39,9.88,9.66,3.84,5.03-7.19-2.84,1.73-5.23,2.03-5.03,7.19h0ZM82.54,60.13c-1.4,5.92,4.35,16.52,5.29,17.36,6.08-6.63-1.98-31.33-5.29-17.36h0ZM16.34,173.05c1.97,7.81,4.63,7.4,12.52,4.41-1.19-4.48,1.55-3.6-3.85-5.44-3.31-1.13-6.9-.19-8.67,1.03h0ZM21.79,99c-1.57-6.55-.69-6.95-5.66-9.42-4.7,7.11.41,15.57,4.47,19.3,3.42-4.35,2.86-2.86,1.18-9.88h0ZM37.29,180.55c4.71,3.39,11.9,2.89,17.78.83-1.38-4.5-.41-6.21-9.07-6.16-4.82.03-8.72,1.13-8.71,5.33h0ZM32.92,105.95c1.87-4.14-.9-17.05-7.46-22.53-3.85,7.43.18,19.2,7.46,22.53h0ZM146.74,112.14c9.37-1.16,16.65-16.78,17.51-23.15-11.29,2.29-17.18,17.94-17.51,23.15h0ZM116.85,104.05c7.17-4.96,5.59-27.02-1.86-31.3-4.2,4.26-.77,2.48-.24,14.87.29,6.93-1.42,10.73,2.1,16.43h0ZM98.2,74.62c2.91-5.49-.27-30.13-9.51-26.21.06.36-.22,4.17.6,6.93,7.87,26.61,2.78,17.41,8.92,19.28h0ZM61.74,62.6c-1.69-7.13-1.18-10.05-8.41-11.88.24,7.67-.31,6.4,2.36,16.09,4.29,15.54,10.79,20.76,8.29,5.04-.4-2.54-1.61-6.57-2.24-9.25h0ZM76.65,86.67c2.67-13.42-11.76-49.3-23.79-52.87.41,7.67,9.15,20.81,12.18,27.48,4.46,9.82,2.86,22.99,11.61,25.4h0ZM122.27,168.22c1.64.48,1.99-.31,4.55.64,5.09,1.89,12.59,2.58,16.81,4.77-1.43,1.63-5.24,2.96-7.59,2.96-3.94,0-7.63-.48-11.16-2.21-1.7-.83-6.24-2.89-3.75-5.52.16-.16.9-.71,1.14-.64h0ZM144.71,159.95c4.13-7.54-2.15-15.12-1.99-24.71-37.29,7.24-17.24,4.09-39.31-7.14.48,9.1.96,15.15-2.07,23.25-4.7.41-11.17,1.5-10.63-.77,1-4.17,4.03-15.98,1.76-23.43-13.15,3.3-16.67,5.2-20.76,5.78-13.92,1.98,1.51-8.31-32.2-6.31.14,12.24,3.14,19.36,6.37,29.66,10.29,1.14,9.4.47,15.73,5.08l-4.96,4.74c-1.77,3.04,3.67,1.7-3.26,4.83-.07.03-9.24,2.29-9.56,2.34l-9.87-1.05c-.76-5.96.83-5.36,7.73-6.42,4.91-.76,9.14-1.31,12.81-2.5-11.44-2.86-16.04-1.07-27.02.97-13.87,2.58-16.68,4.44-23.49-.1,5.76-3.77,15.75-4.42,23.33-5.32l3.29-27.76-24.64,2.37C0,112.79-2.38,85.24,3,63.49l14.05,8.48C20.77,50.84,33.48,12.25,43.11,0c8.45,1.19,5.72.57,10.01,7.78,4,6.72,15.46,23.6,21.85,26.82,3.97-7.73,9.23-13.13,17.65-16.86,7.8,7.07,12.09,23.81,17.02,34.17,10.12-.84,14.37-8.94,24.87-6.02,1.01,4.65-2.27,11.25-.47,23.54.83,5.65.79,17.51.27,23.42,6.45-2.45,7.56-6.66,10.75-10.34,2.95-3.4,6.29-6.21,10.61-10.06,3.31-2.96,8.91-6.6,13.22-9.17,14.73-8.8,11.34-4.19,12.77-2.63-1.44,14.41-7.03,68.89-7.4,83.04l-21.05-5.09c.09,6.75,2.74,17,.41,22.5,5.25.64,12.4,3.45,17.64,4.2.81.12,7.03,1.69,7.26,2.09-.95,1.69-6.37,2.92-8.53,2.89-2.85-.04-6.42.41-9.72.41-3.96,0-4.2.1-8.15-.6-4.56-.8-9.68-1.97-14.2-2.97-4.14-.91-12.97-2.18-15.37-5.99-1.4-1.06,19.24-1.38,22.19-1.18h0Z"/>
  </g>
</svg>