<?xml version="1.0" encoding="UTF-8"?>
<svg id="Layer_2" data-name="Layer 2" xmlns="http://www.w3.org/2000/svg" viewBox="0 0 78.78 216.38">
  <defs>
    <style>
      .cls-1 {
        fill: #42322c;
        fill-rule: evenodd;
        stroke-width: 0px;
      }
    </style>
  </defs>
  <g id="Layer_1-2" data-name="Layer 1">
    <path class="cls-1" d="M8.09,187.48l-1.32-47.11,8.07-1.15c14.32-.36,10.98-8.76,13.18-12.43,2.28,15.96-1.32,39.36-1.14,53.93l11.64-.59-1.29,25.32c-9.84,3.85-6.66,1.98-9.55,5.8,4.91,7.94,12.28,4.86,20.58,2.72,1.26-26.34-4.84-32.96,5.02-35.46l.44,34.74c7.93.42,14.21,1.03,20.76-2.45-1.92-8.2-1.21-5.24-11.15-8.56l.43-22.5c3.99.29,1.41.52,6.49.47,1.96-.02,3.24-.13,5.15-.39l2.95-.99c2.07-11.26-3.81.03-7.42-14.72-6.65-27.12,3.04-42.17,2.49-62.39-15.23-11.68-4.16-4.72-12.76-12.59.27-9.39,4.62-16.64,1.56-24.31,4.71-3.79,7.82-3.85,8.13-11.04-6.45.07-8.73,1.46-11.48,6.29-9.19-.68-16.99-5.12-19.91-4.56-2.18,4.54-.53,3.61-.25,8.11v26.31s-16.79,4.5-16.79,4.5l-6.15,34.32-9.52,3.75-1.51-103.85c6.91-3.22,8.78-2.43,16.67-2.63,2.66-.07,12.82.15,15.1.48,8.55,1.24,24.01.94,31.11-4,1.87-1.3,2.43-1.36,1.33-1.69-2.43-.72-9.64-.9-12.22-1.07-6.9-.48-7.29-1.69-12.99-3.6,3.27-.08,6.53-.42,9.75-.97,5.16-.87,4.97-1.25,9.2-3.46,3.11-1.63,5.37-4.35,5.36-4.32-6.61,2.67-23.01,3.41-30.19,2.73-8.9-.85-14.47-2.19-23.75-2.01-4.36.09-6.16.43-9.66.98l-.04-2.79L2.17,0,0,6.83l1.25,185.62c.15,22.11,8.52,20.81,6.84-4.97h0ZM45.3,76.09l7.27.11c.03.05,5.29,2.48-.54,14.15l-3.59-.13c-3.99-4.53-2.93-4.77-3.15-14.13h0ZM49.64,102.19c-.54,11.76.59,16.22-5.25,16.65-8.88.65-10.78-14.04,5.25-16.65h0ZM58.84,102.88c10.99,3.28,5.6,13.16,3.67,15.3l-6.29-.7,2.61-14.6h0ZM45.8,140.93c-1.69-3.7-2.68-4.64-3.22-8.67-1.63-11.99-.19-4.53,1.9-7.3,2.1.87,8.17.26,1.32,15.97h0ZM55.46,124.25c9.52.95,10.09,1.55,7.27,10.66-2.26,7.32-4.08,10.04-8.57,14.25l1.3-24.91h0ZM64.52,171.77c-5.09-2.9-3.36.87-4.86-8.82l4.86,8.82h0ZM50.55,165.94s.67-6.06.68-6.15c2.3,4.85,3.75,7.71,1.88,11.69-2.63-2.85-1.89-.09-2.56-5.55h0Z"/>
  </g>
</svg>