<?xml version="1.0" encoding="UTF-8"?>
<svg id="Layer_2" data-name="Layer 2" xmlns="http://www.w3.org/2000/svg" viewBox="0 0 305.22 220.22">
  <defs>
    <style>
      .cls-1 {
        fill: #42322c;
        fill-rule: evenodd;
        stroke-width: 0px;
      }
    </style>
  </defs>
  <g id="Layer_1-2" data-name="Layer 1">
    <path class="cls-1" d="M199.1,155.29c-2.4-12.34,2.99-24.28,12.56-25.25,11.19-1.14,24.96-3.81,27.04,10.21,5.14,34.57-35.91,34.03-39.6,15.04h0ZM249.04,127.63c2.45-1.16,3.61,2.15,5.04-4.99,1.29-6.41-1.8-4.3-5.04-4.91-1.12,1.64-2.06-1.73-2.24,4.19-.29,9.27.27,3.19,2.24,5.71h0ZM181.9,137.34c4.95-1.42,4.73,1.63,5.78-6.19,1.09-8.15-2.04-9.91-2.05-9.92-.9.27-8.44-.28-5.98,11.54.75,3.63.83,2.37,2.25,4.57h0ZM235.86,190.73c-3.84-4.37-26.71-7.61-34.73-1.86,5.22,6.34,16.58,5.5,27.54,4.26l7.19-2.39h0ZM216.98,162.78c19.69-7.36,17.85-25.17,1.92-28.49,1.75,6.04,5.75,9.14,2.5,15.64-3.66,7.31-7.29,3.13-4.42,12.85h0ZM205.4,182.52c-1.76-7.74-9.65-11.2-19.51-10.49-12.3.88-21.66,1.59-21.82,8.49,8.85,3.1,6.81-.37,21.44-.45,8.17-.05,12.32,3.08,19.89,2.45h0ZM175.04,152.89c-2.13-34.71,6.25-40.13-7.81-40.66l-10.45,1.16-.62-7.76c11.38,1.76,3.35,4.8,16.44-.99l7.43,3.47c4.7-3.01,2.2-3.06,9.33-3.09,2.58,7.3-2.82,15.44,24.89,8.55,1.83-5.37-.19-12.01.31-21.74.17-3.4.13-6.54.24-9.61l.2-8.98,8.1-.24c0,50.09.31,42.61,25.47,40.61l.47-8.9,22.2.74.49,13.54c-15.07,4.91-16.1-5.5-15.94,24.4l-6.74,1.03c-.3-.41-.7-.95-.85-1.26-3.71-7.54-1.23-9.11-6.84-15.63-7.34-8.53-49.33-16.98-50.72,25.79l-15.59-.45h0ZM208.52,65.64c5.02-13.78,6.42-26.39,10.06-42.49,3.15,6.91,8.63,32.09,11.42,42.07l-21.48.42h0ZM228.56,175.64c-7.15,3.72-4.1,2.46-2.32,6.46l5.92,1.03c2.11.1,5.26-.11,7.53-.1,4.73.02,11.98-.13,14.14-.58-.92-9-15.31-7.42-25.27-6.82,6.63-2.77,2.54-2.44,7.52-3.71,3.5-.89,7.46-.58,11.08-.54,7.42.08,14.28.76,21.2.04-2.37-4.6,2.62-2.57-5.48-5.82l-19.7-2.14c8.83-7.76,26.47-3.97,38.22-4.07-2.57-8.74-5.99-7.28-16.84-8.45,13.34-5.61,26.92-2.35,40.65-.37-5.63-15.27-23.62-9.45-38.94-8.1l-1.52-16.23,11.42-1.86c3.56-7.94,5.27-17.13.45-25.92l-33.18-3.31-1.08,12.24-11.89.79,1.01-35.24,11.13-1.01c-11.5-19.96-14.86-42.57-20.28-64.65-2.09-5.92-4.42-12.34-6.9-1.24-2.62,11.73-12.62,58.87-18.05,66.81l10.69.32-1.38,32.44-7.8,2.63-1.73-10.88c-19.38,2.1-31.43-3-48.06,4.41.26,7.63,1.1,11.33,3.26,18.75l15.47-.69c-1.07,13.26,1.36,30.7-.81,34.31-.39.08-.92.19-1.17.22l-4.47.32c-7.38.55-7.17-.31-12.09,3.56,6.03,5.35,15.47,2.97,25.15,2.69,23.79-.7,16.94-.41,20.59,5.36-7.08-4.94-29.02-4.18-37.15.18,5.85,6.85,20.95,4.63,35.22,4.28l3.22-3.86c8.06,9.18,20.52,11.08,32.25,8.74h0Z"/>
    <path class="cls-1" d="M51.38,156.34c-1.6-14.15-.01-19.36,16.92-15.12-1.69,4.27-1.5,3.81-4.52,7.45l-12.4,7.67h0ZM55.69,207.95c5.15.64,4.76-1.47,7.17-3.19-2.27-4.84-11.84-7.08-16.75-.19,2.51,2.08,5.47,2.87,9.58,3.38h0ZM107.16,154.5c-11.42-2.01-7.69-1.39-10.83,6.74,5.18,3.23,7.65-1.04,10.83-6.74h0ZM47.28,123.28c1.06-7.92,1.14-14.03-6.4-15.59-1.44,2.24-2.64.51-1.74,6.61,1.22,8.28,5.74,7.93,8.14,8.98h0ZM18.91,137.78c-9.99,1.17-5.33,2.99-6.69,6.67,13.81,1.68,14.89.57,18.12-1.65-.84-1.61-4.38-5.85-11.43-5.02h0ZM44.74,174.3c.38.28-2.19,4.27,7.41,4.75,7.51.37,12.69-2.18,11.95-3.94-1.18-2.82-12.92-5.06-19.36-.81h0ZM84.71,160.36c4.05-3.14,8.1-10.35,6.85-16.03-10.84-4.89-9.87,8.21-6.85,16.03h0ZM83.97,209.74c5.53,3.54,5.16,2.11,12.28,1.17,11.62-1.54,8.58-1.03,11.25-4.9-6.43-3.88-20.18-4.33-23.53,3.73h0ZM75.35,203.37c7.46.03,16.93-1.45,19.57-7.43-5.58-1.57-7.29-1.3-13.92-.3-10.43,1.58-24.61,7.66-5.64,7.73h0ZM109.96,219.59c5.06,1.98,23.36-1.03,28.29-4.25-5.1-4.29-7.63-3.66-16.13-2.51-9.35,1.26-9.67.22-12.16,6.77h0ZM33.48,110.88c-2.12-1.9-6.97-3.9-5.45-10.91,3.03-14.05,18.03-1.81,21.63-.02,3.15,1.56,8.07,1.22,12.17,3.09,9.9,4.52,7.51,9.09,11,18.74,3.26,9,9.76,6.9,19.86,9.99,14.09,4.31,10.52,4.16,12.57,17.67,15.34,6.29,13.25,11.84,11.48,17.16-.97,2.91-1.12,1.45-.87,5.49,10.29.23,2.19-.89,7.65-1.13,8.6-.38,13.44,8.55,7.25,13.34-11.92,4.92-22.63-7.05-29.18-12.84-21.36-18.86-22.32-6.02-33.61-11.56-.64-5.73,24.55-28.34-10.48-27.85,5.14-12.68,10.54-27-10.3-27.9.35,8.58,5.62,3.31,9.74,11.32l-6.01,17.12c-.09-.26-.45.97-.72,1.44-9.32-1.87-1.7-5.62-11.31-8.47-18.88-5.62,2.95-7.18-5.42-14.67h0ZM140.02,185.63c6.54-15.26-9.27-18.6-11.83-22.07-1.82-2.46-3.4-9.05-4.99-11.49-3.05-4.67-7.73-5.87-9.57-8.86-3.59-5.82,1.07-7.83-5.96-13.35-7.05-5.54-19.12-4.98-25.99-9.44-4.63-7.86-5.17-19.33-27.34-25.07-13.41-3.47-15.68-17.85-29.72-2.47-7.8,8.54-.89,12.3,2.54,19.74-9.76,15.33-5.8,17.34,9,19.76,7.1,13.48,7.61,7.84,6.88,18.21-7.13-3.92-24.92-2.21-27.98,5.22,7.08,3.86,21.25.11,27.8-4.26.14,8.69,7.47,7.08-20.61,9.54-21.74,1.91-19.35-1-22.26,6.4,10.41,4.21,45.5-2.05,57.14-5.92l2.12,1.85c10.05,10.35,7.47,3.48,16.26,9.01-.28,11.34,3.33,6.77-6.92,9.17-3.41.8-7.3,1.29-11,2.06-18.08,3.73-15.77,1.43-18.12,7.67,6.3,2.74,41.83-3.89,50.32-7.18-3.88-6.78-13.72-5.42-2.3-14.43,3.78,5.06,8.61,4.98,12.19,11.14,3.67,6.31,3.26,8.23,3.01,18.62,4.88.42,4.75.24,6.7-10.55l12.8,4.73c.66,8.37-.11,9.43,7.1,11.77l-.18-11.91c6.09-1.99,8.7-2.76,10.91-7.9h0Z"/>
  </g>
</svg>