<?xml version="1.0" encoding="UTF-8"?>
<svg id="Layer_2" data-name="Layer 2" xmlns="http://www.w3.org/2000/svg" viewBox="0 0 211.96 144.31">
  <defs>
    <style>
      .cls-1 {
        fill: #42322c;
        fill-rule: evenodd;
        stroke-width: 0px;
      }
    </style>
  </defs>
  <g id="Layer_1-2" data-name="Layer 1">
    <path class="cls-1" d="M73.04,60c.13-2.75.65-25.33,1.38-25.71l19.02-22.69,11.3.25c.02,3.4,1.28,4.4.68,5.29-1.26,1.88-5.45,1.13-9.44,6.48-6.5,8.72-4.79,23.91-4.49,32.32-2.91-.07-2.01,5.84-1.61,6.32,3.78,4.53,33.16,4.58,36.6,4.17.4-9.79.06-6.68-2.21-7.57-.42-7.93,2.26-16.03,1.4-23.91-1.11-10.19-6.76-18.02-15.92-17.44l-1.13-6.1,5.91-.09.54-5.19c-16.44-2.52-26.8-.59-43.3-.41l.15-5.28-9.86-.41c-.66.54-.81,2.46.02,10.53,2.08,20.08-.32,32.43-2,53.52-14.64,4.66-21.64,8.37-33.4,15.17C5.99,91.2-.97,89.3.11,97.18c16.84-3.59,31.17-13.79,46.73-20.15,26.84-10.96,24.91-11.47,48.01,1.91,19.91,11.53,26.39-4.41,48.45,18.68,24.17,25.31,42.96,26.63,68.66,22.31-.34-7.46-33.74-4.23-45.29-12.09-7.64-5.2-17.58-15.32-24.69-22.01-13.17-12.39-19.35-6.98-36.86-11.34-7.82-7.31-23.79-12.88-32.08-14.48h0ZM54.68,108.64c-.89-8.22-3.58-10.97-8.51-4.8,3.64,5.16.26,3.02,8.51,4.8h0ZM38.2,107.13c.61,7.37,5.19,9.78,10.64,13.59,6.01-6.65-3.02-12.89-10.64-13.59h0ZM126.21,113.44c-.18-7.97-4.2-11.68-12.49-11.02-1.73,8.35,5.23,10.73,12.49,11.02h0ZM70.14,100.49c-1.09-8.3-2.75-9.21-11.5-9.59-.49,8.62,4.14,8.94,11.5,9.59h0ZM77.99,86.45c-6.38-4.46-9.42-4.87-13.24-3.1,3.73,6.51,4.87,11.33,15.75,10.56.12-4.03.46-5.38-2.52-7.46h0ZM80.96,111.28c-1.19-7.63-4.13-9.19-12.5-9.32.74,7.97,3.36,9.67,12.5,9.32h0ZM61.86,110.11c-8.63-3.88-9.06,1.04-9.34,1.19,4.39,5.93.2,8.01,12.91,4.9-.63-4.37.81-4.13-3.56-6.09h0ZM184.85,144.31c-2.41-7.4-8.61-12.64-20.92-6.9,7.65,9.31,6.55,5.72,20.92,6.9h0ZM193.57,127.15c-12.59-2.24-12.09,6.43.26,7.62,8.89.86,12.29-1.61,12.95-2.33-1.35-1.67-4.04-3.65-13.2-5.29h0ZM131.72,132.04c-.09,6.29-3.21,8.93,17.92,12.19-2.9-9.76-7.01-11.82-17.92-12.19h0ZM68.8,74.63c4.65,8,22.3,15.94,27.09,16.34-.46-13.54-20.52-17.65-27.09-16.34h0ZM115.76,117.68c-6.5-7.14-3.09-9.31-14.41-10.91,1.76,11.27,12.87,22.79,24.12,24.57-.86-7.41-5.33-8.85-9.71-13.66h0ZM122.68,115.35c.26,10.54,27.21,17.67,35.8,20.96,2.84-3.44-6.55-5.85-8.27-9.14,5.08.57,14.06,2.5,18.56,3.11,9.6,1.31,9.5-.55,11.99-2.2-5.16-5.26-1.47-2.46-9.53-4.4-38-9.15-22.49-29.47-51.98-29.93,3.49,9.35,2.93,4.81,10.5,9.9,6.54,4.39,10.1,11.9,17.82,17.68,2.44,1.83,3.35,2.06,5.76,3.59l-30.66-9.58h0ZM73.27,25.21c-1.44-11.85-1.14-11.74,8.75-12.33l-8.75,12.33h0ZM103.98,36.62c-.69-.82-5.68.72-6.11-.6-.26-.78,1.76-9.44,6.85-10.8l-.73,11.4h0ZM110.5,25.06c4.95,1.86,6.17,5.94,7.67,12l-8.41-1.27.73-10.74h0ZM96.75,41.53c3.69-1.72,6.3-1,6.94,1.12.43,1.41.14,3.76.02,5.17-1.4.99-1.23.93-7.01-.45l.05-5.83h0ZM109.24,48.66l.64-6.41,7.51,1.34c-.49,5.87-1.15,8.38-8.16,5.07h0ZM96.83,57.83l.14-5.24c0-.25,2.23-.23,3.47.08,5.82,1.23,2.82.23,2.66,6.39l-6.27-1.23h0ZM108.49,58.96c.69-.49-.94-4.08.94-4.71,1.13-.38,4.23-1.59,7.76.49l-.29,5.17c-3.84-.26-6.6.17-8.41-.96h0Z"/>
  </g>
</svg>