<?xml version="1.0" encoding="UTF-8"?>
<svg id="Layer_2" data-name="Layer 2" xmlns="http://www.w3.org/2000/svg" viewBox="0 0 313.06 120.61">
  <defs>
    <style>
      .cls-1 {
        fill: #42322c;
        fill-rule: evenodd;
        stroke-width: 0px;
      }
    </style>
  </defs>
  <g id="Layer_1-2" data-name="Layer 1">
    <path class="cls-1" d="M235.58,21.73c6.18,6.88,6.83,18.59,6.53,28.35l-15.62-3.75,9.09-24.6h0ZM167.83,90.52c-1.47,4.17-3.08,7.71,2.29,7.32,3.89-.28,4.46-3.49,4.77-6.52-2.65-1.13,1.17-2.73-7.05-.81h0ZM105.69,80.82c5.02,7.51-1.76,10.23,9.89,13.93-1.73-9.87,1.86-11.58-9.89-13.93h0ZM250.77,92.42l-3.34,1.42c2.92,3.74,13.33,9.95,20.82,6.24-1.42-6.48-10.96-8.48-17.47-7.66h0ZM100.58,115.53c6.3,4.72,24.3,1.45,26.86-3.63-6.9-2.38-27.68-2.9-26.86,3.63h0ZM182.53,120.55c-.61-11.01-13.96-10.37-19.92-6.91,2,2.4-3.18,3.75,9.07,5.89,3.9.68,6.49,1.27,10.84,1.02h0ZM137.25,49.09c1.06.38,1.28,1.17,4.3.8,6.55-.79,15.55-6.47,17.38-11.61-6.07-1.24-22.08.38-21.69,10.8h0ZM277.07,82.9c-15.36-3.84-19.76-10.96-28.13-6.59,2.72,7.01-1.78,2.02,6.32,6.1,8.97,4.51,22.6,11.06,30.31,5.13-1.91-2.82,1.35-1.17-3.97-3.54-.05-.02-3.98-.96-4.54-1.1h0ZM223.96,70.99c3.16,7.81,8.23,14.67-6.12,13.84l6.12-13.84h0ZM209.22,87.53c7.07,7.13,22.16,8.35,25.49-2.54,1.63-5.31-.95-23.35-14.34-23.9-4.8,4.6-10.01,18.67-11.15,26.43h0ZM37.23,112.33c8.31,1.17,13.09-4.77,18.32-8.69,5.22-3.9,16.73-11.43,19.05-16.61-7.41-4.77-9.79,3.01-17.35,5.2,2.35-4.15,5.41-5.82,9.97-8.69,4.43-2.79,8.27-3.19,10.66-7.2-7.65-9.04-24.23,8.16-30.58,13.41-12.29,10.16-26.41,14.63-30.1,20.49,13.77,5.72,24.73-11.06,35.42-14.44-5.54,8.51-13.28,7.07-15.4,16.53h0ZM100.82,96.33c3.18-6.74-.58-21.48.05-31.47,5.2,2.97,3.12,1.38,7.13,8.26,4.24,7.27,21.17,23.45,9.31,25.24l-5.06.39c-3.08-.05-3.16-.99-7.57-.43-3.02.38-6.38,2.48-9.54,3.92-13.56,6.2-14.51,4.76-16.14,11.41,7.58,3.99,17.98-6.1,26.08-7.06,3.57-.42,19.14,5.46,23.78-10.14,3.48-11.71-7.24-17.53-12.03-24.72-5.87-8.79-5.61-16.74-19.79-15.74-4.7,7.74-4.44,11.22-3.53,22.31.97,11.99,1.53,15.61,7.32,18.04h0ZM155.68,94.5c13.76-1.36,13.38-14.8,23.66-27.09,3.4,4.33,4.4,13.8,3.59,19.99-2.92,22.33-13.65,10.93-25.57,12.19-18.03,1.91-13.94,4.53-14.7,6.59,6.03,4.16,5.88,1.17,12.6.34l28.22,4.94c6.18,1.94,6.04,3.27,12.93,4.25-.83-9.02-2.67-7.83-11.26-10.95,2.93-9.83,11.89-22.25,1.54-46.8-14.92-.78-14.62,5.38-19.38,15.72-4.27,9.27-11.97,11.9-11.62,20.83h0ZM116.02,37.17c2.85,2.6-.89,1.36,3.8,2.39,3.8.83,53.68-6.29,51.67-24.2-10.72-.46-2.89,2.75-26.2,12.06-16.81,6.71-24.55,2.94-29.27,9.76h0ZM66.97,55.36l-9.86,7.88c-2.17-12.95-4.48-21.51-2.94-35.05,10.29,4.94,11.1,12.23,20.43,18.44l-2.44,2.81c-5.92-1.01-4.94-7.77-13.2-10.92,1.66,8.62,3.34,12.12,8,16.84h0ZM118.13,8c5.49,2.42,7.26,5.01,9.36,12.01l-10.13,1.42.76-13.43h0ZM0,102.45c.81.73-.94,2.7,5.17,2.71,28.92.06,80.51-71.38,120.12-77.09,24.15-3.48,9.14,2.27,25.13-8.57,35.57-24.1,26.96,3.54,46.21,20.84,13.63,12.24,20.02,9.51,37.72,16.42,11.54,4.51,12.06,9.42,35.52,18.56,11.07,4.32,30.25,11.4,43.2,9.92-2.49-11.65-16.27-6.2-31.62-13.77l-31.73-14.74c1.87-16.2-.4-41.76-12.55-47.12-10,4.11-13.08,22.75-16.2,34.99-27.12-6.96-30.44-36.69-42.79-42.86-8.91-4.46-36.22,15.18-39.86,16.75C129.24,9.45,130.71-.34,113.75,0c-5.02,9-3.95,12.56-2.57,25.02-13.49,3.42-23,11.73-32.57,17.75-9.77-5.78-16.42-32.19-29.14-19.84-8.88,8.46-.23,33.73,2.15,44.09-5.64,8.98-26.16,22.9-37.36,28.86-2.68,1.43-4.76,2.21-7.73,3.39-.94.38-2.99,1.17-4.06,1.66-.29.14-1.04,1.12-1.25.74-.21-.38-.82.51-1.22.79h0Z"/>
  </g>
</svg>