<?xml version="1.0" encoding="UTF-8"?>
<svg id="Layer_2" data-name="Layer 2" xmlns="http://www.w3.org/2000/svg" viewBox="0 0 217.99 127.98">
  <defs>
    <style>
      .cls-1 {
        fill: #42322c;
        fill-rule: evenodd;
        stroke-width: 0px;
      }
    </style>
  </defs>
  <g id="Layer_1-2" data-name="Layer 1">
    <path class="cls-1" d="M149.74,72.47c-11.44,0-19.22-6.49-20.67-17.09-2.42-17.75,24.47-32.8,34.64-2.31,3.75,11.24-3.23,19.4-13.97,19.4h0ZM189.57,58.75c6.59-3,16.23,3,19.16,7.36,4.75,7.07.66,17.11-5.1,19.29-19.5,7.37-31.44-18.73-14.06-26.65h0ZM199.43,73.96c1.05,2.64-1.85,6.59-3.47,10.12,6.45-1.22,10.65-5.14,11.13-8.58.92-6.61-7.72-13.43-11.48-9.72-.3,2.64.87,5.46,3.82,8.18h0ZM190.97,91.32c-2.23,8.69-1.97,15.67-2.09,18.16-2.64.63-10.26.46-12.53,3.8,4.82,7.07,25.93,3.54,33.52,1.17-.39-5.56-8.63-4.17-15.15-5.11-.58-3.96-.18-11.93,3.23-16.53,6.35-.45,11.76-1.87,14.61-5.43,12.09-15.09,2.53-32.51-14.25-35.42-23.12-3.59-36.07,31.19-7.34,39.37h0ZM107.85,73.15c-23.51,6.76-27.99-19.24-11.53-22.56,6.33-1.28,15.99,1.35,16.06,10.34.01,1.74-.54,3.38-1.64,4.94-.63-4.38-1.77-7.02-6.58-8.99-3.22,4.03-3.2,10.91,3.69,16.27h0ZM98.9,69.63c2.64-.5,0-11.07-3.7-12.95-4.09,6.48.55,11.97,3.7,12.95h0ZM85.09,117.96c3.62,4.65,20.49,3.27,23.4.56-4.64-6.56-17.42-3.9-23.4-.56h0ZM68.94,111.16c5.75,3,22.05,1.3,26.14-1.78-5.9-7.04-27.37-2.01-26.14,1.78h0ZM96.33,81.07l.47,12.96c-9.56,2.04-14.85,3.5-15.28,6.06,5.2,3,36.54,1.84,42.19-1.25-1.87-3.52-5.19-2.55-19.62-4.4l.19-13.7c9.42-3.02,13.76-7.58,13.47-18.84-.62-24.32-36.01-21.12-38.11-3.01-1.63,14.08,7.45,18.89,16.68,22.18h0ZM169.38,124.51c3.97,5.12,11.46,4.3,14.99-.67-2.91-2.43-11.63-4.01-14.99.67h0ZM119.78,117.27c1.12,3.92,7.62,5,11.29,5.13,5.78.2,5.11-2.32,2.43-3.54-3.05-1.4-8.97-1.38-13.72-1.59h0ZM140.52,59.9c4.7-2.2,4.78-3.66,3.48-9.87-8,1.13-9.03,3.37-3.48,9.87h0ZM148.86,64.3c7.78.77,9.41-14.57,2.01-18.91-5.18-3.04-6.74.23-4.75,5.19,4.81,11.94-1.53,5.37,2.73,13.72h0ZM166.12,124.44c-3.98-8.34-18.21-8.92-26.84-7.58,1.68,5.88,8.3,5.86,19.54,7.91l7.29-.34h0ZM138.46,77.95l-.02,24.58c-9.83,2.69-23.44-.14-31.09,3.85,4.2,5.7,7.66,4.5,19.25,3.68,9.17-.65,12.11.18,19.64-.67,15.25-1.73,22.64,8.27,28.76-3.56-6.55-2.48-17.67-2.82-28.09-2.94l-.84-22.89c16.13.07,24.62-1.71,25.58-19.77,1.57-29.52-39.43-45.79-49.12-14.96-5.18,16.47,7.56,27.22,15.93,32.69h0Z"/>
    <path class="cls-1" d="M11.79,29.05C-1.57,3.68,50.68-1.51,45.48,26.3c-2.63,14.1-5.89,14.58-18.12,13.36-6.44-.64-11.24-2.39-15.57-10.62h0ZM24.9,33.07c8.79,8.8,24.67-9.68,12.93-17.97-3.83,12.6-2.35,10.26-12.93,17.97h0ZM17.54,91.84c6.24,1.63,20.66,1.47,25.22-7.36-4.8-.97-9.92-1.64-15.67-.92-10.22,1.26-8.91.61-9.56,8.28h0ZM24.36,47.09l-.16,22.88c-4.94,1.98-8.14,1.73-13.86,2.74-12.64,2.22-9.09,3.72-10.34,6.84,1.84,1.18-2.62,4.2,13.12,1.09,4.63-.91,8.9-1.24,13.34-1.95,14.15-2.27,13.11-1.77,27.64,1.89-1.52-6.4-.39-5.76-6.19-9.54,1.18-.07,6.41-.08,6.75-.14,9.68-1.62,3.24-.37,6.6-2.54-1.71-3.37,3.58-2.22-5.35-5.07-2.14-.68-6.18-.73-8.17.02-10.34,3.89,4.62,5.89-16.73,5.89l1.5-18.99c.93-.51,4.82-1.45,7.83-2.77,7.31-3.22,13.57-13.83,13.2-21.95C52.83,9.72,44.5.85,29.52.06-5.43-1.8-7.61,40.99,24.36,47.09h0Z"/>
  </g>
</svg>