<?xml version="1.0" encoding="UTF-8"?>
<svg id="Layer_2" data-name="Layer 2" xmlns="http://www.w3.org/2000/svg" viewBox="0 0 388.8 238.81">
  <defs>
    <style>
      .cls-1 {
        fill: #42322c;
        fill-rule: evenodd;
        stroke-width: 0px;
      }
    </style>
  </defs>
  <g id="Layer_1-2" data-name="Layer 1">
    <path class="cls-1" d="M83.11,171.04c-10.95-8.47-8.67-21.76,2.12-26.29,7.36-3.09,18.45-1.46,21.55,7,1.5,4.09,2.03,11.46-1.57,16.01-4.89,6.16-15.35,8.51-22.09,3.28h0ZM102.3,127.28c6.09,1.97,6.93-1.93,7.29-2.15.41-3.42-1.57-5.73-4.25-6.21-6-1.07-9.78,6.18-3.04,8.36h0ZM118.94,204.12c5.41,2.55,15.05,2.84,21.47-.7,1.49-.82-13.63-9.17-21.47.7h0ZM103.6,113.05c4.38.43,11.11-8.23,1.54-10.16-8.13-1.64-7.13,9.61-1.54,10.16h0ZM89.71,167.43c9.37,2.79,15.18-7.13,9.69-18.26-3.68,8.71-6.11,11-9.69,18.26h0ZM82.14,208.4c2.22,2.43,13.96,4.22,30.9.89-4.07-8.12-25.6-4.14-30.9-.89h0ZM131.65,196.63c3.19,1.06,36.82,4.49,32.69-2.59-2.07-3.55-31.18-2.4-32.69,2.59h0ZM90.4,199.47c4.45,4.52,18.64.82,26.56.38-4.09-6.41-19.44-5.99-26.56-.38h0ZM86.38,198.76c-4.07-4.25-26.72-5.62-31.54,1.29,6.49,4.45,26.47,4.79,31.54-1.29h0ZM112.12,88.65c-.07-4.22-3-7.01-6.17-7.57-3.21-.57-6.68,1.14-7.67,5.94-2.21,10.71,14,11.1,13.84,1.63h0ZM94.15,74.1l23.15.24.2,27.12c.92,47.35,1.63,43.94,12.21,44.96,5.23,1.32,8.47-6.27,17.01-21.12,6.64,12.86,7.92,15.67,20.32,22.35-4.35,3.79-10.86,4.35-17.96,4.01.32,4.38.38,8.45.48,12.84l.71,11.83c-3.71-.82-7.29-.4-8.33-.66-2.07-.52.61-2.4-.93-13.64-1.62-11.81-19.18-15.98-17.08,13.07l-13.48-.59c4.11-4.52,11.75-39.27-17.67-39.59-29.77,1.01-24.22,30.62-16.46,38.52l-13.42.06-.34-12.16c-1.4-9.62-12.01-6.25-11.98,1.23l.03,11.2-6.37.28c-.35-30.91,4.32-37.89-10.96-44.93l-1.02-20.83c4.53.93,9.36-.7,11.87,1.52,1.49,1.31,0,6.54,1.06,9.45l7.66.16c-.71,8.2.63,6.26,3.6,11.13,1.65-1.88,2.58-.9,3.68-4.58.83-2.79,1.8-2.68,1.98-6.33,2.56,7.73-.92,9.19,6.36,10.81,4.7-6.93-.35-5.76,3.73-12.03,4.5,7.86-.73,7.19,7.24,12.08,4.54-1.75,1.27-9.36,4.99-12.76,5.52-.31,4.29-.46,7.48-2.43l2.28-41.22h0ZM93.14,66.99c.39-3.34-.05-6.19,2.43-7.14,4.81-1.83,16.83.43,23.34.43.61,4.31,3.04,6.7-6.18,6.96-4.76.14-14.98.27-19.58-.26h0ZM190.37,185.57c2.66-12.03-20.09-7.64-32.83-8.43l-.21-18.95c10.76-1.63,24.45-4.8,19.82-16.69-26.42,1.73-21.41-25.93-30.33-35.95-.62.92-7.97,19.55-15.65,29.09-6.2,7.7-6.35.14-6.57-5.66-.72-19.33-.04-37.79.43-57.14,1.2-14.07,5.97-9.5,9.62-15.89-6.73-1.41-13.93-5.26-16.46-8.32-15.3-18.46-4.54-34.32-13.32-47.64-6.93,6.85-3.36,40.85-13.21,49.7-3.21,2.88-9.07,3.75-14.27,5.04,3.35,9.81,9.15,2.54,8.89,13.45l-1.01,43.19-34.54-.65c-1.59-2.86.1-4.69-1.89-6.78-7.43-.83-18.15-2.29-23.09.3.37,10.72.53,22.13,1.66,32.9,11.55,3.56,9.9-4.84,8.2,37.36-10.73,1.11-31.98.29-35.62,8.15,6.83,4.94,27.25-.43,44.18-1.18l35.31-1.4c10.1.78,7.88,3.51,8.8,4.35-10.61-.72-15.4.11-25.45.52-7.99.84-23.34,2.09-24.09,5.83,5.54,2.87,44.96,1.24,53.92,1.08,32.63-.6,33.35,2.98,47.41-3.96-6.3-4.04-19.08.48-27.48-5.03,14.02-.98,74.69,3.67,77.76,2.7h0Z"/>
    <path class="cls-1" d="M260.13,191.04c6.62-.47,9.48-4.88,14.15-10.43,8.22-9.77,9.97-12.99,6.81-17.37-2.94-.46-2.28,2.03-5.02,2.97-9.6,4.34,4.4-7.85.2-12.94-3.88.45-10.12,8.16-12.84,11.04-21.97,25.95,19.55-30.01,20.58-34.96,13.38,5.32,15.52,16.25,20.93,31.21,3.44,9.51,5.73,7.4,9.59,15.72,2.64,5.68,5.38,9.02,11.33,10.69,4.88-5.86,3.06-9.23,8.12-14.74,13.1,3.09,14.13,23.59,54.83,29.3-2.72-8.93-.33-6.59-16.94-12.47-23.58-8.35-19.82-19.14-30.78-23.19-9.51-3.52-13.3,1.81-21.87,2.25-14.95-11.91-10.58-47.78-40.03-46.89-5.31,14.3-4.21,14.49-19.14,29.03-5.73,5.58-7.08,8.82-11.93,13.19l-10.84,12.57c-8.68,4.21-17.3-20.47-39.58,17.95-3.2,5.52-9.04,16.91-13.21,21.02-2.56,2.52-6.1,5.21-10.27,7.73-5.61,3.38-4.99.2-5.81,9.66,16.86,1.16,31.94-24.92,37.54-37.38,2.34-5.21,7.27-10.49,9.95-15.01,17.77-1.16,18.64,9.95,28.94,1.75.31-.24.66-.63.95-.88l6.9-5.84c-3.03,7.47-8.86,7.04-3.69,14.29,5.88-2.71,12.28-15.17,22.02-19.13-2.84,11.8-9.91,8.39-10.88,20.9h0ZM279.2,204.95c-2.14,4.35-1.61,4.75-.24,9.93,11.92-2.53,6-10.48.24-9.93h0ZM290.75,189.11c6.41-.92,9.11-3.88,5.05-10.41-6.77,1.09-6.44,1.28-5.05,10.41h0ZM268.93,221.64c2.31-6.25,4.94-12,1.22-17.09-4.9,1.41-5.41,2.05-6.05,8.94-.59,6.37.61,6.25,4.83,8.15h0ZM248.91,227.79c5.25.93,13.71-7.59,9.09-15.1-5.82,1.21-4.13.17-7.7,6.97-3.43,6.52-2.4,5.6-1.38,8.13h0ZM277.8,190.23c6.16-2.25,4.59-2.49,8.92-8.19,3.42-4.5,3.5-3.44,1.77-8.49-5.08.78-5.86,1.96-9.38,6.43-.81,1.03-2.46,3.09-2.76,4.61-1.73,8.87.36,3.62,1.45,5.65h0ZM232.33,233.32c5.27.73,6.94-5.53,12.94-13.43,4.98-6.55,9.5-8.16,8.14-16.69-7.43,1.03-5.54.35-9.45,6.51-7.03,11.09-14.37,15.57-11.64,23.61h0ZM218.97,235.56c7.57-1.83,7.67-4.09,15.67-17.23,3.45-5.68,9.32-12.79,7.36-19.77-6.91,1.04-5.63,1.81-8.67,7.63-7.69,14.7-15.67,19.77-14.35,29.38h0ZM188.02,235.72c9.5-4.62,19.38-15.13,24.53-25.06,6.27-12.09,1.72-11.08.44-13.29-9.67,4.3-1.38,5.67-14.71,20.54-12.25,13.66-14.43,10.51-10.26,17.81h0ZM199.95,238.22c3.88,1.66,5.84-.14,11.17-5.6l15.36-22.45c.62-1.34,2.59-5.74,2.73-6.65,1.35-8.56-.6-5.57-1.82-7.4-6.04,2.28-3.79,1.71-7.6,10.94-7.41,17.92-21.51,23.98-19.84,31.15h0Z"/>
    <path class="cls-1" d="M217.46,123.81c-1.77,1.1-.48.88-3.71,1.24-8.59.97-14.45-7.12-14-18.69.66-16.94-.87-22.72,9.62-23.61,11.98-1.01,21.69,1.01,12.88,12.93-3.44,4.64-6.17,4.69-5.1,13.52.84,6.95,3.92,8.45.31,14.6h0ZM195.54,140.36c1.65-.54,1.57-2.3,1.72-2.65-1.23-.91-1.27-3.17-1.85-7.67-.78-1.86-10.08,13.67.13,10.32h0ZM224.13,145.34c-.34-5.03.61-10.19-4.38-10.74.32,5.44-3.43,10.31,4.38,10.74h0ZM205.96,113.16c7.6-1.34,7.73-6.38,5.77-23.08-6.75,1.53-5.77-1.95-5.77,23.08h0ZM223.48,104.77c7.1-8.63,18.23-27.57-3.19-27.23-7.31.12-16.8-4.42-24.81,7.09-3.9,5.6-1.99,8.92-1.91,15.43.18,14.35-1.83,17.62,6.51,26.69-.2,6.45-1.44,8.93,1.16,13.84l4.32.23c1.19-3.71-2.55-8.46,2.19-10.39.55.9,1.96.52,2.21,1.29,1.37,4.21-1.9,7.86,1.05,9.36.6.31,3.58.11,4.66.47-1.11-6.29,0-4.99.03-10.18,15.79-6.33,8.14-12.36,7.78-26.6h0Z"/>
  </g>
</svg>