<?xml version="1.0" encoding="utf-8"?>
<!-- Generator: Adobe Illustrator 28.3.0, SVG Export Plug-In . SVG Version: 6.00 Build 0)  -->
<svg version="1.1" id="Layer_2_00000132784409796531445760000000913935888260518274_"
	 xmlns="http://www.w3.org/2000/svg" xmlns:xlink="http://www.w3.org/1999/xlink" x="0px" y="0px" viewBox="0 0 65.8 93.2"
	 style="enable-background:new 0 0 65.8 93.2;" xml:space="preserve">
<style type="text/css">
	.st0{fill:#FFFFFF;}
	.st1{fill:#77684E;}
	.st2{fill:url(#SVGID_1_);}
	.st3{fill:#A69270;}
	.st4{fill:url(#SVGID_00000065052304240159579140000015948920085038579328_);}
	.st5{fill:url(#SVGID_00000145016926378176242810000009873717899988718724_);}
	.st6{fill:url(#SVGID_00000152226203053061855790000010125773251189575559_);}
	.st7{fill:url(#SVGID_00000029024222722279931960000008035180862760601478_);}
	.st8{fill:url(#SVGID_00000110465912993547053290000015002798094164695741_);}
	.st9{fill:url(#SVGID_00000140002198373226569510000004310567671013602449_);}
	.st10{fill:url(#SVGID_00000080893639752369933330000012930723424313206453_);}
	.st11{fill:url(#SVGID_00000110451451717223904560000013149846815224085666_);}
	.st12{fill:url(#SVGID_00000110431725402350218720000005817044874549653392_);}
	.st13{fill:url(#SVGID_00000118371583080457869910000005558425452428228480_);}
	.st14{fill:url(#SVGID_00000055674273569842189080000016349314323024211368_);}
	.st15{fill:url(#SVGID_00000032610390668992893930000014552152258688436868_);}
	.st16{fill:url(#SVGID_00000118380319639178751760000000423351891911450772_);}
	.st17{fill:url(#SVGID_00000096766982555848745930000009798484447738765493_);}
	.st18{fill:#A08D6B;}
	.st19{fill:url(#SVGID_00000064321555948111734730000002508678554108813206_);}
	.st20{fill:url(#SVGID_00000063607293752232729760000018109522946208885430_);}
	.st21{fill:url(#SVGID_00000044167945986056835130000001684004797204773507_);}
	.st22{fill:url(#SVGID_00000109715355852525170170000011412893639964112533_);}
	.st23{fill:#D4BA8D;}
	.st24{opacity:0.63;fill:#D4BA8D;enable-background:new    ;}
	.st25{fill:#584C37;}
	.st26{fill:url(#SVGID_00000101102706203364732400000016177872917439365526_);}
	.st27{fill:url(#SVGID_00000057854010620956251910000015787862302634207384_);}
	.st28{fill:#DFC394;}
	.st29{fill:#A89471;}
	.st30{fill:#B9A27C;}
	.st31{fill:#E3C696;}
	.st32{fill:#B29D78;}
	.st33{fill:#6B5D46;}
	.st34{fill:#AA9672;}
	.st35{fill:#6C5735;}
	.st36{fill:#6F6149;}
	.st37{fill:#675A43;}
	.st38{fill:#4A3A1E;}
	.st39{fill:url(#SVGID_00000116203066653158323810000005176723507350372782_);}
	.st40{fill:#636466;}
</style>
<g id="Layer_1-2">
	<rect x="-1.4" y="-0.1" class="st0" width="68.7" height="93.5"/>
	<path class="st1" d="M62.5,8.2c0,0-2.8-5.5-3.2-6s-2.8,0.7-2.8,0.7l-1,0.1c0,0-0.9,0-1.3-0.3c-0.4-0.2-0.2-0.6-1-0.5
		s-1.5,0.5-1.5,0.5l-0.4,2.4l-0.5-1.9L49.3,3v1c0,0-0.6,1.4-0.9,0.6s0.4-0.9-0.2-0.8c-0.6,0.1-1.1,0.5-1.1,0.5l-0.5,0.4l0.2,0.4v0.5
		c0,0,0.5,0.9,0,1.2c-0.5,0.3-0.5,0.8-0.9,0.5s-0.6-0.8-0.6-0.8l-0.5,0.1l-0.2-1.2c0,0-0.2,0-0.8,0.3C43.3,6,43,6,42.9,6.4
		s-0.1,1.9-0.1,1.9s-0.1,0.3-0.5,0.3s-0.5,0.6-0.5,0.6l-1.1,0.3C39.6,10,39.5,10,39,10s-0.1-1.1-0.9-1.4c-0.8-0.3-0.5-0.6-1.4-0.5
		C35.8,8.2,35,8.5,35,8.5S34.8,8.6,34.5,8c-0.2-0.6-0.8-1-0.2-1.4c0.5-0.4,0.6-0.9,0.9-1.4c0.2-0.5,0.8-1,0.8-1l-0.9-0.8l-7-0.1
		l-1.7,0.9c0,0-0.5,0.2-1.3,0.2S21.9,4,21.9,4l-0.2-1.5l-3.3-0.1v1.5l-2.7,0.3c0,0-1.8,0.6-2.5,0.2C12.4,4,12,3.2,12,3.2
		s-0.6-0.2-1,0c-0.4,0.3-2.5-1-2.5-1S2.4,7.1,2,7.6s0.2,4.9,0.2,4.9S3.4,15,3,15.6c-0.3,0.4-0.4,0.8-0.4,1.2c0,0.5,0.8,0.9,0.8,0.9
		L4,18.5c0,0-0.1,0.3-0.8,0.8c-0.6,0.5-0.5-0.1-0.6,0.5c-0.1,0.6-0.1,1-0.1,1L5,21.3l-1.9,0.4l2.5,0.6l-3,0.5c0,0,0.5,1.5,0.4,2.2
		c-0.1,0.6-0.1,0.5-0.1,2.3v5.6c0,0,1.1,1.7,1.1,2.4s-0.6,4.6-0.6,4.6l-1.3,1v4.2c0,0-0.1,2.3-0.1,3.1s0.8,1.2,0.8,1.2
		s0.5-0.1,0.2,0.4c-0.2,0.5-0.1,0.5-0.4,1.2c-0.2,0.6,0.2,1.2,0,3.6C2.4,57,3.5,60,3.5,60l1.3,0.8l-0.4,1.5l-1.1,0.5l-0.4,3.7
		c0,0,0.2,1.7-0.2,2.6s-0.7,2-0.7,2l1.4,0.8l-0.4,1c0,0,1.4,0.4,1.9,0.5s-0.1,0.9-0.5,0.9H4.1c0,0-0.4,0.5-0.1,1.2s0.5,1.3,0.5,1.3
		s1.9,0,1.5,0.5s-0.9,1.3-0.9,1.3L4.6,79l-2.4,1.7l0.5,3.8c0,0-0.5,0.6-0.5,1.4s0,1.7-0.4,1.7s-0.6,0.8-0.6,1.3
		C1.3,89.4,2,90.5,2,90.5l3.7,0.3l0.9-1.3c0,0,0.2,0.6,0.6,0.8s0.4,0.5,1,0.2c0.6-0.2,1.3-0.5,1.9-0.5s1.5-0.3,2,0
		c0.5,0.2,1.1,0.8,1.7,0.4c0.5-0.4,0.9-1.3,1.7-0.8s2,1,2,1s2-1.3,2-1.7s0.9-0.4,0.9,0s0.5,0.6,0.5,0.6l0.4-0.5v-0.6
		c0,0-0.6-0.6,0-0.6s1,0.2,1,0.2s-0.2,0,0,0.5s0.2-0.3,0.2,0.5v0.8c0,0,0.6,0.4,1.8,0.4h3.2l0.2-1.3l0.5,1.2l1.4-1.8l-0.3,1.9
		l7.7,0.1l2.3-1.2v-0.6l1.8,0.6c0,0,0,1,0.5,1s3.4,0,4,0.1s2.5-0.1,2.5-0.1l4.8,0.4l0.8-1.7l-0.9-0.5v-0.8l2.3,0.6l0.8,0.6l0.5,0.9
		l1,0.4l1-0.8l2.8,1l2.2-3.2c0,0-0.5-1.2-0.8-1.7C62.3,84.9,62,84,62,84l1.5-0.9l-0.4-1.3c0,0-0.5-0.6-0.8-1.2s-1-1.3,0-3.3
		c1-2.1,2.2-1.4,1.7-3.2c-0.5-1.8-0.5-2.2-0.5-2.2s-0.2-2.2-0.6-2.2h-1.1l1.5-0.6l0.5-0.4c0,0-0.1-1.3-0.1-2.3s0.2-3.1,0.2-3.1
		l-1.4,0.1c0,0-0.8,0-0.2-0.6s1.5-0.8,1.5-0.8s-0.1,0-0.2-0.8c-0.1-0.8-0.1-2.3-0.1-2.3l-2.5-2l2,0.5l0.5-7l-2.3,0.2l1.7-1.5
		l1.3-9.3l-3.5-1.2l3,0.8c0,0,0.1-3.5-0.2-3.9s-0.6-0.4-0.6-0.4s-0.5,1.2-0.5-0.6s-0.1-1.3,0.6-2.8c0.8-1.5,1.3-1.8,0.6-2.3
		c-0.6-0.5-1-0.8-1.4-1.4s-0.4-0.4-0.4-1.8s0.2-1.4,0.2-3.5S61.5,20,61.5,20l2.3-1.2l-0.2-9.3L62.5,8.2L62.5,8.2z"/>
	
		<linearGradient id="SVGID_1_" gradientUnits="userSpaceOnUse" x1="142.8774" y1="187.8099" x2="141.8574" y2="99.0999" gradientTransform="matrix(-1.346898e-10 1 -1 -1.346898e-10 191.0291 -96.3591)">
		<stop  offset="0" style="stop-color:#FFDEA7"/>
		<stop  offset="9.000000e-02" style="stop-color:#FFE0AB"/>
		<stop  offset="0.42" style="stop-color:#FFEAB9"/>
		<stop  offset="0.66" style="stop-color:#EED8A9"/>
		<stop  offset="1" style="stop-color:#DCC498"/>
	</linearGradient>
	<path class="st2" d="M63,8c0,0-2.8-5.5-3.2-6s-2.6,0-2.6,0L56,2.8c0,0-0.9,0-1.3-0.2s-0.2-0.6-1-0.5c-0.8,0.1-1.5,0.5-1.5,0.5
		L51.8,5l-0.5-1.9l-1.6-0.2v1c0,0-0.6,1.4-0.9,0.6s0.4-0.9-0.2-0.8c-0.6,0.1-1.1,0.5-1.1,0.5L47,4.6L47.3,5v0.5c0,0,0.5,0.9,0,1.2
		c-0.5,0.2-0.5,0.8-0.9,0.5C46,7,45.8,6.4,45.8,6.4l-0.5,0.1L45,5.4c0,0-0.2,0-0.8,0.2c-0.5,0.2-0.8,0.2-0.9,0.6
		c-0.1,0.4-0.1,1.9-0.1,1.9s-0.1,0.2-0.5,0.2s-1.1,0.4-1.1,0.4l-0.5,0.6c-1,0.4-1.2,0.4-1.7,0.4s-0.1-1.1-0.9-1.4
		c-0.8-0.2-0.5-0.6-1.4-0.5s-1.6,0.4-1.6,0.4S35.3,8.4,35,7.8c-0.2-0.6-0.8-1-0.2-1.4s0.6-0.9,0.9-1.4s0.8-1,0.8-1l-0.9-0.8
		l-6.9-0.1L27,4c0,0-0.5,0.2-1.3,0.2s-3.3-0.4-3.3-0.4l-0.2-1.5l-3.3-0.1v1.5L16.2,4c0,0-1.8,0.6-2.5,0.2C12.9,3.8,12.6,3,12.6,3
		s-0.6-0.2-1,0s-3-0.8-3-0.8s-5.7,4.7-6,5.2c-0.4,0.5,0.2,4.8,0.2,4.8s1.1,2.6,0.8,3.2c-0.3,0.4-0.4,0.8-0.4,1.1
		C3.2,17,4,17.4,4,17.4l0.6,0.8c0,0-0.1,0.2-0.8,0.8c-0.6,0.5-0.5-0.1-0.6,0.5c-0.1,0.6-0.1,1-0.1,1L5.6,21l-1.9,0.4L6.2,22l-3,0.5
		c0,0,0.5,1.5,0.4,2.2c-0.1,0.6-0.1,0.5-0.1,2.3v5.6c0,0,1.1,1.7,1.1,2.4S4,39.6,4,39.6l-1.3,1v4.2c0,0-0.1,2.3-0.1,3.1
		s0.8,1.2,0.8,1.2s0.5-0.1,0.2,0.4S3.4,50,3.2,50.6s0.2,1.2,0,3.6s0.9,5.3,0.9,5.3l1.3,0.8L5,61.8l-1.1,0.5L3.4,66
		c0,0,0.2,1.7-0.2,2.6c-0.5,0.9-0.6,2.2-0.6,2.2L4,71.6l-0.4,1c0,0,1.4,0.4,1.9,0.5S5.4,74,5,74H4.6c0,0-0.4,0.5-0.1,1.2
		S5,76.5,5,76.5s1.9,0,1.5,0.5s-0.9,1.3-0.9,1.3l-0.5,0.4l-2.4,1.7L3.2,84c0,0-0.5,0.6-0.5,1.4s0,1.7-0.4,1.7s-0.6,0.8-0.6,1.3
		S2.5,90,2.5,90l3.7,0.2L7.1,89c0,0,0.2,0.6,0.6,0.8c0.4,0.1,0.4,0.5,1,0.3c0.6-0.3,1.3-0.5,1.9-0.5s1.5-0.3,2,0
		c0.5,0.2,1.1,0.8,1.6,0.4s0.9-1.3,1.6-0.8c0.8,0.5,2,1,2,1s2-1.3,2-1.7s0.9-0.4,0.9,0s0.5,0.6,0.5,0.6l0.4-0.5V88
		c0,0-0.6-0.6,0-0.6s1,0.3,1,0.3s-0.2,0,0,0.5s0.2-0.2,0.2,0.5v0.8c0,0,0.6,0.4,1.8,0.4h3.2l0.2-1.3l0.5,1.2l1.4-1.8l-0.3,1.9
		l7.7,0.1l2.3-1.2v-0.6l1.8,0.6c0,0,0,1,0.5,1s3.4,0,4,0.1s2.5-0.1,2.5-0.1l4.8,0.4l0.8-1.7L53.2,88v-0.8l2.3,0.6l0.8,0.6l0.5,0.9
		l1,0.4l1-0.8l2.8,1l2.2-3.2c0,0-0.5-1.2-0.8-1.7s-0.5-1.4-0.5-1.4l1.5-0.9l-0.4-1.3c0,0-0.5-0.6-0.8-1.2c-0.2-0.5-1-1.3,0-3.3
		s2.1-1.4,1.6-3.2c-0.5-1.8-0.5-2.2-0.5-2.2s-0.2-2.2-0.6-2.2h-1.1l1.5-0.6l0.5-0.4c0,0-0.1-1.3-0.1-2.3s0.2-3.1,0.2-3.1L62.9,63
		c0,0-0.8,0-0.2-0.6c0.5-0.6,1.5-0.8,1.5-0.8s-0.1,0-0.3-0.8c-0.1-0.8-0.1-2.3-0.1-2.3l-2.5-2l2,0.5l0.5-7l-2.3,0.3l1.6-1.5l1.3-9.3
		l-3.5-1.2l3.4-0.1c0,0-0.4-2.5-0.6-2.9S63,35.1,63,35.1s-0.5,1.2-0.5-0.6s-0.1-1.3,0.6-2.8c0.8-1.5,1.3-1.8,0.6-2.3s-1-0.8-1.4-1.4
		C62,27.3,62,27.6,62,26.2s0.2-1.4,0.2-3.4s-0.4-2.9-0.4-2.9l2.3-1.2l-0.2-9.3L63,8L63,8z"/>
	<path class="st3" d="M34.6,6.8c0,0-0.1,1.2-0.1,1.7S35,9.4,35,9.4L35.1,9c0,0,0.2,0.1,0.4,0.2c0.2,0.1,0.4,0.2,0.4,0.2h0.2
		c0,0,0.6,0.4,0.8,0.1C37,9.2,37.1,9.2,37.2,9c0.1-0.2,0.1-1,0.1-1S34.8,8.5,34.6,6.8L34.6,6.8z"/>
	
		<linearGradient id="SVGID_00000155147107869711671630000018181599134739411897_" gradientUnits="userSpaceOnUse" x1="106.2531" y1="154.956" x2="103.7031" y2="154.516" gradientTransform="matrix(-1.346898e-10 1 -1 -1.346898e-10 191.0291 -96.3591)">
		<stop  offset="0" style="stop-color:#FFDEA7"/>
		<stop  offset="0.13" style="stop-color:#F8D8A3"/>
		<stop  offset="0.3" style="stop-color:#E6CA99"/>
		<stop  offset="0.5" style="stop-color:#C9B188"/>
		<stop  offset="0.6" style="stop-color:#B9A47F"/>
		<stop  offset="0.75" style="stop-color:#FFEAB9"/>
	</linearGradient>
	<path style="fill:url(#SVGID_00000155147107869711671630000018181599134739411897_);" d="M37.6,8.1c0,0,0.3,0.6,0.3,0.9
		s0.5,0.9,0,0.9h-0.8l-0.3-0.4l-0.3,0.3c0,0-0.1-0.9-0.5-0.9s-0.6,0.5-0.8,0s-0.4-1.2-0.4-1.2l-0.2-1c0,0-0.2,0.8,1,1
		C36.7,8,37.6,8.1,37.6,8.1L37.6,8.1z"/>
	
		<linearGradient id="SVGID_00000056386365261345057100000013961966870449757871_" gradientUnits="userSpaceOnUse" x1="101.4431" y1="139.96" x2="101.4431" y2="136.6" gradientTransform="matrix(-1.346898e-10 1 -1 -1.346898e-10 191.0291 -96.3591)">
		<stop  offset="0" style="stop-color:#FFDEA7"/>
		<stop  offset="9.000000e-02" style="stop-color:#FFECCD"/>
		<stop  offset="0.19" style="stop-color:#FFF9F1"/>
		<stop  offset="0.24" style="stop-color:#FFFFFF"/>
		<stop  offset="0.43" style="stop-color:#FFEAB9"/>
		<stop  offset="0.69" style="stop-color:#F4DEAF"/>
		<stop  offset="1" style="stop-color:#E3CC9F"/>
	</linearGradient>
	<path style="fill:url(#SVGID_00000056386365261345057100000013961966870449757871_);" d="M52.2,2.6l-0.3,2.2c0,0,0.2,2.2,0.2,3
		s1.5-5.6,2.1-5.5S52.2,2.6,52.2,2.6z"/>
	
		<linearGradient id="SVGID_00000042000701717566078070000000514483926046521778_" gradientUnits="userSpaceOnUse" x1="102.8888" y1="141.1316" x2="101.4488" y2="137.9916" gradientTransform="matrix(-1.346898e-10 1 -1 -1.346898e-10 191.0291 -96.3591)">
		<stop  offset="0.25" style="stop-color:#F5DEAF"/>
		<stop  offset="1" style="stop-color:#A49270"/>
	</linearGradient>
	<path style="fill:url(#SVGID_00000042000701717566078070000000514483926046521778_);" d="M49.8,2.9l1.6,0.2c0,0,1.2,3.6,0.6,5.8
		C51.4,11.1,49.7,5.1,49.8,2.9z"/>
	
		<linearGradient id="SVGID_00000094589005757067947090000017268164544013343422_" gradientUnits="userSpaceOnUse" x1="133.1091" y1="188.33" x2="133.1091" y2="185.3" gradientTransform="matrix(-1.346898e-10 1 -1 -1.346898e-10 191.0291 -96.3591)">
		<stop  offset="0.63" style="stop-color:#CEB78C"/>
		<stop  offset="0.94" style="stop-color:#FFEAB9"/>
	</linearGradient>
	<path style="fill:url(#SVGID_00000094589005757067947090000017268164544013343422_);" d="M3.6,32.8c0,0,1.3,1.5,1.6,1.9
		c0.2,0.3,0.4,1,0.4,1.2s0.1,0.1,0,0.7c-0.1,0.6,0,0.8,0,1.5s0.2,1.5,0.2,1.5s-0.2,0-0.4-0.1S5,39.2,5,39.2s-0.3,0.3-0.1,0.5
		C5,39.9,5.1,40,5.2,40.2s0.1,0.5,0.1,0.5l-1.3-1c0,0,0.6-3.3,0.4-4C4.1,35,3.6,32.8,3.6,32.8L3.6,32.8z"/>
	
		<linearGradient id="SVGID_00000103232691329999857190000015076677906693222051_" gradientUnits="userSpaceOnUse" x1="138.2276" y1="130.7574" x2="133.9676" y2="127.0074" gradientTransform="matrix(-1.346898e-10 1 -1 -1.346898e-10 191.0291 -96.3591)">
		<stop  offset="0.34" style="stop-color:#EBD5A7"/>
		<stop  offset="1" style="stop-color:#A49270"/>
	</linearGradient>
	<path style="fill:url(#SVGID_00000103232691329999857190000015076677906693222051_);" d="M64.5,39.7L61,38.6l-1.9-0.1
		c0,0,1.5,0.9,2.3,2.7C62.1,43.1,63.6,45.2,64.5,39.7L64.5,39.7z"/>
	
		<linearGradient id="SVGID_00000117664024925141355080000014493624645711314569_" gradientUnits="userSpaceOnUse" x1="143.2191" y1="127.8611" x2="147.2391" y2="128.3711" gradientTransform="matrix(-1.346898e-10 1 -1 -1.346898e-10 191.0291 -96.3591)">
		<stop  offset="0" style="stop-color:#FFDEA7"/>
		<stop  offset="8.000000e-02" style="stop-color:#FFE0AB"/>
		<stop  offset="0.38" style="stop-color:#FFEAB9"/>
		<stop  offset="0.52" style="stop-color:#E1CB9D"/>
		<stop  offset="0.63" style="stop-color:#CEB78C"/>
		<stop  offset="0.75" style="stop-color:#AA9775"/>
		<stop  offset="1" style="stop-color:#E9D2A4"/>
	</linearGradient>
	<path style="fill:url(#SVGID_00000117664024925141355080000014493624645711314569_);" d="M63.9,50.3l-2.4,0.4l1.8,2.3
		C63.3,53,63.6,53.3,63.9,50.3L63.9,50.3z"/>
	
		<linearGradient id="SVGID_00000090972918458358558120000003132278635316371073_" gradientUnits="userSpaceOnUse" x1="164.6596" y1="128.5508" x2="166.9496" y2="128.8008" gradientTransform="matrix(-1.346898e-10 1 -1 -1.346898e-10 191.0291 -96.3591)">
		<stop  offset="0.3" style="stop-color:#AA9775"/>
		<stop  offset="0.47" style="stop-color:#B3A07C"/>
		<stop  offset="0.76" style="stop-color:#CEB990"/>
		<stop  offset="1" style="stop-color:#E9D2A4"/>
	</linearGradient>
	<path style="fill:url(#SVGID_00000090972918458358558120000003132278635316371073_);" d="M63.4,69.5h-3.1l3.8,2.7
		C64,72.3,64.3,69.9,63.4,69.5z"/>
	
		<linearGradient id="SVGID_00000088097788874288188260000016275515806453710486_" gradientUnits="userSpaceOnUse" x1="182.5164" y1="149.6888" x2="184.6564" y2="149.9288" gradientTransform="matrix(-1.346898e-10 1 -1 -1.346898e-10 191.0291 -96.3591)">
		<stop  offset="0.3" style="stop-color:#AA9775"/>
		<stop  offset="0.47" style="stop-color:#B3A07C"/>
		<stop  offset="0.76" style="stop-color:#CEB990"/>
		<stop  offset="1" style="stop-color:#E9D2A4"/>
	</linearGradient>
	<path style="fill:url(#SVGID_00000088097788874288188260000016275515806453710486_);" d="M42,89.8l0.5-0.4l-0.4-0.9
		c-0.2-1-0.6-1.3-0.6-1.3h-1.8v0.9l0.9,0.6l0.4,0.4L42,89.8L42,89.8z"/>
	
		<linearGradient id="SVGID_00000116930196526888491570000003100329097620831382_" gradientUnits="userSpaceOnUse" x1="182.0636" y1="168.1751" x2="183.8236" y2="168.3751" gradientTransform="matrix(-1.346898e-10 1 -1 -1.346898e-10 191.0291 -96.3591)">
		<stop  offset="0.3" style="stop-color:#AA9775"/>
		<stop  offset="0.47" style="stop-color:#B3A07C"/>
		<stop  offset="0.76" style="stop-color:#CEB990"/>
		<stop  offset="1" style="stop-color:#E9D2A4"/>
	</linearGradient>
	<path style="fill:url(#SVGID_00000116930196526888491570000003100329097620831382_);" d="M23.1,88.6l0.5-0.6c0,0-0.4,0.1-0.5-0.2
		C23,87.4,23.3,88,23,87.4c-0.4-0.6-1-0.9-1-0.9L21.7,87C21.7,87,22.6,87.4,23.1,88.6L23.1,88.6z"/>
	
		<linearGradient id="SVGID_00000158707172369934284870000014543470646263535551_" gradientUnits="userSpaceOnUse" x1="181.5377" y1="135.3582" x2="184.1777" y2="135.6482" gradientTransform="matrix(-1.346898e-10 1 -1 -1.346898e-10 191.0291 -96.3591)">
		<stop  offset="0.3" style="stop-color:#AA9775"/>
		<stop  offset="0.47" style="stop-color:#B3A07C"/>
		<stop  offset="0.76" style="stop-color:#CEB990"/>
		<stop  offset="1" style="stop-color:#E9D2A4"/>
	</linearGradient>
	<path style="fill:url(#SVGID_00000158707172369934284870000014543470646263535551_);" d="M57.8,89.8L57.5,89l-0.1-0.6l0,0
		c0,0,0-1.4-0.3-1.2s-0.3,0.4-0.7,0.4c-0.3,0-0.4,0-0.6-0.3c-0.2-0.3-0.3-0.8-0.3-0.8s0.3,0.1-0.6,0.2c-0.9,0.1-1.4-0.2-1.4-0.2
		s0-0.3-0.2-0.3s-0.4,0.2-0.4,0.2l0.4,0.8c0,0,2.2,1.4,2.4,1.7C55.8,89.2,57.8,89.8,57.8,89.8L57.8,89.8z"/>
	
		<linearGradient id="SVGID_00000133516912987359372690000016440620322802603198_" gradientUnits="userSpaceOnUse" x1="184.371" y1="174.1574" x2="185.651" y2="174.2974" gradientTransform="matrix(-1.346898e-10 1 -1 -1.346898e-10 191.0291 -96.3591)">
		<stop  offset="0.3" style="stop-color:#AA9775"/>
		<stop  offset="0.47" style="stop-color:#B3A07C"/>
		<stop  offset="0.76" style="stop-color:#CEB990"/>
		<stop  offset="1" style="stop-color:#E9D2A4"/>
	</linearGradient>
	<path style="fill:url(#SVGID_00000133516912987359372690000016440620322802603198_);" d="M18,90.2c0,0-0.5,0-0.5-0.5
		c-0.1-0.4-0.1-0.8-0.1-0.8L17,89h-0.2l-0.3-0.4l-0.3,0.1L15.4,89C15.3,88.9,17.4,90.6,18,90.2z"/>
	
		<linearGradient id="SVGID_00000096058861905202186540000007914908319262153379_" gradientUnits="userSpaceOnUse" x1="184.3916" y1="179.5535" x2="185.9116" y2="179.7235" gradientTransform="matrix(-1.346898e-10 1 -1 -1.346898e-10 191.0291 -96.3591)">
		<stop  offset="0.3" style="stop-color:#AA9775"/>
		<stop  offset="0.47" style="stop-color:#B3A07C"/>
		<stop  offset="0.76" style="stop-color:#CEB990"/>
		<stop  offset="1" style="stop-color:#E9D2A4"/>
	</linearGradient>
	<path style="fill:url(#SVGID_00000096058861905202186540000007914908319262153379_);" d="M14.1,90c0,0-0.8,0.2-0.9-0.3
		c-0.1-0.4,0-0.8-0.3-0.8s-0.4,0.1-0.8,0.2c-0.3,0.1-0.8,0.3-0.8,0.3s-0.1-0.2-0.3-0.3l-0.2-0.2h-0.4L10,89.4c0,0-0.3,0.4-0.6,0.4
		s-1,0.3-1,0.3S13,90.4,14.1,90L14.1,90z"/>
	
		<linearGradient id="SVGID_00000023254701697913393090000012105360273568010904_" gradientUnits="userSpaceOnUse" x1="113.2323" y1="319.6159" x2="113.7123" y2="317.9958" gradientTransform="matrix(0.1094 1.0342 -0.9447 9.996161e-02 294.3646 -87.7448)">
		<stop  offset="0.3" style="stop-color:#AA9775"/>
		<stop  offset="0.47" style="stop-color:#B3A07C"/>
		<stop  offset="0.76" style="stop-color:#CEB990"/>
		<stop  offset="1" style="stop-color:#E9D2A4"/>
	</linearGradient>
	<path style="fill:url(#SVGID_00000023254701697913393090000012105360273568010904_);" d="M5.3,60.3l1-0.1L6.1,61l-0.4,0.4L6,61.8
		l-0.2,0.5v0.3l-0.2,0.3c0,0-0.4-0.8-0.6-1C4.8,61.6,5.2,60.8,5.3,60.3L5.3,60.3z"/>
	
		<linearGradient id="SVGID_00000080913396108729004230000013964699457864012176_" gradientUnits="userSpaceOnUse" x1="147.1692" y1="188.3086" x2="147.5192" y2="187.0986" gradientTransform="matrix(-1.346898e-10 1 -1 -1.346898e-10 191.0291 -96.3591)">
		<stop  offset="0.3" style="stop-color:#AA9775"/>
		<stop  offset="0.47" style="stop-color:#B3A07C"/>
		<stop  offset="0.76" style="stop-color:#CEB990"/>
		<stop  offset="1" style="stop-color:#E9D2A4"/>
	</linearGradient>
	<path style="fill:url(#SVGID_00000080913396108729004230000013964699457864012176_);" d="M3.7,49.2L4.1,50l-0.6,0.6l-0.1,0.7v1.6
		C3.4,52.9,2.6,51.1,3.7,49.2L3.7,49.2z"/>
	<path class="st3" d="M38.7,9c0,0,0.4,0.9,0.3,1.1c0,0.3-0.1,0.5,0.1,0.5s0.6-0.3,0.8-0.3s0.3,0.3,0.4,0.4c0.1,0.1,0.3,0.3,0.3,0.3
		l0.4-0.5l0.1-0.3h0.6c0,0,0.5-0.5,0.5-0.7s-0.4-0.7-0.4-0.6S40.7,10.6,38.7,9L38.7,9z"/>
	<path class="st18" d="M61.6,20c0,0-0.2,0.6-0.7,0.6c-0.4,0-1.2,0.2-1.2,0.2l0.3,0.5l0.4,0.1l-0.1,0.3l-0.4,0.4l0.4,0.8
		c0,0,0.7-0.6,0.5,0.2c-0.3,0.8-0.2,1.3-0.5,1.5s-0.4,0.7-0.2,0.8c0.3,0.1,0.5,0.2,0.5,0.4s0.3,0.4,0.3,0.7v1c0,0,0.7,0.8,1.3,1.1
		c0.6,0.3-0.4-0.6-0.2-2.3C62.5,24.6,63.7,20.7,61.6,20z"/>
	
		<linearGradient id="SVGID_00000054235149577874244480000016777650306446251930_" gradientUnits="userSpaceOnUse" x1="132.9819" y1="129.5262" x2="135.1619" y2="128.4762" gradientTransform="matrix(-1.346898e-10 1 -1 -1.346898e-10 191.0291 -96.3591)">
		<stop  offset="3.000000e-02" style="stop-color:#E8D3A7"/>
		<stop  offset="0.42" style="stop-color:#F5DEAF"/>
		<stop  offset="0.8" style="stop-color:#F9EBD0"/>
	</linearGradient>
	<path style="fill:url(#SVGID_00000054235149577874244480000016777650306446251930_);" d="M64.4,38.7c0,0-3.1-0.1-4.5,0
		c-1.4,0,4-2.9,4-2.9S65.1,38.7,64.4,38.7z"/>
	
		<linearGradient id="SVGID_00000116943946966265360710000001846064083091090859_" gradientUnits="userSpaceOnUse" x1="161.0442" y1="129.5125" x2="166.1942" y2="129.5125" gradientTransform="matrix(-1.346898e-10 1 -1 -1.346898e-10 191.0291 -96.3591)">
		<stop  offset="3.000000e-02" style="stop-color:#E8D3A7"/>
		<stop  offset="0.42" style="stop-color:#F5DEAF"/>
		<stop  offset="0.8" style="stop-color:#F9EBD0"/>
	</linearGradient>
	<path style="fill:url(#SVGID_00000116943946966265360710000001846064083091090859_);" d="M64.2,68.5c0,0-1.9,1.1-2.3,1.3
		c-0.4,0.2-1.7-0.2-1.7-0.2l-1.5-0.2l5.5-4.7C64.2,64.7,64.5,68.6,64.2,68.5z"/>
	
		<linearGradient id="SVGID_00000006703700462528947640000014117355095597934241_" gradientUnits="userSpaceOnUse" x1="106.775" y1="134.2409" x2="97.215" y2="127.4309" gradientTransform="matrix(-1.346898e-10 1 -1 -1.346898e-10 191.0291 -96.3591)">
		<stop  offset="0.24" style="stop-color:#F2D8A8"/>
		<stop  offset="0.34" style="stop-color:#EBD2A3"/>
		<stop  offset="0.47" style="stop-color:#D9C195"/>
		<stop  offset="0.53" style="stop-color:#CEB78C"/>
		<stop  offset="0.75" style="stop-color:#655943"/>
		<stop  offset="0.91" style="stop-color:#E9D2A4"/>
	</linearGradient>
	<path style="fill:url(#SVGID_00000006703700462528947640000014117355095597934241_);" d="M56,2.9c0,0-1,0.1-1.1,2.7
		c-0.1,2.7,9,3.8,9,3.8l-3.4-6.7C60.6,2.7,58.4,1,56,2.9L56,2.9z"/>
	
		<linearGradient id="SVGID_00000029045509759288412720000007910246687861097106_" gradientUnits="userSpaceOnUse" x1="120.6171" y1="127.9587" x2="120.8771" y2="130.6787" gradientTransform="matrix(-1.346898e-10 1 -1 -1.346898e-10 191.0291 -96.3591)">
		<stop  offset="0" style="stop-color:#F9EBD0"/>
		<stop  offset="0.1" style="stop-color:#F5DEAF"/>
		<stop  offset="0.6" style="stop-color:#C3AF89"/>
		<stop  offset="0.96" style="stop-color:#F9EBD0"/>
	</linearGradient>
	<path style="fill:url(#SVGID_00000029045509759288412720000007910246687861097106_);" d="M61.9,19.9c0,0-0.2,0.7-0.6,0.7
		c-0.4,0-1.1,0.2-1.1,0.2l0.2,0.5l0.4,0.1l-0.1,0.3l-0.3,0.4l0.4,0.9c0,0,0.7-0.6,0.4,0.2s-0.2,1.4-0.4,1.5s-0.4,0.7-0.2,0.8
		s0.5,0.2,0.5,0.4s0.2,0.4,0.2,0.7v1c0,0,0.7,0.8,1.3,1.1c0.6,0.3-0.3-0.6-0.2-2.3C62.7,24.6,63.9,20.7,61.9,19.9L61.9,19.9z"/>
	<g>
		<path class="st23" d="M59.5,33.3C60.7,33.3,59.5,33.3,59.5,33.3L59.5,33.3z"/>
		<path class="st23" d="M59.9,14.8c0.5-0.2-0.4,0.2,0-0.2c0.3-0.3,0.1-0.1-0.4-0.1V15C59.6,15,59.6,15,59.9,14.8L59.9,14.8z"/>
		<path class="st23" d="M59.5,19.7v0.5C59.5,20,59.6,19.8,59.5,19.7z"/>
		<path class="st24" d="M54.9,35.3c0.1,0.1,0.1,0.1,0.2,0.1C55,35.4,54.9,35.3,54.9,35.3z"/>
		<path class="st24" d="M50.8,38.7L50.8,38.7L50.8,38.7z"/>
		<path class="st23" d="M54.7,34.2C54.6,33.7,54.7,34,54.7,34.2L54.7,34.2z"/>
		<path class="st24" d="M54.7,34.2C54.6,33.7,54.7,34,54.7,34.2L54.7,34.2z"/>
		<path class="st23" d="M50.7,11.7C50.3,11.7,50.6,11.8,50.7,11.7L50.7,11.7z"/>
		<path class="st24" d="M50.7,11.7C50.3,11.7,50.6,11.8,50.7,11.7L50.7,11.7z"/>
		<path class="st23" d="M50.6,7.9c0,0,0.1,0.4-0.1,0.5c-0.2,0.1-0.6-0.1-0.6-0.1s0-0.4-0.2-0.3c-0.2,0.2-0.1,0.2-0.2,0.3
			c-0.1,0.1-0.2,0-0.2,0.2c-0.1,0.1-0.5,0,0,0.2c0.6,0.2,0.5,0.1,0.6,0.2C50,9.3,49.3,9.3,50,9.3s0.5-0.1,0.7,0
			C51,9.4,50.6,8.7,51,9.4c0.3,0.7,0.6,0.3,0.3,0.7s0.6,0.2-0.2,0.3c-0.7,0.1-0.6-0.2-0.9,0.2c-0.3,0.4,0.1,0.1-0.3,0.4l-0.4,0.3
			l-0.4,0.3v0.2l0.1,0.2c0,0-0.2,0.2-0.3,0.2s-0.3,0-0.4,0.1c0,0.1-0.2,0.2,0.1,0.2s0.1-0.2,0.3,0c0.1,0.2-0.1,0.2,0.1,0.2
			c0.2,0-0.5,0.6,0.2,0s-0.1-0.1,0.7-0.6s0.5-0.6,0.8-0.5c0.1,0,0.1,0,0,0c0,0,0.1,0,0.2,0c0.8,0.1,0.3,0.3,0.7,0.1s0.1-0.1,0.7-0.3
			c0.5-0.2-0.1-0.3,0.5-0.2c0.6,0,0,0.6,0.6,0c0.5-0.5,0.1-0.2,0.4-0.4c0.3-0.2,0.5-0.3,0.6-0.3s0.6,0,0.8-0.3s0.5-0.6,0.8-0.6
			c0.2-0.1-0.1-0.2,0.2-0.1l0.4,0.2c0,0,0,0.2-0.2,0.4c-0.2,0.3,0.6-0.4-0.2,0.3s-0.2,0-0.5,0.3s0.1-0.1-0.3,0.3
			c-0.4,0.4-0.3,0-0.4,0.4c-0.1,0.4-0.4,0.1-0.1,0.4s0.3,0.7,0.3,0.7s0.5,0,0.3,0.2s0.2-0.1-0.2,0.2s-1.2,0.5-0.3,0.4
			s0.6-0.2,0.9-0.1c0.3,0,0,0.5,0.3,0s0.3-0.2,0.3-0.5v-0.2c0,0-0.2-0.3,0.2-0.2s0.5,0.4,0.5,0.4l0.2,0.6c0,0,0.8-0.3,0.7,0
			s0.5,0.6,0.5,0.5s-0.2-1.1-0.2-1.1s-0.2,0.2-0.4-0.2c-0.2-0.3-0.6,0,0-0.6c0.6-0.5,0.2-0.7,0.6-0.5c0.4,0.2,0-0.8,0.4,0l0.4,0.8
			h0.1v-5h-8c-0.2,0.2-0.3,0.4-0.3,0.4L50.6,7.9L50.6,7.9z"/>
		<path class="st23" d="M49.4,78.9L49.4,78.9L49.4,78.9z"/>
		<path class="st24" d="M49.4,78.9L49.4,78.9L49.4,78.9z"/>
		<path class="st23" d="M59.3,13.4c-0.2,0.2-0.2,0-0.1,0.3l0.1,0.3l-0.2,0.5c0,0-0.6,0,0.2,0c0.1,0,0.2,0,0.3,0v-1.2
			C59.3,13.3,59.4,13.2,59.3,13.4L59.3,13.4z"/>
		<path class="st23" d="M58.9,15.1c-0.3-0.1-0.1-0.2-0.3-0.1s-0.2,0-0.2,0.1s0.3,0.1-0.1,0.3c-0.4,0.3,0,0.4-0.4,0.3
			s-0.3-0.6-0.4-0.1c-0.1,0.5,0,0.4-0.1,0.6c-0.2,0.2-0.8-0.2-0.2,0.2c0.6,0.4-0.1,0.4,0.3,0.4c0.4,0-0.2,0,0.3,0s0.2-0.1,0.4,0
			c0.1,0.1-0.2,0.6,0.2,0.1c0.5-0.5-0.2-0.4,0.5-0.5c0.2,0,0.4-0.1,0.5-0.1v-1.2c0,0-0.1,0-0.2,0C58.9,15.1,59.2,15.1,58.9,15.1
			L58.9,15.1z"/>
		<path class="st23" d="M58.3,33.2c-0.5-0.8-0.1,0.5-0.3-0.2s-0.1-0.2-0.2-0.8c-0.2-0.6-0.6-0.6-0.1-0.8c0.5-0.2,0.1,0.3,0.5-0.2
			c0.4-0.6,0.6,0,0.4-0.6c-0.2-0.6,0.4,0-0.2-0.6s-0.3-0.8-0.6-0.6c-0.3,0.2-0.1-0.5-0.3,0.2s-0.2,0.3-0.2,0.6
			c0.1,0.3,0.1,0,0.1,0.3c-0.1,0.3,0.4-0.8-0.1,0.3c-0.5,1.1-0.7,0.8-0.5,1.3s0.5,0.2,0.2,0.5c-0.4,0.3,0.5,0.6-0.4,0.3
			s-0.3,0-0.6-0.2c-0.3-0.1-1-1.2-0.3-0.1c0.7,1.1,0,0.9,0,0.9l0.2,0.3c0,0,1.3,0.7,0.6,0.7s-0.6,0.2-1-0.2c-0.4-0.3,0-0.5-0.4-0.3
			l-0.4,0.1l0.1,1c0,0,0.1,0.1,0.2,0.1c0,0-0.1,0-0.2-0.1c-0.5-0.3-0.1,0.1-0.3-0.1c-0.2-0.2,0.3,0-0.2-0.2l-0.5-0.2l-0.2,0.1
			c0,0-0.4-0.2-0.1-0.5c0.2-0.3,0.4,0.3,0.2-0.3c-0.1-0.5,0.4-0.6-0.1-0.5c-0.1,0-0.2,0-0.2,0s0.1,0-0.1-0.1
			c-0.4-0.1-0.2,0.1-0.2,0.1L53,33.2c-0.4,0.1,0.3,0.5-0.4,0.1s0.1,0.4-0.7-0.4c-0.5-0.5-0.4-0.2-0.4-0.1c0,0,0-0.1-0.1-0.2
			c-0.3-0.7-0.3-0.4-0.3-0.7s0.7,0,0-0.3c-0.7-0.2-0.5-0.5-0.7-0.2c-0.2,0.2-0.5-0.6-0.2,0.2c0.4,0.8,0.2,0.2,0.4,0.8
			c0.1,0.6,0.1,0.5,0.1,0.6s-0.4-0.1,0.2,0.1c0.6,0.2-0.2-0.4,0.6,0.2s-0.2,0.3,0.4,0.5c0.6,0.2,0.5-0.8,0.6,0.2
			c0.1,0.9,0.6-0.7,0.3,0.1s-0.7,0.7-0.2,1s0.2-0.6,0.4,0.3c0.2,0.9,0.4-0.3,0.3,0.3c-0.1,0.6,0.2-0.4-0.1,0.6c-0.2,1-0.4,0.7-0.2,1
			s0.1-0.9,0.2,0.3c0.1,1.2,0.2,1.2,0.1,1.2c-0.1,0,0.4,0.7-0.3-0.1s-0.1,0.5-0.5-0.5l-0.4-0.9c0,0,0.2-0.1-0.2,0s-0.3,1.2-0.4,0.1
			c-0.1-1.2-0.1,0.1-0.1-0.5s0.3-0.8,0.3-0.8s0.2-0.3-0.1-0.3c-0.3-0.1-0.1,0.4-0.3-0.1s-0.1,0-0.2-0.3c-0.1-0.3,0.3,0.1-0.1-0.3
			c-0.4-0.4,0.2-0.6-0.4-0.4c-0.6,0.2-0.4-0.5-0.4,0c-0.1,0.4-0.4-0.2-0.1,0.4c0.4,0.7,0.2,0,0.4,0.7s0.1-0.2,0.2,0.7
			c0.1,0.9,0.5,1,0.1,0.9s0,0.1-0.4-0.1c-0.4-0.2-0.1-0.5-0.4-0.2c-0.3,0.3-0.2-0.1-0.3,0.3c-0.1,0.4-0.6-0.6-0.1,0.4
			c0.5,0.9-0.1,0.8,0.5,0.9l0.7,0.1c0.6,0.5,0.4,0,0.6,0.5c0.2,0.5,1,0.4,0.2,0.5c-0.9,0-0.1,0.4-0.5,0.2s0.1-1-0.4-0.2
			c-0.4,0.8-0.1,0.3-0.4,0.8c-0.3,0.6,0,0.7,0,0.7s0.5,0.1-0.1,0.2c-0.5,0.1-1,0-0.4,0.3c0.6,0.4,0.2-0.1,0.6,0.4
			c0.4,0.5,1.1,0.4,0.4,0.5c-0.7,0.1-0.1,0.4-0.4,0.2c-0.3-0.2,0.1-0.6-0.6-0.4c-0.6,0.2-0.9,0.2-0.9,0.4c-0.1,0.3,0.4,0.6-0.1,0.5
			c-0.6-0.1,0.1-0.3-0.6-0.1s-1-0.2-0.9,0.4c0.1,0.6-0.2,0.2,0.1,0.6s1.2,0.2,0.3,0.5L47,45.1c0,0-0.5,0-0.3,0.5s0.2,0.1,0.2,0.5
			c-0.1,0.4,0.5-0.3-0.1,0.4c-0.5,0.7-0.6-0.6-0.5,0.1c0.1,0.7-0.2,0.2,0,0.6c0.2,0.3,0.9,1.5,0.9,1.5s0.6-0.7,0.4-0.2
			c-0.2,0.5-0.1,0.5-0.1,0.7c0.1,0.2,0.5-0.4,0.1,0.2s-0.9-0.2-0.4,0.6s-0.3,0.8,0.5,0.8c0.8,0.1,0.1,0.3,0.5,0.2
			c0.4-0.2,0.1-0.6,0.7-0.3s0.4,0.1,0.6,0.3c0.2,0.2-0.4,0.2,0.2,0.2c0.7,0,0.7-0.6,0.7-0.6s1,0.5,1,0.8s0.1,0.8,0,1.1
			s-0.2,0.1-0.2,0.6s-0.2-0.7,0,0.4c0.2,1.2,0.2-0.7,0.2,0.2s0.6,0.4,0,0.9c-0.5,0.6,0-0.7-0.5,0.6S50.2,57,50.2,57
			s-0.4,0.2-0.5,0.5c-0.2,0.2,0.1,0.5,0.1,0.8s-0.2,0.3-0.4,0.5s-0.6,0.6-0.6,0.6s0.1-0.2-0.2-0.1c-0.4,0.1-0.5-0.2-0.6,0.3
			s0.5,0-0.1,0.5c-0.7,0.5,0.1,0.3-0.4,0.4s-0.5-0.6-0.7,0.2c-0.1,0.8,0,0.7-0.1,0.8c-0.1,0.2-0.6,1.1-0.6,1.1s-0.7,0.8-0.3,1.2
			c0.4,0.4,1.2,0,1.1,0.5C46.8,64.8,47,66,47,66.2s-0.2,0.7,0.1,1.3c0.4,0.6,0.2,1.2,0.9,1.2c0.6,0.1,1.8,1.1,1.8,1.1
			s1.2,1.3,1.2,1.7s1,0.8,0.7,1.1c-0.2,0.2-0.7,0.7-0.7,0.9c-0.1,0.2,0.1,1.3,0.1,1.3L51,75.1l-0.5,0.2c0,0-0.2-0.7-0.2,0.2
			c-0.1,0.9-0.8-0.1-0.1,0.9s0.8,0.8,1,1s0.3-0.6,0.2,0.2c-0.1,0.7-1.2,0.1-0.1,0.7c1.2,0.7,0.7,0.2,1,0.4c0.2,0.2,0.8-0.6,0.2,0.2
			c-0.6,0.8,0.1,0.3-0.3,0.6c-0.2,0.2-0.1,0.2,0,0.2c0,0-0.1,0-0.3,0c-0.7,0.1-0.2-0.2-0.7,0.1c-0.4,0.3-0.4,0.4-0.6,0.4
			s0.4,0.9-0.2,0.1c-0.6-0.8-0.3-0.2-0.5-0.6c-0.2-0.3,0.4,0.6-0.2-0.3c-0.3-0.5-0.2-0.5-0.1-0.4c0,0-0.2-0.1-0.4-0.2
			c-0.9-0.6,0.6-0.2-0.2-0.4c-0.8-0.2-0.6-0.8-1.1-0.2c-0.5,0.6-0.4,0.3-0.5,0.6c-0.1,0.3,0.1,0.2-0.1,0.3C46.9,79,47,79.2,46.5,79
			c-0.5-0.1,0.2-0.6-0.5-0.1s-0.1,0.9-0.7,0.5c-0.6-0.4,0,0.6-0.6-0.4c-0.6-1.1,0.3-1.2-0.6-1.1c-0.9,0.2,0.4-0.2-0.9,0.2
			c-1.3,0.4-1.4-0.3-1.3,0.4l0.1,0.7c-0.7,0,0.1,0.2-0.7,0s0.4-0.5-0.8-0.2s-0.7,0-1.4,0.3s-1.2,0.2-1.4,0.3
			c-0.2,0.1-0.4-0.1-0.6,0.2c-0.2,0.3,0.5,0-0.2,0.3s-0.6,0.9-1.2,0.1c-0.6-0.8-0.2-0.4-0.7-1s0.7-0.6-0.5-0.6c-0.4,0-0.5,0-0.5,0
			c-0.1,0-0.2,0-0.6,0c-1.6-0.1-0.9-0.1-1.3-0.1h-0.5c0,0,0.1-0.7-0.4-0.3c-0.5,0.4-0.3,0.6-0.5,0.7s0.1,1-0.2,0.1
			C30,77.8,30,77.6,30,77.6c-1-0.3-0.2,0.2-0.7-0.1c-0.4-0.3,0.4-0.4-0.6-0.4c-1-0.1-0.7-0.1-1-0.1s-0.6,0.1-0.6,0.1l-0.8,0.2
			c0,0,0.1,0.7-0.1,0.2c-0.2-0.6-0.1-0.7-0.1-0.7c-0.6-0.3-0.1-0.6-1-0.4c-1,0.1-0.2,0.3-1,0.1s0.1,0.4-0.7-0.2
			c-0.8-0.6,0.1-0.3-0.4-0.4c-0.5-0.2-1.6-0.7-2.3-0.6c-0.7,0.1-1.2,0-1.2,0S19.4,75.2,19,75c-0.4-0.2-0.5,0.9-0.7,0.4
			c-0.2-0.4,0.1-0.8-0.4-0.9c-0.4-0.1-0.9,0.1-1-0.1c-0.2-0.1-0.4-0.1-0.7-0.3c-0.4-0.3,0.1-0.4-0.9-0.4c-0.9,0-0.5,0.1-0.9,0
			s-0.4-0.3-0.6-0.4c-0.2-0.1-0.7-1.4-0.9-1.6s0.2-1.6,0-1.8c-0.2-0.2-0.3-0.3-0.5-0.2s-0.6,0.7-0.4-0.2c0.2-0.8,1.1-1.7,1-2.1
			s-0.4-1.1-0.7-1.2c-0.2-0.2-0.6-0.7-0.6-0.7s0.1-0.5,0-0.7s-0.1-0.9,0.1-1.1c0.1-0.2,1.2-0.5,1.2-0.5s-0.4-0.5-0.6-0.5
			c-0.1,0-3,0.1-4.7,0.3v22h51.8V33.3C58.3,33.3,58.9,34.1,58.3,33.2L58.3,33.2z M50.8,38.7L50.8,38.7L50.8,38.7z"/>
		<path class="st23" d="M7.7,62.6L7.7,62.6c0.5,0,4.5-0.3,4.5-0.3l1-0.4l0.1-0.7h-0.5l-0.2,0.5l-0.5,0.1l-0.6-0.3L11.2,61l0.6-0.9
			l0.3,0.2h0.4l0.1-0.7l-0.1-0.5l0.7,0.3l-0.1,0.8v0.5h0.5l0.4-0.6l0.5-0.5l-0.4-0.2l-0.4-0.7c0,0,0.4-0.6,0.4-0.7s0-0.6-0.1-0.7
			c-0.1-0.2-0.2-0.2,0.1-0.6c0.3-0.3,0.4-0.3,0.5-0.5s0.3,0,0.1-0.4c-0.2-0.3-0.2-0.6-0.4-0.6s-0.7-0.9-0.7-0.9l0.1-0.7l0.4,0.5
			l0.2-0.7c0,0-0.3-0.4-0.4-0.8c-0.1-0.3-0.4-0.9-0.4-0.9L13.1,52L13,51.9c0,0,0.1-0.6,0.1-0.8s0.1-0.7,0.1-0.7v-0.7
			c0,0-0.1-0.1-0.4-0.4c-0.3-0.3,0.1,0-0.3-0.3c-0.4-0.2,0.2,0.3-0.4-0.2s-1.2-1-1.7-1.6s-0.8-1-0.8-1.3s-0.1-0.8,0.3-1.3
			c0.4-0.6,0.5-0.9,0.9-1.5s0.7-1.1,0.7-1.4s0.4-0.3,0.1-0.8c-0.2-0.5-0.5-1.1-0.4-1.5c0.2-0.3,1-0.8,1-0.8s0.8,0,0.4-0.7
			c-0.4-0.7-0.6-1-0.5-1.2s0.1-0.3,0.4-0.6s0.4,0.4,0.6-0.5c0.2-0.8,0.1-0.2,0.2-0.8c0.1-0.7,0.1-0.6,0.1-0.7
			c0.4-0.5,0.7-0.7,0.7-1.1s0.1-0.1-0.1-0.7c-0.2-0.6-0.6,0-0.2-0.8c0.4-0.7,0.1,0.2,0.4-0.7c0.4-0.9,0.1,0.5,0.2-0.2
			s-0.2,0.2,0.1-0.7c0.3-0.8-0.1,0.2,0.3-0.8c0.4-1.1,1.1,0.2,0.4-1.1c-0.7-1.2,0.2-0.3-0.2-0.8c-0.5-0.5-0.7-1.4-0.7-1.4l-0.2-1.5
			c0,0,0.3,0.2,0.5-0.3s0.1-0.7,0.1-0.7l0.9,0.3l0.9-0.2c0,0,0.2-0.6,0.7-0.6c0.6,0,0.8,0.8,0.9,0s0-4.9,0-4.9s0.5-1,0.7-1.2
			s0.2-1.1,0.1-1.3c-0.1-0.3-0.2-0.4-0.2-1c-0.1-0.6,0.2-0.2-0.1-0.7s0-0.8,0.3-0.5s0.5,0.7,0.8,0.3s0.2-0.3,0.3-0.7
			c0.1-0.4-0.9-0.9,0.1-0.4s1.2,0.9,1.5,0.6c0.4-0.3,0.2,0.2,0.5-0.4c0.3-0.6,0.2,0.9,0.3-0.6c0.1-1.6-0.8-0.6-0.3-1.1
			c0.5-0.6-0.1,0.1,0.5-0.6c0.5-0.7-0.1,0.1,0.5-0.7s0.3,0.3,0.6-0.8C24,7.7,24,7.2,24,7.2s0.5-0.2,0-0.6H7.7V62.6L7.7,62.6z"/>
		<path class="st23" d="M59.3,18.6c0.1,0.1,0.1,0.1,0.2,0.2v-0.3C59.2,18.5,59,18.3,59.3,18.6z"/>
		<path class="st23" d="M54.7,34.3C54.7,34.2,54.7,34.2,54.7,34.3C54.7,34.3,54.7,34.3,54.7,34.3z"/>
		<path class="st24" d="M54.7,34.3C54.7,34.2,54.7,34.2,54.7,34.3C54.7,34.3,54.7,34.3,54.7,34.3z"/>
		<path class="st23" d="M59.4,19.6c-0.3,0.1-1.2,0.5-1.2,0.8c0.1,0.4-0.1,0.5-0.3,0.5s-0.6-0.2-0.6,0.1S57,21.7,57,21.7L56.1,22
			l-0.2,0.7L55.2,23l0.7,0.7l0.7-1.3l1.1-0.5c0,0,0.2-0.5,0.6-0.5s1-0.5,1-0.5l0.2-0.5c0,0,0-0.1,0.1-0.3L59.4,19.6
			C59.5,19.7,59.5,19.6,59.4,19.6L59.4,19.6z"/>
		<polygon class="st23" points="46.5,11.3 47.1,11.9 47.9,11.9 47.9,11.3 48.3,10.9 47.4,10.5 47,11.4 		"/>
		<path class="st23" d="M41,14.5c-0.1,0.2-0.5,0.1-0.5,0.1l-0.1,0.2c0,0,0.1,0.2,0.2,0.6c0.1,0.4,0,0.7,0,0.9s-0.4,0.3-0.4,0.3
			S40,17,40.1,17.4s0,0.5,0,0.5l-0.2,0.2v0.7c0,0-0.4,1.1-0.4,1.3S39,20.8,39,20.8L38.2,21c0,0-0.2,0.1-0.1,0.9
			c0.1,0.8,0.2,0.3,0.2,0.3s0.1,0.3,0.2,1.1c0.2,0.7,0.1,0.5,0.2,1.1c0.1,0.7-0.2,0.2-0.5,0.4c-0.2,0.2,0,0.4,0.2,0.8
			c0.2,0.3,0.4,0.4,0.4,0.4v1.2c0,0.5-0.3,0.6-0.4,0.8s-0.2,0.5,0.2,0.7C39,28.8,39,29,39,29s0.4,0.4,0.7,0.6
			c0.4,0.2,0.2-0.2,0.4-0.3c0.2-0.1,0.6,0,1-0.1c0.4,0,0-0.4,0-0.4s-0.6-0.3-0.7-0.5c-0.1-0.2,0.2-0.4,0.4-0.8
			c0.1-0.3-0.4-0.4-0.5-0.4c-0.2,0-0.6-0.4-0.7-0.8c-0.1-0.4,0.7,0,0.9,0s0.2,0.3,0.2,0.3s0.7-0.8,0.7-1.2s0-0.7-0.1-1.4
			c-0.1-0.7-0.2-0.4-0.3-1s0.1-0.6,0.5-0.9s0.2-0.2,0.4-0.3c0.2-0.2,0-0.9-0.1-1.1s-0.4-0.2-0.4-0.2s-0.2-0.2-0.2-0.7s0.1-0.4,0.5-1
			s0-0.6,0-0.8s0.5-0.2,0.8-0.2c0.2,0,0.3,0.3,0.5,0.5s0.2-0.2,0.2-0.2l-0.4-0.3c0,0-0.5-0.4-0.7-0.6s0.3-0.2,0.5-0.2
			s0.4-0.2,0.4-0.2l-0.4-0.2l0.1-0.6l0.5-0.3h0.5c0,0,0.6-0.3,0.5-0.6S43,15.2,43.1,15l-0.2-0.2l0.1-0.5c0,0-0.7-0.1-1-0.1
			s-0.3,0.1-0.3,0.1S41.2,14.4,41,14.5L41,14.5z"/>
		<path class="st23" d="M41.7,32.9c-0.4,0.4-0.4,0.6-0.4,0.6l0.4,0.4c0,0,0.2,0.8,0.5,0.5c0.4-0.3,0.6-0.7,0.6-0.7l0.5,0.2l0.5,0.4
			l0.7-0.3c0,0,0.6,0.1,0.1-0.2s-0.7-0.3-0.7-0.3l0.1-0.3c-1.1-0.4-1.5-0.4-1.5-0.4L42,33.1C42,33.1,42,32.5,41.7,32.9L41.7,32.9z"
			/>
		<path class="st23" d="M41.2,32.3c0.3,0.1,0.6,0.1,0.6,0.1l-0.2-0.6c0,0-0.4-0.1-0.4,0.1C41.1,32.1,40.9,32.2,41.2,32.3z"/>
		<path class="st23" d="M46.4,36.3c-0.3,0.1-0.5,0.3-0.7,0.1c-0.1-0.2-0.2-0.3-0.2-0.3s-0.1-0.2-0.4,0c-0.2,0.2-0.3,0.6-0.3,0.6
			l0.4,0.2c0,0,0.4,0.2,0.4,0.5c0.1,0.2,0.1,0.5,0.1,0.5l0.2,0.3c0,0,0.2,0.4,0.6,0.4s0.9,0.1,0.9,0.1l0.3,0.5l0.7,0.1l0.6-0.5
			l0.1-0.3c-0.1-0.4-0.7-0.9-0.7-0.9L48,36.7c0,0,0.3-0.1-0.1-0.3c-0.4-0.2-0.6-0.6-0.6-0.6l-0.5-0.1L46.4,36
			C46.4,36,46.7,36.2,46.4,36.3L46.4,36.3z"/>
		<path class="st23" d="M50.9,18.9c0,0-0.1-0.8-0.3-0.8s-0.3,0.2-0.3,0.5s-0.2,0.8,0.1,0.9s0.9,0,0.9,0l-0.1-0.6H50.9L50.9,18.9z"/>
		<path class="st23" d="M56.4,18c0,0,0.2,0.1,0.3,0.2s0.6-0.4,0.6-0.4c-0.2-0.1-0.6-0.4-0.6-0.4s-0.2,0.1-0.2,0.3S56.4,18.1,56.4,18
			L56.4,18z"/>
		<path class="st23" d="M55.7,18.3c-0.1,0.1-0.6-0.1-0.6,0.1s0.4,0.5,0.6,0.5c0.2-0.1,0.5-0.5,0.5-0.5l-0.3-0.3
			C55.9,18.1,55.8,18.2,55.7,18.3z"/>
		<path class="st23" d="M55.2,21.5l0.4-0.3c0-0.1,0-0.3-0.1-0.3s-0.2,0-0.3,0.1C55,21.1,55.2,21.5,55.2,21.5L55.2,21.5z"/>
		<path class="st23" d="M53.9,18.6l-0.3,0.3c0,0-0.1-0.1-0.2,0c-0.1,0.1-0.1,0.5-0.1,0.5s0.5,0.1,0.7,0s0.5-0.3,0.5-0.3l-0.3-0.4
			h-0.3V18.6z"/>
		<path class="st23" d="M52.1,20c0,0,0,0-0.2,0c-0.1,0.1-0.2,0.4,0,0.4s0.3-0.1,0.3-0.1l0.1,0.3l0.3-0.2v-0.1c0-0.5,0-0.6-0.2-0.6
			S52.1,20,52.1,20L52.1,20z"/>
		<path class="st23" d="M52.2,22.3c0,0,0,0.2,0.1,0.3c0.1,0.1,0.5,0.3,0.5,0.3v0.3l-0.1,0.4c0,0-0.2,0-0.3-0.1
			c-0.1,0-0.5,0.3-0.5,0.3L51.8,24l-0.2,0.2c0,0,0,0.2,0.3,0.3c0.3,0,0.7,0.1,0.7,0.1v0.3c0,0,0.3,0.3,0.4,0.3
			c0.1,0,0.6-0.2,0.6-0.2s0,0.2,0.3,0s0.4-0.4,0.4-0.6s0-0.3-0.2-0.3h-0.4l-0.2-0.6c0,0-0.2-0.1-0.1-0.3c0.2-0.2,0.4-0.3,0.4-0.3
			S54,23.1,54,23s0-0.3,0-0.3l0.2-0.1c-0.5-0.1-0.5-0.2-0.7-0.2s-0.3,0.1-0.3,0.1L53,22.3L52.8,22h-0.3l-0.2,0.3L52.2,22.3
			L52.2,22.3z"/>
		<path class="st23" d="M50.6,21.1l-0.2,0.4h-0.3l-0.3,0.4c0,0,0.4,0.2,0.5,0.3c0.1,0.1,0.5,0.1,0.5,0.1L50.4,22l0.4-0.5
			C50.8,21.4,50.5,21.1,50.6,21.1L50.6,21.1z"/>
		<path class="st23" d="M51,23.6c0-0.3-0.2-0.4-0.2-0.4l-0.3-0.3c0,0-0.1-0.3-0.1,0.1s0.1,0.6,0.1,0.6l-0.2,0.3l0.5,0.3L51,23.6
			L51,23.6z"/>
		<path class="st23" d="M52.2,27.1L52.2,27.1L52.2,27.1L52.2,27.1L52.2,27.1z"/>
		<path class="st24" d="M52.2,27.1L52.2,27.1L52.2,27.1L52.2,27.1L52.2,27.1z"/>
		<path class="st23" d="M50.7,26.1c-0.1,0.5,0.3,0.7,0.3,0.7s0.4,0,0.5,0.2c0.1,0.1-0.1,0.4,0.2,0.3c0.2-0.1,0.4-0.1,0.4-0.2
			c0-0.2-0.2-0.5-0.4-0.6c-0.2,0,0,0.1-0.2,0c-0.2-0.2-0.2-0.4-0.2-0.4s0-0.2-0.2-0.1C50.9,26,50.8,25.6,50.7,26.1L50.7,26.1z"/>
		<path class="st23" d="M48.2,23.9c0,0.1,0,0.1-0.2,0.2s-0.4,0.4-0.2,0.5c0.2,0,0.5,0.1,0.7,0s0.3-0.3,0.3-0.3v-0.4
			c-0.2-0.1-0.3-0.3-0.4-0.2C48.3,23.8,48.2,23.8,48.2,23.9L48.2,23.9z"/>
		<path class="st23" d="M49.8,28.3c-0.2,0.2-0.2,0.4-0.2,0.4l0.1,0.4l-0.2,0.1l0.2,0.3c0,0,0.2-0.1,0.2,0s0.2,0.3,0.2,0.3v-0.4
			c0.1-0.3,0.7-0.2,0.2-0.7C50,28.2,49.9,28.1,49.8,28.3L49.8,28.3z"/>
		<path class="st23" d="M48.2,34.4c0,0-0.1,0.1,0.1,0.2c0.2,0.2,0.4,0.2,0.4,0.2l0.5-0.1l-0.3-0.5v-0.1V34c-0.2,0-0.3,0-0.5,0.1
			S48.2,34.4,48.2,34.4L48.2,34.4z"/>
		<path class="st23" d="M49.3,36.5l0.1,0.2c0,0,0.1,0.2,0.2,0.2c0.1,0,0.4-0.2,0.4-0.2v-0.5c-0.1-0.1-0.2-0.3-0.4-0.1
			C49.5,36.2,49.4,36.5,49.3,36.5L49.3,36.5L49.3,36.5z"/>
		<path class="st23" d="M52.1,31.8c-0.2,0-0.3,0.2-0.3,0.2l0.4,0.3c0,0,0,0.1,0.1,0.2c0.2,0.1,0.4,0.1,0.4,0.1l0.4-0.4
			c0,0-0.2-0.5-0.4-0.5s-0.3-0.1-0.3-0.1s0.1-0.3-0.1-0.1C52.2,31.6,52.3,31.8,52.1,31.8L52.1,31.8z"/>
		<path class="st23" d="M56,26.8c-0.2,0-0.7,0-0.5,0.2s0.6,0.4,0.6,0.4s0.2-0.2,0.2,0.1s0,0.6,0.2,0.6c0.1,0,0.3,0.3,0.5,0.3
			s0.7-0.3,0.7-0.3c0-0.2-0.5-0.9-0.5-0.9S57,27.2,57,27s0.2-0.5-0.1-0.6c-0.3,0-0.8,0.3-0.8,0.3S56.3,26.8,56,26.8z"/>
		<path class="st23" d="M53.7,30.8c0,0.1-0.3,0.2-0.3,0.2l0.2,0.3l0.3-0.1l0.4-0.2C53.9,30.8,53.7,30.7,53.7,30.8z"/>
		<polygon class="st23" points="56.7,31.1 57,31 56.9,30.7 56.5,30.9 		"/>
		<path class="st23" d="M37.6,60.6c-0.2,0.4-0.7,0.8-1,1c-0.4,0.2-0.9,0.5-0.6,0.9c0.3,0.5,0.4,0.8,0.4,0.8s-0.3,0.7-0.5,1
			s0.2,0.4,0.6,0.6c0.4,0.2-0.4,1,0,1.6s1.1,0.8,1.3,1.1c0.2,0.3,1,1.1,1,1.6c-0.1,0.5,0.3,0.7,0.6,0.6s0.7-0.6,0.7-0.6
			s0.4-0.8,0.8-0.1c0.4,0.7,0.4,1,0.7,1.3s1,1.2,1,1.2s1,1,1.2,0.8s0.1-0.6-0.3-0.7c-0.4-0.2-0.9-0.8-0.9-0.8l-0.1-1.1l-0.4-0.7
			c0,0-0.6-0.4-0.6-0.9s-0.1-1.1-0.1-1.2c-0.1-0.2-0.2,0-0.2-0.6s0.2-1.3,0.2-1.3S41.1,65,40.9,65s-1,0.4-1-0.2s-0.1-2.1-0.1-2.1
			l0.4-0.3c0,0,0.1-0.8-0.2-0.9c-0.4,0-0.9-0.5-0.6-0.8s0.4-0.7-0.1-0.7C38.7,60,37.8,60.2,37.6,60.6L37.6,60.6z"/>
	</g>
	<g>
		<g>
			<polygon class="st3" points="33.6,46.9 32.6,46.8 32.6,47.1 33.6,47.3 			"/>
			<polygon class="st3" points="32.3,46.7 31.4,46.4 31.4,46.7 32.3,47.1 			"/>
			<polygon class="st3" points="31.2,46.1 30.4,45.6 30.3,45.9 31.1,46.4 			"/>
			<polygon class="st3" points="30.3,45.3 29.9,44.5 29.7,44.6 30,45.5 			"/>
			<polygon class="st3" points="29.8,44.1 29.4,43.3 29.2,43.4 29.5,44.3 			"/>
			<polygon class="st3" points="29.4,42.8 29,42 28.8,42.1 29.1,43 			"/>
			<polygon class="st3" points="28.9,41.6 28.2,40.9 28.1,41.1 28.7,41.9 			"/>
			<polygon class="st3" points="27.9,40.7 27,40.3 26.9,40.6 27.8,41.1 			"/>
			<polygon class="st3" points="26.7,40.2 25.8,39.8 25.7,40 26.7,40.5 			"/>
			<polygon class="st3" points="25.6,39.6 24.8,39 24.7,39.3 25.5,39.9 			"/>
			<polygon class="st3" points="24.7,38.7 24.1,38 23.9,38.2 24.5,39 			"/>
			<polygon class="st3" points="24.1,37.7 24,36.8 23.7,36.8 23.8,37.8 			"/>
			<polygon class="st3" points="24.1,36.4 24.4,35.5 24.1,35.4 23.8,36.4 			"/>
			<polygon class="st3" points="24.6,35.3 25,34.5 24.8,34.4 24.2,35.2 			"/>
			<polygon class="st3" points="25.4,34.3 26,33.7 25.8,33.5 25,34.2 			"/>
			<polygon class="st3" points="26.4,33.6 27.4,33.4 27.3,33.1 26.2,33.3 			"/>
			<polygon class="st3" points="27.7,33 28.7,32.8 28.7,33.1 27.7,33.3 			"/>
			<polygon class="st3" points="28.9,32.7 29.8,32.3 29.9,32.6 29,33 			"/>
			<polygon class="st3" points="30,32 30.8,31.5 30.9,31.7 30.1,32.3 			"/>
			<polygon class="st3" points="30.9,31.1 31.2,30.2 31.4,30.4 31.2,31.3 			"/>
			<rect x="31.4" y="27.6" class="st3" width="0.3" height="0.9"/>
			<polygon class="st3" points="31.3,29.8 31.4,28.9 31.7,28.9 31.6,29.9 			"/>
		</g>
		<g>
			<polygon class="st3" points="31.7,27.1 31.6,26.1 31.3,26.2 31.4,27.2 			"/>
			<polygon class="st3" points="31.6,25.9 31.7,24.9 31.5,24.9 31.3,25.9 			"/>
			<polygon class="st3" points="31.9,24.7 32.3,23.8 32,23.7 31.6,24.7 			"/>
			<polygon class="st3" points="32.6,23.6 33.3,23 33.1,22.8 32.3,23.4 			"/>
			<polygon class="st3" points="33.6,22.8 34.3,22.2 34.2,22 33.3,22.6 			"/>
			<polygon class="st3" points="34.8,22.1 35.5,21.5 35.3,21.3 34.5,21.9 			"/>
			<polygon class="st3" points="35.9,21.3 36.4,20.5 36.2,20.4 35.6,21.2 			"/>
			<polygon class="st3" points="36.5,20.2 36.7,19.3 36.4,19.2 36.2,20.2 			"/>
			<polygon class="st3" points="36.8,18.9 36.9,18 36.6,18 36.4,19 			"/>
			<polygon class="st3" points="37,17.7 37.4,16.9 37.1,16.8 36.7,17.7 			"/>
			<polygon class="st3" points="37.7,16.7 38.2,16 38,15.8 37.4,16.6 			"/>
		</g>
		<g>
			<polygon class="st3" points="38.3,15.4 38.6,14.5 38.4,14.4 38,15.3 			"/>
			<polygon class="st3" points="38.9,14.3 39.7,13.7 39.5,13.5 38.7,14.1 			"/>
			<polygon class="st3" points="40,13.5 40.7,12.9 40.5,12.7 39.7,13.3 			"/>
			<polygon class="st3" points="41.1,12.8 41.9,12.2 41.7,12 40.9,12.6 			"/>
			<polygon class="st3" points="42.2,12 43,11.4 42.8,11.2 41.9,11.8 			"/>
			<polygon class="st3" points="43.3,11.2 44,10.6 43.8,10.4 43,11 			"/>
			<polygon class="st3" points="44.4,10.5 45.2,9.9 45,9.7 44.2,10.3 			"/>
			<polygon class="st3" points="45.6,9.6 46.3,9.1 46.1,8.9 45.3,9.4 			"/>
			<polygon class="st3" points="46.6,8.9 47.3,8.3 47.1,8.1 46.3,8.7 			"/>
			<polygon class="st3" points="47.8,8.2 48.5,7.6 48.3,7.4 47.5,8 			"/>
		</g>
		<g>
			<polygon class="st3" points="34,47.4 35,47.4 35,47.2 34,47.1 			"/>
			<polygon class="st3" points="35.3,47.5 36.2,47.8 36.3,47.6 35.3,47.2 			"/>
			<polygon class="st3" points="36.4,48.1 37.2,48.6 37.4,48.3 36.5,47.8 			"/>
			<polygon class="st3" points="37.4,48.9 37.8,49.7 38,49.6 37.6,48.7 			"/>
			<polygon class="st3" points="37.9,50.1 38.3,50.9 38.6,50.8 38.2,49.9 			"/>
			<polygon class="st3" points="38.4,51.3 38.8,52.2 39,52 38.6,51.1 			"/>
			<polygon class="st3" points="38.9,52.5 39.6,53.2 39.8,53 39.1,52.3 			"/>
			<polygon class="st3" points="39.9,53.4 40.8,53.8 40.9,53.5 40,53.1 			"/>
			<polygon class="st3" points="41.1,53.9 42,54.3 42.1,54 41.2,53.6 			"/>
			<polygon class="st3" points="42.3,54.4 43.1,55 43.2,54.7 42.4,54.1 			"/>
			<polygon class="st3" points="43.2,55.3 43.8,56 44,55.8 43.4,55 			"/>
			<polygon class="st3" points="43.8,56.3 44,57.2 44.2,57.2 44.2,56.2 			"/>
			<polygon class="st3" points="43.9,57.6 43.6,58.5 43.9,58.6 44.2,57.6 			"/>
			<polygon class="st3" points="43.5,58.8 43,59.6 43.3,59.7 43.8,58.8 			"/>
			<polygon class="st3" points="42.7,59.7 42.1,60.4 42.3,60.5 43,59.8 			"/>
			<polygon class="st3" points="41.7,60.5 40.7,60.7 40.8,61 41.9,60.7 			"/>
			<polygon class="st3" points="40.4,61.1 39.5,61.3 39.4,61.1 40.4,60.8 			"/>
		</g>
	</g>
	<path class="st25" d="M19.6,6.3H6.8v79.4h53.6V6.3H47.5c0,0.1-0.1,0.2-0.2,0.3c-0.2,0.1-0.4,0.3-0.5,0.4v0.1l0,0
		c-0.1,0.1-0.2,0.2-0.4,0.1c0,0,0,0-0.1-0.1h-0.7V6.5h0.2c0-0.1,0-0.1,0-0.1l-0.5,0.1V6.3h-1.9v0.1h1V7h-1.1v0.1h16.2v77.6H7.7V7.1
		h27c-0.2-0.3-0.3-0.6,0-0.8l0,0L19.6,6.3L19.6,6.3z M59.2,85v0.6H58V85C57.9,85,59.2,85,59.2,85z M56.7,85v0.6h-1.2V85H56.7z
		 M54.2,85v0.6H53V85H54.2z M51.8,85v0.6h-1.2V85C50.5,85,51.8,85,51.8,85z M49.3,85v0.6h-1.2V85H49.3z M46.8,85v0.6h-1.2V85H46.8z
		 M44.3,85v0.6h-1.2V85H44.3z M41.9,85v0.6h-1.2V85H41.9z M39.4,85v0.6h-1.2V85H39.4z M36.9,85v0.6h-1.2V85H36.9z M34.5,85v0.6h-1.2
		V85H34.5z M32,85v0.6h-1.2V85H32z M29.5,85v0.6h-1.2V85H29.5z M27,85v0.6h-1.2V85H27z M24.6,85v0.6h-1.2V85H24.6z M22.1,85v0.6
		h-1.2V85H22.1z M19.5,85v0.6h-1.2V85H19.5z M17,85v0.6h-1.3V85H17z M14.5,85v0.6h-1.2V85H14.5z M12,85v0.6h-1.2V85H12z M9.5,85v0.6
		H8.2V85H9.5z M48.1,7.1V6.5h1.2v0.6H48.1z M50.5,7.1V6.5h1.2v0.6H50.5z M53,7.1V6.5h1.2v0.6H53z M55.5,7.1V6.5h1.2v0.6H55.5z
		 M57.9,7.1V6.5h1.2v0.6C59.2,7.1,57.9,7.1,57.9,7.1z M59.6,8.8V7.6h0.6v1.2H59.6z M59.6,11.3V10h0.6v1.2h-0.6V11.3z M59.6,13.7
		v-1.2h0.6v1.2C60.2,13.7,59.6,13.7,59.6,13.7z M59.6,16.2V15h0.6v1.2H59.6z M59.6,18.7v-1.2h0.6v1.2H59.6z M59.6,21.1v-1.2h0.6v1.2
		H59.6z M59.6,23.6v-1.2h0.6v1.2H59.6z M59.6,26.1v-1.2h0.6v1.2H59.6z M59.6,28.5v-1.2h0.6v1.2H59.6z M59.6,31v-1.2h0.6V31H59.6z
		 M59.6,33.5v-1.2h0.6v1.2H59.6z M59.6,35.9v-1.2h0.6v1.2H59.6z M59.6,38.4v-1.2h0.6v1.2H59.6z M59.6,40.9v-1.2h0.6v1.2H59.6z
		 M59.6,43.3v-1.2h0.6v1.2H59.6z M59.6,45.8v-1.2h0.6v1.2H59.6z M59.6,48.3v-1.2h0.6v1.2H59.6z M59.6,50.7v-1.2h0.6v1.2H59.6z
		 M59.6,53.1v-1.2h0.6v1.2H59.6z M59.6,55.6v-1.2h0.6v1.2H59.6z M59.6,58v-1.2h0.6V58H59.6z M59.6,60.4v-1.2h0.6v1.2H59.6z
		 M59.6,62.8v-1.2h0.6v1.2H59.6z M59.6,65.2V64h0.6v1.2H59.6z M59.6,67.6v-1.2h0.6v1.2H59.6z M59.6,70.1v-1.2h0.6v1.2H59.6z
		 M59.6,72.5v-1.2h0.6v1.2H59.6z M59.6,74.9v-1.2h0.6v1.2H59.6z M59.6,77.3v-1.2h0.6v1.2H59.6z M59.6,79.7v-1.2h0.6v1.2H59.6z
		 M59.6,82.2V81h0.6v1.2H59.6z M59.6,84.6v-1.2h0.6v1.2H59.6z M7.6,83.4v1.2H6.9v-1.2H7.6z M7.6,81v1.2H6.9V81H7.6z M7.6,78.5v1.2
		H6.9v-1.2H7.6z M7.6,76.1v1.2H6.9v-1.2H7.6z M7.6,73.7v1.2H6.9v-1.2H7.6z M7.6,71.3v1.2H6.9v-1.2H7.6z M7.6,68.9v1.2H6.9v-1.2H7.6z
		 M7.6,66.4v1.2H6.9v-1.2H7.6z M7.6,64v1.2H6.9V64H7.6z M7.6,61.6v1.2H6.9v-1.2H7.6z M7.6,59.2v1.2H6.9v-1.2H7.6z M7.6,56.8V58H6.9
		v-1.2H7.6z M7.6,54.4v1.2H6.9v-1.2H7.6z M7.6,51.9v1.2H6.9v-1.2H7.6z M7.6,49.5v1.2H6.9v-1.2H7.6z M7.6,47.1v1.2H6.9v-1.2H7.6z
		 M7.6,44.6v1.2H6.9v-1.2H7.6z M7.6,42.1v1.2H6.9v-1.2H7.6z M7.6,39.6v1.2H6.9v-1.2H7.6z M7.6,37.2v1.2H6.9v-1.2H7.6z M7.6,34.7v1.2
		H6.9v-1.2H7.6z M7.6,32.2v1.2H6.9v-1.2H7.6z M7.6,29.8V31H6.9v-1.2H7.6z M7.6,27.3v1.2H6.9v-1.2H7.6z M7.6,24.8V26H6.9v-1.2H7.6z
		 M7.6,22.4v1.2H6.9v-1.2H7.6z M7.6,19.9v1.2H6.9v-1.2H7.6z M7.6,17.4v1.2H6.9v-1.2H7.6z M7.6,15v1.2H6.9V15H7.6z M7.6,12.5v1.2H6.9
		v-1.2H7.6z M7.6,10v1.2H6.9V10H7.6z M7.6,7.6v1.2H6.9V7.6H7.6z M34.5,6.5v0.6h-1.2V6.5H34.5z M32,6.5v0.6h-1.2V6.5H32z M29.5,6.5
		v0.6h-1.2V6.5H29.5z M27,6.5v0.6h-1.2V6.5H27z M24.6,6.5v0.6h-1.2V6.5H24.6z M22.1,6.5v0.6h-1.2V6.5H22.1z M19.5,6.5v0.6h-1.2V6.5
		H19.5z M17,6.5v0.6h-1.3V6.5H17z M14.5,6.5v0.6h-1.2V6.5H14.5z M12,6.5v0.6h-1.2V6.5H12z M9.5,6.5v0.6H8.2V6.5H9.5z"/>
	
		<linearGradient id="SVGID_00000181054913982004147050000011733192217601559182_" gradientUnits="userSpaceOnUse" x1="173.9085" y1="189.0242" x2="175.3185" y2="184.2042" gradientTransform="matrix(-1.346898e-10 1 -1 -1.346898e-10 191.0291 -96.3591)">
		<stop  offset="0.3" style="stop-color:#AA9775"/>
		<stop  offset="0.47" style="stop-color:#B3A07C"/>
		<stop  offset="0.76" style="stop-color:#CEB990"/>
		<stop  offset="1" style="stop-color:#E9D2A4"/>
	</linearGradient>
	<path style="fill:url(#SVGID_00000181054913982004147050000011733192217601559182_);" d="M6.6,77c0,0,0.4-0.2,0.4,0.2
		s0,0.4-0.2,0.5s-0.3,0.4-0.3,0.4l0.4,0.6L6.4,79c0,0-0.2,0-0.4,0.2s0.3-0.1-0.2,0.2c-0.6,0.2-0.6,0.4-0.8,0.4
		c-0.2-0.1-0.2-0.2-0.8,0s-1.3,0.5-1.3,0.5S6,78.2,6.6,77C6.8,75.7,6.6,77,6.6,77L6.6,77z"/>
	
		<linearGradient id="SVGID_00000128460896585500455190000012829427028324042933_" gradientUnits="userSpaceOnUse" x1="100.1701" y1="128.0433" x2="104.4201" y2="133.1633" gradientTransform="matrix(-1.346898e-10 1 -1 -1.346898e-10 191.0291 -96.3591)">
		<stop  offset="0.19" style="stop-color:#FFEECE"/>
		<stop  offset="0.25" style="stop-color:#FFE6B3"/>
		<stop  offset="0.28" style="stop-color:#FFE8BA"/>
		<stop  offset="0.33" style="stop-color:#FFEECE"/>
		<stop  offset="0.47" style="stop-color:#CEB78C"/>
		<stop  offset="0.75" style="stop-color:#AA9775"/>
		<stop  offset="0.91" style="stop-color:#E9D2A4"/>
	</linearGradient>
	<path style="fill:url(#SVGID_00000128460896585500455190000012829427028324042933_);" d="M57.3,2.1c0,0,3.5-0.7,2.4,1
		c-1.2,1.7-2.4,2.3-2.4,2.3l6.7,4c0,0-3-6-3.2-6.7C60.7,2.1,58.9,1.4,57.3,2.1z"/>
	<g>
		<path class="st28" d="M14.2,44.4c0,0,0.3-0.4,0.7-0.1s0.3,0.9,0,1.1S14.2,45.7,14,46s-0.4,0.8-0.3,1c0.1,0.2,0.2,0.5,0.2,0.5
			s-0.4-0.3-0.4-0.7s0.4-1,0.3-1.2c-0.1-0.3-0.4-0.7-0.3-1.2c0.1-0.5,0.2-0.7,0.2-0.7s0.1-0.5-0.1-0.7c-0.2-0.3,0.4,0.1,0.3,0.9
			c-0.2,0.8-0.2,0.9,0,1.2s0.3,0.6,0.7,0.4c0.3-0.2,0.6-0.6,0.3-0.8c-0.3-0.1-0.4-0.2-0.5,0.1c0,0.3,0.2,0.2,0.2,0.2
			S14.2,45.3,14.2,44.4L14.2,44.4z"/>
		<path class="st28" d="M19,45c0,0,0.3-0.4,0.7-0.1s0.3,0.9,0,1.1s-0.7,0.3-0.9,0.6c-0.2,0.3-0.4,0.8-0.3,1s0.2,0.5,0.2,0.5
			s-0.4-0.3-0.4-0.7s0.4-1,0.3-1.2c-0.1-0.3-0.4-0.7-0.3-1.2s0.2-0.7,0.2-0.7s0.1-0.5-0.1-0.7c-0.2-0.3,0.4,0.1,0.3,0.9
			c-0.2,0.8-0.2,0.9,0,1.2s0.3,0.6,0.7,0.4c0.3-0.2,0.6-0.6,0.3-0.8c-0.3-0.1-0.4-0.2-0.5,0.1c0,0.3,0.2,0.2,0.2,0.2
			S18.9,45.9,19,45L19,45z"/>
		<path class="st28" d="M17.4,38.6c0,0,0.3-0.4,0.7-0.1s0.3,0.9,0,1.1s-0.7,0.3-0.9,0.6c-0.2,0.3-0.4,0.8-0.3,1s0.2,0.5,0.2,0.5
			s-0.4-0.3-0.4-0.7s0.4-1,0.3-1.2c-0.1-0.3-0.4-0.7-0.3-1.2s0.2-0.7,0.2-0.7s0.1-0.5-0.1-0.7c-0.2-0.3,0.4,0.1,0.3,0.9
			c-0.2,0.8-0.2,0.9,0,1.2s0.3,0.6,0.7,0.4c0.3-0.2,0.6-0.6,0.3-0.8c-0.3-0.1-0.4-0.2-0.5,0.1c0,0.3,0.2,0.2,0.2,0.2
			S17.4,39.5,17.4,38.6L17.4,38.6z"/>
		<path class="st28" d="M17.4,55.8c0,0,0.3-0.4,0.7-0.1s0.3,0.9,0,1.1s-0.7,0.3-0.9,0.6c-0.2,0.3-0.4,0.8-0.3,1s0.2,0.5,0.2,0.5
			s-0.4-0.3-0.4-0.7s0.4-1,0.3-1.2c-0.1-0.3-0.4-0.7-0.3-1.2s0.2-0.7,0.2-0.7s0.1-0.5-0.1-0.7c-0.2-0.3,0.4,0.1,0.3,0.9
			c-0.2,0.8-0.2,0.9,0,1.2s0.3,0.6,0.7,0.4c0.3-0.2,0.6-0.6,0.3-0.8c-0.3-0.1-0.4-0.2-0.5,0.1c0,0.3,0.2,0.2,0.2,0.2
			S17.3,56.7,17.4,55.8L17.4,55.8z"/>
		<path class="st28" d="M19.7,51.3c0,0,0.3-0.4,0.7-0.1s0.3,0.9,0,1.1s-0.7,0.3-0.9,0.6c-0.2,0.3-0.4,0.8-0.3,1s0.2,0.5,0.2,0.5
			S19,54.1,19,53.7c0-0.4,0.4-1,0.3-1.2c-0.1-0.3-0.4-0.7-0.3-1.2s0.2-0.7,0.2-0.7s0.1-0.5-0.1-0.7c-0.2-0.3,0.4,0.1,0.3,0.9
			c-0.2,0.8-0.2,0.9,0,1.2s0.3,0.6,0.7,0.4c0.3-0.2,0.6-0.6,0.3-0.8c-0.3-0.1-0.4-0.2-0.5,0.1c0,0.3,0.2,0.2,0.2,0.2
			S19.7,52.3,19.7,51.3L19.7,51.3z"/>
		<path class="st28" d="M24.9,55.9c0,0,0.3-0.4,0.7-0.1s0.3,0.9,0,1.1s-0.7,0.3-0.9,0.6c-0.2,0.3-0.4,0.8-0.3,1s0.2,0.5,0.2,0.5
			s-0.4-0.3-0.4-0.7s0.4-1,0.3-1.2c-0.1-0.3-0.4-0.7-0.3-1.2s0.2-0.7,0.2-0.7s0.1-0.5-0.1-0.7c-0.2-0.3,0.4,0.1,0.3,0.9
			c-0.2,0.8-0.2,0.9,0,1.2s0.3,0.6,0.7,0.4c0.3-0.2,0.6-0.6,0.3-0.8c-0.3-0.1-0.4-0.2-0.5,0.1c0,0.3,0.2,0.2,0.2,0.2
			S24.8,56.8,24.9,55.9L24.9,55.9z"/>
		<path class="st28" d="M23.8,43.6c0,0,0.3-0.4,0.7-0.1s0.3,0.9,0,1.1s-0.7,0.3-0.9,0.6c-0.2,0.3-0.4,0.8-0.3,1s0.2,0.5,0.2,0.5
			s-0.4-0.3-0.4-0.7s0.4-1,0.3-1.2c-0.1-0.3-0.4-0.7-0.3-1.2s0.2-0.7,0.2-0.7s0.1-0.5-0.1-0.7c-0.2-0.3,0.4,0.1,0.3,0.9
			c-0.2,0.8-0.2,0.9,0,1.2s0.3,0.6,0.7,0.4c0.3-0.2,0.6-0.6,0.3-0.8c-0.3-0.1-0.4-0.2-0.5,0.1c0,0.3,0.2,0.2,0.2,0.2
			S23.7,44.5,23.8,43.6L23.8,43.6z"/>
		<path class="st28" d="M29.2,48.5c0,0,0.3-0.4,0.7-0.1s0.3,0.9,0,1.1s-0.7,0.3-0.9,0.6c-0.2,0.3-0.4,0.8-0.3,1s0.2,0.5,0.2,0.5
			s-0.4-0.3-0.4-0.7s0.4-1,0.3-1.2c-0.1-0.3-0.4-0.7-0.3-1.2s0.2-0.7,0.2-0.7s0.1-0.5-0.1-0.7c-0.2-0.3,0.4,0.1,0.3,0.9
			c-0.2,0.8-0.2,0.9,0,1.2s0.3,0.6,0.7,0.4c0.3-0.2,0.6-0.6,0.3-0.8c-0.3-0.1-0.4-0.2-0.5,0.1c0,0.3,0.2,0.2,0.2,0.2
			S29.2,49.4,29.2,48.5L29.2,48.5z"/>
		<path class="st28" d="M25.5,48.1c0,0,0.3-0.4,0.7-0.1s0.3,0.9,0,1.1s-0.7,0.3-0.9,0.6c-0.2,0.3-0.4,0.8-0.3,1s0.2,0.5,0.2,0.5
			s-0.4-0.3-0.4-0.7s0.4-1,0.3-1.2c-0.1-0.3-0.4-0.7-0.3-1.2s0.2-0.7,0.2-0.7s0.1-0.5-0.1-0.7c-0.2-0.3,0.4,0.1,0.3,0.9
			c-0.2,0.8-0.2,0.9,0,1.2s0.3,0.6,0.7,0.4c0.3-0.2,0.6-0.6,0.3-0.8c-0.3-0.1-0.4-0.2-0.5,0.1c0,0.3,0.2,0.2,0.2,0.2
			S25.4,49,25.5,48.1L25.5,48.1z"/>
		<path class="st28" d="M32.2,42.2c0,0,0.3-0.4,0.7-0.1s0.3,0.9,0,1.1s-0.7,0.3-0.9,0.6s-0.4,0.8-0.3,1s0.2,0.5,0.2,0.5
			s-0.4-0.3-0.4-0.7s0.4-1,0.3-1.2c-0.1-0.3-0.4-0.7-0.3-1.2s0.2-0.7,0.2-0.7s0.1-0.5-0.1-0.7c-0.2-0.3,0.4,0.1,0.3,0.9
			c-0.2,0.8-0.2,0.9,0,1.2s0.3,0.6,0.7,0.4c0.3-0.2,0.6-0.6,0.3-0.8c-0.3-0.1-0.4-0.2-0.5,0.1c0,0.3,0.2,0.2,0.2,0.2
			S32.2,43.1,32.2,42.2L32.2,42.2z"/>
		<path class="st28" d="M33.8,31.9c0,0,0.3-0.4,0.7-0.1c0.5,0.3,0.3,0.9,0,1.1s-0.7,0.3-0.9,0.6s-0.4,0.8-0.3,1
			c0.1,0.2,0.2,0.5,0.2,0.5s-0.4-0.3-0.4-0.7s0.4-1,0.3-1.2c-0.1-0.3-0.4-0.7-0.3-1.2c0.1-0.5,0.2-0.7,0.2-0.7s0.1-0.5-0.1-0.7
			c-0.2-0.3,0.4,0.1,0.3,0.9c-0.2,0.8-0.2,0.9,0,1.2s0.3,0.6,0.7,0.4c0.3-0.2,0.6-0.6,0.3-0.8c-0.3-0.1-0.4-0.2-0.5,0.1
			c0,0.3,0.2,0.2,0.2,0.2S33.7,32.8,33.8,31.9L33.8,31.9z"/>
		<path class="st28" d="M35.2,37.7c0,0,0.3-0.4,0.7-0.1c0.5,0.3,0.3,0.9,0,1.1S35.2,39,35,39.3s-0.4,0.8-0.3,1
			c0.1,0.2,0.2,0.5,0.2,0.5s-0.4-0.3-0.4-0.7s0.4-1,0.3-1.2c-0.1-0.3-0.4-0.7-0.3-1.2s0.2-0.7,0.2-0.7s0.1-0.5-0.1-0.7
			c-0.2-0.3,0.4,0.1,0.3,0.9c-0.2,0.8-0.2,0.9,0,1.2s0.3,0.6,0.7,0.4c0.3-0.2,0.6-0.6,0.3-0.8c-0.3-0.1-0.4-0.2-0.5,0.1
			c0,0.3,0.2,0.2,0.2,0.2C35.8,38.1,35.2,38.7,35.2,37.7L35.2,37.7z"/>
		<path class="st28" d="M29.3,59.4c0,0,0.3-0.4,0.7-0.1s0.3,0.9,0,1.1s-0.7,0.3-0.9,0.6c-0.2,0.3-0.4,0.8-0.3,1s0.2,0.5,0.2,0.5
			s-0.4-0.3-0.4-0.7s0.4-1,0.3-1.2c-0.1-0.3-0.4-0.7-0.3-1.2s0.2-0.7,0.2-0.7s0.1-0.5-0.1-0.7c-0.2-0.3,0.4,0.1,0.3,0.9
			c-0.2,0.8-0.2,0.9,0,1.2s0.3,0.6,0.7,0.4c0.3-0.2,0.6-0.6,0.3-0.8c-0.3-0.1-0.4-0.2-0.5,0.1c0,0.3,0.2,0.2,0.2,0.2
			S29.2,60.4,29.3,59.4L29.3,59.4z"/>
		<path class="st28" d="M34.9,59.6c0,0,0.3-0.4,0.7-0.1c0.5,0.3,0.3,0.9,0,1.1s-0.7,0.3-0.9,0.6s-0.4,0.8-0.3,1
			c0.1,0.2,0.2,0.5,0.2,0.5s-0.4-0.3-0.4-0.7s0.4-1,0.3-1.2c-0.1-0.3-0.4-0.7-0.3-1.2s0.2-0.7,0.2-0.7s0.1-0.5-0.1-0.7
			c-0.2-0.3,0.4,0.1,0.3,0.9c-0.2,0.8-0.2,0.9,0,1.2s0.3,0.6,0.7,0.4c0.3-0.2,0.6-0.6,0.3-0.8c-0.3-0.1-0.4-0.2-0.5,0.1
			c0,0.3,0.2,0.2,0.2,0.2C35.4,60,34.9,60.5,34.9,59.6L34.9,59.6z"/>
		<path class="st28" d="M31.2,55.2c0,0,0.3-0.4,0.7-0.1s0.3,0.9,0,1.1s-0.7,0.3-0.9,0.6c-0.2,0.3-0.4,0.8-0.3,1s0.2,0.5,0.2,0.5
			s-0.4-0.3-0.4-0.7s0.4-1,0.3-1.2c-0.1-0.3-0.4-0.7-0.3-1.2s0.2-0.7,0.2-0.7s0.1-0.5-0.1-0.7c-0.2-0.3,0.4,0.1,0.3,0.9
			c-0.2,0.8-0.2,0.9,0,1.2s0.3,0.6,0.7,0.4c0.3-0.2,0.6-0.6,0.3-0.8c-0.3-0.1-0.4-0.2-0.5,0.1c0,0.3,0.2,0.2,0.2,0.2
			S31.2,56.2,31.2,55.2L31.2,55.2z"/>
		<path class="st28" d="M37.9,55.1c0,0,0.3-0.4,0.7-0.1c0.5,0.3,0.3,0.9,0,1.1s-0.7,0.3-0.9,0.6s-0.4,0.8-0.3,1
			c0.1,0.2,0.2,0.5,0.2,0.5s-0.4-0.3-0.4-0.7s0.4-1,0.3-1.2c-0.1-0.3-0.4-0.7-0.3-1.2c0.1-0.5,0.2-0.7,0.2-0.7s0.1-0.5-0.1-0.7
			c-0.2-0.3,0.4,0.1,0.3,0.9c-0.2,0.8-0.2,0.9,0,1.2c0.2,0.2,0.3,0.6,0.7,0.4c0.3-0.2,0.6-0.6,0.3-0.8c-0.3-0.1-0.4-0.2-0.5,0.1
			c0,0.3,0.2,0.2,0.2,0.2C38.4,55.5,37.9,56,37.9,55.1L37.9,55.1z"/>
		<path class="st28" d="M22.4,19.7c0,0,0.3-0.4,0.7-0.1s0.3,0.9,0,1.1s-0.7,0.3-0.9,0.6c-0.2,0.3-0.4,0.8-0.3,1s0.2,0.5,0.2,0.5
			s-0.4-0.3-0.4-0.7c0-0.4,0.4-1,0.3-1.2c-0.1-0.3-0.4-0.7-0.3-1.2s0.2-0.7,0.2-0.7s0.1-0.5-0.1-0.7c-0.2-0.3,0.4,0.1,0.3,0.9
			c-0.2,0.8-0.2,0.9,0,1.1s0.3,0.6,0.7,0.4c0.3-0.2,0.6-0.6,0.3-0.8c-0.3-0.1-0.4-0.2-0.5,0.1c0,0.3,0.2,0.2,0.2,0.2
			S22.4,20.7,22.4,19.7L22.4,19.7z"/>
		<path class="st28" d="M27.4,20.7c0,0,0.3-0.4,0.7-0.1s0.3,0.9,0,1.1s-0.7,0.3-0.9,0.6c-0.2,0.3-0.4,0.8-0.3,1s0.2,0.5,0.2,0.5
			s-0.4-0.3-0.4-0.7c0-0.4,0.4-1,0.3-1.2c-0.1-0.3-0.4-0.7-0.3-1.2s0.2-0.7,0.2-0.7s0.1-0.5-0.1-0.7c-0.2-0.3,0.4,0.1,0.3,0.9
			c-0.2,0.8-0.2,0.9,0,1.1s0.3,0.6,0.7,0.4c0.3-0.2,0.6-0.6,0.3-0.8c-0.3-0.1-0.4-0.2-0.5,0.1c0,0.3,0.2,0.2,0.2,0.2
			S27.4,21.7,27.4,20.7L27.4,20.7z"/>
		<path class="st28" d="M25.6,13.9c0,0,0.3-0.4,0.7-0.1s0.3,0.9,0,1.1c-0.3,0.2-0.7,0.3-0.9,0.6c-0.2,0.3-0.4,0.8-0.3,1
			s0.2,0.5,0.2,0.5s-0.4-0.3-0.4-0.7c0-0.4,0.4-0.9,0.3-1.2s-0.4-0.7-0.3-1.2s0.2-0.7,0.2-0.7s0.1-0.5-0.1-0.7
			c-0.2-0.3,0.4,0.1,0.3,0.9c-0.2,0.8-0.2,0.9,0,1.1c0.2,0.2,0.3,0.6,0.7,0.4c0.3-0.2,0.6-0.6,0.3-0.8c-0.3-0.1-0.4-0.2-0.5,0.1
			c0,0.3,0.2,0.2,0.2,0.2C26.1,14.3,25.5,14.8,25.6,13.9L25.6,13.9z"/>
		<path class="st28" d="M30.4,16.2c0,0,0.3-0.4,0.7-0.1s0.3,0.9,0,1.1s-0.7,0.3-0.9,0.6c-0.2,0.3-0.4,0.8-0.3,1s0.2,0.5,0.2,0.5
			s-0.4-0.3-0.4-0.7c0-0.4,0.4-1,0.3-1.2c-0.1-0.3-0.4-0.7-0.3-1.2s0.2-0.7,0.2-0.7s0.1-0.5-0.1-0.7c-0.2-0.3,0.4,0.1,0.3,0.9
			c-0.2,0.8-0.2,0.9,0,1.1s0.3,0.6,0.7,0.4c0.3-0.2,0.6-0.6,0.3-0.8c-0.3-0.1-0.4-0.2-0.5,0.1c0,0.3,0.2,0.2,0.2,0.2
			S30.4,17.2,30.4,16.2L30.4,16.2z"/>
		<path class="st28" d="M30.1,10.7c0,0,0.3-0.4,0.7-0.1s0.3,0.9,0,1.1c-0.3,0.2-0.7,0.3-0.9,0.6c-0.2,0.3-0.4,0.8-0.3,1
			s0.2,0.5,0.2,0.5s-0.4-0.3-0.4-0.7s0.4-0.9,0.3-1.2s-0.4-0.7-0.3-1.2s0.2-0.7,0.2-0.7s0.1-0.5-0.1-0.7c-0.2-0.3,0.4,0.1,0.3,0.9
			c-0.2,0.8-0.2,0.9,0,1.1c0.2,0.2,0.3,0.6,0.7,0.4c0.3-0.2,0.6-0.6,0.3-0.8c-0.3-0.1-0.4-0.2-0.5,0.1c0,0.3,0.2,0.2,0.2,0.2
			C30.6,11.1,30,11.7,30.1,10.7L30.1,10.7z"/>
		<path class="st28" d="M35.7,12.2c0,0,0.3-0.4,0.7-0.1c0.5,0.4,0.3,0.9,0,1.1c-0.3,0.2-0.7,0.3-0.9,0.6s-0.4,0.8-0.3,1
			c0.1,0.2,0.2,0.5,0.2,0.5S35,15,35.1,14.5c0-0.4,0.4-0.9,0.3-1.2c-0.1-0.3-0.4-0.7-0.3-1.2c0.1-0.5,0.2-0.7,0.2-0.7
			s0.1-0.5-0.1-0.7c-0.2-0.3,0.4,0.1,0.3,0.9c-0.2,0.8-0.2,0.9,0,1.1c0.2,0.2,0.3,0.6,0.7,0.4c0.3-0.2,0.6-0.6,0.3-0.8
			c-0.3-0.1-0.4-0.2-0.5,0.1c0,0.3,0.2,0.2,0.2,0.2C36.3,12.6,35.7,13.2,35.7,12.2L35.7,12.2z"/>
		<path class="st28" d="M18.7,32.4c0,0,0.3-0.4,0.7-0.1s0.3,0.9,0,1.1s-0.7,0.3-0.9,0.6c-0.2,0.3-0.4,0.8-0.3,1s0.2,0.5,0.2,0.5
			S18,35.2,18,34.8s0.4-1,0.3-1.2c-0.1-0.3-0.4-0.7-0.3-1.2s0.2-0.7,0.2-0.7s0.1-0.5-0.1-0.7c-0.2-0.3,0.4,0.1,0.3,0.9
			c-0.2,0.8-0.2,0.9,0,1.2s0.3,0.6,0.7,0.4c0.3-0.2,0.6-0.6,0.3-0.8c-0.3-0.1-0.4-0.2-0.5,0.1c0,0.3,0.2,0.2,0.2,0.2
			S18.7,33.3,18.7,32.4L18.7,32.4z"/>
		<path class="st28" d="M25.1,71c0,0,0.3-0.4,0.7-0.1s0.3,0.9,0,1.1s-0.7,0.3-0.9,0.6s-0.4,0.8-0.3,1s0.2,0.5,0.2,0.5
			s-0.4-0.3-0.4-0.7c0-0.4,0.4-0.9,0.3-1.2c-0.1-0.3-0.4-0.7-0.3-1.2s0.2-0.7,0.2-0.7s0.1-0.5-0.1-0.7c-0.2-0.3,0.4,0.1,0.3,0.9
			c-0.2,0.8-0.2,0.9,0,1.2s0.3,0.6,0.7,0.4c0.3-0.2,0.6-0.6,0.3-0.8c-0.3-0.1-0.4-0.2-0.5,0.1c0,0.3,0.2,0.2,0.2,0.2
			S25.1,71.9,25.1,71L25.1,71z"/>
		<path class="st28" d="M32,67.1c0,0,0.3-0.4,0.7-0.1s0.3,0.9,0,1.1s-0.7,0.3-0.9,0.6c-0.2,0.3-0.4,0.8-0.3,1s0.2,0.5,0.2,0.5
			s-0.4-0.3-0.4-0.7c0-0.4,0.4-0.9,0.3-1.2c-0.1-0.3-0.4-0.7-0.3-1.2s0.2-0.7,0.2-0.7s0.1-0.5-0.1-0.7c-0.2-0.3,0.4,0.1,0.3,0.9
			c-0.2,0.8-0.2,0.9,0,1.2s0.3,0.6,0.7,0.4c0.3-0.2,0.6-0.6,0.3-0.8c-0.3-0.1-0.4-0.2-0.5,0.1c0,0.3,0.2,0.2,0.2,0.2
			S31.9,68,32,67.1L32,67.1z"/>
		<path class="st28" d="M36.2,71.7c0,0,0.3-0.4,0.7-0.1c0.5,0.3,0.3,0.9,0,1.1S36.2,73,36,73.3c-0.2,0.3-0.4,0.8-0.3,1
			c0.1,0.2,0.2,0.5,0.2,0.5s-0.4-0.3-0.4-0.7s0.4-0.9,0.3-1.2c-0.1-0.3-0.4-0.7-0.3-1.2c0.1-0.5,0.2-0.7,0.2-0.7s0.1-0.5-0.1-0.7
			c-0.2-0.3,0.4,0.1,0.3,0.9c-0.2,0.8-0.2,0.9,0,1.2c0.2,0.2,0.3,0.6,0.7,0.4c0.3-0.2,0.6-0.6,0.3-0.8c-0.3-0.1-0.4-0.2-0.5,0.1
			c0,0.3,0.2,0.2,0.2,0.2C36.8,72.1,36.2,72.6,36.2,71.7L36.2,71.7z"/>
		<path class="st28" d="M38.7,43.9c0,0,0.3-0.4,0.7-0.1c0.5,0.3,0.3,0.9,0,1.1s-0.7,0.3-0.9,0.6s-0.4,0.8-0.3,1
			c0.1,0.2,0.2,0.5,0.2,0.5S38,46.7,38,46.3s0.4-1,0.3-1.2c-0.1-0.3-0.4-0.7-0.3-1.2c0.1-0.5,0.2-0.7,0.2-0.7s0.1-0.5-0.1-0.7
			c-0.2-0.3,0.4,0.1,0.3,0.9c-0.2,0.8-0.2,0.9,0,1.2c0.2,0.2,0.3,0.6,0.7,0.4c0.3-0.2,0.6-0.6,0.3-0.8c-0.3-0.1-0.4-0.2-0.5,0.1
			c0,0.3,0.2,0.2,0.2,0.2C39.3,44.3,38.7,44.8,38.7,43.9L38.7,43.9z"/>
		<path class="st28" d="M38.2,33.4c0,0,0.3-0.4,0.7-0.1c0.5,0.3,0.3,0.9,0,1.1S38.2,34.7,38,35s-0.4,0.8-0.3,1
			c0.1,0.2,0.2,0.5,0.2,0.5s-0.4-0.3-0.4-0.7s0.4-1,0.3-1.2c-0.1-0.3-0.4-0.7-0.3-1.2c0.1-0.5,0.2-0.7,0.2-0.7s0.1-0.5-0.1-0.7
			c-0.2-0.3,0.4,0.1,0.3,0.9c-0.2,0.8-0.2,0.9,0,1.2c0.2,0.2,0.3,0.6,0.7,0.4c0.3-0.2,0.6-0.6,0.3-0.8c-0.3-0.1-0.4-0.2-0.5,0.1
			c0,0.3,0.2,0.2,0.2,0.2C38.8,33.8,38.2,34.3,38.2,33.4L38.2,33.4z"/>
		<path class="st28" d="M29.7,71.3c0,0,0.3-0.4,0.7-0.1s0.3,0.9,0,1.1s-0.7,0.3-0.9,0.6c-0.2,0.3-0.4,0.8-0.3,1s0.2,0.5,0.2,0.5
			S29,74.1,29,73.7s0.4-0.9,0.3-1.2c-0.1-0.3-0.4-0.7-0.3-1.2s0.2-0.7,0.2-0.7s0.1-0.5-0.1-0.7c-0.2-0.3,0.4,0.1,0.3,0.9
			c-0.2,0.8-0.2,0.9,0,1.2s0.3,0.6,0.7,0.4c0.3-0.2,0.6-0.6,0.3-0.8c-0.3-0.1-0.4-0.2-0.5,0.1c0,0.3,0.2,0.2,0.2,0.2
			S29.6,72.3,29.7,71.3L29.7,71.3z"/>
	</g>
	<g>
		<g>
			<rect x="7.8" y="16.2" class="st29" width="51.7" height="0.1"/>
			<rect x="7.8" y="75.8" class="st29" width="51.7" height="0.1"/>
			<rect x="7.8" y="63.9" class="st29" width="51.7" height="0.1"/>
			<rect x="7.8" y="52" class="st29" width="51.7" height="0.1"/>
			<rect x="7.8" y="40" class="st29" width="51.7" height="0.1"/>
			<rect x="7.8" y="28.1" class="st29" width="51.7" height="0.1"/>
		</g>
		<g>
			<rect x="57.6" y="7.3" class="st29" width="0.1" height="77.6"/>
			<rect x="45.6" y="7.3" class="st29" width="0.1" height="77.6"/>
			<rect x="33.6" y="7.3" class="st29" width="0.1" height="77.6"/>
			<rect x="21.5" y="7.3" class="st29" width="0.1" height="77.6"/>
			<rect x="9.5" y="7.3" class="st29" width="0.1" height="77.6"/>
		</g>
	</g>
	
		<rect x="25.3" y="42.5" transform="matrix(0.7158 -0.6983 0.6983 0.7158 -39.8812 36.8474)" class="st29" width="0.1" height="49.9"/>
	<rect x="-3" y="52" transform="matrix(0.7237 -0.6901 0.6901 0.7237 -26.6055 37.5784)" class="st29" width="73.3" height="0.1"/>
	<g>
		<polygon class="st30" points="21.7,58.9 21.7,59.1 21.7,59.1 		"/>
		<polygon class="st30" points="21.7,68.8 21.7,69 21.7,69 		"/>
		<polygon class="st31" points="21.7,67.9 21.7,68.8 21.7,68.8 		"/>
		<polygon class="st31" points="21.7,59.1 21.7,60 21.7,60 		"/>
		<path class="st32" d="M19.1,66.8c0.6,0.6,1.5,0.9,2.3,1v-0.2c-0.8-0.1-1.5-0.4-2.1-0.9L19.1,66.8L19.1,66.8z"/>
		<path class="st32" d="M24.6,66.6c0.6-0.6,1-1.4,1-2.3h-0.2c-0.1,0.8-0.4,1.5-1,2.1C24.5,66.4,24.6,66.6,24.6,66.6z"/>
		<polygon class="st32" points="21.7,60 21.7,60.2 21.7,60.2 		"/>
		<path class="st32" d="M24.4,61c-0.6-0.6-1.5-0.9-2.3-1v0.2c0.8,0.1,1.5,0.4,2.1,0.9L24.4,61L24.4,61z"/>
		<path class="st32" d="M18.8,61.3c-0.6,0.6-0.9,1.4-1,2.3H18c0.1-0.8,0.4-1.5,0.9-2.1C19,61.4,18.8,61.3,18.8,61.3z"/>
		<path class="st32" d="M19.1,61.1l0.2,0.1c0.3-0.3,0.7-0.5,1.1-0.7c0.3-0.1,0.7-0.2,1-0.2v-0.2c-0.4,0-0.7,0.1-1.1,0.2
			C19.8,60.5,19.4,60.7,19.1,61.1z"/>
		<path class="st32" d="M24.4,66.8l-0.2-0.1c-0.3,0.3-0.7,0.5-1.1,0.7c-0.3,0.1-0.7,0.2-1,0.2v0.2c0.4,0,0.8-0.1,1.1-0.2
			C23.7,67.4,24.1,67.1,24.4,66.8L24.4,66.8z"/>
		<polygon class="st32" points="21.7,67.7 21.7,67.9 21.7,67.9 		"/>
		<path class="st32" d="M18.8,66.6l0.1-0.2c-0.3-0.3-0.5-0.7-0.7-1.1c-0.1-0.3-0.2-0.7-0.2-1h-0.2c0,0.4,0.1,0.8,0.2,1.1
			C18.2,65.9,18.5,66.3,18.8,66.6L18.8,66.6z"/>
		<path class="st32" d="M24.6,61.3l-0.1,0.2c0.3,0.3,0.5,0.7,0.7,1.1c0.1,0.3,0.2,0.7,0.2,1h0.2c0-0.4-0.1-0.8-0.2-1.1
			C25.2,62,24.9,61.6,24.6,61.3L24.6,61.3z"/>
		<path class="st33" d="M19.7,62.4c-0.2,0.3-0.4,0.6-0.5,1h0.2c0.1-0.3,0.2-0.6,0.4-0.8L19.7,62.4L19.7,62.4z"/>
		<path class="st33" d="M23.3,62c-0.3-0.2-0.6-0.4-1-0.5v0.2c0.3,0.1,0.6,0.2,0.8,0.4L23.3,62L23.3,62z"/>
		<path class="st33" d="M20.2,62l0.2,0.1c0.2-0.1,0.3-0.2,0.5-0.3c0.1,0,0.2-0.1,0.3-0.1v-0.2c-0.1,0-0.3,0.1-0.4,0.1
			C20.6,61.7,20.4,61.8,20.2,62z"/>
		<path class="st33" d="M20.2,65.9c0.3,0.2,0.6,0.4,1,0.5v-0.2c-0.3-0.1-0.5-0.2-0.8-0.4C20.4,65.8,20.2,65.9,20.2,65.9z"/>
		<path class="st33" d="M23.7,65.5c0.2-0.3,0.4-0.6,0.5-1H24c-0.1,0.3-0.2,0.6-0.4,0.8L23.7,65.5L23.7,65.5z"/>
		<polygon class="st33" points="21.7,61.4 21.7,61.6 21.7,61.6 		"/>
		<polygon class="st33" points="21.7,66.2 21.7,66.4 21.7,66.4 		"/>
		<path class="st33" d="M23.7,62.4l-0.1,0.2c0.1,0.2,0.2,0.3,0.3,0.5c0,0.1,0.1,0.2,0.1,0.3h0.2c0-0.1-0.1-0.3-0.1-0.4
			C24,62.8,23.9,62.6,23.7,62.4z"/>
		<path class="st33" d="M19.7,65.5l0.1-0.2c-0.1-0.2-0.2-0.3-0.3-0.5c0-0.1-0.1-0.2-0.1-0.3h-0.2c0,0.1,0.1,0.3,0.1,0.4
			C19.5,65.1,19.6,65.3,19.7,65.5L19.7,65.5z"/>
		<path class="st33" d="M23.3,65.9l-0.2-0.1c-0.2,0.1-0.3,0.2-0.5,0.3c-0.1,0-0.2,0.1-0.3,0.1v0.2c0.1,0,0.3-0.1,0.4-0.1
			C22.9,66.2,23.1,66.1,23.3,65.9z"/>
		<path class="st34" d="M20.4,62.1l0.7,0.5v0.1l0,0l0.1-1c-0.1,0-0.2,0-0.3,0.1C20.7,61.9,20.5,62,20.4,62.1L20.4,62.1z"/>
		<path class="st34" d="M20.4,63.2l-0.5-0.7c-0.2,0.2-0.3,0.5-0.4,0.8l1.1-0.1l0,0H20.4L20.4,63.2z"/>
		<path class="st34" d="M19.9,65.3l0.5-0.7l-0.9-0.1c0,0.1,0,0.2,0.1,0.3C19.7,65,19.8,65.2,19.9,65.3z"/>
		<path class="st34" d="M20.6,64.7l-0.2-0.1L20.6,64.7z"/>
		<path class="st34" d="M22.9,63.2H23H22.9z"/>
		<path class="st34" d="M22.4,62.6l0.7-0.5c-0.2-0.2-0.5-0.3-0.8-0.4l0.1,1.1l0,0C22.5,62.8,22.4,62.6,22.4,62.6z"/>
		<path class="st34" d="M23.1,65.8l-0.7-0.5v-0.1l0,0l-0.1,1.1c0.1,0,0.2,0,0.3-0.1C22.8,66,22.9,65.9,23.1,65.8z"/>
		<path class="st34" d="M21,65.2l-0.7,0.5c0.2,0.2,0.5,0.3,0.8,0.4L21,65.2L21,65.2L21,65.2L21,65.2z"/>
		<path class="st34" d="M23,64.6l0.5,0.7c0.2-0.2,0.3-0.5,0.4-0.8l-1.1,0.1l0,0C22.9,64.7,23,64.6,23,64.6z"/>
		<polygon class="st34" points="21.7,61.6 21.7,63.9 21.7,63.9 21.7,63.9 		"/>
		<polygon class="st34" points="21.7,63.9 21.7,66.2 21.7,66.2 		"/>
		<path class="st34" d="M23.6,62.6L23,63.3l0.9,0.1c0-0.1,0-0.2-0.1-0.3C23.8,62.9,23.7,62.7,23.6,62.6L23.6,62.6z"/>
		<polygon class="st35" points="24.6,66.6 24.5,66.4 23.7,65.5 23.6,65.3 23,64.6 22.9,64.7 24.7,66.9 24.7,66.9 24.7,66.9 
			24.7,66.9 22.5,65.1 22.4,65.2 23.1,65.8 23.3,65.9 24.2,66.7 24.4,66.8 25.1,67.4 25.3,67.5 25.5,67.7 25.5,67.7 25.5,67.7 
			25.5,67.7 25.3,67.5 25.2,67.3 		"/>
		<polygon class="st35" points="24.4,61 24.2,61.2 23.3,62 23.1,62.1 22.4,62.6 22.5,62.8 24.7,61 24.7,61 22.9,63.2 23,63.2 
			23,63.2 23.6,62.6 23.7,62.4 24.5,61.4 24.6,61.3 25.2,60.5 25.3,60.4 25.5,60.2 25.5,60.2 25.3,60.4 25.1,60.5 		"/>
		<polygon class="st35" points="19.1,66.8 19.2,66.7 20.2,65.9 20.4,65.8 21,65.2 21,65.1 18.8,66.9 18.8,66.9 20.6,64.7 20.4,64.6 
			20.4,64.6 19.9,65.3 19.7,65.5 19,66.4 18.8,66.6 18.3,67.3 18.1,67.5 17.9,67.7 18,67.7 18.2,67.5 18.3,67.4 		"/>
		<polygon class="st35" points="18.8,61.3 19,61.4 19.7,62.4 19.9,62.6 20.4,63.2 20.6,63.2 18.8,61 21,62.8 21,62.6 20.4,62.1 
			20.2,62 19.2,61.2 19.1,61.1 18.3,60.5 18.2,60.4 17.9,60.2 18.1,60.4 18.3,60.5 		"/>
		<polygon class="st36" points="24.7,61 22.5,62.8 22.4,62.8 22.5,63.2 22.5,63.2 		"/>
		<polygon class="st36" points="18.8,61 21,63.2 21,63.2 21,62.8 21,62.8 		"/>
		<path class="st36" d="M24.7,66.9L24.7,66.9L24.7,66.9z"/>
		<polygon class="st36" points="24.7,66.9 22.5,64.7 22.5,64.7 22.5,64.7 22.4,65.1 22.5,65.1 		"/>
		<polygon class="st36" points="18.8,66.9 18.8,66.9 21,64.7 20.6,64.7 20.6,64.7 		"/>
		<polygon class="st37" points="22.4,63.3 22.4,63.3 27.3,63.9 28.4,63.9 26.7,63.7 26.6,63.7 25.7,63.6 25.5,63.6 24.2,63.4 
			24,63.4 23,63.2 23,63.2 22.9,63.2 22.5,63.2 22.5,63.2 22.5,63.2 22.4,62.8 22.3,61.7 22.3,61.5 22.1,60.2 22.1,60 22,59.1 
			21.9,58.9 21.7,57.2 21.7,58.4 		"/>
		<polygon class="st37" points="21.1,63.3 21.1,63.3 21.1,63.3 21.7,58.4 21.7,57.2 21.5,58.9 21.5,59.1 21.4,60 21.3,60.2 
			21.2,61.5 21.2,61.7 21,62.8 21,63.2 21,63.2 21,63.2 20.6,63.2 19.5,63.4 19.3,63.4 18,63.5 17.8,63.6 16.9,63.7 16.7,63.7 
			15,63.9 15,63.9 16.1,63.9 		"/>
		<polygon class="st37" points="22.4,64.6 22.4,64.6 21.7,69.5 21.7,70.6 22,68.9 22,68.8 22.1,67.8 22.1,67.6 22.3,66.4 22.3,66.2 
			22.4,65.1 22.5,64.7 22.5,64.7 22.5,64.7 22.9,64.7 24,64.5 24.2,64.5 25.4,64.3 25.7,64.3 26.6,64.2 26.8,64.2 28.5,63.9 
			28.4,63.9 27.3,63.9 		"/>
		<polygon class="st37" points="21.1,64.6 21.1,64.6 16.2,63.9 15.1,63.9 16.7,64.2 16.9,64.2 17.8,64.3 18,64.3 19.3,64.5 
			19.5,64.5 20.4,64.6 20.4,64.6 20.6,64.7 21,64.7 21,64.7 21,64.7 21,65.1 21.2,66.2 21.2,66.4 21.3,67.6 21.4,67.8 21.5,68.8 
			21.5,68.9 21.7,70.6 21.7,69.5 		"/>
		<polygon class="st37" points="21.7,69 21.7,68.8 21.7,67.9 21.7,67.7 21.7,66.4 21.7,66.2 21.7,63.9 21.7,63.9 27.3,63.9 
			28.1,63.9 28.5,63.9 28.5,63.9 28,63.9 27.3,63.9 27.3,63.9 21.7,63.9 21.7,63.9 21.7,63.9 21.7,63.9 21.7,61.6 21.7,61.4 
			21.7,60.2 21.7,60 21.7,59.1 21.7,58.9 21.7,57.6 21.7,57.2 21.7,57.2 21.7,57.6 21.7,58.3 21.7,58.3 21.7,58.7 21.7,63.9 
			21.7,63.9 27,63.9 27.3,63.9 27.3,63.9 27,63.9 21.7,63.9 21.7,69.2 21.7,69.5 21.7,69.5 21.7,70.2 21.7,70.6 21.7,70.6 
			21.7,70.2 		"/>
		<polygon class="st37" points="21.7,63.9 21.7,63.9 16.5,63.9 16.1,63.9 16.1,63.9 16.4,63.9 21.7,63.9 21.7,63.9 16.1,63.9 
			16.1,63.9 15.4,63.9 15,63.9 15,63.9 15.4,63.9 16.2,63.9 		"/>
		<polygon class="st36" points="21.7,63.9 22.4,64.6 27.3,63.9 27.3,63.9 		"/>
		<polygon class="st36" points="21.7,60 21.7,60.2 21.7,61.4 21.7,61.6 21.7,63.9 22.4,63.3 21.7,58.4 21.7,58.3 21.7,58.9 
			21.7,59.1 		"/>
		<polygon class="st36" points="21.7,63.9 21.1,64.6 21.1,64.6 21.7,69.5 21.7,69.5 21.7,69.2 		"/>
		<polygon class="st36" points="21.7,63.9 21.1,63.3 21.1,63.3 21.1,63.3 16.1,63.9 16.1,63.9 16.1,63.9 		"/>
		<polygon class="st38" points="21.7,69.2 21.7,63.9 27,63.9 27.3,63.9 27.3,63.9 27,63.9 21.7,63.9 21.7,63.9 21.7,58.7 21.7,58.3 
			21.7,58.3 21.7,58.7 21.7,63.9 21.7,63.9 21.7,63.9 16.4,63.9 16.1,63.9 16.1,63.9 16.5,63.9 21.7,63.9 21.7,63.9 21.7,69.2 
			21.7,69.5 21.7,69.5 		"/>
	</g>
	
		<linearGradient id="SVGID_00000113347326993609093620000001995378845723510433_" gradientUnits="userSpaceOnUse" x1="107.3364" y1="149.0926" x2="103.7064" y2="150.1126" gradientTransform="matrix(-1.346898e-10 1 -1 -1.346898e-10 191.0291 -96.3591)">
		<stop  offset="0" style="stop-color:#FFDEA7"/>
		<stop  offset="2.000000e-02" style="stop-color:#FFE0AB"/>
		<stop  offset="0.11" style="stop-color:#FFEAB9"/>
		<stop  offset="0.4" style="stop-color:#E1CB9D"/>
		<stop  offset="0.63" style="stop-color:#CEB78C"/>
	</linearGradient>
	<path style="fill:url(#SVGID_00000113347326993609093620000001995378845723510433_);" d="M43.3,6.6L43.5,8c0,0,0.6,0.2,0.6,0.5
		S44,9.2,44,9.2s0,0.3-0.2,0.3s-0.4,0-0.7,0.1c-0.2,0.1-0.6-0.4-0.6,0.3s0.3,0.9,0,0.8c-0.3-0.2-0.7-0.9-0.7-0.9s0.1-0.2-0.2,0
		s0,0.5-0.6,0.5h-1.1c-0.2,0-0.4,0.2-0.7-0.3c-0.2-0.6-0.8-1.4-0.8-1.4s0.8,0.4,1.1,0.6s0.4,0.5,0.7,0.5c0.2,0,0.6,0.1,0.9-0.1
		c0.3-0.1,0.1-0.3,0.5-0.6L42,8.7l0.7-1.1C42.7,7.5,43.6,7.2,43.3,6.6L43.3,6.6z"/>
	<polygon class="st40" points="27.8,37.1 27.6,36.9 27.5,37 27.7,37.2 	"/>
</g>
</svg>
