<?xml version="1.0" encoding="utf-8"?>
<!-- Generator: Adobe Illustrator 28.3.0, SVG Export Plug-In . SVG Version: 6.00 Build 0)  -->
<svg version="1.1" id="Layer_2_00000132784409796531445760000000913935888260518274_"
	 xmlns="http://www.w3.org/2000/svg" xmlns:xlink="http://www.w3.org/1999/xlink" x="0px" y="0px" viewBox="0 0 93.5 68.7"
	 style="enable-background:new 0 0 93.5 68.7;" xml:space="preserve">
<style type="text/css">
	.st0{fill:#FFFFFF;}
	.st1{fill:#77684E;}
	.st2{fill:url(#SVGID_1_);}
	.st3{fill:#A69270;}
	.st4{fill:url(#SVGID_00000037675956365926262230000003766438589587095425_);}
	.st5{fill:url(#SVGID_00000155145529574552890020000000058441025664077728_);}
	.st6{fill:url(#SVGID_00000038387192845969056710000017234363317365253814_);}
	.st7{fill:url(#SVGID_00000113347363173912973920000000690454635096811146_);}
	.st8{fill:url(#SVGID_00000075160514152391312910000009298851171348202389_);}
	.st9{fill:url(#SVGID_00000065795178567732407190000001732411278553755574_);}
	.st10{fill:url(#SVGID_00000114049378060974603730000016482283654238610849_);}
	.st11{fill:url(#SVGID_00000132067182130958547120000014930615807398094489_);}
	.st12{fill:url(#SVGID_00000168082635573845527070000004909363676907710142_);}
	.st13{fill:url(#SVGID_00000104694717593568085140000001998289039681509532_);}
	.st14{fill:url(#SVGID_00000179644137750994321090000013919216552028266385_);}
	.st15{fill:url(#SVGID_00000123402169547341588030000011563540604122988929_);}
	.st16{fill:url(#SVGID_00000076583400291880103190000007819715972302587787_);}
	.st17{fill:url(#SVGID_00000107579041859303122480000017080758394306178707_);}
	.st18{fill:#A08D6B;}
	.st19{fill:url(#SVGID_00000142891166667075255930000004479194287802502296_);}
	.st20{fill:url(#SVGID_00000003786243651770055370000008170855059715076268_);}
	.st21{fill:url(#SVGID_00000173844363862737931790000007278839317341750169_);}
	.st22{fill:url(#SVGID_00000026868765508641160220000012198625254064058501_);}
	.st23{fill:#D4BA8D;}
	.st24{opacity:0.63;fill:#D4BA8D;enable-background:new    ;}
	.st25{fill:#584C37;}
	.st26{fill:url(#SVGID_00000011020112208379617730000013895324466954793903_);}
	.st27{fill:url(#SVGID_00000082342440797410292050000006962650798445658526_);}
	.st28{fill:#DFC394;}
	.st29{fill:#A89471;}
	.st30{fill:#B9A27C;}
	.st31{fill:#E3C696;}
	.st32{fill:#B29D78;}
	.st33{fill:#6B5D46;}
	.st34{fill:#AA9672;}
	.st35{fill:#6C5735;}
	.st36{fill:#6F6149;}
	.st37{fill:#675A43;}
	.st38{fill:#4A3A1E;}
	.st39{fill:url(#SVGID_00000056385940345026933490000016272604794168940175_);}
	.st40{fill:#636466;}
</style>
<g id="Layer_1-2">
	<rect x="0" y="0" class="st0" width="93.5" height="68.7"/>
	<path class="st1" d="M8.3,4.8c0,0-5.5,2.8-6,3.2S3,10.8,3,10.8l0.1,1c0,0,0,0.9-0.3,1.3c-0.2,0.4-0.6,0.2-0.5,1s0.5,1.5,0.5,1.5
		L5.2,16l-1.9,0.5L3.1,18h1c0,0,1.4,0.6,0.6,0.9s-0.9-0.4-0.8,0.2c0.1,0.6,0.5,1.1,0.5,1.1l0.4,0.5l0.4-0.2h0.5c0,0,0.9-0.5,1.2,0
		C7.2,21,7.7,21,7.4,21.4C7.1,21.8,6.6,22,6.6,22l0.1,0.5l-1.2,0.2c0,0,0,0.2,0.3,0.8c0.3,0.5,0.3,0.8,0.7,0.9s1.9,0.1,1.9,0.1
		s0.3,0.1,0.3,0.5c0,0.4,0.6,0.5,0.6,0.5l0.3,1.1c0.5,1.1,0.5,1.2,0.5,1.7S9,28.4,8.7,29.2c-0.3,0.8-0.6,0.5-0.5,1.4
		c0.1,0.9,0.4,1.7,0.4,1.7s0.1,0.2-0.5,0.5c-0.6,0.2-1,0.8-1.4,0.2c-0.4-0.5-0.9-0.6-1.4-0.9c-0.5-0.2-1-0.8-1-0.8l-0.8,0.9l-0.1,7
		l0.9,1.7c0,0,0.2,0.5,0.2,1.3c0,0.8-0.4,3.2-0.4,3.2l-1.5,0.2l-0.1,3.3H4l0.3,2.7c0,0,0.6,1.8,0.2,2.5c-0.4,0.8-1.2,1.2-1.2,1.2
		s-0.2,0.6,0,1c0.3,0.4-1,2.5-1,2.5s4.9,6.1,5.4,6.5c0.5,0.4,4.9-0.2,4.9-0.2s2.5-1.2,3.1-0.8c0.4,0.3,0.8,0.4,1.2,0.4
		c0.5,0,0.9-0.8,0.9-0.8l0.8-0.6c0,0,0.3,0.1,0.8,0.8c0.5,0.6-0.1,0.5,0.5,0.6c0.6,0.1,1,0.1,1,0.1l0.5-2.5l0.4,1.9l0.6-2.5l0.5,3
		c0,0,1.5-0.5,2.2-0.4c0.6,0.1,0.5,0.1,2.3,0.1l5.6,0c0,0,1.7-1.1,2.4-1.1s4.6,0.6,4.6,0.6l1,1.3h4.2c0,0,2.3,0.1,3.1,0.1
		s1.2-0.8,1.2-0.8s-0.1-0.5,0.4-0.2c0.5,0.2,0.5,0.1,1.2,0.4c0.6,0.2,1.2-0.2,3.6,0c2.4,0.2,5.4-0.9,5.4-0.9l0.8-1.3l1.5,0.4
		l0.5,1.1l3.7,0.4c0,0,1.7-0.2,2.6,0.2s2,0.7,2,0.7l0.8-1.4l1,0.4c0,0,0.4-1.4,0.5-1.9c0.1-0.5,0.9,0.1,0.9,0.5v0.3
		c0,0,0.5,0.4,1.2,0.1s1.3-0.5,1.3-0.5s0-1.9,0.5-1.5s1.3,0.9,1.3,0.9l0.4,0.5l1.7,2.4l3.8-0.5c0,0,0.6,0.5,1.4,0.5
		c0.8,0,1.7,0,1.7,0.4c0,0.4,0.8,0.6,1.3,0.6c0.5-0.1,1.6-0.8,1.6-0.8l0.3-3.7l-1.3-0.9c0,0,0.6-0.2,0.8-0.6c0.2-0.4,0.5-0.4,0.2-1
		c-0.2-0.6-0.5-1.3-0.5-1.9s-0.3-1.5,0-2c0.2-0.5,0.8-1.1,0.4-1.7c-0.4-0.5-1.3-0.9-0.8-1.7c0.5-0.8,1-2,1-2s-1.3-2-1.7-2
		s-0.4-0.9,0-0.9s0.6-0.5,0.6-0.5L89.1,46h-0.6c0,0-0.6,0.6-0.6,0c0-0.6,0.2-1,0.2-1s0,0.2,0.5,0s-0.3-0.2,0.5-0.2h0.8
		c0,0,0.4-0.6,0.4-1.8l0-3.2L89,39.6l1.2-0.5l-1.8-1.4l1.9,0.3l0.1-7.7L89.2,28h-0.6l0.6-1.8c0,0,1,0,1-0.5s0-3.4,0.1-4
		s-0.1-2.5-0.1-2.5l0.4-4.8l-1.7-0.8l-0.5,0.9h-0.8l0.6-2.3l0.6-0.8l0.9-0.5l0.4-1l-0.8-1l1-2.8l-3.2-2.2c0,0-1.2,0.5-1.7,0.8
		C85,5,84.1,5.3,84.1,5.3l-0.9-1.5l-1.3,0.4c0,0-0.6,0.5-1.2,0.8c-0.6,0.3-1.3,1-3.3,0c-2.1-1-1.4-2.2-3.2-1.7
		C72.4,3.8,72,3.8,72,3.8S69.8,4,69.8,4.4v1.1L69.2,4l-0.4-0.5c0,0-1.3,0.1-2.3,0.1c-1,0-3.1-0.2-3.1-0.2l0.1,1.4c0,0,0,0.8-0.6,0.2
		s-0.8-1.5-0.8-1.5s0,0.1-0.8,0.2C60.5,3.8,59,3.8,59,3.8l-2,2.5l0.5-2l-7-0.5l0.2,2.3l-1.5-1.7l-9.3-1.3l-1.2,3.5l0.8-3
		c0,0-3.5-0.1-3.9,0.2s-0.4,0.6-0.4,0.6s1.2,0.5-0.6,0.5S33.3,5,31.8,4.3C30.3,3.5,30,3,29.5,3.7c-0.5,0.6-0.8,1-1.4,1.4
		c-0.6,0.4-0.4,0.4-1.8,0.4s-1.4-0.2-3.5-0.2c-2.1,0-2.7,0.5-2.7,0.5l-1.2-2.3L9.6,3.7L8.3,4.8L8.3,4.8z"/>
	
		<linearGradient id="SVGID_1_" gradientUnits="userSpaceOnUse" x1="109.9245" y1="35.2628" x2="108.9045" y2="-53.4472" gradientTransform="matrix(1 0 0 1 -63.3062 28.818)">
		<stop  offset="0" style="stop-color:#FFDEA7"/>
		<stop  offset="9.000000e-02" style="stop-color:#FFE0AB"/>
		<stop  offset="0.42" style="stop-color:#FFEAB9"/>
		<stop  offset="0.66" style="stop-color:#EED8A9"/>
		<stop  offset="1" style="stop-color:#DCC498"/>
	</linearGradient>
	<path class="st2" d="M8.1,4.3c0,0-5.5,2.8-6,3.2c-0.5,0.4,0,2.6,0,2.6l0.8,1.2c0,0,0,0.9-0.2,1.3c-0.2,0.4-0.6,0.2-0.5,1
		s0.5,1.5,0.5,1.5l2.4,0.4L3.2,16L3,17.6h1c0,0,1.4,0.6,0.6,0.9s-0.9-0.4-0.8,0.2c0.1,0.6,0.5,1.1,0.5,1.1l0.4,0.5L5.1,20h0.5
		c0,0,0.9-0.5,1.2,0c0.2,0.5,0.8,0.5,0.5,0.9c-0.2,0.4-0.8,0.6-0.8,0.6L6.6,22l-1.1,0.3c0,0,0,0.2,0.2,0.8c0.2,0.5,0.2,0.8,0.6,0.9
		c0.4,0.1,1.9,0.1,1.9,0.1s0.2,0.1,0.2,0.5c0,0.4,0.4,1.1,0.4,1.1l0.6,0.5c0.4,1,0.4,1.2,0.4,1.7c0,0.5-1.1,0.1-1.4,0.9
		c-0.2,0.8-0.6,0.5-0.5,1.4c0.1,0.9,0.4,1.6,0.4,1.6s0.2,0.2-0.4,0.5c-0.6,0.2-1,0.8-1.4,0.2c-0.4-0.6-0.9-0.6-1.4-0.9s-1-0.8-1-0.8
		l-0.8,0.9l-0.1,6.9l0.9,1.7c0,0,0.2,0.5,0.2,1.3c0,0.8-0.4,3.3-0.4,3.3l-1.5,0.2l-0.1,3.3h1.5l0.3,2.7c0,0,0.6,1.8,0.2,2.5
		c-0.4,0.8-1.2,1.1-1.2,1.1s-0.2,0.6,0,1c0.2,0.4-0.8,3-0.8,3s4.7,5.7,5.2,6c0.5,0.4,4.8-0.2,4.8-0.2s2.6-1.1,3.2-0.8
		c0.4,0.3,0.8,0.4,1.1,0.4c0.5,0,0.9-0.8,0.9-0.8l0.8-0.6c0,0,0.2,0.1,0.8,0.8c0.5,0.6-0.1,0.5,0.5,0.6c0.6,0.1,1,0.1,1,0.1l0.5-2.5
		l0.4,1.9l0.6-2.5l0.5,3c0,0,1.5-0.5,2.2-0.4c0.6,0.1,0.5,0.1,2.3,0.1l5.6,0c0,0,1.7-1.1,2.4-1.1s4.6,0.6,4.6,0.6l1,1.3l4.2,0
		c0,0,2.3,0.1,3.1,0.1s1.2-0.8,1.2-0.8s-0.1-0.5,0.4-0.2c0.5,0.3,0.5,0.2,1.1,0.4c0.6,0.2,1.2-0.2,3.6,0c2.4,0.2,5.3-0.9,5.3-0.9
		l0.8-1.3l1.5,0.4l0.5,1.1l3.7,0.5c0,0,1.7-0.2,2.6,0.2c0.9,0.5,2.2,0.6,2.2,0.6l0.8-1.4l1,0.4c0,0,0.4-1.4,0.5-1.9
		c0.1-0.5,0.9,0.1,0.9,0.5v0.4c0,0,0.5,0.4,1.2,0.1s1.3-0.5,1.3-0.5s0-1.9,0.5-1.5s1.3,0.9,1.3,0.9l0.4,0.5l1.7,2.4l3.6-0.5
		c0,0,0.6,0.5,1.4,0.5c0.8,0,1.7,0,1.7,0.4c0,0.4,0.8,0.6,1.3,0.6s1.6-0.8,1.6-0.8l0.2-3.7l-1.2-0.9c0,0,0.6-0.2,0.8-0.6
		c0.1-0.4,0.5-0.4,0.3-1c-0.3-0.6-0.5-1.3-0.5-1.9s-0.3-1.5,0-2c0.2-0.5,0.8-1.1,0.4-1.6s-1.3-0.9-0.8-1.6c0.5-0.8,1-2,1-2
		s-1.3-2-1.7-2s-0.4-0.9,0-0.9s0.6-0.5,0.6-0.5l-0.5-0.4h-0.6c0,0-0.6,0.6-0.6,0c0-0.6,0.3-1,0.3-1s0,0.2,0.5,0s-0.2-0.2,0.5-0.2
		h0.8c0,0,0.4-0.6,0.4-1.8l0-3.2l-1.3-0.2l1.2-0.5l-1.8-1.4l1.9,0.3l0.1-7.7l-1.2-2.3h-0.6l0.6-1.8c0,0,1,0,1-0.5s0-3.4,0.1-4
		s-0.1-2.5-0.1-2.5l0.4-4.8l-1.7-0.8l-0.5,0.8h-0.8l0.6-2.3l0.6-0.8l0.9-0.5l0.4-1l-0.8-1l1-2.8l-3.2-2.2c0,0-1.2,0.5-1.7,0.8
		c-0.5,0.3-1.4,0.5-1.4,0.5l-0.9-1.5l-1.3,0.4c0,0-0.6,0.5-1.2,0.8c-0.5,0.2-1.3,1-3.3,0s-1.4-2.1-3.2-1.6c-1.8,0.5-2.2,0.5-2.2,0.5
		S69.4,3.6,69.4,4v1.1l-0.6-1.5l-0.4-0.5c0,0-1.3,0.1-2.3,0.1S63,3,63,3l0.1,1.4c0,0,0,0.8-0.6,0.2c-0.6-0.5-0.8-1.5-0.8-1.5
		s0,0.1-0.8,0.3c-0.8,0.1-2.3,0.1-2.3,0.1l-2,2.5l0.5-2l-7-0.5l0.3,2.3l-1.5-1.6l-9.3-1.3l-1.2,3.5L38.3,3c0,0-2.5,0.4-2.9,0.6
		c-0.4,0.2-0.2,0.7-0.2,0.7s1.2,0.5-0.6,0.5s-1.3,0.1-2.8-0.6c-1.5-0.8-1.8-1.3-2.3-0.6c-0.5,0.7-0.8,1-1.4,1.4
		c-0.7,0.3-0.4,0.3-1.8,0.3s-1.4-0.2-3.4-0.2c-2,0-2.9,0.4-2.9,0.4l-1.2-2.3L9.5,3.4L8.1,4.3L8.1,4.3z"/>
	<path class="st3" d="M6.9,32.7c0,0,1.2,0.1,1.7,0.1s0.9-0.5,0.9-0.5l-0.4-0.1c0,0,0.1-0.2,0.2-0.4c0.1-0.2,0.2-0.4,0.2-0.4v-0.2
		c0,0,0.4-0.6,0.1-0.8c-0.3-0.1-0.3-0.2-0.5-0.3c-0.2-0.1-1-0.1-1-0.1S8.6,32.5,6.9,32.7L6.9,32.7z"/>
	
		<linearGradient id="SVGID_00000072991504946885426150000009197107964817774498_" gradientUnits="userSpaceOnUse" x1="73.3002" y1="2.4088" x2="70.7502" y2="1.9688" gradientTransform="matrix(1 0 0 1 -63.3062 28.818)">
		<stop  offset="0" style="stop-color:#FFDEA7"/>
		<stop  offset="0.13" style="stop-color:#F8D8A3"/>
		<stop  offset="0.3" style="stop-color:#E6CA99"/>
		<stop  offset="0.5" style="stop-color:#C9B188"/>
		<stop  offset="0.6" style="stop-color:#B9A47F"/>
		<stop  offset="0.75" style="stop-color:#FFEAB9"/>
	</linearGradient>
	<path style="fill:url(#SVGID_00000072991504946885426150000009197107964817774498_);" d="M8.2,29.7c0,0,0.6-0.3,0.9-0.3
		s0.9-0.5,0.9,0v0.8l-0.4,0.3l0.3,0.3c0,0-0.9,0.1-0.9,0.5s0.5,0.6,0,0.8s-1.2,0.4-1.2,0.4l-1,0.2c0,0,0.8,0.2,1-1
		C8.1,30.6,8.2,29.7,8.2,29.7L8.2,29.7z"/>
	
		<linearGradient id="SVGID_00000070800468746249181310000006203948981335912351_" gradientUnits="userSpaceOnUse" x1="68.4903" y1="-12.5871" x2="68.4903" y2="-15.9471" gradientTransform="matrix(1 0 0 1 -63.3062 28.818)">
		<stop  offset="0" style="stop-color:#FFDEA7"/>
		<stop  offset="9.000000e-02" style="stop-color:#FFECCD"/>
		<stop  offset="0.19" style="stop-color:#FFF9F1"/>
		<stop  offset="0.24" style="stop-color:#FFFFFF"/>
		<stop  offset="0.43" style="stop-color:#FFEAB9"/>
		<stop  offset="0.69" style="stop-color:#F4DEAF"/>
		<stop  offset="1" style="stop-color:#E3CC9F"/>
	</linearGradient>
	<path style="fill:url(#SVGID_00000070800468746249181310000006203948981335912351_);" d="M2.7,15.1l2.2,0.3c0,0,2.2-0.2,3-0.2
		s-5.6-1.5-5.5-2.1S2.7,15.1,2.7,15.1z"/>
	
		<linearGradient id="SVGID_00000006679689348171875540000014098727619150536338_" gradientUnits="userSpaceOnUse" x1="69.936" y1="-11.4155" x2="68.496" y2="-14.5555" gradientTransform="matrix(1 0 0 1 -63.3062 28.818)">
		<stop  offset="0.25" style="stop-color:#F5DEAF"/>
		<stop  offset="1" style="stop-color:#A49270"/>
	</linearGradient>
	<path style="fill:url(#SVGID_00000006679689348171875540000014098727619150536338_);" d="M3,17.5l0.2-1.6c0,0,3.6-1.2,5.8-0.6
		C11.2,15.9,5.2,17.6,3,17.5z"/>
	
		<linearGradient id="SVGID_00000084506070145059761360000009097790734363109521_" gradientUnits="userSpaceOnUse" x1="100.1562" y1="35.7829" x2="100.1562" y2="32.7529" gradientTransform="matrix(1 0 0 1 -63.3062 28.818)">
		<stop  offset="0.63" style="stop-color:#CEB78C"/>
		<stop  offset="0.94" style="stop-color:#FFEAB9"/>
	</linearGradient>
	<path style="fill:url(#SVGID_00000084506070145059761360000009097790734363109521_);" d="M32.9,63.7c0,0,1.5-1.3,1.9-1.6
		c0.3-0.2,1-0.4,1.2-0.4s0.1-0.1,0.7,0c0.6,0.1,0.8,0,1.5,0s1.5-0.2,1.5-0.2s0,0.2-0.1,0.4s-0.3,0.4-0.3,0.4s0.3,0.3,0.5,0.1
		c0.2-0.1,0.3-0.2,0.5-0.3s0.5-0.1,0.5-0.1l-1,1.3c0,0-3.3-0.6-4-0.4C35.1,63.2,32.9,63.7,32.9,63.7L32.9,63.7z"/>
	
		<linearGradient id="SVGID_00000131361116986762163080000001007160744735811992_" gradientUnits="userSpaceOnUse" x1="105.2748" y1="-21.7897" x2="101.0148" y2="-25.5397" gradientTransform="matrix(1 0 0 1 -63.3062 28.818)">
		<stop  offset="0.34" style="stop-color:#EBD5A7"/>
		<stop  offset="1" style="stop-color:#A49270"/>
	</linearGradient>
	<path style="fill:url(#SVGID_00000131361116986762163080000001007160744735811992_);" d="M39.8,2.8l-1.1,3.5l-0.1,1.9
		c0,0,0.9-1.5,2.7-2.3C43.2,5.2,45.3,3.7,39.8,2.8L39.8,2.8z"/>
	
		<linearGradient id="SVGID_00000124137944368345497870000014107756244219039163_" gradientUnits="userSpaceOnUse" x1="110.2662" y1="-24.686" x2="114.2862" y2="-24.176" gradientTransform="matrix(1 0 0 1 -63.3062 28.818)">
		<stop  offset="0" style="stop-color:#FFDEA7"/>
		<stop  offset="8.000000e-02" style="stop-color:#FFE0AB"/>
		<stop  offset="0.38" style="stop-color:#FFEAB9"/>
		<stop  offset="0.52" style="stop-color:#E1CB9D"/>
		<stop  offset="0.63" style="stop-color:#CEB78C"/>
		<stop  offset="0.75" style="stop-color:#AA9775"/>
		<stop  offset="1" style="stop-color:#E9D2A4"/>
	</linearGradient>
	<path style="fill:url(#SVGID_00000124137944368345497870000014107756244219039163_);" d="M50.4,3.4l0.4,2.4L53.1,4
		C53.1,4,53.4,3.7,50.4,3.4L50.4,3.4z"/>
	
		<linearGradient id="SVGID_00000020369286978525211250000001682496252798322328_" gradientUnits="userSpaceOnUse" x1="131.7067" y1="-23.9963" x2="133.9967" y2="-23.7463" gradientTransform="matrix(1 0 0 1 -63.3062 28.818)">
		<stop  offset="0.3" style="stop-color:#AA9775"/>
		<stop  offset="0.47" style="stop-color:#B3A07C"/>
		<stop  offset="0.76" style="stop-color:#CEB990"/>
		<stop  offset="1" style="stop-color:#E9D2A4"/>
	</linearGradient>
	<path style="fill:url(#SVGID_00000020369286978525211250000001682496252798322328_);" d="M69.6,3.9V7l2.7-3.8
		C72.4,3.3,70,3,69.6,3.9z"/>
	
		<linearGradient id="SVGID_00000087378637914354041120000008223983876852688782_" gradientUnits="userSpaceOnUse" x1="149.5636" y1="-2.8583" x2="151.7036" y2="-2.6183" gradientTransform="matrix(1 0 0 1 -63.3062 28.818)">
		<stop  offset="0.3" style="stop-color:#AA9775"/>
		<stop  offset="0.47" style="stop-color:#B3A07C"/>
		<stop  offset="0.76" style="stop-color:#CEB990"/>
		<stop  offset="1" style="stop-color:#E9D2A4"/>
	</linearGradient>
	<path style="fill:url(#SVGID_00000087378637914354041120000008223983876852688782_);" d="M89.9,25.3l-0.4-0.5l-0.9,0.4
		c-1,0.2-1.3,0.6-1.3,0.6v1.8h0.9l0.6-0.9l0.4-0.4L89.9,25.3L89.9,25.3z"/>
	
		<linearGradient id="SVGID_00000070097537195541560620000015425438597558067129_" gradientUnits="userSpaceOnUse" x1="149.1107" y1="15.628" x2="150.8707" y2="15.828" gradientTransform="matrix(1 0 0 1 -63.3062 28.818)">
		<stop  offset="0.3" style="stop-color:#AA9775"/>
		<stop  offset="0.47" style="stop-color:#B3A07C"/>
		<stop  offset="0.76" style="stop-color:#CEB990"/>
		<stop  offset="1" style="stop-color:#E9D2A4"/>
	</linearGradient>
	<path style="fill:url(#SVGID_00000070097537195541560620000015425438597558067129_);" d="M88.7,44.2l-0.6-0.5c0,0,0.1,0.4-0.2,0.5
		c-0.4,0.1,0.2-0.2-0.4,0.1c-0.6,0.4-0.9,1-0.9,1l0.5,0.3C87.1,45.6,87.5,44.7,88.7,44.2L88.7,44.2z"/>
	
		<linearGradient id="SVGID_00000131356938782259754860000009139771039841477770_" gradientUnits="userSpaceOnUse" x1="148.5848" y1="-17.1889" x2="151.2248" y2="-16.8989" gradientTransform="matrix(1 0 0 1 -63.3062 28.818)">
		<stop  offset="0.3" style="stop-color:#AA9775"/>
		<stop  offset="0.47" style="stop-color:#B3A07C"/>
		<stop  offset="0.76" style="stop-color:#CEB990"/>
		<stop  offset="1" style="stop-color:#E9D2A4"/>
	</linearGradient>
	<path style="fill:url(#SVGID_00000131356938782259754860000009139771039841477770_);" d="M89.9,9.5l-0.8,0.3l-0.6,0.1l0,0
		c0,0-1.4,0-1.2,0.3s0.4,0.3,0.4,0.7c0,0.3,0,0.4-0.3,0.6c-0.3,0.2-0.8,0.3-0.8,0.3s0.1-0.3,0.2,0.6c0.1,0.9-0.2,1.4-0.2,1.4
		s-0.3,0-0.3,0.2s0.2,0.4,0.2,0.4l0.8-0.4c0,0,1.4-2.2,1.7-2.4C89.3,11.5,89.9,9.5,89.9,9.5L89.9,9.5z"/>
	
		<linearGradient id="SVGID_00000060027555435219015550000000192380820934405557_" gradientUnits="userSpaceOnUse" x1="151.4182" y1="21.6103" x2="152.6982" y2="21.7503" gradientTransform="matrix(1 0 0 1 -63.3062 28.818)">
		<stop  offset="0.3" style="stop-color:#AA9775"/>
		<stop  offset="0.47" style="stop-color:#B3A07C"/>
		<stop  offset="0.76" style="stop-color:#CEB990"/>
		<stop  offset="1" style="stop-color:#E9D2A4"/>
	</linearGradient>
	<path style="fill:url(#SVGID_00000060027555435219015550000000192380820934405557_);" d="M90.3,49.3c0,0,0,0.5-0.5,0.5
		c-0.4,0.1-0.8,0.1-0.8,0.1l0.1,0.4v0.2l-0.4,0.3l0.1,0.3l0.3,0.8C89,52,90.7,49.9,90.3,49.3z"/>
	
		<linearGradient id="SVGID_00000132788000097417800790000015308536192233454774_" gradientUnits="userSpaceOnUse" x1="151.4387" y1="27.0064" x2="152.9587" y2="27.1764" gradientTransform="matrix(1 0 0 1 -63.3062 28.818)">
		<stop  offset="0.3" style="stop-color:#AA9775"/>
		<stop  offset="0.47" style="stop-color:#B3A07C"/>
		<stop  offset="0.76" style="stop-color:#CEB990"/>
		<stop  offset="1" style="stop-color:#E9D2A4"/>
	</linearGradient>
	<path style="fill:url(#SVGID_00000132788000097417800790000015308536192233454774_);" d="M90.1,53.2c0,0,0.2,0.8-0.3,0.9
		c-0.4,0.1-0.8,0-0.8,0.3c0,0.3,0.1,0.4,0.2,0.8c0.1,0.3,0.3,0.8,0.3,0.8s-0.2,0.1-0.3,0.3L89,56.5v0.4l0.5,0.4c0,0,0.4,0.3,0.4,0.6
		c0,0.3,0.3,1,0.3,1S90.5,54.3,90.1,53.2L90.1,53.2z"/>
	
		<linearGradient id="SVGID_00000098942954576529597020000010894453569880875945_" gradientUnits="userSpaceOnUse" x1="95.9119" y1="156.902" x2="96.3919" y2="155.282" gradientTransform="matrix(1.0342 -0.1094 9.996128e-02 0.9447 -53.4668 -75.2438)">
		<stop  offset="0.3" style="stop-color:#AA9775"/>
		<stop  offset="0.47" style="stop-color:#B3A07C"/>
		<stop  offset="0.76" style="stop-color:#CEB990"/>
		<stop  offset="1" style="stop-color:#E9D2A4"/>
	</linearGradient>
	<path style="fill:url(#SVGID_00000098942954576529597020000010894453569880875945_);" d="M60.4,62l-0.1-1l0.8,0.2l0.4,0.4l0.4-0.3
		l0.5,0.2h0.3l0.3,0.2c0,0-0.8,0.4-1,0.6C61.7,62.5,60.9,62.1,60.4,62L60.4,62z"/>
	
		<linearGradient id="SVGID_00000028321845194381995650000008039988690164037809_" gradientUnits="userSpaceOnUse" x1="114.2163" y1="35.7614" x2="114.5663" y2="34.5514" gradientTransform="matrix(1 0 0 1 -63.3062 28.818)">
		<stop  offset="0.3" style="stop-color:#AA9775"/>
		<stop  offset="0.47" style="stop-color:#B3A07C"/>
		<stop  offset="0.76" style="stop-color:#CEB990"/>
		<stop  offset="1" style="stop-color:#E9D2A4"/>
	</linearGradient>
	<path style="fill:url(#SVGID_00000028321845194381995650000008039988690164037809_);" d="M49.3,63.6l0.8-0.4l0.6,0.6l0.7,0.1H53
		C53,63.9,51.2,64.7,49.3,63.6L49.3,63.6z"/>
	<path class="st3" d="M9.1,28.6c0,0,0.9-0.4,1.1-0.3c0.3,0,0.5,0.1,0.5-0.1s-0.3-0.6-0.3-0.8s0.3-0.3,0.4-0.4
		c0.1-0.1,0.3-0.3,0.3-0.3l-0.5-0.4l-0.3-0.1v-0.6c0,0-0.5-0.5-0.7-0.5S8.9,25.5,9,25.5S10.7,26.6,9.1,28.6L9.1,28.6z"/>
	<path class="st18" d="M20.1,5.7c0,0,0.6,0.2,0.6,0.7c0,0.4,0.2,1.2,0.2,1.2l0.5-0.3l0.1-0.4L21.8,7l0.4,0.4L23,7
		c0,0-0.6-0.7,0.2-0.5C24,6.8,24.5,6.7,24.7,7s0.7,0.4,0.8,0.2c0.1-0.3,0.2-0.5,0.4-0.5s0.4-0.3,0.7-0.3l1,0c0,0,0.8-0.7,1.1-1.3
		c0.3-0.6-0.6,0.4-2.3,0.2C24.7,4.8,20.8,3.6,20.1,5.7z"/>
	
		<linearGradient id="SVGID_00000057143455541897016220000003296413168561095328_" gradientUnits="userSpaceOnUse" x1="100.0291" y1="-23.0209" x2="102.2091" y2="-24.0709" gradientTransform="matrix(1 0 0 1 -63.3062 28.818)">
		<stop  offset="3.000000e-02" style="stop-color:#E8D3A7"/>
		<stop  offset="0.42" style="stop-color:#F5DEAF"/>
		<stop  offset="0.8" style="stop-color:#F9EBD0"/>
	</linearGradient>
	<path style="fill:url(#SVGID_00000057143455541897016220000003296413168561095328_);" d="M38.8,2.9c0,0-0.1,3.1,0,4.5
		c0,1.4-2.9-4-2.9-4S38.8,2.2,38.8,2.9z"/>
	
		<linearGradient id="SVGID_00000079476259397114406490000005695936541220049538_" gradientUnits="userSpaceOnUse" x1="128.0914" y1="-23.0347" x2="133.2413" y2="-23.0347" gradientTransform="matrix(1 0 0 1 -63.3062 28.818)">
		<stop  offset="3.000000e-02" style="stop-color:#E8D3A7"/>
		<stop  offset="0.42" style="stop-color:#F5DEAF"/>
		<stop  offset="0.8" style="stop-color:#F9EBD0"/>
	</linearGradient>
	<path style="fill:url(#SVGID_00000079476259397114406490000005695936541220049538_);" d="M68.6,3.1c0,0,1.1,1.9,1.3,2.3
		c0.2,0.4-0.2,1.7-0.2,1.7l-0.2,1.5l-4.7-5.5C64.8,3.1,68.7,2.8,68.6,3.1z"/>
	
		<linearGradient id="SVGID_00000083063713242716180620000001323279003178366866_" gradientUnits="userSpaceOnUse" x1="73.8222" y1="-18.3062" x2="64.2622" y2="-25.1162" gradientTransform="matrix(1 0 0 1 -63.3062 28.818)">
		<stop  offset="0.24" style="stop-color:#F2D8A8"/>
		<stop  offset="0.34" style="stop-color:#EBD2A3"/>
		<stop  offset="0.47" style="stop-color:#D9C195"/>
		<stop  offset="0.53" style="stop-color:#CEB78C"/>
		<stop  offset="0.75" style="stop-color:#655943"/>
		<stop  offset="0.91" style="stop-color:#E9D2A4"/>
	</linearGradient>
	<path style="fill:url(#SVGID_00000083063713242716180620000001323279003178366866_);" d="M3,11.3c0,0,0.1,1,2.7,1.1
		c2.7,0.1,3.8-9,3.8-9L2.8,6.8C2.8,6.7,1.1,8.9,3,11.3L3,11.3z"/>
	
		<linearGradient id="SVGID_00000008150831861963200490000002667173891633313199_" gradientUnits="userSpaceOnUse" x1="87.6643" y1="-24.5884" x2="87.9243" y2="-21.8684" gradientTransform="matrix(1 0 0 1 -63.3062 28.818)">
		<stop  offset="0" style="stop-color:#F9EBD0"/>
		<stop  offset="0.1" style="stop-color:#F5DEAF"/>
		<stop  offset="0.6" style="stop-color:#C3AF89"/>
		<stop  offset="0.96" style="stop-color:#F9EBD0"/>
	</linearGradient>
	<path style="fill:url(#SVGID_00000008150831861963200490000002667173891633313199_);" d="M20,5.4c0,0,0.7,0.2,0.7,0.6
		c0,0.4,0.2,1.1,0.2,1.1l0.5-0.2l0.1-0.4l0.3,0.1l0.4,0.3l0.9-0.4c0,0-0.6-0.7,0.2-0.4s1.4,0.2,1.5,0.4s0.7,0.4,0.8,0.2
		s0.2-0.5,0.4-0.5S26.4,6,26.7,6l1,0c0,0,0.8-0.7,1.1-1.3S28.2,5,26.5,4.9C24.7,4.6,20.8,3.4,20,5.4L20,5.4z"/>
	<g>
		<path class="st23" d="M33.4,7.8C33.4,6.6,33.4,7.8,33.4,7.8L33.4,7.8z"/>
		<path class="st23" d="M14.9,7.4c-0.2-0.5,0.2,0.4-0.2,0c-0.3-0.3-0.1-0.1-0.1,0.4h0.5C15.1,7.7,15.1,7.7,14.9,7.4L14.9,7.4z"/>
		<path class="st23" d="M19.8,7.8l0.5,0C20.1,7.8,19.9,7.7,19.8,7.8z"/>
		<path class="st24" d="M35.4,12.4c0.1-0.1,0.1-0.1,0.1-0.2C35.5,12.3,35.4,12.4,35.4,12.4z"/>
		<path class="st24" d="M38.8,16.5L38.8,16.5L38.8,16.5z"/>
		<path class="st23" d="M34.3,12.6C33.8,12.7,34.1,12.6,34.3,12.6L34.3,12.6z"/>
		<path class="st24" d="M34.3,12.6C33.8,12.7,34.1,12.6,34.3,12.6L34.3,12.6z"/>
		<path class="st23" d="M11.8,16.6C11.8,17,11.9,16.7,11.8,16.6L11.8,16.6z"/>
		<path class="st24" d="M11.8,16.6C11.8,17,11.9,16.7,11.8,16.6L11.8,16.6z"/>
		<path class="st23" d="M8,16.7c0,0,0.4-0.1,0.5,0.1c0.1,0.2-0.1,0.6-0.1,0.6s-0.4,0-0.3,0.2c0.2,0.2,0.2,0.1,0.3,0.2
			c0.1,0.1,0,0.2,0.2,0.2c0.1,0.1,0,0.5,0.2,0C9,17.4,8.9,17.5,9,17.4c0.4-0.1,0.4,0.6,0.4-0.1c0-0.7-0.1-0.5,0-0.7
			c0.1-0.3-0.6,0.1,0.1-0.3c0.7-0.3,0.3-0.6,0.7-0.3s0.2-0.6,0.3,0.2c0.1,0.7-0.2,0.6,0.2,0.9c0.4,0.3,0.1-0.1,0.4,0.3l0.3,0.4
			l0.3,0.4h0.2l0.2-0.1c0,0,0.2,0.2,0.2,0.3s0,0.3,0.1,0.4c0.1,0,0.2,0.2,0.2-0.1s-0.2-0.1,0-0.3c0.2-0.1,0.2,0.1,0.2-0.1
			c0-0.2,0.6,0.5,0-0.2s-0.1,0.1-0.6-0.7c-0.5-0.8-0.6-0.5-0.5-0.8c0-0.1,0-0.1,0,0c0,0,0-0.1,0-0.2c0.1-0.8,0.3-0.3,0.1-0.7
			s-0.1-0.1-0.3-0.7c-0.2-0.5-0.3,0.1-0.2-0.5c0-0.6,0.6,0,0-0.6c-0.5-0.5-0.2-0.1-0.4-0.4c-0.2-0.3-0.3-0.5-0.3-0.6s0-0.6-0.3-0.8
			s-0.6-0.5-0.6-0.8c-0.1-0.2-0.2,0.1-0.1-0.2l0.2-0.4c0,0,0.2,0,0.4,0.2c0.3,0.2-0.4-0.6,0.3,0.2c0.7,0.8,0,0.2,0.3,0.5
			s-0.1-0.1,0.3,0.3c0.4,0.4,0,0.3,0.4,0.4c0.4,0.1,0.1,0.4,0.4,0.1s0.7-0.3,0.7-0.3s0-0.5,0.2-0.3S12.7,11.6,13,12s0.5,1.2,0.4,0.3
			s-0.2-0.6-0.1-0.9c0-0.3,0.5,0,0-0.3c-0.5-0.3-0.2-0.3-0.5-0.3h-0.2c0,0-0.3,0.2-0.2-0.2c0.1-0.4,0.4-0.5,0.4-0.5l0.6-0.2
			c0,0-0.3-0.8,0-0.7s0.6-0.5,0.5-0.5s-1.1,0.2-1.1,0.2s0.2,0.2-0.2,0.4c-0.3,0.2,0,0.6-0.6,0c-0.5-0.6-0.7-0.2-0.5-0.6
			c0.2-0.4-0.8,0,0-0.4l0.8-0.4V7.8l-5,0l0,8c0.2,0.2,0.4,0.3,0.4,0.3L8,16.7L8,16.7z"/>
		<path class="st23" d="M79,17.9L79,17.9L79,17.9z"/>
		<path class="st24" d="M79,17.9L79,17.9L79,17.9z"/>
		<path class="st23" d="M13.5,8c0.2,0.2,0,0.2,0.3,0.1L14.1,8l0.5,0.2c0,0,0,0.6,0-0.2c0-0.1,0-0.2,0-0.3l-1.2,0
			C13.4,8,13.3,7.9,13.5,8L13.5,8z"/>
		<path class="st23" d="M15.2,8.4c-0.1,0.3-0.2,0.1-0.1,0.3c0.1,0.2,0,0.2,0.1,0.2c0.1,0,0.1-0.3,0.3,0.1c0.3,0.4,0.4,0,0.3,0.4
			s-0.6,0.3-0.1,0.4c0.5,0.1,0.4,0,0.6,0.1c0.2,0.2-0.2,0.8,0.2,0.2s0.4,0.1,0.4-0.3c0-0.4,0,0.2,0-0.3c0-0.5-0.1-0.2,0-0.4
			C17,9,17.5,9.3,17,8.9c-0.5-0.5-0.4,0.2-0.5-0.5c0-0.2-0.1-0.4-0.1-0.5l-1.2,0c0,0,0,0.1,0,0.2C15.2,8.4,15.2,8.1,15.2,8.4
			L15.2,8.4z"/>
		<path class="st23" d="M33.3,9c-0.8,0.5,0.5,0.1-0.2,0.3s-0.2,0.1-0.8,0.2c-0.6,0.2-0.6,0.6-0.8,0.1c-0.2-0.5,0.3-0.1-0.2-0.5
			c-0.6-0.4,0-0.6-0.6-0.4c-0.6,0.2,0-0.4-0.6,0.2s-0.8,0.3-0.6,0.6S29,9.6,29.7,9.8C30.4,10,30,10,30.3,10c0.3-0.1,0-0.1,0.3-0.1
			c0.3,0.1-0.8-0.4,0.3,0.1c1.1,0.5,0.8,0.7,1.3,0.5c0.5-0.2,0.2-0.5,0.5-0.2c0.3,0.4,0.6-0.5,0.3,0.4s0,0.3-0.2,0.6
			c-0.1,0.3-1.2,1-0.1,0.3c1.1-0.7,0.9,0,0.9,0l0.3-0.2c0,0,0.7-1.3,0.7-0.6s0.2,0.6-0.2,1c-0.3,0.4-0.5,0-0.3,0.4l0.1,0.4l1-0.1
			c0,0,0.1-0.1,0.1-0.2c0,0,0,0.1-0.1,0.2c-0.3,0.5,0.1,0.1-0.1,0.3c-0.2,0.2,0-0.3-0.2,0.2l-0.2,0.5l0.1,0.2c0,0-0.2,0.4-0.5,0.1
			c-0.3-0.2,0.3-0.4-0.3-0.2c-0.5,0.1-0.6-0.4-0.5,0.1c0,0.1,0,0.2,0,0.2s0-0.1-0.1,0.1c-0.1,0.4,0.1,0.2,0.1,0.2l-0.2,0.1
			c0.1,0.4,0.5-0.3,0.1,0.4s0.4-0.1-0.4,0.7c-0.5,0.5-0.2,0.4-0.1,0.4c0,0-0.1,0-0.2,0.1c-0.7,0.3-0.4,0.3-0.7,0.3s0-0.7-0.3,0
			c-0.2,0.7-0.5,0.5-0.2,0.7c0.2,0.2-0.6,0.5,0.2,0.2c0.8-0.4,0.2-0.2,0.8-0.4c0.6-0.1,0.5-0.1,0.6-0.1S33,17,33.2,16.4
			c0.2-0.6-0.4,0.2,0.2-0.6s0.3,0.2,0.5-0.4c0.2-0.6-0.8-0.5,0.2-0.6c0.9-0.1-0.7-0.6,0.1-0.3c0.8,0.3,0.7,0.7,1,0.2
			s-0.6-0.2,0.3-0.4c0.9-0.2-0.3-0.4,0.3-0.3c0.6,0.1-0.4-0.2,0.6,0.1c1,0.2,0.7,0.4,1,0.2c0.3-0.2-0.9-0.1,0.3-0.2
			c1.2-0.1,1.2-0.2,1.2-0.1c0,0.1,0.7-0.4-0.1,0.3s0.5,0.1-0.5,0.5l-0.9,0.4c0,0-0.1-0.2,0,0.2s1.2,0.3,0.1,0.4
			c-1.2,0.1,0.1,0.1-0.5,0.1c-0.6,0-0.8-0.3-0.8-0.3s-0.3-0.2-0.3,0.1c-0.1,0.3,0.4,0.1-0.1,0.3c-0.5,0.2,0,0.1-0.3,0.2
			c-0.3,0.1,0.1-0.3-0.3,0.1c-0.4,0.4-0.6-0.2-0.4,0.4c0.2,0.6-0.5,0.4,0,0.4c0.4,0.1-0.2,0.4,0.4,0.1c0.7-0.4,0-0.2,0.7-0.4
			c0.7-0.2-0.2-0.1,0.7-0.2c0.9-0.1,1-0.5,0.9-0.1s0.1,0-0.1,0.4c-0.2,0.4-0.5,0.1-0.2,0.4c0.3,0.3-0.1,0.2,0.3,0.3
			c0.4,0.1-0.6,0.6,0.4,0.1c0.9-0.5,0.8,0.1,0.9-0.5l0.1-0.7c0.5-0.6,0-0.4,0.5-0.6c0.5-0.2,0.4-1,0.5-0.2c0,0.9,0.4,0.1,0.2,0.5
			c-0.2,0.4-1-0.1-0.2,0.4c0.8,0.4,0.3,0.1,0.8,0.4c0.6,0.3,0.7,0,0.7,0s0.1-0.5,0.2,0.1c0.1,0.5,0,1,0.3,0.4
			c0.4-0.6-0.1-0.2,0.4-0.6c0.5-0.4,0.4-1.1,0.5-0.4c0.1,0.7,0.4,0.1,0.2,0.4c-0.2,0.3-0.6-0.1-0.4,0.6c0.2,0.6,0.2,0.9,0.4,0.9
			c0.3,0.1,0.6-0.4,0.5,0.1c-0.1,0.6-0.3-0.1-0.1,0.6s-0.2,1,0.4,0.9c0.6-0.1,0.2,0.2,0.6-0.1s0.2-1.2,0.5-0.3l0.3,0.7
			c0,0,0,0.5,0.5,0.3s0.1-0.2,0.5-0.2c0.4,0.1-0.3-0.5,0.4,0.1c0.7,0.5-0.6,0.6,0.1,0.5c0.7-0.1,0.2,0.2,0.6,0
			c0.3-0.2,1.5-0.9,1.5-0.9s-0.7-0.6-0.2-0.4c0.5,0.2,0.5,0.1,0.7,0.1c0.2-0.1-0.4-0.5,0.2-0.1s-0.2,0.9,0.6,0.4s0.8,0.3,0.8-0.5
			c0.1-0.8,0.3-0.1,0.2-0.5c-0.2-0.4-0.6-0.1-0.3-0.7s0.1-0.4,0.3-0.6c0.2-0.2,0.2,0.4,0.2-0.2c0-0.7-0.6-0.7-0.6-0.7s0.5-1,0.8-1
			s0.8-0.1,1.1,0c0.3,0.1,0.1,0.2,0.6,0.2s-0.7,0.2,0.4,0c1.2-0.2-0.7-0.2,0.2-0.2c0.9,0,0.4-0.6,0.9,0c0.6,0.5-0.7,0,0.6,0.5
			s1.8,0.7,1.8,0.7s0.2,0.4,0.5,0.5c0.2,0.2,0.5-0.1,0.8-0.1s0.3,0.2,0.5,0.4s0.6,0.6,0.6,0.6s-0.2-0.1-0.1,0.2
			c0.1,0.4-0.2,0.5,0.3,0.6s0-0.5,0.5,0.1c0.5,0.7,0.3-0.1,0.4,0.4s-0.6,0.5,0.2,0.7c0.8,0.1,0.7,0,0.8,0.1c0.2,0.1,1.1,0.6,1.1,0.6
			s0.8,0.7,1.2,0.3c0.4-0.4,0-1.2,0.5-1.1c0.5,0.1,1.7-0.1,1.9-0.1s0.7,0.2,1.3-0.1c0.6-0.4,1.2-0.2,1.2-0.9
			c0.1-0.6,1.1-1.8,1.1-1.8s1.3-1.2,1.7-1.2s0.8-1,1.1-0.7c0.2,0.2,0.7,0.7,0.9,0.7c0.2,0.1,1.3-0.1,1.3-0.1l0.3,0.1l0.2,0.5
			c0,0-0.7,0.2,0.2,0.2c0.9,0.1-0.1,0.8,0.9,0.1s0.8-0.8,1-1s-0.6-0.3,0.2-0.2c0.7,0.1,0.1,1.2,0.7,0.1c0.7-1.2,0.2-0.7,0.4-1
			c0.2-0.2-0.6-0.8,0.2-0.2c0.8,0.6,0.3-0.1,0.6,0.3c0.2,0.2,0.2,0.1,0.2,0c0,0,0,0.1,0,0.3c0.1,0.7-0.2,0.2,0.1,0.7
			c0.3,0.4,0.4,0.4,0.4,0.6s0.9-0.4,0.1,0.2c-0.8,0.6-0.2,0.3-0.6,0.5c-0.3,0.2,0.6-0.4-0.3,0.2c-0.5,0.3-0.5,0.2-0.4,0.1
			c0,0-0.1,0.2-0.2,0.4c-0.6,0.9-0.2-0.6-0.4,0.2c-0.2,0.8-0.8,0.6-0.2,1.1c0.6,0.5,0.3,0.4,0.6,0.5c0.3,0.1,0.2-0.1,0.3,0.1
			c-0.1,0.4,0.1,0.3-0.1,0.8c-0.1,0.5-0.6-0.2-0.1,0.5s0.9,0.1,0.5,0.7c-0.4,0.6,0.6,0-0.4,0.6c-1.1,0.6-1.2-0.3-1.1,0.6
			c0.2,0.9-0.2-0.4,0.2,0.9c0.4,1.3-0.3,1.4,0.4,1.3l0.7-0.1c0,0.7,0.2-0.1,0,0.7s-0.5-0.4-0.2,0.8s0,0.7,0.3,1.4s0.2,1.2,0.3,1.4
			c0.1,0.2-0.1,0.4,0.2,0.6c0.3,0.2,0-0.5,0.3,0.2s0.9,0.6,0.1,1.2c-0.8,0.6-0.4,0.2-1,0.7c-0.6,0.5-0.6-0.7-0.6,0.5
			c0,0.4,0,0.5,0,0.5c0,0.1,0,0.2,0,0.6c-0.1,1.6-0.1,0.9-0.1,1.3v0.5c0,0-0.7-0.1-0.3,0.4c0.4,0.5,0.6,0.3,0.7,0.5s1-0.1,0.1,0.2
			c-1.2,0.5-1.4,0.5-1.4,0.5c-0.3,1,0.2,0.2-0.1,0.7c-0.3,0.4-0.4-0.4-0.4,0.6c-0.1,1-0.1,0.7-0.1,1s0.1,0.6,0.1,0.6l0.2,0.8
			c0,0,0.7-0.1,0.2,0.1c-0.6,0.2-0.7,0.1-0.7,0.1c-0.3,0.6-0.6,0.1-0.4,1c0.1,1,0.3,0.2,0.1,1s0.4-0.1-0.2,0.7
			c-0.6,0.8-0.3-0.1-0.4,0.4c-0.2,0.5-0.7,1.6-0.6,2.3c0.1,0.7,0,1.2,0,1.2s-0.1,0.1-0.3,0.5c-0.2,0.4,0.9,0.5,0.4,0.7
			c-0.4,0.2-0.8-0.1-0.9,0.4c-0.1,0.4,0.1,0.9-0.1,1c-0.1,0.2-0.1,0.4-0.3,0.7c-0.3,0.4-0.4-0.1-0.4,0.9c0,0.9,0.1,0.5,0,0.9
			c-0.1,0.4-0.3,0.4-0.4,0.6s-1.4,0.7-1.6,0.9c-0.2,0.2-1.6-0.2-1.8,0c-0.2,0.2-0.3,0.3-0.2,0.5c0.1,0.2,0.7,0.6-0.2,0.4
			c-0.8-0.2-1.7-1.1-2.1-1c-0.4,0.1-1.1,0.4-1.2,0.7c-0.2,0.2-0.7,0.6-0.7,0.6s-0.5-0.1-0.7,0c-0.2,0.1-0.9,0.1-1.1-0.1
			c-0.2-0.1-0.5-1.2-0.5-1.2s-0.5,0.4-0.5,0.6c0,0.1,0.1,3,0.3,4.7l22,0l0-51.8l-51.7,0C33.4,9,34.2,8.4,33.3,9L33.3,9z M38.8,16.5
			L38.8,16.5L38.8,16.5z"/>
		<path class="st23" d="M62.7,59.6L62.7,59.6c0-0.5-0.3-4.5-0.3-4.5l-0.4-1L61.3,54v0.5l0.5,0.2l0.1,0.5l-0.3,0.6l-0.5,0.3l-0.9-0.6
			l0.2-0.3v-0.4l-0.7-0.1l-0.5,0.1l0.3-0.7l0.8,0.1h0.5v-0.5l-0.6-0.4l-0.5-0.5l-0.2,0.4l-0.7,0.4c0,0-0.6-0.4-0.7-0.4
			s-0.6,0-0.7,0.1c-0.2,0.1-0.2,0.2-0.6-0.1c-0.3-0.3-0.3-0.4-0.5-0.5c-0.2-0.1,0-0.3-0.4-0.1c-0.3,0.2-0.6,0.2-0.6,0.4
			s-0.9,0.7-0.9,0.7l-0.7-0.1l0.5-0.4L53.5,53c0,0-0.4,0.3-0.8,0.4c-0.3,0.1-0.9,0.4-0.9,0.4l0.3,0.4L52,54.3c0,0-0.6-0.1-0.8-0.1
			s-0.7-0.1-0.7-0.1h-0.7c0,0-0.1,0.1-0.4,0.4c-0.3,0.3,0-0.1-0.3,0.3c-0.2,0.4,0.3-0.2-0.2,0.4c-0.5,0.6-1,1.2-1.6,1.7
			c-0.6,0.5-1,0.8-1.3,0.8s-0.8,0.1-1.3-0.3c-0.6-0.4-0.9-0.5-1.5-0.9c-0.6-0.4-1.1-0.7-1.4-0.7s-0.3-0.4-0.8-0.1
			c-0.5,0.2-1.1,0.5-1.5,0.4c-0.3-0.2-0.8-1-0.8-1s0-0.8-0.7-0.4c-0.7,0.4-1,0.6-1.2,0.5c-0.2-0.1-0.3-0.1-0.6-0.4s0.4-0.4-0.5-0.6
			c-0.8-0.2-0.2-0.1-0.8-0.2c-0.7-0.1-0.6-0.1-0.7-0.1c-0.5-0.4-0.7-0.7-1.1-0.7s-0.1-0.1-0.7,0.1c-0.6,0.2,0,0.6-0.8,0.2
			c-0.7-0.4,0.2-0.1-0.7-0.4c-0.9-0.4,0.5-0.1-0.2-0.2s0.2,0.2-0.7-0.1c-0.8-0.3,0.2,0.1-0.8-0.3c-1.1-0.4,0.2-1.1-1.1-0.4
			c-1.2,0.7-0.3-0.2-0.8,0.2c-0.5,0.5-1.4,0.7-1.4,0.7l-1.5,0.2c0,0,0.2-0.3-0.3-0.5c-0.5-0.2-0.7-0.1-0.7-0.1l0.3-0.9l-0.2-0.9
			c0,0-0.6-0.2-0.6-0.7c0-0.6,0.8-0.8,0-0.9c-0.8-0.1-4.9,0-4.9,0s-1-0.5-1.2-0.7c-0.2-0.2-1.1-0.2-1.3-0.1c-0.3,0.1-0.4,0.2-1,0.2
			c-0.6,0.1-0.2-0.2-0.7,0.1c-0.5,0.3-0.8,0-0.5-0.3s0.7-0.5,0.3-0.8s-0.3-0.2-0.7-0.3s-0.9,0.9-0.4-0.1c0.5-1,0.9-1.2,0.6-1.5
			c-0.3-0.4,0.2-0.2-0.4-0.5c-0.6-0.3,0.9-0.2-0.6-0.3c-1.6-0.1-0.6,0.8-1.1,0.3c-0.6-0.5,0.1,0.1-0.6-0.5c-0.7-0.5,0.1,0.1-0.7-0.5
			c-0.8-0.6,0.3-0.3-0.8-0.6s-1.6-0.3-1.6-0.3s-0.2-0.5-0.6,0l0,16.3L62.7,59.6L62.7,59.6z"/>
		<path class="st23" d="M18.7,8c0.1-0.1,0.1-0.1,0.2-0.2h-0.3C18.6,8.1,18.4,8.3,18.7,8z"/>
		<path class="st23" d="M34.4,12.6C34.3,12.6,34.3,12.6,34.4,12.6C34.4,12.6,34.4,12.6,34.4,12.6z"/>
		<path class="st24" d="M34.4,12.6C34.3,12.6,34.3,12.6,34.4,12.6C34.4,12.6,34.4,12.6,34.4,12.6z"/>
		<path class="st23" d="M19.7,7.9c0.1,0.3,0.5,1.2,0.8,1.2C20.9,9,21,9.2,21,9.4S20.8,10,21.1,10s0.7,0.3,0.7,0.3l0.3,0.9l0.7,0.2
			l0.3,0.7l0.7-0.7l-1.3-0.7L22,9.6c0,0-0.5-0.2-0.5-0.6S21,8,21,8l-0.5-0.2c0,0-0.1,0-0.3-0.1L19.7,7.9C19.8,7.8,19.7,7.8,19.7,7.9
			L19.7,7.9z"/>
		<polygon class="st23" points="11.4,20.8 12,20.2 12,19.4 11.4,19.4 11,19 10.6,19.9 11.5,20.3 		"/>
		<path class="st23" d="M14.6,26.3c0.2,0.1,0.1,0.5,0.1,0.5l0.2,0.1c0,0,0.2-0.1,0.6-0.2c0.4-0.1,0.7,0,0.9,0s0.3,0.4,0.3,0.4
			s0.4,0.2,0.8,0.1s0.5,0,0.5,0l0.2,0.2h0.7c0,0,1.1,0.4,1.3,0.4s0.7,0.5,0.7,0.5l0.2,0.8c0,0,0.1,0.2,0.9,0.1
			c0.8-0.1,0.3-0.2,0.3-0.2s0.3-0.1,1.1-0.2c0.7-0.2,0.5-0.1,1.1-0.2c0.7-0.1,0.2,0.2,0.4,0.5c0.2,0.2,0.4,0,0.8-0.2
			c0.3-0.2,0.4-0.4,0.4-0.4h1.2c0.5,0,0.6,0.3,0.8,0.4s0.5,0.2,0.7-0.2c0.1-0.4,0.3-0.4,0.3-0.4s0.4-0.4,0.6-0.7
			c0.2-0.4-0.2-0.2-0.3-0.4c-0.1-0.2,0-0.6-0.1-1c0-0.4-0.4,0-0.4,0s-0.3,0.6-0.5,0.7c-0.2,0.1-0.4-0.2-0.8-0.4
			c-0.3-0.1-0.4,0.4-0.4,0.5c0,0.2-0.4,0.6-0.8,0.7c-0.4,0.1,0-0.7,0-0.9s0.3-0.2,0.3-0.2s-0.8-0.7-1.2-0.7s-0.7,0-1.4,0.1
			c-0.7,0.1-0.4,0.2-1,0.3c-0.6,0.1-0.6-0.1-0.9-0.5s-0.2-0.2-0.3-0.4c-0.2-0.2-0.9,0-1.1,0.1s-0.2,0.4-0.2,0.4s-0.2,0.2-0.7,0.2
			s-0.4-0.1-1-0.5c-0.6-0.4-0.6,0-0.8,0s-0.2-0.5-0.2-0.8c0-0.2,0.3-0.3,0.5-0.5s-0.2-0.2-0.2-0.2l-0.3,0.4c0,0-0.4,0.5-0.6,0.7
			s-0.2-0.3-0.2-0.5s-0.2-0.4-0.2-0.4l-0.2,0.4l-0.6-0.1l-0.3-0.5v-0.5c0,0-0.3-0.6-0.6-0.5s0.1,1.2-0.1,1.1l-0.2,0.2l-0.5-0.1
			c0,0-0.1,0.7-0.1,1s0.1,0.3,0.1,0.3S14.5,26.1,14.6,26.3L14.6,26.3z"/>
		<path class="st23" d="M33,25.6c0.4,0.4,0.6,0.4,0.6,0.4l0.4-0.4c0,0,0.8-0.2,0.5-0.5c-0.3-0.4-0.7-0.6-0.7-0.6L34,24l0.4-0.5
			l-0.3-0.7c0,0,0.1-0.6-0.2-0.1s-0.3,0.7-0.3,0.7l-0.3-0.1c-0.4,1.1-0.4,1.5-0.4,1.5l0.3,0.5C33.2,25.3,32.6,25.3,33,25.6L33,25.6z
			"/>
		<path class="st23" d="M32.4,26.1c0.1-0.3,0.1-0.6,0.1-0.6l-0.6,0.2c0,0-0.1,0.4,0.1,0.4C32.2,26.2,32.3,26.4,32.4,26.1z"/>
		<path class="st23" d="M36.4,20.9c0.1,0.3,0.3,0.5,0.1,0.7c-0.2,0.1-0.3,0.2-0.3,0.2s-0.2,0.1,0,0.4c0.2,0.2,0.6,0.3,0.6,0.3
			l0.2-0.4c0,0,0.2-0.4,0.5-0.4c0.2-0.1,0.5-0.1,0.5-0.1l0.3-0.2c0,0,0.4-0.2,0.4-0.6s0.1-0.9,0.1-0.9l0.5-0.3l0.1-0.7l-0.5-0.6
			l-0.3-0.1c-0.4,0.1-0.9,0.7-0.9,0.7l-0.9,0.4c0,0-0.1-0.3-0.3,0.1c-0.2,0.4-0.6,0.6-0.6,0.6l-0.1,0.5l0.3,0.4
			C36.1,20.9,36.3,20.6,36.4,20.9L36.4,20.9z"/>
		<path class="st23" d="M19,16.4c0,0-0.8,0.1-0.8,0.3s0.2,0.3,0.5,0.3s0.8,0.2,0.9-0.1s0-0.9,0-0.9L19,16.1V16.4L19,16.4z"/>
		<path class="st23" d="M18.1,10.9c0,0,0.1-0.2,0.2-0.3S17.9,10,17.9,10c-0.1,0.2-0.4,0.6-0.4,0.6s0.1,0.2,0.3,0.2
			C18,10.8,18.2,10.9,18.1,10.9L18.1,10.9z"/>
		<path class="st23" d="M18.4,11.6c0.1,0.1-0.1,0.6,0.1,0.6s0.5-0.4,0.5-0.6c-0.1-0.2-0.5-0.5-0.5-0.5l-0.3,0.3
			C18.2,11.4,18.3,11.5,18.4,11.6z"/>
		<path class="st23" d="M21.6,12.1l-0.3-0.4c-0.1,0-0.3,0-0.3,0.1s0,0.2,0.1,0.3C21.2,12.3,21.6,12.1,21.6,12.1L21.6,12.1z"/>
		<path class="st23" d="M18.7,13.4l0.3,0.3c0,0-0.1,0.1,0,0.2c0.1,0.1,0.5,0.1,0.5,0.1s0.1-0.5,0-0.7s-0.3-0.5-0.3-0.5l-0.4,0.3v0.3
			H18.7z"/>
		<path class="st23" d="M20.1,15.2c0,0,0,0,0,0.2c0.1,0.1,0.4,0.2,0.4,0c0-0.2-0.1-0.3-0.1-0.3l0.3-0.1l-0.2-0.3h-0.1
			c-0.5,0-0.6,0-0.6,0.2S20.1,15.2,20.1,15.2L20.1,15.2z"/>
		<path class="st23" d="M22.4,15.1c0,0,0.2,0,0.3-0.1c0.1-0.1,0.3-0.5,0.3-0.5h0.3l0.4,0.1c0,0,0,0.2-0.1,0.3c0,0.1,0.3,0.5,0.3,0.5
			l0.2,0.1l0.2,0.2c0,0,0.2,0,0.3-0.3c0-0.3,0.1-0.7,0.1-0.7H25c0,0,0.3-0.3,0.3-0.4c0-0.1-0.2-0.6-0.2-0.6s0.2,0,0-0.3
			S24.7,13,24.5,13s-0.3,0-0.3,0.2v0.4l-0.6,0.2c0,0-0.1,0.2-0.3,0.1c-0.2-0.2-0.3-0.4-0.3-0.4s0.2-0.2,0.1-0.2s-0.3,0-0.3,0
			l-0.1-0.2c-0.1,0.5-0.2,0.5-0.2,0.7s0.1,0.3,0.1,0.3l-0.2,0.2l-0.3,0.2v0.3l0.3,0.2L22.4,15.1L22.4,15.1z"/>
		<path class="st23" d="M21.2,16.7l0.4,0.2v0.3l0.4,0.3c0,0,0.2-0.4,0.3-0.5c0.1-0.1,0.1-0.5,0.1-0.5l-0.3,0.4l-0.5-0.4
			C21.5,16.5,21.2,16.8,21.2,16.7L21.2,16.7z"/>
		<path class="st23" d="M23.7,16.3c-0.3,0-0.4,0.2-0.4,0.2L23,16.8c0,0-0.3,0.1,0.1,0.1s0.6-0.1,0.6-0.1L24,17l0.3-0.5L23.7,16.3
			L23.7,16.3z"/>
		<path class="st23" d="M27.2,15.1L27.2,15.1L27.2,15.1L27.2,15.1L27.2,15.1z"/>
		<path class="st24" d="M27.2,15.1L27.2,15.1L27.2,15.1L27.2,15.1L27.2,15.1z"/>
		<path class="st23" d="M26.2,16.6c0.5,0.1,0.7-0.3,0.7-0.3s0-0.4,0.2-0.5c0.1-0.1,0.4,0.1,0.3-0.2c-0.1-0.2-0.1-0.4-0.2-0.4
			c-0.2,0-0.5,0.2-0.6,0.4c0,0.2,0.1,0,0,0.2C26.4,16,26.2,16,26.2,16s-0.2,0-0.1,0.2C26.1,16.4,25.7,16.5,26.2,16.6L26.2,16.6z"/>
		<path class="st23" d="M24,19.1c0.1,0,0.1,0,0.2,0.2s0.4,0.4,0.5,0.2c0-0.2,0.1-0.5,0-0.7c-0.1-0.2-0.3-0.3-0.3-0.3H24
			c-0.1,0.2-0.3,0.3-0.2,0.4C23.9,19,23.9,19.1,24,19.1L24,19.1z"/>
		<path class="st23" d="M28.4,17.5c0.2,0.2,0.4,0.2,0.4,0.2l0.4-0.1l0.1,0.2l0.3-0.2c0,0-0.1-0.2,0-0.2s0.3-0.2,0.3-0.2h-0.4
			c-0.3-0.1-0.2-0.7-0.7-0.2C28.3,17.3,28.2,17.4,28.4,17.5L28.4,17.5z"/>
		<path class="st23" d="M34.5,19.1c0,0,0.1,0.1,0.2-0.1c0.2-0.2,0.2-0.4,0.2-0.4l-0.1-0.5l-0.5,0.3h-0.1h-0.1c0,0.2,0,0.3,0.1,0.5
			S34.5,19.1,34.5,19.1L34.5,19.1z"/>
		<path class="st23" d="M36.6,18l0.2-0.1c0,0,0.2-0.1,0.2-0.2c0-0.1-0.2-0.4-0.2-0.4h-0.5c-0.1,0.1-0.3,0.2-0.1,0.4
			C36.3,17.8,36.6,17.9,36.6,18L36.6,18L36.6,18z"/>
		<path class="st23" d="M31.9,15.2c0,0.2,0.2,0.3,0.2,0.3l0.3-0.4c0,0,0.1,0,0.2-0.1c0.1-0.2,0.1-0.4,0.1-0.4l-0.4-0.4
			c0,0-0.5,0.2-0.5,0.4s-0.1,0.3-0.1,0.3s-0.3-0.1-0.1,0.1C31.7,15.1,31.9,15,31.9,15.2L31.9,15.2z"/>
		<path class="st23" d="M26.9,11.3c0,0.2,0,0.7,0.2,0.5s0.4-0.6,0.4-0.6S27.3,11,27.6,11s0.6,0,0.6-0.2c0-0.1,0.3-0.3,0.3-0.5
			s-0.3-0.7-0.3-0.7c-0.2,0-0.9,0.5-0.9,0.5s0,0.2-0.2,0.2s-0.5-0.2-0.6,0.1c0,0.3,0.3,0.8,0.3,0.8S26.9,11,26.9,11.3z"/>
		<path class="st23" d="M30.9,13.6c0.1,0,0.2,0.3,0.2,0.3l0.3-0.2l-0.1-0.3L31.1,13C30.9,13.4,30.8,13.6,30.9,13.6z"/>
		<polygon class="st23" points="31.2,10.6 31.1,10.3 30.8,10.4 31,10.8 		"/>
		<path class="st23" d="M60.7,29.7c0.4,0.2,0.8,0.7,1,1c0.2,0.4,0.5,0.9,0.9,0.6c0.5-0.3,0.8-0.4,0.8-0.4s0.7,0.3,1,0.5
			s0.4-0.2,0.6-0.6c0.2-0.4,1,0.4,1.6,0s0.8-1.1,1.1-1.3c0.3-0.2,1.1-1,1.6-1c0.5,0.1,0.7-0.3,0.6-0.6s-0.6-0.7-0.6-0.7
			s-0.8-0.4-0.1-0.8c0.7-0.4,1-0.4,1.3-0.7s1.2-1,1.2-1s1-1,0.8-1.2s-0.6-0.1-0.7,0.3c-0.2,0.4-0.8,0.9-0.8,0.9l-1.1,0.1l-0.7,0.4
			c0,0-0.4,0.6-0.9,0.6s-1.1,0.1-1.2,0.1c-0.2,0.1,0,0.2-0.6,0.2s-1.3-0.2-1.3-0.2s-0.1,0.3-0.1,0.5s0.4,1-0.2,1s-2.1,0.1-2.1,0.1
			l-0.3-0.4c0,0-0.8-0.1-0.9,0.2c0,0.4-0.5,0.9-0.8,0.6s-0.7-0.4-0.7,0.1C60.1,28.6,60.3,29.5,60.7,29.7L60.7,29.7z"/>
	</g>
	<g>
		<g>
			<polygon class="st3" points="47,33.7 46.9,34.7 47.2,34.7 47.4,33.7 			"/>
			<polygon class="st3" points="46.8,35 46.5,35.9 46.8,35.9 47.2,35 			"/>
			<polygon class="st3" points="46.2,36.1 45.7,36.9 46,37 46.5,36.2 			"/>
			<polygon class="st3" points="45.4,37 44.6,37.4 44.7,37.6 45.6,37.3 			"/>
			<polygon class="st3" points="44.2,37.5 43.4,37.9 43.5,38.1 44.4,37.8 			"/>
			<polygon class="st3" points="42.9,37.9 42.1,38.3 42.2,38.5 43.1,38.2 			"/>
			<polygon class="st3" points="41.7,38.4 41,39.1 41.2,39.2 42,38.6 			"/>
			<polygon class="st3" points="40.8,39.4 40.4,40.3 40.7,40.4 41.2,39.5 			"/>
			<polygon class="st3" points="40.3,40.6 39.9,41.5 40.1,41.6 40.6,40.6 			"/>
			<polygon class="st3" points="39.7,41.7 39.1,42.5 39.4,42.6 40,41.8 			"/>
			<polygon class="st3" points="38.8,42.6 38.1,43.2 38.3,43.4 39.1,42.8 			"/>
			<polygon class="st3" points="37.8,43.2 36.9,43.3 36.9,43.6 37.9,43.5 			"/>
			<polygon class="st3" points="36.5,43.2 35.6,42.9 35.5,43.2 36.5,43.5 			"/>
			<polygon class="st3" points="35.4,42.7 34.6,42.3 34.5,42.5 35.3,43.1 			"/>
			<polygon class="st3" points="34.4,41.9 33.8,41.3 33.6,41.5 34.3,42.3 			"/>
			<polygon class="st3" points="33.7,40.9 33.5,39.9 33.2,40 33.4,41.1 			"/>
			<polygon class="st3" points="33.1,39.6 32.9,38.6 33.2,38.6 33.4,39.6 			"/>
			<polygon class="st3" points="32.8,38.4 32.4,37.5 32.7,37.4 33.1,38.3 			"/>
			<polygon class="st3" points="32.1,37.3 31.6,36.5 31.8,36.4 32.4,37.2 			"/>
			<polygon class="st3" points="31.2,36.4 30.3,36.1 30.5,35.9 31.4,36.1 			"/>
			<rect x="27.7" y="35.6" class="st3" width="0.9" height="0.3"/>
			<polygon class="st3" points="29.9,36 29,35.9 29,35.6 30,35.7 			"/>
		</g>
		<g>
			<polygon class="st3" points="27.2,35.6 26.2,35.7 26.3,36 27.3,35.9 			"/>
			<polygon class="st3" points="26,35.7 25,35.6 25,35.8 26,36 			"/>
			<polygon class="st3" points="24.8,35.4 23.9,35 23.8,35.3 24.8,35.7 			"/>
			<polygon class="st3" points="23.7,34.7 23.1,34 22.9,34.2 23.5,35 			"/>
			<polygon class="st3" points="22.9,33.7 22.3,33 22.1,33.1 22.7,34 			"/>
			<polygon class="st3" points="22.2,32.5 21.6,31.8 21.4,32 22,32.8 			"/>
			<polygon class="st3" points="21.4,31.4 20.6,30.9 20.5,31.1 21.3,31.7 			"/>
			<polygon class="st3" points="20.3,30.8 19.4,30.6 19.3,30.9 20.3,31.1 			"/>
			<polygon class="st3" points="19,30.5 18.1,30.4 18.1,30.7 19.1,30.9 			"/>
			<polygon class="st3" points="17.8,30.3 17,29.9 16.9,30.2 17.8,30.6 			"/>
			<polygon class="st3" points="16.8,29.6 16.1,29.1 15.9,29.3 16.7,29.9 			"/>
		</g>
		<g>
			<polygon class="st3" points="15.5,29 14.6,28.7 14.5,28.9 15.4,29.3 			"/>
			<polygon class="st3" points="14.4,28.4 13.8,27.6 13.6,27.8 14.2,28.6 			"/>
			<polygon class="st3" points="13.6,27.3 13,26.6 12.8,26.8 13.4,27.6 			"/>
			<polygon class="st3" points="12.9,26.2 12.3,25.4 12.1,25.6 12.7,26.4 			"/>
			<polygon class="st3" points="12.1,25.1 11.5,24.3 11.3,24.5 11.9,25.4 			"/>
			<polygon class="st3" points="11.3,24 10.7,23.3 10.5,23.5 11.1,24.3 			"/>
			<polygon class="st3" points="10.6,22.9 10,22.1 9.8,22.3 10.4,23.1 			"/>
			<polygon class="st3" points="9.7,21.7 9.2,21 9,21.2 9.5,22 			"/>
			<polygon class="st3" points="9,20.7 8.4,20 8.2,20.2 8.8,21 			"/>
			<polygon class="st3" points="8.3,19.5 7.7,18.8 7.5,19 8.1,19.8 			"/>
		</g>
		<g>
			<polygon class="st3" points="47.5,33.3 47.5,32.3 47.3,32.3 47.2,33.3 			"/>
			<polygon class="st3" points="47.6,32 47.9,31.1 47.7,31 47.3,32 			"/>
			<polygon class="st3" points="48.2,30.9 48.7,30.1 48.4,29.9 47.9,30.8 			"/>
			<polygon class="st3" points="49,29.9 49.8,29.5 49.7,29.3 48.8,29.7 			"/>
			<polygon class="st3" points="50.2,29.4 51,29 50.9,28.7 50,29.1 			"/>
			<polygon class="st3" points="51.4,28.9 52.3,28.5 52.1,28.3 51.2,28.7 			"/>
			<polygon class="st3" points="52.6,28.4 53.3,27.7 53.1,27.5 52.4,28.2 			"/>
			<polygon class="st3" points="53.5,27.4 53.9,26.5 53.6,26.4 53.2,27.3 			"/>
			<polygon class="st3" points="54,26.2 54.4,25.3 54.1,25.2 53.7,26.1 			"/>
			<polygon class="st3" points="54.5,25 55.1,24.2 54.8,24.1 54.2,24.9 			"/>
			<polygon class="st3" points="55.4,24.1 56.1,23.5 55.9,23.3 55.1,23.9 			"/>
			<polygon class="st3" points="56.4,23.5 57.3,23.3 57.3,23.1 56.3,23.1 			"/>
			<polygon class="st3" points="57.7,23.4 58.6,23.7 58.7,23.4 57.7,23.1 			"/>
			<polygon class="st3" points="58.9,23.8 59.7,24.3 59.8,24 58.9,23.5 			"/>
			<polygon class="st3" points="59.8,24.6 60.5,25.2 60.6,25 59.9,24.3 			"/>
			<polygon class="st3" points="60.6,25.6 60.8,26.6 61.1,26.5 60.8,25.4 			"/>
			<polygon class="st3" points="61.2,26.9 61.4,27.8 61.2,27.9 60.9,26.9 			"/>
		</g>
	</g>
	<path class="st25" d="M6.4,47.7l0,12.8l79.4,0l0-53.6l-79.4,0l0,12.9c0.1,0,0.2,0.1,0.3,0.2c0.1,0.2,0.3,0.4,0.4,0.5h0.1l0,0
		c0.1,0.1,0.2,0.2,0.1,0.4c0,0,0,0-0.1,0.1l0,0.7H6.6v-0.2c-0.1,0-0.1,0-0.1,0L6.6,22H6.4l0,1.9h0.1v-1h0.6V24h0.1l0-16.2l77.6,0
		l0,51.8l-77.6,0l0-27c-0.3,0.2-0.6,0.3-0.8,0l0,0L6.4,47.7L6.4,47.7z M85.1,8.1h0.6v1.2h-0.6C85.1,9.4,85.1,8.1,85.1,8.1z
		 M85.1,10.6h0.6v1.2h-0.6V10.6z M85.1,13.1h0.6v1.2h-0.6V13.1z M85.1,15.5h0.6v1.2l-0.6,0C85.1,16.8,85.1,15.5,85.1,15.5z M85.1,18
		l0.6,0l0,1.2l-0.6,0L85.1,18z M85.1,20.5l0.6,0v1.2l-0.6,0V20.5z M85.1,23l0.6,0v1.2l-0.6,0V23z M85.1,25.4l0.6,0v1.2l-0.6,0V25.4z
		 M85.1,27.9l0.6,0v1.2l-0.6,0V27.9z M85.1,30.4l0.6,0v1.2l-0.6,0V30.4z M85.1,32.8h0.6V34h-0.6V32.8z M85.1,35.3h0.6v1.2h-0.6V35.3
		z M85.1,37.8h0.6V39h-0.6V37.8z M85.1,40.3h0.6v1.2h-0.6V40.3z M85.1,42.7h0.6v1.2h-0.6V42.7z M85.1,45.2h0.6v1.2h-0.6V45.2z
		 M85.1,47.8h0.6V49h-0.6V47.8z M85.1,50.3h0.6v1.3h-0.6V50.3z M85.1,52.8h0.6V54l-0.6,0V52.8z M85.1,55.3h0.6v1.2l-0.6,0V55.3z
		 M85.1,57.8h0.6v1.3h-0.6V57.8z M7.2,19.2H6.6l0-1.2h0.6L7.2,19.2z M7.2,16.8H6.6l0-1.2l0.6,0L7.2,16.8z M7.2,14.3l-0.6,0l0-1.2
		l0.6,0L7.2,14.3z M7.2,11.8l-0.6,0v-1.2l0.6,0V11.8z M7.2,9.4l-0.6,0l0-1.2l0.6,0C7.2,8.1,7.2,9.4,7.2,9.4z M8.9,7.7H7.7V7.1h1.2
		V7.7z M11.4,7.7l-1.3,0V7.1l1.2,0v0.6H11.4z M13.8,7.7l-1.2,0V7.1l1.2,0C13.8,7.1,13.8,7.7,13.8,7.7z M16.3,7.7l-1.2,0V7.1l1.2,0
		V7.7z M18.8,7.7l-1.2,0V7.1l1.2,0V7.7z M21.2,7.7H20V7.1h1.2V7.7z M23.7,7.7l-1.2,0V7.1l1.2,0V7.7z M26.2,7.7l-1.2,0V7.1l1.2,0V7.7
		z M28.6,7.7l-1.2,0V7.1l1.2,0V7.7z M31.1,7.7l-1.2,0V7.1l1.2,0V7.7z M33.6,7.7h-1.2V7.1h1.2V7.7z M36,7.7l-1.2,0V7.1l1.2,0V7.7z
		 M38.5,7.7l-1.2,0V7.1l1.2,0V7.7z M41,7.7l-1.2,0V7.1l1.2,0V7.7z M43.4,7.7l-1.2,0V7.1l1.2,0V7.7z M45.9,7.7l-1.2,0V7.1l1.2,0V7.7z
		 M48.4,7.7l-1.2,0V7.1l1.2,0V7.7z M50.8,7.7l-1.2,0V7.1l1.2,0V7.7z M53.2,7.7l-1.2,0V7.1l1.2,0V7.7z M55.7,7.7h-1.2V7.1h1.2V7.7z
		 M58.1,7.7l-1.2,0V7.1l1.2,0V7.7z M60.5,7.7l-1.2,0V7.1l1.2,0V7.7z M62.9,7.7l-1.2,0V7.1l1.2,0V7.7z M65.3,7.7h-1.2V7.1h1.2V7.7z
		 M67.7,7.7l-1.2,0V7.1l1.2,0V7.7z M70.2,7.7l-1.2,0V7.1l1.2,0V7.7z M72.6,7.7l-1.2,0V7.1l1.2,0V7.7z M75,7.7h-1.2V7.1H75V7.7z
		 M77.4,7.7l-1.2,0V7.1l1.2,0V7.7z M79.8,7.7l-1.2,0V7.1l1.2,0V7.7z M82.3,7.7l-1.2,0V7.1l1.2,0V7.7z M84.7,7.7l-1.2,0V7.1l1.2,0
		V7.7z M83.5,59.7h1.2v0.7h-1.2V59.7z M81.1,59.7h1.2v0.7h-1.2V59.7z M78.6,59.7h1.2v0.7h-1.2V59.7z M76.2,59.7h1.2v0.7h-1.2V59.7z
		 M73.8,59.7H75v0.7h-1.2V59.7z M71.4,59.7h1.2v0.7h-1.2V59.7z M69,59.7h1.2v0.7H69V59.7z M66.5,59.7h1.2v0.7l-1.2,0V59.7z
		 M64.1,59.7l1.2,0v0.7h-1.2V59.7z M61.7,59.7h1.2v0.7h-1.2V59.7z M59.3,59.7h1.2v0.7h-1.2V59.7z M56.9,59.7h1.2v0.7h-1.2V59.7z
		 M54.5,59.7h1.2v0.7h-1.2V59.7z M52,59.7h1.2v0.7H52V59.7z M49.6,59.7h1.2v0.7h-1.2V59.7z M47.2,59.7h1.2v0.7h-1.2V59.7z
		 M44.7,59.7h1.2v0.7l-1.2,0V59.7z M42.2,59.7l1.2,0v0.7h-1.2V59.7z M39.7,59.7h1.2v0.7h-1.2V59.7z M37.3,59.7h1.2v0.7h-1.2V59.7z
		 M34.8,59.7H36v0.7h-1.2V59.7z M32.3,59.7h1.2v0.7h-1.2V59.7z M29.9,59.7h1.2v0.7h-1.2V59.7z M27.4,59.7h1.2v0.7h-1.2V59.7z
		 M24.9,59.7h1.2v0.7h-1.2V59.7z M22.5,59.7h1.2v0.7l-1.2,0V59.7z M20,59.7l1.2,0v0.7H20V59.7z M17.5,59.7h1.2v0.7h-1.2V59.7z
		 M15.1,59.7h1.2v0.7h-1.2V59.7z M12.6,59.7h1.2v0.7h-1.2V59.7z M10.1,59.7h1.2v0.7h-1.2V59.7z M7.7,59.7h1.2v0.7H7.7L7.7,59.7z
		 M6.6,32.8h0.6l0,1.2H6.6L6.6,32.8z M6.6,35.3h0.6v1.2H6.6V35.3z M6.6,37.8h0.6l0,1.2H6.6L6.6,37.8z M6.6,40.3h0.6l0,1.2H6.6
		L6.6,40.3z M6.6,42.7h0.6l0,1.2H6.6L6.6,42.7z M6.6,45.2h0.6l0,1.2H6.6L6.6,45.2z M6.6,47.8h0.6V49H6.6V47.8z M6.6,50.3h0.6l0,1.3
		H6.6L6.6,50.3z M6.6,52.8h0.6l0,1.2H6.6L6.6,52.8z M6.6,55.3h0.6l0,1.2H6.6L6.6,55.3z M6.6,57.8h0.6l0,1.3H6.6L6.6,57.8z"/>
	
		<linearGradient id="SVGID_00000108281288766801419050000006235464542633512594_" gradientUnits="userSpaceOnUse" x1="140.9556" y1="36.477" x2="142.3656" y2="31.657" gradientTransform="matrix(1 0 0 1 -63.3062 28.818)">
		<stop  offset="0.3" style="stop-color:#AA9775"/>
		<stop  offset="0.47" style="stop-color:#B3A07C"/>
		<stop  offset="0.76" style="stop-color:#CEB990"/>
		<stop  offset="1" style="stop-color:#E9D2A4"/>
	</linearGradient>
	<path style="fill:url(#SVGID_00000108281288766801419050000006235464542633512594_);" d="M77.1,60.7c0,0-0.2-0.4,0.2-0.4
		s0.4,0,0.5,0.2s0.4,0.3,0.4,0.3l0.6-0.4l0.3,0.5c0,0,0,0.2,0.2,0.4s-0.1-0.3,0.2,0.2c0.2,0.6,0.4,0.6,0.4,0.8
		c-0.1,0.2-0.2,0.2,0,0.8c0.2,0.6,0.5,1.3,0.5,1.3S78.3,61.3,77.1,60.7C75.8,60.5,77.1,60.7,77.1,60.7L77.1,60.7z"/>
	
		<linearGradient id="SVGID_00000003805829159058483320000005335463381602449557_" gradientUnits="userSpaceOnUse" x1="67.2173" y1="-24.5039" x2="71.4673" y2="-19.3839" gradientTransform="matrix(1 0 0 1 -63.3062 28.818)">
		<stop  offset="0.19" style="stop-color:#FFEECE"/>
		<stop  offset="0.25" style="stop-color:#FFE6B3"/>
		<stop  offset="0.28" style="stop-color:#FFE8BA"/>
		<stop  offset="0.33" style="stop-color:#FFEECE"/>
		<stop  offset="0.47" style="stop-color:#CEB78C"/>
		<stop  offset="0.75" style="stop-color:#AA9775"/>
		<stop  offset="0.91" style="stop-color:#E9D2A4"/>
	</linearGradient>
	<path style="fill:url(#SVGID_00000003805829159058483320000005335463381602449557_);" d="M2.2,10c0,0-0.7-3.5,1-2.4
		C4.9,8.8,5.5,10,5.5,10l4-6.7c0,0-6,3-6.7,3.2C2.2,6.6,1.5,8.4,2.2,10z"/>
	<g>
		<path class="st28" d="M44.5,53.1c0,0-0.4-0.3-0.1-0.7c0.3-0.4,0.9-0.3,1.1,0c0.2,0.3,0.3,0.7,0.6,0.9s0.8,0.4,1,0.3
			c0.2-0.1,0.5-0.2,0.5-0.2s-0.3,0.4-0.7,0.4s-1-0.4-1.2-0.3c-0.3,0.1-0.7,0.4-1.2,0.3c-0.5-0.1-0.7-0.2-0.7-0.2s-0.5-0.1-0.7,0.1
			c-0.3,0.2,0.1-0.4,0.9-0.3c0.8,0.2,0.9,0.2,1.2,0c0.3-0.2,0.6-0.3,0.4-0.7c-0.2-0.3-0.6-0.6-0.8-0.3c-0.1,0.3-0.2,0.4,0.1,0.5
			c0.3,0,0.2-0.2,0.2-0.2S45.4,53.1,44.5,53.1L44.5,53.1z"/>
		<path class="st28" d="M45.1,48.3c0,0-0.4-0.3-0.1-0.7s0.9-0.3,1.1,0s0.3,0.7,0.6,0.9s0.8,0.4,1,0.3c0.2-0.1,0.5-0.2,0.5-0.2
			S47.9,49,47.5,49s-1-0.4-1.2-0.3c-0.3,0.1-0.7,0.4-1.2,0.3c-0.5-0.1-0.7-0.2-0.7-0.2s-0.5-0.1-0.7,0.1c-0.3,0.2,0.1-0.4,0.9-0.3
			c0.8,0.2,0.9,0.2,1.2,0s0.6-0.3,0.4-0.7c-0.2-0.3-0.6-0.6-0.8-0.3c-0.1,0.3-0.2,0.4,0.1,0.5c0.3,0,0.2-0.2,0.2-0.2
			S46,48.4,45.1,48.3L45.1,48.3z"/>
		<path class="st28" d="M38.7,49.9c0,0-0.4-0.3-0.1-0.7s0.9-0.3,1.1,0s0.3,0.7,0.6,0.9s0.8,0.4,1,0.3c0.2-0.1,0.5-0.2,0.5-0.2
			s-0.3,0.4-0.7,0.4s-1-0.4-1.2-0.3c-0.3,0.1-0.7,0.4-1.2,0.3S38,50.4,38,50.4s-0.5-0.1-0.7,0.1c-0.3,0.2,0.1-0.4,0.9-0.3
			c0.8,0.2,0.9,0.2,1.2,0s0.6-0.3,0.4-0.7c-0.2-0.3-0.6-0.6-0.8-0.3c-0.1,0.3-0.2,0.4,0.1,0.5c0.3,0,0.2-0.2,0.2-0.2
			S39.6,49.9,38.7,49.9L38.7,49.9z"/>
		<path class="st28" d="M55.9,49.9c0,0-0.4-0.3-0.1-0.7s0.9-0.3,1.1,0s0.3,0.7,0.6,0.9c0.3,0.2,0.8,0.4,1,0.3
			c0.2-0.1,0.5-0.2,0.5-0.2s-0.3,0.4-0.7,0.4s-1-0.4-1.2-0.3c-0.3,0.1-0.7,0.4-1.2,0.3c-0.5-0.1-0.7-0.2-0.7-0.2s-0.5-0.1-0.7,0.1
			c-0.3,0.2,0.1-0.4,0.9-0.3c0.8,0.2,0.9,0.2,1.2,0s0.6-0.3,0.4-0.7c-0.2-0.3-0.6-0.6-0.8-0.3c-0.1,0.3-0.2,0.4,0.1,0.5
			c0.3,0,0.2-0.2,0.2-0.2S56.8,50,55.9,49.9L55.9,49.9z"/>
		<path class="st28" d="M51.4,47.6c0,0-0.4-0.3-0.1-0.7s0.9-0.3,1.1,0s0.3,0.7,0.6,0.9c0.3,0.2,0.8,0.4,1,0.3
			c0.2-0.1,0.5-0.2,0.5-0.2s-0.3,0.4-0.7,0.4c-0.4,0-1-0.4-1.2-0.3c-0.3,0.1-0.7,0.4-1.2,0.3c-0.5-0.1-0.7-0.2-0.7-0.2
			S50.2,48,50,48.2c-0.3,0.2,0.1-0.4,0.9-0.3c0.8,0.2,0.9,0.2,1.2,0s0.6-0.3,0.4-0.7c-0.2-0.3-0.6-0.6-0.8-0.3
			c-0.1,0.3-0.2,0.4,0.1,0.5c0.3,0,0.2-0.2,0.2-0.2S52.4,47.6,51.4,47.6L51.4,47.6z"/>
		<path class="st28" d="M56,42.4c0,0-0.4-0.3-0.1-0.7s0.9-0.3,1.1,0s0.3,0.7,0.6,0.9c0.3,0.2,0.8,0.4,1,0.3c0.2-0.1,0.5-0.2,0.5-0.2
			s-0.3,0.4-0.7,0.4s-1-0.4-1.2-0.3c-0.3,0.1-0.7,0.4-1.2,0.3c-0.5-0.1-0.7-0.2-0.7-0.2s-0.5-0.1-0.7,0.1c-0.3,0.2,0.1-0.4,0.9-0.3
			c0.8,0.2,0.9,0.2,1.2,0s0.6-0.3,0.4-0.7c-0.2-0.3-0.6-0.6-0.8-0.3c-0.1,0.3-0.2,0.4,0.1,0.5c0.3,0,0.2-0.2,0.2-0.2
			S56.9,42.5,56,42.4L56,42.4z"/>
		<path class="st28" d="M43.7,43.5c0,0-0.4-0.3-0.1-0.7s0.9-0.3,1.1,0s0.3,0.7,0.6,0.9s0.8,0.4,1,0.3c0.2-0.1,0.5-0.2,0.5-0.2
			s-0.3,0.4-0.7,0.4s-1-0.4-1.2-0.3c-0.3,0.1-0.7,0.4-1.2,0.3S43,44,43,44s-0.5-0.1-0.7,0.1c-0.3,0.2,0.1-0.4,0.9-0.3
			c0.8,0.2,0.9,0.2,1.2,0s0.6-0.3,0.4-0.7c-0.2-0.3-0.6-0.6-0.8-0.3c-0.1,0.3-0.2,0.4,0.1,0.5c0.3,0,0.2-0.2,0.2-0.2
			S44.6,43.6,43.7,43.5L43.7,43.5z"/>
		<path class="st28" d="M48.6,38.1c0,0-0.4-0.3-0.1-0.7s0.9-0.3,1.1,0c0.2,0.3,0.3,0.7,0.6,0.9c0.3,0.2,0.8,0.4,1,0.3
			c0.2-0.1,0.5-0.2,0.5-0.2s-0.3,0.4-0.7,0.4s-1-0.4-1.2-0.3c-0.3,0.1-0.7,0.4-1.2,0.3c-0.5-0.1-0.7-0.2-0.7-0.2s-0.5-0.1-0.7,0.1
			c-0.3,0.2,0.1-0.4,0.9-0.3c0.8,0.2,0.9,0.2,1.2,0s0.6-0.3,0.4-0.7c-0.2-0.3-0.6-0.6-0.8-0.3c-0.1,0.3-0.2,0.4,0.1,0.5
			c0.3,0,0.2-0.2,0.2-0.2S49.5,38.1,48.6,38.1L48.6,38.1z"/>
		<path class="st28" d="M48.2,41.8c0,0-0.4-0.3-0.1-0.7s0.9-0.3,1.1,0s0.3,0.7,0.6,0.9s0.8,0.4,1,0.3c0.2-0.1,0.5-0.2,0.5-0.2
			s-0.3,0.4-0.7,0.4s-1-0.4-1.2-0.3c-0.3,0.1-0.7,0.4-1.2,0.3c-0.5-0.1-0.7-0.2-0.7-0.2s-0.5-0.1-0.7,0.1c-0.3,0.2,0.1-0.4,0.9-0.3
			c0.8,0.2,0.9,0.2,1.2,0s0.6-0.3,0.4-0.7c-0.2-0.3-0.6-0.6-0.8-0.3c-0.1,0.3-0.2,0.4,0.1,0.5c0.3,0,0.2-0.2,0.2-0.2
			S49.1,41.9,48.2,41.8L48.2,41.8z"/>
		<path class="st28" d="M42.3,35.1c0,0-0.4-0.3-0.1-0.7c0.3-0.4,0.9-0.3,1.1,0c0.2,0.3,0.3,0.7,0.6,0.9s0.8,0.4,1,0.3
			c0.2-0.1,0.5-0.2,0.5-0.2s-0.3,0.4-0.7,0.4s-1-0.4-1.2-0.3c-0.3,0.1-0.7,0.4-1.2,0.3c-0.5-0.1-0.7-0.2-0.7-0.2s-0.5-0.1-0.7,0.1
			c-0.3,0.2,0.1-0.4,0.9-0.3c0.8,0.2,0.9,0.2,1.2,0s0.6-0.3,0.4-0.7c-0.2-0.3-0.6-0.6-0.8-0.3c-0.1,0.3-0.2,0.4,0.1,0.5
			c0.3,0,0.2-0.2,0.2-0.2S43.2,35.1,42.3,35.1L42.3,35.1z"/>
		<path class="st28" d="M32,33.5c0,0-0.4-0.3-0.1-0.7c0.3-0.5,0.9-0.3,1.1,0s0.3,0.7,0.6,0.9s0.8,0.4,1,0.3c0.2-0.1,0.5-0.2,0.5-0.2
			s-0.3,0.4-0.7,0.4s-1-0.4-1.2-0.3c-0.3,0.1-0.7,0.4-1.2,0.3c-0.5-0.1-0.7-0.2-0.7-0.2s-0.5-0.1-0.7,0.1c-0.3,0.2,0.1-0.4,0.9-0.3
			c0.8,0.2,0.9,0.2,1.2,0s0.6-0.3,0.4-0.7c-0.2-0.3-0.6-0.6-0.8-0.3c-0.1,0.3-0.2,0.4,0.1,0.5c0.3,0,0.2-0.2,0.2-0.2
			S32.9,33.6,32,33.5L32,33.5z"/>
		<path class="st28" d="M37.8,32.1c0,0-0.4-0.3-0.1-0.7c0.3-0.5,0.9-0.3,1.1,0s0.3,0.7,0.6,0.9s0.8,0.4,1,0.3
			c0.2-0.1,0.5-0.2,0.5-0.2s-0.3,0.4-0.7,0.4s-1-0.4-1.2-0.3c-0.3,0.1-0.7,0.4-1.2,0.3s-0.7-0.2-0.7-0.2s-0.5-0.1-0.7,0.1
			c-0.3,0.2,0.1-0.4,0.9-0.3c0.8,0.2,0.9,0.2,1.2,0c0.3-0.2,0.6-0.3,0.4-0.7c-0.2-0.3-0.6-0.6-0.8-0.3c-0.1,0.3-0.2,0.4,0.1,0.5
			c0.3,0,0.2-0.2,0.2-0.2C38.2,31.5,38.8,32.1,37.8,32.1L37.8,32.1z"/>
		<path class="st28" d="M59.5,38c0,0-0.4-0.3-0.1-0.7s0.9-0.3,1.1,0c0.2,0.3,0.3,0.7,0.6,0.9c0.3,0.2,0.8,0.4,1,0.3
			c0.2-0.1,0.5-0.2,0.5-0.2s-0.3,0.4-0.7,0.4s-1-0.4-1.2-0.3c-0.3,0.1-0.7,0.4-1.2,0.3c-0.5-0.1-0.7-0.2-0.7-0.2s-0.5-0.1-0.7,0.1
			c-0.3,0.2,0.1-0.4,0.9-0.3c0.8,0.2,0.9,0.2,1.2,0s0.6-0.3,0.4-0.7c-0.2-0.3-0.6-0.6-0.8-0.3c-0.1,0.3-0.2,0.4,0.1,0.5
			c0.3,0,0.2-0.2,0.2-0.2S60.5,38.1,59.5,38L59.5,38z"/>
		<path class="st28" d="M59.7,32.4c0,0-0.4-0.3-0.1-0.7c0.3-0.5,0.9-0.3,1.1,0c0.2,0.3,0.3,0.7,0.6,0.9s0.8,0.4,1,0.3
			c0.2-0.1,0.5-0.2,0.5-0.2s-0.3,0.4-0.7,0.4s-1-0.4-1.2-0.3c-0.3,0.1-0.7,0.4-1.2,0.3S59,32.9,59,32.9s-0.5-0.1-0.7,0.1
			c-0.3,0.2,0.1-0.4,0.9-0.3c0.8,0.2,0.9,0.2,1.2,0c0.3-0.2,0.6-0.3,0.4-0.7c-0.2-0.3-0.6-0.6-0.8-0.3c-0.1,0.3-0.2,0.4,0.1,0.5
			c0.3,0,0.2-0.2,0.2-0.2C60.1,31.9,60.6,32.4,59.7,32.4L59.7,32.4z"/>
		<path class="st28" d="M55.3,36.1c0,0-0.4-0.3-0.1-0.7s0.9-0.3,1.1,0s0.3,0.7,0.6,0.9s0.8,0.4,1,0.3c0.2-0.1,0.5-0.2,0.5-0.2
			s-0.3,0.4-0.7,0.4s-1-0.4-1.2-0.3c-0.3,0.1-0.7,0.4-1.2,0.3s-0.7-0.2-0.7-0.2s-0.5-0.1-0.7,0.1c-0.3,0.2,0.1-0.4,0.9-0.3
			c0.8,0.2,0.9,0.2,1.2,0s0.6-0.3,0.4-0.7c-0.2-0.3-0.6-0.6-0.8-0.3c-0.1,0.3-0.2,0.4,0.1,0.5c0.3,0,0.2-0.2,0.2-0.2
			S56.3,36.1,55.3,36.1L55.3,36.1z"/>
		<path class="st28" d="M55.2,29.4c0,0-0.4-0.3-0.1-0.7c0.3-0.5,0.9-0.3,1.1,0s0.3,0.7,0.6,0.9s0.8,0.4,1,0.3
			c0.2-0.1,0.5-0.2,0.5-0.2s-0.3,0.4-0.7,0.4c-0.4,0-1-0.4-1.2-0.3c-0.3,0.1-0.7,0.4-1.2,0.3c-0.5-0.1-0.7-0.2-0.7-0.2
			S54,29.8,53.8,30c-0.3,0.2,0.1-0.4,0.9-0.3c0.8,0.2,0.9,0.2,1.2,0c0.2-0.2,0.6-0.3,0.4-0.7c-0.2-0.3-0.6-0.6-0.8-0.3
			c-0.1,0.3-0.2,0.4,0.1,0.5c0.3,0,0.2-0.2,0.2-0.2C55.6,28.9,56.1,29.4,55.2,29.4L55.2,29.4z"/>
		<path class="st28" d="M19.8,44.9c0,0-0.4-0.3-0.1-0.7s0.9-0.3,1.1,0s0.3,0.7,0.6,0.9c0.3,0.2,0.8,0.4,1,0.3
			c0.2-0.1,0.5-0.2,0.5-0.2s-0.3,0.4-0.7,0.4c-0.4,0-1-0.4-1.2-0.3c-0.3,0.1-0.7,0.4-1.2,0.3c-0.5-0.1-0.7-0.2-0.7-0.2
			s-0.5-0.1-0.7,0.1c-0.3,0.2,0.1-0.4,0.9-0.3c0.8,0.2,0.9,0.2,1.1,0s0.6-0.3,0.4-0.7c-0.2-0.3-0.6-0.6-0.8-0.3
			c-0.1,0.3-0.2,0.4,0.1,0.5c0.3,0,0.2-0.2,0.2-0.2S20.8,44.9,19.8,44.9L19.8,44.9z"/>
		<path class="st28" d="M20.8,39.9c0,0-0.4-0.3-0.1-0.7s0.9-0.3,1.1,0s0.3,0.7,0.6,0.9c0.3,0.2,0.8,0.4,1,0.3
			c0.2-0.1,0.5-0.2,0.5-0.2s-0.3,0.4-0.7,0.4c-0.4,0-1-0.4-1.2-0.3c-0.3,0.1-0.7,0.4-1.2,0.3c-0.5-0.1-0.7-0.2-0.7-0.2
			s-0.5-0.1-0.7,0.1c-0.3,0.2,0.1-0.4,0.9-0.3c0.8,0.2,0.9,0.2,1.1,0s0.6-0.3,0.4-0.7c-0.2-0.3-0.6-0.6-0.8-0.3
			c-0.1,0.3-0.2,0.4,0.1,0.5c0.3,0,0.2-0.2,0.2-0.2S21.8,39.9,20.8,39.9L20.8,39.9z"/>
		<path class="st28" d="M14,41.7c0,0-0.4-0.3-0.1-0.7s0.9-0.3,1.1,0c0.2,0.3,0.3,0.7,0.6,0.9c0.3,0.2,0.8,0.4,1,0.3
			c0.2-0.1,0.5-0.2,0.5-0.2s-0.3,0.4-0.7,0.4c-0.4,0-0.9-0.4-1.2-0.3c-0.3,0.1-0.7,0.4-1.2,0.3c-0.5-0.1-0.7-0.2-0.7-0.2
			s-0.5-0.1-0.7,0.1c-0.3,0.2,0.1-0.4,0.9-0.3c0.8,0.2,0.9,0.2,1.1,0c0.2-0.2,0.6-0.3,0.4-0.7c-0.2-0.3-0.6-0.6-0.8-0.3
			c-0.1,0.3-0.2,0.4,0.1,0.5c0.3,0,0.2-0.2,0.2-0.2C14.4,41.2,14.9,41.8,14,41.7L14,41.7z"/>
		<path class="st28" d="M16.3,36.9c0,0-0.4-0.3-0.1-0.7c0.3-0.4,0.9-0.3,1.1,0s0.3,0.7,0.6,0.9c0.3,0.2,0.8,0.4,1,0.3
			c0.2-0.1,0.5-0.2,0.5-0.2s-0.3,0.4-0.7,0.4c-0.4,0-1-0.4-1.2-0.3c-0.3,0.1-0.7,0.4-1.2,0.3c-0.5-0.1-0.7-0.2-0.7-0.2
			s-0.5-0.1-0.7,0.1c-0.3,0.2,0.1-0.4,0.9-0.3c0.8,0.2,0.9,0.2,1.1,0c0.2-0.2,0.6-0.3,0.4-0.7c-0.2-0.3-0.6-0.6-0.8-0.3
			c-0.1,0.3-0.2,0.4,0.1,0.5c0.3,0,0.2-0.2,0.2-0.2S17.3,36.9,16.3,36.9L16.3,36.9z"/>
		<path class="st28" d="M10.8,37.2c0,0-0.4-0.3-0.1-0.7s0.9-0.3,1.1,0c0.2,0.3,0.3,0.7,0.6,0.9c0.3,0.2,0.8,0.4,1,0.3
			c0.2-0.1,0.5-0.2,0.5-0.2s-0.3,0.4-0.7,0.4s-0.9-0.4-1.2-0.3c-0.3,0.1-0.7,0.4-1.2,0.3c-0.5-0.1-0.7-0.2-0.7-0.2s-0.5-0.1-0.7,0.1
			c-0.3,0.2,0.1-0.4,0.9-0.3c0.8,0.2,0.9,0.2,1.1,0c0.2-0.2,0.6-0.3,0.4-0.7c-0.2-0.3-0.6-0.6-0.8-0.3c-0.1,0.3-0.2,0.4,0.1,0.5
			c0.3,0,0.2-0.2,0.2-0.2C11.2,36.7,11.8,37.3,10.8,37.2L10.8,37.2z"/>
		<path class="st28" d="M12.3,31.6c0,0-0.4-0.3-0.1-0.7c0.4-0.5,0.9-0.3,1.1,0c0.2,0.3,0.3,0.7,0.6,0.9c0.3,0.2,0.8,0.4,1,0.3
			c0.2-0.1,0.5-0.2,0.5-0.2s-0.3,0.4-0.8,0.3c-0.4,0-0.9-0.4-1.2-0.3c-0.3,0.1-0.7,0.4-1.2,0.3c-0.5-0.1-0.7-0.2-0.7-0.2
			s-0.5-0.1-0.7,0.1c-0.3,0.2,0.1-0.4,0.9-0.3c0.8,0.2,0.9,0.2,1.1,0c0.2-0.2,0.6-0.3,0.4-0.7c-0.2-0.3-0.6-0.6-0.8-0.3
			c-0.1,0.3-0.2,0.4,0.1,0.5c0.3,0,0.2-0.2,0.2-0.2C12.7,31,13.3,31.6,12.3,31.6L12.3,31.6z"/>
		<path class="st28" d="M32.5,48.6c0,0-0.4-0.3-0.1-0.7s0.9-0.3,1.1,0s0.3,0.7,0.6,0.9s0.8,0.4,1,0.3c0.2-0.1,0.5-0.2,0.5-0.2
			s-0.3,0.4-0.7,0.4s-1-0.4-1.2-0.3c-0.3,0.1-0.7,0.4-1.2,0.3c-0.5-0.1-0.7-0.2-0.7-0.2s-0.5-0.1-0.7,0.1c-0.3,0.2,0.1-0.4,0.9-0.3
			c0.8,0.2,0.9,0.2,1.2,0c0.3-0.2,0.6-0.3,0.4-0.7c-0.2-0.3-0.6-0.6-0.8-0.3c-0.1,0.3-0.2,0.4,0.1,0.5c0.3,0,0.2-0.2,0.2-0.2
			S33.4,48.6,32.5,48.6L32.5,48.6z"/>
		<path class="st28" d="M71.1,42.2c0,0-0.4-0.3-0.1-0.7s0.9-0.3,1.1,0s0.3,0.7,0.6,0.9c0.3,0.2,0.8,0.4,1,0.3
			c0.2-0.1,0.5-0.2,0.5-0.2s-0.3,0.4-0.7,0.4c-0.4,0-0.9-0.4-1.2-0.3c-0.3,0.1-0.7,0.4-1.2,0.3s-0.7-0.2-0.7-0.2s-0.5-0.1-0.7,0.1
			c-0.3,0.2,0.1-0.4,0.9-0.3c0.8,0.2,0.9,0.2,1.2,0c0.3-0.2,0.6-0.3,0.4-0.7c-0.2-0.3-0.6-0.6-0.8-0.3c-0.1,0.3-0.2,0.4,0.1,0.5
			c0.3,0,0.2-0.2,0.2-0.2S72,42.2,71.1,42.2L71.1,42.2z"/>
		<path class="st28" d="M67.2,35.3c0,0-0.4-0.3-0.1-0.7s0.9-0.3,1.1,0s0.3,0.7,0.6,0.9c0.3,0.2,0.8,0.4,1,0.3
			c0.2-0.1,0.5-0.2,0.5-0.2S70,36,69.6,36c-0.4,0-0.9-0.4-1.2-0.3c-0.3,0.1-0.7,0.4-1.2,0.3c-0.5-0.1-0.7-0.2-0.7-0.2
			s-0.5-0.1-0.7,0.1c-0.3,0.2,0.1-0.4,0.9-0.3c0.8,0.2,0.9,0.2,1.2,0s0.6-0.3,0.4-0.7c-0.2-0.3-0.6-0.6-0.8-0.3
			c-0.1,0.3-0.2,0.4,0.1,0.5c0.3,0,0.2-0.2,0.2-0.2S68.1,35.4,67.2,35.3L67.2,35.3z"/>
		<path class="st28" d="M71.8,31.1c0,0-0.4-0.3-0.1-0.7c0.3-0.5,0.9-0.3,1.1,0s0.3,0.7,0.6,0.9c0.3,0.2,0.8,0.4,1,0.3
			c0.2-0.1,0.5-0.2,0.5-0.2s-0.3,0.4-0.7,0.4c-0.4,0-0.9-0.4-1.2-0.3c-0.3,0.1-0.7,0.4-1.2,0.3c-0.5-0.1-0.7-0.2-0.7-0.2
			s-0.5-0.1-0.7,0.1c-0.3,0.2,0.1-0.4,0.9-0.3c0.8,0.2,0.9,0.2,1.2,0c0.2-0.2,0.6-0.3,0.4-0.7c-0.2-0.3-0.6-0.6-0.8-0.3
			c-0.1,0.3-0.2,0.4,0.1,0.5c0.3,0,0.2-0.2,0.2-0.2C72.2,30.5,72.7,31.1,71.8,31.1L71.8,31.1z"/>
		<path class="st28" d="M44,28.6c0,0-0.4-0.3-0.1-0.7c0.3-0.5,0.9-0.3,1.1,0s0.3,0.7,0.6,0.9s0.8,0.4,1,0.3c0.2-0.1,0.5-0.2,0.5-0.2
			s-0.3,0.4-0.7,0.4s-1-0.4-1.2-0.3c-0.3,0.1-0.7,0.4-1.2,0.3c-0.5-0.1-0.7-0.2-0.7-0.2s-0.5-0.1-0.7,0.1c-0.3,0.2,0.1-0.4,0.9-0.3
			c0.8,0.2,0.9,0.2,1.2,0c0.2-0.2,0.6-0.3,0.4-0.7c-0.2-0.3-0.6-0.6-0.8-0.3c-0.1,0.3-0.2,0.4,0.1,0.5c0.3,0,0.2-0.2,0.2-0.2
			C44.4,28,44.9,28.6,44,28.6L44,28.6z"/>
		<path class="st28" d="M33.5,29.1c0,0-0.4-0.3-0.1-0.7c0.3-0.5,0.9-0.3,1.1,0s0.3,0.7,0.6,0.9s0.8,0.4,1,0.3
			c0.2-0.1,0.5-0.2,0.5-0.2s-0.3,0.4-0.7,0.4c-0.4,0-1-0.4-1.2-0.3c-0.3,0.1-0.7,0.4-1.2,0.3c-0.5-0.1-0.7-0.2-0.7-0.2
			s-0.5-0.1-0.7,0.1c-0.3,0.2,0.1-0.4,0.9-0.3c0.8,0.2,0.9,0.2,1.2,0c0.2-0.2,0.6-0.3,0.4-0.7c-0.2-0.3-0.6-0.6-0.8-0.3
			c-0.1,0.3-0.2,0.4,0.1,0.5c0.3,0,0.2-0.2,0.2-0.2C33.9,28.5,34.4,29.1,33.5,29.1L33.5,29.1z"/>
		<path class="st28" d="M71.4,37.6c0,0-0.4-0.3-0.1-0.7c0.3-0.4,0.9-0.3,1.1,0s0.3,0.7,0.6,0.9c0.3,0.2,0.8,0.4,1,0.3
			c0.2-0.1,0.5-0.2,0.5-0.2s-0.3,0.4-0.7,0.4s-0.9-0.4-1.2-0.3c-0.3,0.1-0.7,0.4-1.2,0.3c-0.5-0.1-0.7-0.2-0.7-0.2S70.2,38,70,38.2
			c-0.3,0.2,0.1-0.4,0.9-0.3c0.8,0.2,0.9,0.2,1.2,0s0.6-0.3,0.4-0.7c-0.2-0.3-0.6-0.6-0.8-0.3c-0.1,0.3-0.2,0.4,0.1,0.5
			c0.3,0,0.2-0.2,0.2-0.2S72.4,37.7,71.4,37.6L71.4,37.6z"/>
	</g>
	<g>
		<g>
			<rect x="16.3" y="7.8" class="st29" width="0.1" height="51.7"/>
			<rect x="75.9" y="7.8" class="st29" width="0.1" height="51.7"/>
			<rect x="64" y="7.8" class="st29" width="0.1" height="51.7"/>
			<rect x="52.1" y="7.8" class="st29" width="0.1" height="51.7"/>
			<rect x="40.1" y="7.8" class="st29" width="0.1" height="51.7"/>
			<rect x="28.2" y="7.8" class="st29" width="0.1" height="51.7"/>
		</g>
		<g>
			<rect x="7.4" y="9.6" class="st29" width="77.6" height="0.1"/>
			<rect x="7.4" y="21.6" class="st29" width="77.6" height="0.1"/>
			<rect x="7.4" y="33.6" class="st29" width="77.6" height="0.1"/>
			<rect x="7.4" y="45.7" class="st29" width="77.6" height="0.1"/>
			<rect x="7.4" y="57.7" class="st29" width="77.6" height="0.1"/>
		</g>
	</g>
	
		<rect x="42.6" y="41.9" transform="matrix(0.7158 -0.6983 0.6983 0.7158 -10.12 59.0775)" class="st29" width="49.9" height="0.1"/>
	<rect x="52.1" y="-3" transform="matrix(0.7237 -0.6901 0.6901 0.7237 -8.8382 45.269)" class="st29" width="0.1" height="73.3"/>
	<g>
		<polygon class="st30" points="59,45.6 59.2,45.6 59.2,45.6 		"/>
		<polygon class="st30" points="68.9,45.6 69.1,45.6 69.1,45.6 		"/>
		<polygon class="st31" points="68,45.6 68.9,45.6 68.9,45.6 		"/>
		<polygon class="st31" points="59.2,45.6 60.1,45.6 60.1,45.6 		"/>
		<path class="st32" d="M66.9,48.2c0.6-0.6,0.9-1.5,1-2.3h-0.2c-0.1,0.8-0.4,1.5-0.9,2.1L66.9,48.2L66.9,48.2z"/>
		<path class="st32" d="M66.7,42.7c-0.6-0.6-1.4-1-2.3-1v0.2c0.8,0.1,1.5,0.4,2.1,1C66.5,42.8,66.7,42.7,66.7,42.7z"/>
		<polygon class="st32" points="60.1,45.6 60.3,45.6 60.3,45.6 		"/>
		<path class="st32" d="M61.1,42.9c-0.6,0.6-0.9,1.5-1,2.3h0.2c0.1-0.8,0.4-1.5,0.9-2.1L61.1,42.9L61.1,42.9z"/>
		<path class="st32" d="M61.4,48.5c0.6,0.6,1.4,0.9,2.3,1v-0.2c-0.8-0.1-1.5-0.4-2.1-0.9C61.5,48.3,61.4,48.5,61.4,48.5z"/>
		<path class="st32" d="M61.2,48.2l0.1-0.2c-0.3-0.3-0.5-0.7-0.7-1.1c-0.1-0.3-0.2-0.7-0.2-1h-0.2c0,0.4,0.1,0.7,0.2,1.1
			C60.6,47.5,60.8,47.9,61.2,48.2z"/>
		<path class="st32" d="M66.9,42.9l-0.1,0.2c0.3,0.3,0.5,0.7,0.7,1.1c0.1,0.3,0.2,0.7,0.2,1h0.2c0-0.4-0.1-0.8-0.2-1.1
			C67.5,43.6,67.2,43.2,66.9,42.9L66.9,42.9z"/>
		<polygon class="st32" points="67.8,45.6 68,45.6 68,45.6 		"/>
		<path class="st32" d="M66.7,48.5l-0.2-0.1c-0.3,0.3-0.7,0.5-1.1,0.7c-0.3,0.1-0.7,0.2-1,0.2v0.2c0.4,0,0.8-0.1,1.1-0.2
			C66,49.1,66.4,48.8,66.7,48.5L66.7,48.5z"/>
		<path class="st32" d="M61.4,42.7l0.2,0.1c0.3-0.3,0.7-0.5,1.1-0.7c0.3-0.1,0.7-0.2,1-0.2v-0.2c-0.4,0-0.8,0.1-1.1,0.2
			C62.1,42.1,61.7,42.4,61.4,42.7L61.4,42.7z"/>
		<path class="st33" d="M62.5,47.6c0.3,0.2,0.6,0.4,1,0.5v-0.2c-0.3-0.1-0.6-0.2-0.8-0.4L62.5,47.6L62.5,47.6z"/>
		<path class="st33" d="M62.1,44c-0.2,0.3-0.4,0.6-0.5,1h0.2c0.1-0.3,0.2-0.6,0.4-0.8L62.1,44L62.1,44z"/>
		<path class="st33" d="M62.1,47.1l0.1-0.2c-0.1-0.2-0.2-0.3-0.3-0.5c0-0.1-0.1-0.2-0.1-0.3h-0.2c0,0.1,0.1,0.3,0.1,0.4
			C61.8,46.7,61.9,46.9,62.1,47.1z"/>
		<path class="st33" d="M66,47.1c0.2-0.3,0.4-0.6,0.5-1h-0.2c-0.1,0.3-0.2,0.5-0.4,0.8C65.9,46.9,66,47.1,66,47.1z"/>
		<path class="st33" d="M65.6,43.6c-0.3-0.2-0.6-0.4-1-0.5v0.2c0.3,0.1,0.6,0.2,0.8,0.4L65.6,43.6L65.6,43.6z"/>
		<polygon class="st33" points="61.5,45.6 61.7,45.6 61.7,45.6 		"/>
		<polygon class="st33" points="66.3,45.6 66.5,45.6 66.5,45.6 		"/>
		<path class="st33" d="M62.5,43.6l0.2,0.1c0.2-0.1,0.3-0.2,0.5-0.3c0.1,0,0.2-0.1,0.3-0.1v-0.2c-0.1,0-0.3,0.1-0.4,0.1
			C62.9,43.3,62.7,43.4,62.5,43.6z"/>
		<path class="st33" d="M65.6,47.6l-0.2-0.1c-0.2,0.1-0.3,0.2-0.5,0.3c-0.1,0-0.2,0.1-0.3,0.1v0.2c0.1,0,0.3-0.1,0.4-0.1
			C65.2,47.8,65.4,47.7,65.6,47.6L65.6,47.6z"/>
		<path class="st33" d="M66,44l-0.1,0.2c0.1,0.2,0.2,0.3,0.3,0.5c0,0.1,0.1,0.2,0.1,0.3h0.2c0-0.1-0.1-0.3-0.1-0.4
			C66.3,44.4,66.2,44.2,66,44z"/>
		<path class="st34" d="M62.2,46.9l0.5-0.7h0.1l0,0l-1-0.1c0,0.1,0,0.2,0.1,0.3C62,46.6,62.1,46.8,62.2,46.9L62.2,46.9z"/>
		<path class="st34" d="M63.3,46.9l-0.7,0.5c0.2,0.2,0.5,0.3,0.8,0.4l-0.1-1.1l0,0V46.9L63.3,46.9z"/>
		<path class="st34" d="M65.4,47.4l-0.7-0.5l-0.1,0.9c0.1,0,0.2,0,0.3-0.1C65.1,47.6,65.3,47.5,65.4,47.4z"/>
		<path class="st34" d="M64.8,46.7l-0.1,0.2L64.8,46.7z"/>
		<path class="st34" d="M63.3,44.4L63.3,44.4L63.3,44.4z"/>
		<path class="st34" d="M62.7,44.9l-0.5-0.7c-0.2,0.2-0.3,0.5-0.4,0.8l1.1-0.1l0,0C62.9,44.8,62.7,44.9,62.7,44.9z"/>
		<path class="st34" d="M65.9,44.2l-0.5,0.7h-0.1l0,0l1.1,0.1c0-0.1,0-0.2-0.1-0.3C66.1,44.5,66,44.4,65.9,44.2z"/>
		<path class="st34" d="M65.3,46.3l0.5,0.7c0.2-0.2,0.3-0.5,0.4-0.8L65.3,46.3L65.3,46.3L65.3,46.3L65.3,46.3z"/>
		<path class="st34" d="M64.7,44.3l0.7-0.5c-0.2-0.2-0.5-0.3-0.8-0.4l0.1,1.1l0,0C64.8,44.4,64.7,44.3,64.7,44.3z"/>
		<polygon class="st34" points="61.7,45.6 64,45.6 64,45.6 64,45.6 		"/>
		<polygon class="st34" points="64,45.6 66.3,45.6 66.3,45.6 		"/>
		<path class="st34" d="M62.7,43.7l0.7,0.6l0.1-0.9c-0.1,0-0.2,0-0.3,0.1C63,43.5,62.8,43.6,62.7,43.7L62.7,43.7z"/>
		<polygon class="st35" points="66.7,42.7 66.5,42.8 65.6,43.6 65.4,43.7 64.7,44.3 64.8,44.4 67,42.6 67,42.6 67,42.6 67,42.6 
			65.2,44.8 65.3,44.9 65.9,44.2 66,44 66.8,43.1 66.9,42.9 67.5,42.2 67.6,42 67.8,41.8 67.8,41.8 67.8,41.8 67.8,41.8 67.6,42 
			67.4,42.1 		"/>
		<polygon class="st35" points="61.1,42.9 61.3,43.1 62.1,44 62.2,44.2 62.7,44.9 62.9,44.8 61.1,42.6 61.1,42.6 63.3,44.4 
			63.3,44.3 63.3,44.3 62.7,43.7 62.5,43.6 61.5,42.8 61.4,42.7 60.6,42.1 60.5,42 60.3,41.8 60.3,41.8 60.5,42 60.6,42.2 		"/>
		<polygon class="st35" points="66.9,48.2 66.8,48.1 66,47.1 65.9,46.9 65.3,46.3 65.2,46.3 67,48.5 67,48.5 64.8,46.7 64.7,46.9 
			64.7,46.9 65.4,47.4 65.6,47.6 66.5,48.3 66.7,48.5 67.4,49 67.6,49.2 67.8,49.4 67.8,49.3 67.6,49.1 67.5,49 		"/>
		<polygon class="st35" points="61.4,48.5 61.5,48.3 62.5,47.6 62.7,47.4 63.3,46.9 63.3,46.7 61.1,48.5 62.9,46.3 62.7,46.3 
			62.2,46.9 62.1,47.1 61.3,48.1 61.2,48.2 60.6,49 60.5,49.1 60.3,49.4 60.5,49.2 60.6,49 		"/>
		<polygon class="st36" points="61.1,42.6 62.9,44.8 62.9,44.9 63.3,44.8 63.3,44.8 		"/>
		<polygon class="st36" points="61.1,48.5 63.3,46.3 63.3,46.3 62.9,46.3 62.9,46.3 		"/>
		<path class="st36" d="M67,42.6L67,42.6L67,42.6z"/>
		<polygon class="st36" points="67,42.6 64.8,44.8 64.8,44.8 64.8,44.8 65.2,44.9 65.2,44.8 		"/>
		<polygon class="st36" points="67,48.5 67,48.5 64.8,46.3 64.8,46.7 64.8,46.7 		"/>
		<polygon class="st37" points="63.4,44.9 63.4,44.9 64,40 64,38.9 63.8,40.6 63.8,40.7 63.7,41.6 63.7,41.8 63.5,43.1 63.5,43.3 
			63.3,44.3 63.3,44.3 63.3,44.4 63.3,44.8 63.3,44.8 63.3,44.8 62.9,44.9 61.8,45 61.6,45 60.3,45.2 60.1,45.2 59.2,45.3 59,45.4 
			57.3,45.6 58.5,45.6 		"/>
		<polygon class="st37" points="63.4,46.2 63.4,46.2 63.4,46.2 58.5,45.6 57.3,45.6 59,45.8 59.2,45.8 60.1,45.9 60.3,46 61.6,46.1 
			61.8,46.1 62.9,46.3 63.3,46.3 63.3,46.3 63.3,46.3 63.3,46.7 63.5,47.8 63.5,48 63.6,49.3 63.7,49.5 63.8,50.4 63.8,50.6 
			64,52.3 64,52.3 64,51.2 		"/>
		<polygon class="st37" points="64.7,44.9 64.7,44.9 69.6,45.6 70.7,45.6 69,45.3 68.9,45.3 67.9,45.2 67.7,45.2 66.5,45 66.3,45 
			65.2,44.9 64.8,44.8 64.8,44.8 64.8,44.8 64.8,44.4 64.6,43.3 64.6,43.1 64.4,41.9 64.4,41.6 64.3,40.7 64.3,40.5 64,38.8 
			64,38.9 64,40 		"/>
		<polygon class="st37" points="64.7,46.2 64.7,46.2 64,51.1 64,52.2 64.3,50.6 64.3,50.4 64.4,49.5 64.4,49.3 64.6,48 64.6,47.8 
			64.7,46.9 64.7,46.9 64.8,46.7 64.8,46.3 64.8,46.3 64.8,46.3 65.2,46.3 66.3,46.1 66.5,46.1 67.7,46 67.9,45.9 68.9,45.8 
			69,45.8 70.7,45.6 69.6,45.6 		"/>
		<polygon class="st37" points="69.1,45.6 68.9,45.6 68,45.6 67.8,45.6 66.5,45.6 66.3,45.6 64,45.6 64,45.6 64,40 64,39.2 64,38.8 
			64,38.8 64,39.3 64,40 64,40 64,45.6 64,45.6 64,45.6 64,45.6 61.7,45.6 61.5,45.6 60.3,45.6 60.1,45.6 59.2,45.6 59,45.6 
			57.7,45.6 57.3,45.6 57.3,45.6 57.7,45.6 58.4,45.6 58.4,45.6 58.8,45.6 64,45.6 64,45.6 64,40.3 64,40 64,40 64,40.3 64,45.6 
			69.3,45.6 69.6,45.6 69.6,45.6 70.3,45.6 70.7,45.6 70.7,45.6 70.3,45.6 		"/>
		<polygon class="st37" points="64,45.6 64,45.6 64,50.8 64,51.2 64,51.2 64,50.9 64,45.6 64,45.6 64,51.2 64,51.2 64,51.9 64,52.3 
			64,52.3 64,51.9 64,51.1 		"/>
		<polygon class="st36" points="64,45.6 64.7,44.9 64,40 64,40 		"/>
		<polygon class="st36" points="60.1,45.6 60.3,45.6 61.5,45.6 61.7,45.6 64,45.6 63.4,44.9 58.5,45.6 58.4,45.6 59,45.6 59.2,45.6 
					"/>
		<polygon class="st36" points="64,45.6 64.7,46.2 64.7,46.2 69.6,45.6 69.6,45.6 69.3,45.6 		"/>
		<polygon class="st36" points="64,45.6 63.4,46.2 63.4,46.2 63.4,46.2 64,51.2 64,51.2 64,51.2 		"/>
		<polygon class="st38" points="69.3,45.6 64,45.6 64,40.3 64,40 64,40 64,40.3 64,45.6 64,45.6 58.8,45.6 58.4,45.6 58.4,45.6 
			58.8,45.6 64,45.6 64,45.6 64,45.6 64,50.9 64,51.2 64,51.2 64,50.8 64,45.6 64,45.6 69.3,45.6 69.6,45.6 69.6,45.6 		"/>
	</g>
	
		<linearGradient id="SVGID_00000023997019773289185970000011340846404831532178_" gradientUnits="userSpaceOnUse" x1="74.3836" y1="-3.4545" x2="70.7536" y2="-2.4345" gradientTransform="matrix(1 0 0 1 -63.3062 28.818)">
		<stop  offset="0" style="stop-color:#FFDEA7"/>
		<stop  offset="2.000000e-02" style="stop-color:#FFE0AB"/>
		<stop  offset="0.11" style="stop-color:#FFEAB9"/>
		<stop  offset="0.4" style="stop-color:#E1CB9D"/>
		<stop  offset="0.63" style="stop-color:#CEB78C"/>
	</linearGradient>
	<path style="fill:url(#SVGID_00000023997019773289185970000011340846404831532178_);" d="M6.7,24l1.4-0.2c0,0,0.2-0.6,0.5-0.6
		s0.7,0.1,0.7,0.1s0.3,0,0.3,0.2s0,0.4,0.1,0.7c0.1,0.2-0.4,0.6,0.3,0.6s0.9-0.3,0.8,0c-0.2,0.3-0.9,0.7-0.9,0.7s-0.2-0.1,0,0.2
		s0.5,0,0.5,0.6v1.1c0,0.2,0.2,0.4-0.3,0.7c-0.6,0.2-1.4,0.8-1.4,0.8s0.4-0.8,0.6-1.1c0.2-0.3,0.5-0.4,0.5-0.7
		c0-0.2,0.1-0.6-0.1-0.9c-0.1-0.3-0.3-0.1-0.6-0.5l-0.3-0.4l-1.1-0.7C7.6,24.6,7.3,23.7,6.7,24L6.7,24z"/>
	<polygon class="st40" points="37.2,39.5 37,39.7 37.1,39.8 37.3,39.6 	"/>
</g>
</svg>
