<?xml version="1.0" encoding="UTF-8"?>
<svg id="Layer_2" data-name="Layer 2" xmlns="http://www.w3.org/2000/svg" viewBox="0 0 213.13 174.02">
  <defs>
    <style>
      .cls-1 {
        fill: #42322c;
        fill-rule: evenodd;
        stroke-width: 0px;
      }
    </style>
  </defs>
  <g id="Layer_1-2" data-name="Layer 1">
    <path class="cls-1" d="M121.39,111.64c6.02.45,10.45,4.41,12.15,11.37,3.1,12.72-1.81,20.61-12.42,22.62-8.47,1.61-20.76-2.6-23.74-9.05-2.28-4.91-1.49-9.01.48-12.43,6.08-10.5,12.45-13.34,23.53-12.52h0ZM170.8,101.74c.29,1.07.66,2.26.84,2.59.54,1.01,2.03,2.55,2.95,3.31.35.29.17-.27.98-.9,1.59-1.22,3.14-2.41,3.81-4.17l3.47.34,1.57,8.47-8.43,4.72c-1.4,16.85,14.26,14.44-34.65,17.68,3.74-42.8-54.78-35.62-52.71.63l-23.13-1.22c-.18-25.54-20.45-17.89-20.06-10.5l-.46,9.97-14.94.48c-1.01-16.13,1.9-23.82-3.96-26.15l-8.45.43-.15-8.78,4.41-.34c.88,1.53,1.27,2.91,2.73,4.68,2.83,3.42,2.38,2.24,4.54-.6.2-.27,1.22-3.17,1.69-4.78l4.77-.37c1.85,5.01.62,6.61,4.94,8.89,8.41-4.74,2.45-8.62,5.65-9.27,14.19.92-7.69,18.2,33.09,16.7l.54-7.08c31.09-3.81,31.51-2.14,32.69-14.44l-.67-28.19c4.23-4.61,4.84-3.2,11.18-4.53-.18-10.39-2.2-14.89,5.95-23.61,8.16,7.1,6.42,22.65,6.73,23.34,4.48-.22,8.46.5,11.63,2.7.53,19.99-1.43,38.6,1.27,56.28l16.95-.76-.23-16.04,5.46.53h0ZM79.18,128.8c2.23-8.85-.82-8.53-4.14-10.39-3.69,1.15-3.56,5.77-3.46,10.3l7.6.09h0ZM56.96,159.46c11,9.03,26.31,4.98,27.63,3.12-2.24-6.12-22.72-6.25-27.63-3.12h0ZM128.74,122.17c-7.19-7.96-11.97-1.55-12.12-1.47,5.02,6.06,12.1,7.05,3.88,14.56l-3.93,4.09c12.51,7.42,19.7-8.83,12.16-17.18h0ZM140.81,149.81c7.43,1.1,39.4,2.96,45.26-2.99-1.97-1.86,2.48-1.01-4.21-2.8l-19.96-.79c-25.69-.16-19.2.19-21.09,6.58h0ZM135,77.39c.35,3.43-2.19,6.67-4.71,6.6-6.04-.16-5.9-5.81-4.96-8.53,2.88-5.4,9.6,1.25,9.67,1.93h0ZM127.3,66.45c-15.86,4.46-7.4,26.2,5.55,23.25,14.02-3.19,9.89-25.83-5.55-23.25h0ZM59.37,133.25l-7.24.13c-3.57-14.13,7.75-13.61,7.24-.13h0ZM71.59,71.13l.29,8.44c.11,3.14-6.64,1.88-11.91.98l.73-8.87c2.44-4.96,5.6-7.01,10.88-.55h0ZM76.03,59.77c-8.62-8.03-7.78-17.82-8.99-25.36,1.69-3.28,9.07-11.01-.8-19.88-3.16-4.17-1.25-9.13-4.77-14.53-1.66,3.85-1.12,8.96-2.83,14.51-4.25,2.6-10.36,10.23.6,19.67-2.23,11.75-.9,20.95-9.23,27.24-2.02-6.33-2.45-10.63-8.92-11.85l.96,40.77-31.93,1.99c-1.63,5.49-1.54,11.64,1.66,21.08l12.11.27.07,20.11c-10.69.87-21.36.36-23.96,5.17,2.01,1.06,4.73,1.68,12.6,2.28,4.67.36,13.04-.93,18.02-1.27,15.29-1.04,55.68-3.76,63.5,7.03-14.54-1.14-32.98-3.27-47.76-1.65-7.68.84-12.32.02-14.02,4.91,8.61,4.37,28.3,1.44,38.19,1.44,7.03,0,12.38,2.58,20.52,2.15,12.6-.66,16.26-2.41,22.5,2.9-5.49.35-23.05.11-26.09,2.27,2.38,6.76,6.86,5.13,9.46,8.69-9.45-.03-10.67,2.15-12.78,4.1.45,2.77,40.01,2.69,42.65,1.23-7.73-6.56-6.51-4.34-17.18-8.46l46.51-3.44c-2-7.29-33.55-4.89-39.35-4.87,10.65-7.81,16.16-.8,21.98-15.36l74.4-2.52c-.6-5.99-2.62-5.93-10.08-6.55-5.19-.43-11.37-.14-16.64-.12l-2.19-9.13,9.08-4.14-2.23-21.31c-4.9-2.03-24.77-2.34-32.1-2.56l.74,16.02c-1.01.66-3.72.59-5.46.08-.42-11.42-.2-19.45-.84-30.98.68-26.87,2.33-39.54-3.57-43.15-3.3,5.8-3.2,8.97-3.25,14.77-9.01-4.44-6.21-22.7-17.95-27.55-6.17,2.54-13.12,29.05-17.57,29.58-1.97-6.76-.2-9.19-5.32-11.17-1.63,4.27-1.07,9.71-1.05,16.05.04,11.41-.64,29.64-.26,37.59-7.15.97-11.03,2.29-18.53,1.96-.56-10.98,2.16-45.64-2.33-51.69-6.94,2.32-5.46,11.22-7.54,13.7h0Z"/>
  </g>
</svg>