<?xml version="1.0" encoding="UTF-8"?>
<svg id="Layer_2" data-name="Layer 2" xmlns="http://www.w3.org/2000/svg" viewBox="0 0 257.17 281.14">
  <defs>
    <style>
      .cls-1 {
        fill: #42322c;
        fill-rule: evenodd;
        stroke-width: 0px;
      }
    </style>
  </defs>
  <g id="Layer_1-2" data-name="Layer 1">
    <path class="cls-1" d="M205.04,236.38c1.45,8.78-3.68,20.48-18.23,19.94-18.24-.67-22.85-19.06-10.46-29.79,9.65-8.36,26.87-1.17,28.69,9.85h0ZM86.64,138.33l4.25-.32c.42,6.74-.36,5.32,4.77,8.96,8.47-2.94,5.17-4.69,9.33-11.11l5.23.36c3.18,4.09-.15,4.01,7.26,8.33,3.89-3.1,3.53-5.8,6.4-9.08,2.15.58,4.08.27,4.86.72.92,2.52-.58,3.84,6.01,8.88,6.09-1.57,4.43-2.34,7.88-8.52l6.51,1.19-.03,14.15-8.41,3.73c-2.32,18-2.83,53.24,15.36,59.56l18.1-2.25c-.26-7.63-1.64-9.18.44-18,9.93.99,10.02,4.55,12.04,13.49,7.1-.43,9.63-1.44,16.06-2.59,7.84-1.39,10.6-3.08,12.94,3.88-1.74,1.67,3.37,3.23-12.46,2.55l-2.4,7.18c-17.04-4.81-35.53-1.84-38.58,19.94l-26.02,1.39c-2.14-7.98-.92-13.49-2.33-17.74-3.77-11.35-17.64-8.66-22.47-2.16-1.78,2.39-4.47,11.86-4.85,15.88l-14.24.74c3.28-19.76,9.32-40.26,9.38-61.36.64-8.23.76-10.79,1.9-18.24-7.95-1.83-6.38-1.47-14.69-2.15-.67-2.98-2.13-14.94-2.23-17.39h0ZM80.85,138.87c-.11.81-.16,1.61-.16,1.94,0,4.96-.1,13.36,1.74,17.58,2.8,6.45,6.42,4.89,13.39,5.04l-1.27,23.71-14.93-.53c-.04-4.22-.24-6.9.57-7.81.59-.67,3.21,1.06,3.27-.36l.21-5.15c.18-4.46-9.09-2.96-15.8-1.64-1.57,8.92,2.27,2.21,3.74,7.07.4,1.33.46,4.2.71,7.7-13.59,0-21.96-1.29-27.2-.16-5.34,5.76-10.5,10.57-27.28,24.21.13,1.39,2.52,1.76,2.64,4.12.51,9.52-1.29,24.61.16,27.94,12.17,3.01,24.24,1.65,36.57.62,25.39-2.12,40.62,3.59,67.15,3.83,12.78.11,25.29-.53,38.02-.53-25.08,11.95-54.63,8.16-79.82,6-12.32-1.06-19.24-5.07-25.97,2.03,68.4,17.47,92.23-.56,108.83,1.99,2.17,2.16,5.43,4.03,9.33,5.22-12.27,1.84-42.32-.05-49.3,8.85l49.34-2c10.26.63,8.04,3.11,20.41.87,9.83-1.78,55.74-1.7,56.38-3.16-6.77-5.02-17.95-7.9-27.98-6.91-8.89.87-14.94.54-22.98,2.34,12.51-14.56,10.31-12.84,31.7-13.7.84-.03,24.82-1.26,24.87-1.28-4.99-5.65-11.98-7.11-21.78-6.3-6.67.55-16.2.78-22.91.61-.42-10.48-3.75-14.37-3.09-20.83,7.84-1.12,14.46,4.34,14.68-4.14.04-1.64-1.09-8.35-1.07-12.11.03-7.75,2.35-7.13-5.46-9.23-5.41-1.45-8.44.03-11.95-4.66-5.24-6.99-2.25-13.82-4.75-19.39-4.2-4.94-39.07.99-45.16,3.14-4.12,3.19-3.17,12.58-4.23,24.19-5.02-8.68-6.89-22.07-6.18-34.88,10.14-8.05,11.99,2.51,9.11-20.68-.89-7.13-.52-15.91,3.52-24.08,5.35,1.11,6.92,2.26,10.17,4.95-3.87,19.33,4.68,35.83,25.23,34.17,22.89-1.85,23.22-18.47,17.31-38.12-8.73-5.17-15.42-5.29-23.92,1.61-3.75,6.62,1.66,16.08,6.65,18.37,2.79-5.2.54-7.63.07-13.85,8.07.84,8.83,1.45,13.3,5.92,3.58,25.42-32.39,25.78-31.9.01.69-36.43-4.31-22.25-19.67-42.86-14.33,2.99-16.82-5.4-37.08-5.79,9.03-16.62,18.44-3.76,29.98-4.22,3.88-16.36,9.35-14.03,25.13-20.83-1.62-11.63-9.11-9.92-19.8-9.68,6.63-10.3,12.83-15.21,26.77-17.43-7.12-11.63-29.97,2.73-33.6,5.73,3.17-15.89,29.78-31.27,44.02-29.89-2.64-6.74-8.09-7.22-17.65-5.67-27.48,4.45-92.43,56.32-85.52,74.15,4.34-.22,31.39-16.35,18.09,7.61-17.54.43-20.27,2.83-33.7,7.2-1.59,6.54-2.89,12.57-5.61,18.92-11.68,27.31-33.29-2.76-17.79-16.63,7.32-6.55,11.54-.34,10.21,5.23-.8,3.36-4.94,5.76-7.93,7.09.48.19.11,2.29,6.26,1.07,12.37-2.45,11.32-17.68,2.33-22.29-6.94-3.41-11.4-.27-14.89,2.86-9.52,8.53-11.6,20.42-5.38,36.64-6.24,4.02-15.34,14.4-1.85,19.54,3.35-7.25-1.03-10.5,10.71-10.7.46,11.79-19.9,41.71,6.14,44.71-5.69-9.97,2.48-19.37,4.77-23.56-.76,5.52,1.47,6.02,1.38,8.75-.09,2.72-2.18,5.29-2.05,7.77,15.24-5.88,15.32-16.54,15.24-35.96-.05-12.95,7.71-23.56,19.56-28.48-1.94,7.2-3.77,9.99-6.52,16.67l-3.37,8.98c-.18.35-4.93,2.4-5.09,2.73l-1.69,6.22,4.66-.37h0ZM122.99,200.21l6.92.41c.22-3.95.15-6.99-.12-9.26-1.07-9.11-5.29-6.09-6.39-1.05-.33,1.49-.79,8.31-.41,9.89h0ZM121.98,157.48c5.18,3.78,14.02,6.1,16.41-1.35-4.07-5.61-10.9-7.95-16.41,1.35h0ZM120.59,157.43c-4.73-7.8-14.82-7.7-14.95.5,4.24,4.59,13.7.6,14.95-.5h0ZM107.89,175.18c-.19.79-.34,1.74-.44,2.91-.16,1.78-.24,7.75-.08,9.07l6.84.36c.33-1.89.49-8.74.13-11.68-1.08-8.94-5.53-4.52-6.45-.66h0ZM9.98,162.99c-5.48-2.77-3.92-4.95-9.98-3.96,4.31,4.84,5.81,7.64,13.34,10.49.01-8.4,2.83-12.1-.93-18.61-2.48,2.69-1.42,5.45-2.43,12.08h0ZM188.18,82.23c-4.37-8.93-.6-7.81-8.87-12.15.56,9.78,3.77,14.33,10.29,17.83,4.95-3.3,7.84-10.23,9.85-17.2-12.05.91-2.86,6.55-11.27,11.52h0ZM224.32,164.53c-2.64-5.59-1.71-7.77-8.19-10.22.04,6,2.14,12.31,7.04,16.31,6.18-3.3,10.13-10.44,11.1-16.71-5.76,2.47-6.79,5.43-9.95,10.62h0ZM99.6,276.43c-1.92-6.61-4.48-7.89-12.84-8.43-7.04-.45-11.85-.37-15.37,6.02l28.21,2.41h0ZM215.26,276.85c-5.49-7.15-27-4.69-32.36,0,6.21,7.8,28.81,3.19,32.36,0h0ZM186.65,232.08c.57.18.56,1.23.8,1.59,11.34,11.49.37,6.5-1.68,18.97,21.39-2.79,17.42-28.11.88-20.56h0ZM214.3,231.68c3.88.84,33.12,3.44,36.18,3.45.76-6.79,1.34-8.55-16.2-9.59-2.91-.17-12.31-.67-14.72-.29-4.82.76-4.82,1.58-5.26,6.43h0ZM31.29,236.72c-7.61-1.6-6.03,3.1-5.43-7.1.28-4.74.92-7.35.83-12.67l22.93.06c-.47,7.19,1.18,15.15,1.12,19.56l-10.44.14-.56-10.12c-3.31-5.95-7.49-3.73-8.43.66-.43,1.99.01,4.79-.03,9.47h0ZM64.2,235.28l-8.21-.06c.03-16.31-1.94-21.28,12.3-20.55,11.58.6,9.7,3.21,21.15,4.38l-4.46,16.99-10.07-.77c-.11-.83.64-5.88.17-9.68-.93-7.6-6.69-7.13-8.81-1.91-1.24,3.04-1.23,7.48-2.07,11.6h0ZM47.06,194.27c.93,5.07,2.06,8.67,3.01,15.31l-20.19.19c6.35-6.44,8.53-10.67,17.18-15.5h0ZM66.18,207.47l-8.3-.23-3.32-12.87,39.52.62-2.41,17.01c-8.52-3.92-5.82-.65-8.46-9.58-.54-1.82-1.3-4.18-2.84-4.98-7.01-3.63-4.94.98-5.07,1.06l2.33,9.29c-9.05-1.36-2.67-5.56-12.69-10.47-1.59,4.18-.29,4.53,1.25,10.14h0ZM157.61,208.67l1.98-28.58,33.63-4.82c1.43,11.53,2.58,17.33,8.73,22.54l-8.58,2.12c-4.9-5.39-8.67-16.36-21.39-11.6-4.21,1.58-7.22,5.78-7.79,10.68-1.16,9.92,4.8,7.72-6.58,9.65h0ZM57.55,141.46c-8.92-10.2-1.16-14.07-1.04-14.02,4.15,2.11,1.47,10.08,1.04,14.02h0ZM93.9,129.57l7.03-16.16c3.42,5.19,20.61,11.22,3.71,14.97-2.83.63-7.79.9-10.75,1.19h0ZM110.95,107.14c2.55-.05,6.68,4.75,8.88,4.75,23.49-.02,26.09-1.69,20.96,17.16l-17.11-1.41-.61-9.19-12.13-11.31h0Z"/>
  </g>
</svg>