<?xml version="1.0" encoding="UTF-8"?>
<svg id="Layer_2" data-name="Layer 2" xmlns="http://www.w3.org/2000/svg" viewBox="0 0 106.23 148.48">
  <defs>
    <style>
      .cls-1 {
        fill: #42322c;
        fill-rule: evenodd;
        stroke-width: 0px;
      }
    </style>
  </defs>
  <g id="Layer_1-2" data-name="Layer 1">
    <path class="cls-1" d="M57.04,145.33l5.25-.44-2.45-48.39c2.36-.59,5.81-2.3,7.58-2.96.81-.3,1.61-5.47,2.43-5.75,1.79-.62-1.08,47.49,2.76,55,1.09,3.15,3.91,5.1,8.66,5.69l-.05-5.37c-1.6-6.43-2.54-6.79-3.19-12.61-.65-5.89.53-10.64,2.46-13.17,2.22,6,1.69,17.25,6.78,21.33,2.32,1.85,8.62,1.36,11.91-.25-.13-2.93-5.91-3.76-6.29-5.17-1.7-6.28-4.32-2.93-4.32-31.2,25.85-4.3,19.87-26.44,3.91-27.7.45-2.89-3-1.79-3.29-3.16.62-14.81,3.75-26.7-9.27-26.22-5.4,2.65-6.99,2.98-6.99,15.46,0,2.93,1.61,9.06,1.66,11.3.04,1.73-7.23,2.62-7.46,3.98-1.91,10.88-1.64,13.42-6.97,14.89L57.31,0c-4.03,2.71-1.51,2.86-3.87,10.39-8.47.6-14.26,4.6-15.47,10.77-1.08,5.5-1.22,12.31-8.94,3.98-4.14-4.46-11.77-3.93-16.22-2.73-13.76,3.72-18.94,24.56-2.77,22.88-3.79-4.64-4.61-9.26-.27-13.14,4.03-3.62,8.24-1.08,13.68,3.03,4.13,3.12,6.14,6.24,13.39,5.41,14.46-1.66,6.67-17.67,17.07-20.11l.29,8.79c.33,2.52.23,5.43.34,8.04.62,14.14,1.22,35.01,1.58,55.67-.82.42-2.38,1.43-2.21,2.32.32,1.68.28,3.93,2.31,3.78h0c.24,16.19,1.01,34.57.82,46.27h0ZM86.37,54.75l-8.91-.22c-2.07-3.57-.37-6.01,5.06-6.3,3.32-.18,4.59.65,3.84,6.52h0ZM82.58,72.1c-1.46-1.94-3.47-.66-3.81-7.26-.24-7.8,8.26-6.99,7.47,1.42-.52,5.51-1.35,3.94-3.66,5.85h0ZM90.27,86.37c-.61,1.78.09,3.98,2,4.07,3.47.16,4.17-1.68,3.62-3.43-.79-2.52-4.18-4.85-5.62-.64h0ZM92.87,78.46c3.88-.05,8.95,5.21,8.62,9.5-.31,3.99-5.75,7.01-9.78,7.68-5.38.89-8.27-4.77-7.21-9.8.81-3.85,4.37-7.32,8.37-7.38h0Z"/>
  </g>
</svg>