<?xml version="1.0" encoding="UTF-8"?>
<svg xmlns="http://www.w3.org/2000/svg" version="1.1" viewBox="0 0 495.3 228.7">
  <defs>
    <style>
      .cls-1 {
        fill: #594b39;
        fill-rule: evenodd;
      }
    </style>
  </defs>
  <!-- Generator: Adobe Illustrator 28.6.0, SVG Export Plug-In . SVG Version: 1.2.0 Build 709)  -->
  <g>
    <g id="Layer_2">
      <g id="Layer_1-2">
        <g>
          <path class="cls-1" d="M334.4,129.1l-33.1,2.9c2.8-2,2.4-1.3,5-3.2,20-14.5,81-46.5,102.3-29.6-20.2,0-26.6,1.6-42.5,9.4-24,11.8-25,18.4-31.7,20.5h0ZM419.9,9.4c3.4,2.1-4.8,3.4,5,1.3.6-.1,14.9-3.8,10.9-8.2-5.8-6.3-17.5.5-15.9,6.9h0ZM412.2,136.5c-1.9-12-5.7-5.7-7.8-3.7,4.6,5.4,1.5,1.6,7.8,3.7h0ZM463,128.8c-.6-5.8-1.2-6.5-6.1-6.2,0,0-4.6.2-.2,5.1,2.1,2.4,3.2,1.1,6.2,1.1h0ZM441.8,129.1c-.5-.3-1-.7-1.4-.8-7.2-1.6-5.5-.1-8.2,2.7,4.1,3.1-2.3,4.3,6.6,2.2,5.7-1.4,1-.4,2.9-4.1h0ZM339,182.1c-.4-7-1-6.8-7.2-5.4-4.7,5.6,2,6.7,7.2,5.4h0ZM389.4,142.4c4.5,6,9.2,2.5,11.3-3.1-3.7-.6-3.3-1.4-7.6,0-4,1.3-1.7.6-3.7,3.1h0ZM434.5,13.4c2.1,3.2-2.6,4.4,6.6,2.7,5.3-1,5.2-1.9,8-4.6-4.2-3.2-7.5-6.7-14.5,1.9h0ZM322.2,184.1c.8-7.7-3.1-10.4-8.8-10.6l-2.7,2.2c2.9,3.6,1.7,8.5,11.5,8.4h0ZM304,184.9c-2.2-5.7-6.7-11.3-12.7-9.6-1.1,1.4-4-3-.6,4.9.1.4,5.5,8.9,13.3,4.8h0ZM289.2,188.1c-2.9-9.1-12.1-17.8-19.4-10.5,5.4,5.3,11,8.5,19.4,10.5h0ZM477.5,36.7c-1-3.9-5.2-10-13.4-9.2.5,5.6,8.5,15.9,12.1,16.4.5-.8,3.5,1.4,1.3-7.1h0ZM252.6,166.4c-9-5.6-19.7,7.3-22.1,13.2l3.2,2.7,18.9-15.9h0ZM471.8,67.5c3.7,2.7-2.2,4,8.2,2.3,5.7-1,13.1-4.7,15.2-10.3-8.5-1.1-18.6,1.1-23.4,8h0ZM431.7,21c.3.3,2.5,3.9,2.8,4.3,18.3,23.4,8.8,22.9,20,28.3-2.3-15.5-8.5-31.7-22.9-32.5h0ZM450.5,66.3c.3.5,0,1.3,0,1.7,0,.3,0,1.2.2,1.6,1.6,4.8-3.1-3.3,1.1,2.4,1.2,1.6,2.4,1.7,4.2,2.7,15.8,8.7,17.5,14,23.8,16.7,1-11.5-19.8-26.5-29.3-25h0ZM368.9,133.9c7.3.8,11.6-3.7,17.6-6.8,3-1.5,5.7-2.8,9.3-3.7,1-.3,5.5-1.1,5.8-1.2,4.9-1.7.4.7,3.6-2.4-4.4-6.7-10.6-4.7-21.5.8-7.1,3.6-13.6,6.5-14.8,13.3h0ZM194.8,104.7c2.4,2.6-.9,3.5,9.6,8.9,6.5,3.4,27.8,18.2,32.2,18.3-.9-9.1-29.1-27.8-41.8-27.2h0ZM460.1,60.1c5.3,3.7,20.7-1.6,23.8-8.2-6.6-2.2-10.5,0-17.1.8-2-16-5.5-27-18.1-29.7,2.8,10,5.4,6.6,9.2,16.2,4.6,11.4-.3,8.3,9.6,15.2-7.6,2.6-4.9.4-7.4,5.7h0ZM467.5,114.3c-2.3-28.4-38-59-51.1-55,2.4,3.5-3.6,2.3,6.6,7.3l23,16.2c8.2,9.5,10.1,26.1,21.5,31.5h0ZM199.7,130.9c4.4,6.8,13.9,7.7,26.4,15-8.5,9-26.9,16.5-32.6,26.1,3.9,2.1-2.8,5.2,7.9,1.3l23.5-17.6c12.3-7.9,10.2-2.5,10.4-2.4-7.7,5.5-20.3,11.9-19.6,21.6l4.3.5c.4-.1.9-.4,1.2-.6,3.3-1.7,7.5-12.1,24.3-16.7-2.5-17.8-37-32.7-45.9-27.2h0ZM261.8,155.2c3.7,4.2,0,3.7,7.8,2.8l27.3-6.8c14.4-3.3,28.4-6,43.9-2.4-8.9,3.1-17.8,2.7-28,5.3-13.1,3.4-21,4.1-23.8,10.4,4,3.1-4,2.3,6.1,2.4l31.9-7.7c29.3-3.7,22.7,6.1,37.1,8.8-.2-11.9-2.3-5-6.6-14.2,7.6,3.7,6.6,4.9,12.5,9.1l5.6-3.9c-5.2-14.4-34.2-21.5-56.2-19.3-11,1.1-21.6,3.8-31.7,6.2-14.8,3.6-23,3.2-26,9.3h0ZM339.3,30.5c2-5.4-3.1-1.8,5.9-6.3,19.2-9.5,31.6-13.7,52.9-10.1-2.4-8.2-6.2-9.5-16.9-8.1-16.8,2.2-36,9.7-49.9,17.8-4.4-2.1-5-3.3-9-5.7-10.6-6.3-10-1.6-10.8-1.2-.5,6.1,8.6,8,14.3,13.3-2.4,1.6,2.3-.6-3.9,2.2-3.9,1.8.2,0-4.2,1.5-14.1,5-36.5,21-48.8,15.5l5.8-4.5c11.9-6.5,26.5-12.9,40.3-13.7,4.4-.2,2.5,0,4.4-1-.6-4.4,2.3-6.4-8.5-5.2-17.1,1.8-33.7,12.6-49.4,18.1-7.5,2.6-6.7-5.4-15.6-1.1,6.9,8.7,15.4,10.2,26.9,16.5,13,7,13.4,22.2,21.5,24.1v-12.4c14.6-7.1,34-22.7,51.4-22.3,4.4,0,2.7.8,6.7-1.6-.2.6-.6,1.2-.7,1.7-2.1,8.3,4.3,9.3,8.5,17-23.8,3.6-60.1,9.4-77.7,26.1-4.3-2.8-20.9-20.3-35.2-31.2-6.1-4.7-14.4-8.8-23-10.4-8.1-1.5-21.5-5.2-27-2.6,7.8,11.7,40.8-1,78.9,50-3.9,3.6-8.1,7-11.7,10.9-17.5-23.9-33.3-32.4-60.2-40.5-9.6-2.9-8.6-.5-10.1.2,2.4,3.7-1.3.9,4,4.2,10.5,6.4,24.8,7.4,35,13.5,9.7,5.8,22.5,20.2,26.5,28.9l-5.2,5.5c-5.6-6.9-57.1-45.8-68.9-33.4,3.8,4.4,1.6,2.5,8.6,4.4,26.1,7.3,40.8,25.9,56.9,30.9-4.1,6-6.9,5.7-5.4,14.6,5.4-1.2,8.3-6.7,12.2-11.2,5.6-6.4,4.6-7.1,15.6-6.6-2.3-9.5-2.2-6,4.2-12.7,23.8-24.6,47.5-26.8,79.8-32.3,7.1-1.2.1.8,4.6-2.6.9-.7,3.8-2.8,5.4-4.6l9.7,6.9c-10,6.2-49.2,15.4-63.4,20.3-14.6,5-44.3,19.8-43.7,38.6,10.1.4,15.8-16.3,24.9-22,20.5-12.7,48.2-18.2,71.3-25.7,25.4-8.3,23-.6,30.5,2.6-32,3.4-40.8,6.5-66.2,19.5-12,6.2-24.1,11.3-34.3,19.8-3.4,2.8-3.4,4.3-5.2,6-3.9,3.8-7,2.6-13.3,8,5.9,3.2-4,3.2,8,1.6.2,0,4.8-1.4,5.8-1.6,13.5-2.8,28.7-4.6,43-4.1,25.3.8,18.6,2.8,35.1,11.9,5.9,3.3,7.4,2.7,12.7.6-1.1-5-9.7-8.4-14.7-11.6-6.8-4.4-12.1-5.9-20.6-7.2,7.4-10.3,30.3-20.3,41.9-22.9,14.5-3.2,26.6-1,31.9,12.5,3.7,9.4.5,6,7,8.5.8-1.8,1.2-.5,1.1-3.9,0-3.4,0-.6-.5-2.7l-6.9-15.7c-14.8-26.9-35.5-29.6-49.2-45.2l8.9-2.8c6.3,7.2.6,3.1,10.1,7.3,4.5,2,6.9,3.3,11.1,5.6,39.8,21.7,32.5,46.9,47.3,48.7,0-6-6.2-15.1-9.6-21.2-11.4-20.3-29-33.8-52.2-41.5,11.6-8.3,33.6-11.3,46-7.7l-1.4-6.5c-15.9-5.7-39.2,5.1-55.1,10.1-9.3,2.9-8.7,3-14.3-2.2,5.6-4.8,22.2-11.5,30.8-14.8,17.4-6.6,22.8-8.1,38.5-.6-.9-6.9.9-7.1-5-9.7-.1,0-7.5-1.6-8.9-1.8l-1.3-2.6c-.2-.3-.5-1-.7-1.3-1.6-3,0-.7-2-3.6-16.4-2.8-26,1-39.8,6-11.5,4.1-23.8,13.1-35.3,8.7h0ZM283.1,57.2c10.8-5.4,44.8-27.4,56.2-19.2-1.4,4.4,2.5,1.6-5.1,4.9l-19.5,8.5c-8.9,4.3-15.9,9.5-25.5,13.3l-6-7.5h0ZM352.5,40.3c2.4-2.7,0-1,3.4-3.4.7-.5,2.9-1.5,3.8-1.9,13.4-6.1,39-17.5,51.9-12.2l-8.7,3.2c-2.9.8-4.8,1.3-7.2,2.1-5.1,1.7-10.2,3.7-14.8,5.7-18.1,7.9-21,11.5-28.4,6.5h0Z"/>
          <path class="cls-1" d="M80,191.6c5-15.1,8.3-27.2,11.9-43.6,3.5-15.9,8.6-28.4,11.6-44.6l13.9,14c4.6,5,6,6.4,10,12.2-12.3,18.3-1.9,13.7-25.7,16.6,4.9,8.3,5.9,5.4,16.6,6.2l5.4,8.7-11.5,1.9c-.1,3.5,2.5,8,3.5,15.6l-15.5,3.1-4.8,7.8c15.4-2,20.2-4.2,21.4-2.5l4.1,5.9h4.4s-2.7-23.8-2.7-23.8h14.8c-1.4-11.8-7.5-9.7-11.8-20.3,3.1-11.5,8.4-11,11.1-20.5l-27-31.9c-3.6-4.6-3.3-6.6-10.1-6.5-.3.5-.6,1.1-.7,1.6l-6.1,24.1c-1.9,14.5-15.4,63.3-18.9,73.8l-11.9-2.2-11.6-23.3c-11.5,2.1-14,13.6-18.4,24.9-10.1,1-26.4-.8-32,6.6,4.5,3,2.6,3.3,12.8,2.5,16.2-1.3,16.2,1.3,23.5-3.3l9.7-19.4c5.5,5.1,6.9,11.4,7.5,18.5,13.7,5.3,8,8.1,31.8,5.7-2.1-7.3-.6-2.7-5.4-7.7h0ZM114.7,136.6c-3-4.8-7.9-10-12.3-6.4.3.4,5.9,5.9,6.8,6.2l5.5.2h0ZM107.9,117.4c1,4.5,1.4,10.9,12.8,13-.3-7.8-3.1-12.1-12.8-12.9h0ZM83.3,213.8c10.9-8.9,15.9-8.4,33.9-10.6,30.8-3.7,30.3,3.5,32.9-6.2-9.2-6.2-45.3-1.4-57.3,2.2-13.4,3.9-6.5,7.8-22.4,5.4-10.1-1.5-17.4-4.3-27.7-3.2,3.7,10,28.6,11.2,40.6,12.4h0ZM100.5,177.5c-1.4-7-2.1-8.1-7.9-6.7,4.3,5.6-2.8,3.8,7.9,6.7h0ZM96.4,161.6c2.6,4.4-.8,2.7,5.6,7.7,4.5,3.5,1.9,2.4,6.8,2.9-.4-7.1-4.5-10-12.4-10.6h0ZM122.6,216c2.8,7.5,16.6,6.3,24.4,5.2-1.2-3.5-9.6-5.9-16.6-7.1-6.9-1.1-6.3,1-7.8,1.9h0ZM46.8,226.3c-3.9-6.9-15.9-6.6-22-2,4.6,4.4,13.6,6.2,22,2h0ZM97.2,212.4c5.6,4.1,14.5,2.6,20.4-3-7.4-3.1-15.1-3.8-20.4,3h0ZM6.2,212.1c6.1,9.1,12.4-1.4,23,1.7,5,1.5,8.2,3.1,13.4,4.1,12,2.3,11.1-.2,13.3-2.1-3.1-3.6-40-15.4-49.8-3.7h0Z"/>
        </g>
      </g>
    </g>
  </g>
</svg>