<?xml version="1.0" encoding="UTF-8"?>
<svg xmlns="http://www.w3.org/2000/svg" version="1.1" viewBox="0 0 688.2 665.2">
  <defs>
    <style>
      .cls-1 {
        fill: #594b39;
      }
    </style>
  </defs>
  <!-- Generator: Adobe Illustrator 28.6.0, SVG Export Plug-In . SVG Version: 1.2.0 Build 709)  -->
  <g>
    <g id="Layer_1">
      <g id="Layer_2">
        <g id="Layer_1-2">
          <g>
            <path class="cls-1" d="M491.7,238.2c-1,2.2-2,4.5-2.9,6.7-1,0-1.9-.1-2.9-.2-.7-12.4-1.4-24.8-2.1-37.2-1.1-.4-2.3-.8-3.5-1.3-9.8,10.9-16.4,25.8-32.8,28.4l.2.3c1.6-2,2.8-4.5,4.8-5.9,29.3-20.4,33.4-50.5,31.2-82.6-.8-11.4-3-23.2-6.9-33.9-11.5-31.6-35.8-48.8-68.1-54.1-15-2.5-30.2-1.7-44.6-8.4-5.5-2.5-13.5-.4-20.1.7-21.8,3.4-43.5,7.3-65.3,11-.5,0-1.1,0-1.6.3-33.1,11.9-67.9,20.5-94.7,45.2-8.8,8.2-15.1,19.3-24.3,26.8-14.4,11.7-18.1,26.9-19.5,43.8-.9,11.4-1.9,22.8-2.6,34.2-1.9,29.7,11.3,51.2,36.3,66.1,12.2,7.2,24.6,14,37.3,20.2,10.9,5.4,22.6,8.9,35.1,7.6,1.5-.2,3.3,0,4.7.7,16.3,8.2,33.5,6.9,50.8,4.6,4.1-.5,8.6-.6,12.6.4,38.2,9.5,75.4,2.6,112.1-7.3,12.4-3.3,23.9-10.8,35-17.6,17.8-11,36.2-20.8,51-36.5,26.8-28.5,34-62.1,29.1-99.1-2.2-17.1-6.8-33.9-10.5-50.9-2.1-9.7-7.1-17.6-16.7-21.6-8-3.4-11.8-8.8-12.6-17.9-1.5-17.7-7.1-21.8-24.2-25.3-15.9-3.2-31.7-7.7-47.1-12.9-18.4-6.2-36.6-5-54.4.2-8.7,2.6-16.3,9-24.9,13.9-2.5-4,.3-6.7,4-9,23.7-14.8,49.2-17.7,75.9-10.5,18.2,4.9,36.4,10.3,54.6,15.1,9,2.4,16.5,5.5,19.3,15.7,2,7.2,6.4,11.3,15.3,9.1,26.5-6.5,33.3-2.4,44.2,25.3-3.3,2-7.1,3.6-10,6.1-18.4,16.3-18.6,17.4-11.5,42.2,5.9,20.7,4.6,41.2,1.9,62.4-4.1,33-21.5,58.2-46.7,75.7-26.7,18.5-53.4,39.9-88.1,43.7-19.8,2.2-39.5,5.9-59.4,7.4-10.8.8-21.9-2.1-32.8-2.7-10.4-.6-20.8-.1-31.1-.5-8.3-.3-16.6-.8-24.8-1.9-5.2-.6-10.2-3.6-15.3-3.5-23.7.2-44-8.5-63.2-21.4-8.7-5.9-18.4-10.4-26.6-16.9-14.4-11.2-19.4-28.4-25.7-44.5-1.1-2.9-1.7-6.1-2.4-9-21-6.8-25.1-22.4-9.1-44.9-21.2-14.2-20.5-31.1,2.7-42.3,9.2-4.4,20-6.5,30.3-7.4,6.4-.6,10.5-1.8,14.5-6.9,16.8-21.2,38.8-35,64.2-43.8,2-.7,4.2-1,6-2,24.4-14.2,51.8-16.5,78.9-19.9,5.1-.6,10.1-2.5,17.8-4.6-5-6-8.8-10.5-12.5-15.1l.3.3c3.8-4.4,7.5-3.7,9.9,1.1,5.5,10.6,13.3,13.8,24.6,9.5,2.7-1,6.9-1,9.1.4,14.1,9.2,30.3,7.7,45.7,9.6,36,4.6,66.2,32,75.3,66.9,6.7,25.6,8.1,50.6-.9,75.2,16.5,18.2,17.8,26.8,7.1,43,.5-8,7-16.2-3.1-23.6l3.4,23.3h.3ZM507.5,70c7.6,4.8,13.4,7.2,17.7,11.4,4.7,4.6,7.8,10.6,12.2,16.8,3.2-3.9,6.1-6.8,8.2-10.2,5.5-8.9,5.1-19.5-.5-25.4-6.1-6.4-10.9-6.8-22.7-1.1-4.2,2-8.1,4.6-14.9,8.6h0ZM132.6,178.8c-12.6,3.9-18,10-17.6,19.4.3,7,2.9,12,12.3,11.6,1.8-10.3,3.5-20.3,5.3-31ZM124.7,137.1c-2.6,2.1-5.1,4.1-7.7,6.2-3.7,4.3-4.6,10.2-2.5,15.3,2.3,5.4,7.7,9,13.7,8.9,10.8-14,15.1-26.2,11.1-30.5-.7-.7-3.8-3.6-14.7,0h0Z"/>
            <path class="cls-1" d="M213.9,200c-2-6.2-3.9-12.3-6-18.9-1.2,0-3-.8-4.1-.2-15.1,7.6-15.8,7.6-28.6-3.8-8.7-7.7-11-16.8-6.9-27.9,6.1-16.6,19.8-23.9,35.6-27.9,3.7-.9,8.3,1.7,12.3,4-8.2,4.1-18.6-.3-25.8,10.8,9.8-2.5,18.4-8.2,27.2-2-4.5,6-9,12-13.5,18.1-5.3,7.3-5.1,14.4.7,22,1.5-1.1,3-2.3,4.5-3.9,7.6-8.2,7.9-18.9,7.8-23.1,13.9-15.1,27.7-24.7,37.4-30.6,13.5-8.2,28-16.9,49.2-19.2,13.9-1.5,28.4,0,43.5,5.2,16.1,5.4,29.9,11.9,38.8,27,8.5,14.3,7,25.9-3.4,39-14,17.6-33.4,19.4-52.7,17.5-8.6-.8-16.5-9.6-25.2-15.1-1.3,2.2-3,5.1-4.8,8.4-8.5-16.8.3-36.8,17.7-41.2,16.8-4.2,29.1,0,34.7,13.2,1.8,4.2,1,9.5-1.4,14.8-1.1-2.5-2.1-5-3.4-7.9-1.2,2.8-2.2,5.1-3.5,8.3-2.4-3.3-4.5-6.1-6.6-9-2.3-6.1-8.6-9.7-14.7-8.6-6.7,1.2-11.6,8-10.4,15.3,1.4,3.1,5.5,11.2,14.6,15.5,4.6,2.2,9.9,2.9,16.1,2.3,16.6-1.5,30.6-6.3,39.8-21.5,4.8-8,5.6-15.9,1.6-24-5.5-11.2-13.4-20.4-25.3-24.8-24.1-9-57.5-11.9-86.9,1.1-24.1,10.6-44.2,29.6-50,45.9-.4,1.2-2.5,7.2-4.4,15.4-2.5,10.7-3.4,19.8-3.8,25.9h-.1ZM191.3,145.6c-3.5-5.1-6-5.6-7.3-5.5-5.5.6-10.7,13.8-7.7,24.2,1.3,4.7,4.1,8,5.1,9.2,2.1,2.5,4.6,5.4,9,6.5,4.4,1.2,8.3-.2,10.1-1-3.1-11.1-6.1-22.3-9.1-33.4h-.1Z"/>
            <path class="cls-1" d="M270.6,403c5.2-2.4,10.5-4.7,15.6-7.2,9.4-4.5,19.6-8.2,18.8-22.4,17.4,5.1,33.1,7,49.2,1.6,3-1,7.8,3,13,5.3,6.9-6,14.9-13,22.8-19.9-.6-1-1.2-2-1.8-3-5,.8-11.2.1-14.8,2.9-7.5,5.6-13,4.3-19.6-.9-3.1-2.5-7.6-3.3-11.4-4.8-1.5-7.5-3-14.8-4.6-22.5,6.6-.8,8.4,2.5,9.2,6.9,1.7,10.2,8.4,13.3,17.8,14.3,8,.9,14-.2,21.6-1.8,9.5-2,14.3-3,18.3-5.8,7.4-5.2,10.7-13.3,12.2-19.4,4.8,6.6,9.2,10.3,14.2,11.7,4.5,1.2,7.5.1,14.5-1.2,20.6-4,22.5.1,29.5-4.2,8.9-5.5,14.8-17.8,11.7-24.2-1.5-3-4.7-4.4-7.1-10.2-1-2.4-1.4-4.5-1.6-5.9,15.6-1,19.8,2.8,18.6,16.7-1.5,18.4-12.1,28.9-31.4,30.8-20.9,2.1-41,7.7-60.9,14.2-3.2,1-6.1,3.6-8.6,6.1-10.3,10.3-20.3,20.7-31.2,32-4.1-4.5-7-7.8-9.2-10.3-3.9,1.7-9.2,3.6-15.8,4.4-10.3,1.4-18.8-.3-23.9-1.8-2.6,5.1-5.3,10.2-7.9,15.3-.7-2.2-1.5-4.5-1.9-6-12.5,3.4-23.7,6.5-35,9.6h0l-.3-.3Z"/>
            <path class="cls-1" d="M207,336.4c10.5,5.3,21.6,2.6,31.4,2.4,5.3,5.8,9.7,11.7,15.2,16.1,5.2,4.1,11.7,6.7,17.1,11.1-10.8-1-20.4-5.5-28.5-11.8-11.2-8.8-22.1-12.6-36.3-8.3-6.6,2-14.4.4-23.7.4,5.6,12.5,12.1,20.5,24.1,22.5,11.8,2,20.5,8.9,28.2,18.2-2.3-.8-4.6-1.4-6.9-2.3-9.1-3.8-18.3-7.5-27.2-11.6-4.7-2.2-9.6-4.5-13.5-7.8-5.5-4.8-9.3-2.7-13.8,1.5.9,2.8,2,5.2,3.2,7.3,12.4,20.8,43.9,21.3,49.4,21.3-5.4,2.5-13.5,5.3-23.4,5.1-21.1-.3-42.8-13.8-47-30-.6-2.3-2-8.7,1.2-13.1,2.3-3.2,6.6-4.9,13-5.3,1.8-.1,3.7.3,6.5-2.1-1.6-1.2-3.1-3.1-4.9-3.5-18.6-3.3-37.3-6.2-55.9-9.5-8.7-1.5-13.1-6.5-12.5-15.4.4-5.8,3.2-11.4,6.7-16.9,2.6,6.2-1.9,13.7,5.2,18,5.4,3.2,10.5,7.5,16.3,9.2,29.8,8.2,49,9.7,49,9.7,6.5-.3,16-1.5,27-5.1h.1Z"/>
            <path class="cls-1" d="M189,430c-31.9-3-64.4-16.4-69.6-43-9.2,5.1-10.7,8.1-6.8,16,3.2,6.5,7.1,12.7,10.8,19,3.5,6.2,8,10.2,15.7,11.7,9.2,1.8,17.7,6.7,26.8,9.2,8,2.2,16.4,2.8,27.2,4.5-16.2-.4-29.3-1.9-38.6-3.3-8.3-1.3-15.1-2.7-17.8-3.3-7.2-1.6-13.7-3.3-19.2-4.9,1.3,3.1,4.8,10,12.4,15.4,9.7,6.8,19.9,6.7,23.1,6.5-1.6.5-22.7,6.8-37.9-6-5.7-4.8-9.8-11.5-11.6-20-.9-4.3-1.2-10.3,1.1-13.4,7.2-9.6,3.8-17.6-1.7-25.9-1.1-1.7-2.1-3.5-3.7-6,12.7-.7,19.9-4.9,24.2-8.5,5.3-4.5,8.8-10.8,13.5-10.1,2.8.4,4.7,2.9,5.9,4.7-3.6,1.8-6.4,2.7-8.6,4.3-8.6,6.2-9.8,15.1-2.6,22.9,7.9,8.6,16.6,15.8,28.4,19.2,10,2.8,19.5,7.4,29.2,11.1h-.2Z"/>
            <path class="cls-1" d="M447.6,234.7c-4.6,3.1-9.1,6.4-13.9,9.1-3.4,2-7.3,3.2-12.8,5.6,14,18.8,29.9,4.2,45.3,6.2-14.2,4.9-26.7,9.8-40.8,6.4-3.3-.8-7.1.3-10.7.5-2.3-10.8-6.9-15.4-15.7-14.8-11.3.8-22.6,2-33.9,3.2-5,.5-10.3,2.4-9.8,7.9.4,3.9,3.7,9.1,7.1,10.6,5.5,2.4,12.1,2.2,18.2,3.1-12,7-22.1,1.6-30.4-4.4-18.8-.1-13.2,18-22.5,28.5-.9-5.5-1.4-7.6-1.5-9.8,0-2,.4-4.1.7-7-17.4-.5-32.8-11.9-50.4-4.7-2.5-10.6,6.8-6.4,9.7-9.8.2-4.3.4-8.8.6-13.2,6.1,13.4,16.4,20.2,30.2,21.5,11.2,1.1,20.1-3.9,29.1-13.6-11.5-2.2-21.5-3.7-31.1-6.2-3.5-.9-6.4-4-9.5-6.2l-.2.3c4.1.7,8.4.9,12.4,2.2,13.4,4.2,26.2,3.4,39.8-.8,13.3-4,28.6-8.4,41.4-5.5,18.8,4.3,32.9-5.5,49.1-8.9l-.2-.3h-.2Z"/>
            <path class="cls-1" d="M574.2,297.5c-4.3,1.2-8.5,3-12.8,3.5-10.6,1.3-17.8,7.1-24.7,15.9,12.6,6.2,22.8,2.5,33.5-.1,12-3,17.4-13.7,26.2-20.1,6.3-4.5,7.6-2.8,13.5-24.7,4.5,12.5,3,23.1-7.3,30.7-19.2,14.2-39.6,26-65.3,21.3-9.5-1.7-17.2,3-21,14.5-3.8,11.2-10.5,16.8-21.7,20.1-9.4,2.8-18.5,7.8-26.8,13.2-11.7,7.6-24.3,9.7-37.7,8.4-11.2-1.1-22.5-2.6-33.7-3.9v-3.4c3,0,6.1-.3,9.1,0,30.8,3.1,59.6-3.1,86.4-18.4,8.1-4.7,16.4-9.4,19.1-19.8,1-3.7,5-6.6,7.3-10,2.9-4.3,5.4-8.7,8.4-13.6,3.6-1.3,9.6-1.8,13-5,10.2-9.8,21.4-12.6,34.7-8.3l-.2-.3h0Z"/>
            <path class="cls-1" d="M227,523.3c4.7-3.9,9.2-8.1,14.1-11.8,8.5-6.4,10.2-13.9,2.9-21.1-7-7-14.7-12.2-26.5-9.2-17.8,4.5-36.2,6.2-54.1,10.1-11.5,2.5-17.9-9-27.8-8.7-9.9.4-19.8,3.5-27.2-6.5-1.7-2.3-5.5-2.9-8.3-4.4-12.4-6.9-14.5-12.8-9.1-25.6,1.8-4.2,3.3-8.5,5.3-13.8,4.6,3.6,3.8,7.1,2.2,11.1-7.3,17.9-6.9,17.3,9.7,27.6,8.7,5.5,16.4,10.4,27.4,6.9,3.1-1,8.4,1.5,11.2,4,7.1,6.4,14.5,7,23.4,4.7,8.6-2.2,17.8-2.2,26.4-4.6,10.9-3.1,21.6-7.1,31.9-11.7,4.8-2.2,6.3-7.6,1.9-11.8-3.2-3-7.6-4.8-12.1-7.6,3.2-5.1,7.2-5.5,11.5-1.9,9.1,7.7,10.1,13.7,4.2,26.2,9.4,5.8,18.4,12.5,18.5,25.2,0,3.3-.5,8.2-2.6,9.6-7.2,5-15.2,8.7-23,12.9l.2.2h0v.2Z"/>
            <path class="cls-1" d="M596,167.8c-3.9,4.3-7.1,8-3.8,14.9,5,10.5,7.1,21.9,1.9,33.6-6.7-.5-12.9-8.9-20.1-2.1-7.8,7.3,1.4,14.2,1.8,21.3-1.8.3-3.1.9-3.6.5-12.5-10.9-18.3-10.4-27.5,2.7-2.4,3.4-4.7,7.2-5.7,11.1-1.3,5.5-3.1,11.8-1.6,16.8,2.4,8,9.9,2.2,15,3.2,2.1.4,4,1.9,5.8,4.1-8.4,1.3-15.7,5.6-24.9,2.7-5.8-1.9-13.1.7-20.3,1.3,1.4-8.1,10.1-6,15.7-10,1.6-14.1,6.7-27.5,17.8-38.1,7.2-6.9,17.8-9.2,23.3-19.4,2.3-4.3,12.9-4.1,20.7-6.2.2-10-1.1-20.6-12.2-30.3,7.6-2.5,12.8-4.2,17.9-5.9l-.2-.3h0Z"/>
            <path class="cls-1" d="M45.2,149c-5.2,2.2-10.6,4-15.5,6.6-6.1,3.3-12,7.6-11.3,15.6.6,7.1,6.9,8.5,12.3,10.5,1.3.5,2.5,1.4,5,2.8-12.1,5.3-20.5,13.5-26.1,24.2-6.9,13.2-1.1,24.1,9.6,35.1-18.1-7.7-22.4-16.6-17-32.3,1.2-3.5,2.4-7.1,4.3-10.1,5.6-8.7,8.3-17.8,6.5-28.3-1.4-8.1,2.1-14.3,8.7-18.9,3-2.1,5.8-4.4,9.6-7.3-2.2-3.4-5.1-6.1-5.8-9.3-.9-4.2-1.4-9.4.2-13.2,4.7-10.8,27.3-17.1,42-10.6-7.7.8-13,1.1-18.2,2.1-4.6.9-9.4,2-13.5,4.1-8.9,4.5-9.1,14.8-.7,20.2,3.2,2,6.9,3.1,10.4,4.7-.2,1.4-.3,2.7-.5,4.1h0Z"/>
            <path class="cls-1" d="M277.8,196.3c-2.4-.8-16.8-5.7-23-20.7-.9-2,0-35.6,24.3-49.6,11.5-6.6,28.9-9.2,44.5-6.3,13.8,6.1,20.5,9.6,20.1,10.7-.4,1-7.4-.3-21.1-4-4.4-1.3-11.2-2.7-19.4-1.8-3.8.4-12.7,1.5-21.5,7.8-1.3.9-6.2,4.6-10.5,10.9-3.4,5-7,10.1-6.5,16.3.5,6.8,5.2,13.3,13.9,18.8-5.8-.4-10.3-.6-15.5-.9,4.9,6.3,9.9,12.6,14.8,18.9h0Z"/>
            <path class="cls-1" d="M226.8,523c-11.7,11.5-24.5,18.5-42,14-8-2.1-16.6-1.2-25-2.1-17.1-1.8-27.1-18-22.1-36.8,7.6,4.7-2,18.4,11.5,19.9.5-3.1.9-6.4,1.7-11.5,2.7,2.5,4.9,3.7,5.9,5.5,6.4,10.9,9.2,12.3,21.4,9.8,5.7-1.2,11.5-2.2,17.8-.7-5.1,1.9-10.2,3.8-17.5,6.5,11.7,5.3,20.8,7.6,31.1,2,5.4-2.9,11.6-4.5,17.4-6.7l-.2-.2h0v.3Z"/>
            <path class="cls-1" d="M67,298.8c-14.8,5.1-25.9,1.5-35.5-6.5-7.9-6.5-9-14.8-3.5-23.9,3.9-6.5,8-12.1,3.1-20-1.3-2.1-.4-6.2.7-9,4.2-10.3,28.2-20.2,38.2-15.4,2.6,1.2,3.9,5.1,5.3,9.2-11.9-9.1-22.5-3.9-32.5,1.7-5.3,3-8.3,8.1-3.9,15.9,4.8-2.7,9.4-5.3,15.7-8.8,3,3.5,6,7.2,11,13.1-7.3,1.6-11.6,3.3-16,3.5-7.2.2-11.8,4.1-15.6,9.3-7.3,10-5.2,19.6,6.2,24.3,7.6,3.1,16.1,4.1,26.9,6.6h-.1Z"/>
            <path class="cls-1" d="M105.3,603.9c7-9,9.2-22.9,23.6-24.4,9.2-1,18.2-7.5,29.6-1.5-24.8,4.2-38.6,10.6-41.2,19.1,7.9,1.5,15.7,3,25.2,4.9,13-3.7,26-15.1,43.2-10.4-7.1,1.9-14.5,3.2-21.3,5.8-7.3,2.8-14.1,6.8-22,10.7.8,4.5,1.6,8.7,2.8,15.7-4.9-6.5-8-10.6-10.3-13.7-10.6-2.2-20.1-4.1-29.6-6.1h0Z"/>
            <path class="cls-1" d="M648.3,214.4c2-1.9,4-3.9,6.1-5.7,5.2-4.3,11.3-7.9,15.6-13,21.3-25.1,11.7-40.9-7.3-57.6-2-1.8-4.9-3-4.9-3-3-1.6-5.6-2.9-7.5-3.7-1.8-2-3.6-4-5.4-6,6.4,1.6,12.6,1.3,15.6,4.3,9.7,9.3,20,18.8,26.5,30.3,3.2,5.8,0,16.4-2.6,24-5.7,16.6-17.8,27.2-36,30.4h0Z"/>
            <path class="cls-1" d="M263.7,590.4c8-.4,16.1-1,24.1-1.1,7.1,0,11-3,10.8-10.3-.4-9.3-5.1-13.8-13.6-13.2-.5,0-1,.3-1.5.3-13,1.2-33.2,8.3-44.6,15.2-2.9,1.8-6.3,2.7-11,1.8,6-5.7,12.3-11.2,17.8-17.3,7.1-7.8,15.2-4.4,23.5-3.6,5.6.5,11.4-.8,17-1.5,8.9-1.2,14.4,3.4,16.7,14.2,2.1,9.9-1.2,16.1-10.6,17.4-9.3,1.3-18.8,1.3-28.2,1.8,0-1.3-.1-2.5-.2-3.8h-.2Z"/>
            <path class="cls-1" d="M271.9,88.3c31.3-18.8,39.1-19,50.4-2.1-23.9-12.9-32.5-6.2-47.6,11.6-23.5-14.2-38.9-6-42.6,22.8-5.1-9.1-5.1-15.5.1-21.8,9.7-11.8,24.8-15.9,39.7-10.6h0Z"/>
            <path class="cls-1" d="M359.5,202.7c-1.3,6.1-2.3,10.7-3.3,15.7,11.1,9.1,25.4,5.1,40.2,6.4-11.2,8.1-22.4,5.3-32.7,3.2-13.3-2.7-26.1-5.2-39.6-.6-3.8,1.3-8.5.9-12.8.7-23.1-.8-32.7-15.8-21.2-38.8.6,6.4.9,9.6,1.1,12.8.9,13.9,4,17.7,16.3,20.3,12.9,2.7,28.8-1.1,34.4-9.1,3.6-5.2,5.3-11.7,17.5-10.7h.1Z"/>
            <path class="cls-1" d="M225,260.8c.8-22.7-13.2-24.8-36.3-19.2.3-4.9.3-9.4.8-13.9,1.3-11-.2-13.6-9.2-19.2-7.9-4.9-12.8-1.1-17.4,4.8-.5.7-1.8.8-2.7,1.1,1.3-9.2,6.9-16.2,13.1-14.2,6.8,2.2,14.2,5.9,18.4,11.3,3.7,4.7,3.4,12.6,5.1,19.9,6.6,1.9,14.4,3.4,21.6,6.3,11.6,4.7,13,10.1,6.6,23.1h0Z"/>
            <path class="cls-1" d="M320.2,32.3c-1.2,6.4-6.3,4.2-10.1,4.4-10.5.7-20.9,1.4-31.4,1.5-12.8.2-22,6.1-28.4,16.7-3.5,5.8-6.9,8.1-14,5.3-5.1-2-11.2-1.4-16.9-1.9l.2.2c6.8-8.6,15-7,24-2.5,5.3-18.6,19.9-22.2,35.8-22.9,13.7-.6,27.3-.4,41-.5l-.3-.4h0Z"/>
            <path class="cls-1" d="M246.4,606.9c.3,3,1.1,6.1.9,9-1.3,14.1,1.7,19.1,14.8,23.6,2.5.9,5.1,1.4,7.6,2,19.1,5.2,19.7,4.8,27.7-13.3.5-1.2,2.1-1.9,3.7-3.1,5.4,7.8.5,13-3.4,18.2-3.6,4.8-7.9,9.1-14.5,7.2-10.5-3-21.4-5.6-31.2-10.3-10.5-5-12.3-16.2-5.5-33.3h-.1Z"/>
            <path class="cls-1" d="M219.4,58.4c-10.4,3.2-20.6,6.6-31.1,9.5-6.5,1.8-13.4,2.4-19.9,4.5-3.4,1.1-8.7,2.1-6.1,8.4.4,1-1.2,3.8-2.6,4.5-13.9,7.1-27.9,13.8-41.8,20.7l.3.3c8.3-6,16.4-12.3,24.9-18,5.1-3.4,10.7-5.3,13.8-11.8,1.9-4,7.4-7.8,12-8.8,16.7-3.7,33.7-6.1,50.6-9l-.2-.2h.1Z"/>
            <path class="cls-1" d="M161.4,62.6c-9.1,6.8-18.1,13.4-28.9,21.5-26.4-3.4-35.7,2.2-35.8,24.2-7.2-10.9-3.6-26,9.2-27.4,19.5-2.1,35-12.4,52.4-18.7.9-.3,2,.2,3.2.3h0Z"/>
            <path class="cls-1" d="M144.5,292.2c-14.2-4.9-28.8-8.9-42.6-14.8-15.7-6.8-20.1-15.8-18.7-32.7.4-4.7,1-9.4,1.7-14.1,0-.9,1.2-1.6,3.8-4.6,0,5.6.9,9.5,0,12.8-6.1,19.2,4.2,31,21.9,37.5,9.4,3.4,18.9,6.7,28.3,10.2,2.3.9,4.4,2.4,6.6,3.5-.3.8-.6,1.5-.9,2.3h0Z"/>
            <path class="cls-1" d="M213.6,200.3c9.9,19.6,27.5,29.6,47.1,36.2,9.3,3.2,19.6,3.7,29.4,5.3,5.5.9,11.9-.4,15.1,6.2l.2-.3c-10.4-1.1-20.8-2.4-31.2-3.4-22.5-2.1-40-14.2-56.5-28.3-5.2-4.4-4.7-10.1-3.9-15.9l-.3.2h0Z"/>
            <path class="cls-1" d="M600.9,135.4c-9.6-.9-12.4-1.2-24.3-2.4,3.1-2,4.1-3,5.2-3.3,13.5-3.4,16.5-7.2,13.5-17.6-3.1-10.5-13-16.3-23.3-12.8-5,1.7-9.5,5.2-15.9,8.8,7.1-12.4,18.7-16.9,29.3-13.1,12.2,4.4,16.6,15.3,13.1,33.5,2.8,2.4,30,15,33.1,17.6-3.5,2.3-30.8-10.8-30.8-10.8h.1Z"/>
            <path class="cls-1" d="M259.9,511.8c3.4,4.1,5.8,6.8,8,9.6,5,6.4,3.1,11.6-2.9,16-13.3,9.5-26.2,18.9-44.4,15-8.7-1.9-18.2-.3-27.3-1.7,9.7-4.5,19.9-3.3,29.6-2.1,13.7,1.7,24.5-2.5,34.7-10.8,9.2-7.4,9.4-7.3,3.6-17.5-.8-1.3-1.4-2.7-2-4.1-.1-.4.2-.9.9-4.3h-.2Z"/>
            <path class="cls-1" d="M219.9,624.1c7,11.5,5.2,24.9,17.6,28.1,9.8,2.5,19.9,3.7,32,5.8-16.8,7.2-30.2,2.4-42.9-5.4-8.2-5-9.4-10.4-6.7-28.6h0Z"/>
            <path class="cls-1" d="M197.5,261.8c14.9,25,16.6,25.6,37.2,15.5-.7,3.6-.4,7-1.9,8.4-6.6,6.4-16.6,7.7-24.5,2.5-8.1-5.2-13.1-12.7-10.9-26.5h0Z"/>
            <path class="cls-1" d="M409.6,100.9c8.8-12.1,25.4-14,34.4-4.9,4.4,4.4,4,7.6-3.9,19.8-.9-6.2-1.5-10.2-2.2-14.8-9.1-4.7-18.5-2.7-28.4,0h.1Z"/>
            <path class="cls-1" d="M315.4,290.7c.2,10.3-6.1,14.7-16.8,14.5-15.8-.3-24.8-8.8-25.5-24.1,6.3,5.4,12,12.1,19.2,16,8,4.2,16.4,1.4,23.1-6.4h0Z"/>
            <path class="cls-1" d="M62.5,321.2c2.5-3.1,4.8-5.9,8.9-10.9,0,24.5,16.1,34.5,32.9,44.2-20.8-1.8-31.1-17.3-41.8-33.4h0Z"/>
            <path class="cls-1" d="M459.5,145.9c-4.3,3.6-8.5,7.3-12.9,11,1.8,9.4,23.1,10.2,11.4,25.9,2.4-19.6-17.1-16.7-26.6-26,10.1-3.8,19.2-7.2,28.3-10.6l-.3-.3h.1Z"/>
            <path class="cls-1" d="M401.5,93.7c-6.1-3.5-12.3-8.6-19.3-10.6-6.7-1.8-14.4-.4-23-.3,15.9-12.7,38.5-5.2,42.3,10.9Z"/>
            <path class="cls-1" d="M612.8,249.4c2.1-2.2,3.9-4.9,6.5-6.5,10.6-6.5,17.1-14.3,15.5-28.1-.8-6.6,3.1-13.7,7.1-20.1-1,11.5-.3,23.5-3.4,34.4-3.4,11.7-14.3,17.1-26,19.9l.2.3h.1Z"/>
            <path class="cls-1" d="M459.8,146.2c5.6-12.5,4.1-17.9-8.3-20.3-9.3-1.8-19.2-.3-29.9-.3,13.1-6.8,25.9-7.2,38.4-.9,11.5,5.8,11,14.2-.5,21.2l.3.3h0Z"/>
            <path class="cls-1" d="M105.5,115.6c-.4.9-.6,2.3-1.4,2.7-15.2,9.7-23.3,23.8-26.4,41.2,0,.8-1.3,1.5-2,2.2-2.8-21.1,7.7-37.4,29.7-46.2h.1Z"/>
            <path class="cls-1" d="M270.9,402.7c9.5,6.2,20.1,1.6,30,3.1-1.4.6-2.8,1.3-4.3,1.9-2.2,1-4,1.3-4.3,1.4-5.2,1.4-17.3,8.2-20.4,9.7-5.2,2.5-14,3.8-29.1-2.7,0,.1.1.2.2.3,6.4-3,12.9-6,19.5-9.1-2.4-.8-5.1-1.7-10.9-3.5,8.4-.4,13.8-.7,19.3-1h0Z"/>
            <path class="cls-1" d="M388.4,628.1c-1.3-4.7-1.5-7.1-2.6-9.2-2.7-5.6-4.8-12.5-13.7-7.8-.8.4-3-1.9-4.6-3,1.4-1.8,2.6-4.8,4.3-5.1,11.5-2,19.1,8.2,16.5,25h.1Z"/>
            <path class="cls-1" d="M98.6,38.1c-11.1,7.5-20.6,13.8-30.1,20.2,6.8-10.4,13.9-20.5,30.1-20.2Z"/>
            <path class="cls-1" d="M415.3,397.3c15,24.1,20.7,63.3,60.5,44.9-36.3,15.1-48.3,6.3-60.5-44.9Z"/>
            <path class="cls-1" d="M556.1,17.8c-8.2-13.3-21.5-12.8-34.8-12.3,19.3-6.3,26.2-4,34.8,12.3Z"/>
            <path class="cls-1" d="M276.9,14.1c-21.4-15.5-36-5.9-50.6,3.6,16.1-22.5,26.1-23.4,50.6-3.6Z"/>
            <path class="cls-1" d="M42.8,209.5c-6.4-13.3-5.1-18,7.2-26.1-2.3,8.5-4.7,17-7.2,26.1Z"/>
            <path class="cls-1" d="M328.1,611.2c-3,2.4-9.6,7.1-19.3,8.9-10.2,1.8-18.4-.5-22-1.8,9.3-1.5,18.5-3,27.8-4.5,4.5-.8,9.1-1.7,13.6-2.5h-.1Z"/>
            <path class="cls-1" d="M105.2,362.6c11.2-.7,22.4-1.4,33.6-2.1-10.8,5.8-22,7-33.6,2.1Z"/>
            <path class="cls-1" d="M497.3,183.8c12.1,4.2,10.4,14.6,10.8,23.9-3.5-7.7-6.9-15.4-10.8-23.9Z"/>
            <path class="cls-1" d="M361.5,422.3c-26.7,18.8-27.2,18.9-53.4,8.4,6.6,1,16.2,1.7,27.5-.2,11.1-1.8,19.9-5.3,25.9-8.3h0Z"/>
            <path class="cls-1" d="M89.1,615.5c3.2,7.9,6.4,15.7,10,24.4-10.4-10.7-10.9-12-10-24.4Z"/>
            <path class="cls-1" d="M376.2,665.2c1.3-3.3,2.6-6.6,4.1-10.4-2.5-2.1-5-4.1-9-7.4,7.9-.5,13.2.7,13.8,7,.5,5.6-3.2,9.6-9.2,10.6l.3.2h0Z"/>
            <path class="cls-1" d="M549.6,370c13.1-7.8,26.2-15.5,43.4-25.7-14.1,15-25.6,25.3-43.2,25.2l-.2.5h0Z"/>
            <path class="cls-1" d="M634.5,119.6c4.3-6.9,7.8-14,6.6-22.6l-.3.2c5.5,13.2,4.5,16.6-6.5,22.1l.2.3h0Z"/>
            <path class="cls-1" d="M242.9,416.1c-10.2,6.4-10.8-4.4-14.6-9.3,4.9,3.2,9.8,6.4,14.8,9.6l-.2-.3h0Z"/>
            <path class="cls-1" d="M46.6,316.8c-2.5-3.5-5-6.9-7.6-10.4.8-.6,1.7-1.2,2.5-1.8,2.5,3.5,5,7,7.5,10.4-.8.6-1.6,1.2-2.4,1.8Z"/>
            <path class="cls-1" d="M207.3,336.7c2.4-3,4.8-6.1,7.7-9.7,1,5.6-1.7,8.7-8,9.4-9.4,1,.3.3.3.3h0Z"/>
            <path class="cls-1" d="M504.6,390.3c-2.2,6.4-6.5,8.3-14.9,5.9,6.2-2.3,10.6-3.9,15.1-5.5l-.2-.3h0Z"/>
            <path class="cls-1" d="M328.4,611.5c2.6-3.6,5.2-7.1,8-11,.3,5.1-2.4,8.7-8.2,10.7-8.8,3,.2.2.2.2h0Z"/>
            <path class="cls-1" d="M684.1,268.8c-2.6,25.1-13.5,43.8-40.2,51.1-.6-2.3-1.4-4.9-2.3-8.2,19-1.5,26-16.6,35.3-28.9,3.1-4.2,5.1-9.3,7.5-13.9h-.3Z"/>
          </g>
        </g>
      </g>
    </g>
  </g>
</svg>