<?xml version="1.0" encoding="UTF-8"?>
<svg id="Layer_2" data-name="Layer 2" xmlns="http://www.w3.org/2000/svg" viewBox="0 0 800.83 335.26">
  <defs>
    <style>
      .cls-1 {
        fill: #42322c;
        fill-rule: evenodd;
        stroke-width: 0px;
      }
    </style>
  </defs>
  <g id="Layer_1-2" data-name="Layer 1">
    <path class="cls-1" d="M315.79,90.54c-3.47,3.66,2.82,10.45,5.48,14.2,6.18,8.7,5.32,7.44,4.56,10.37-2.01,7.73,6.17,10.48,13.5,11.59,8.03,1.22,6.93-.23,10.82,6.85,8.58,15.57,27.47,37.79,39.6,40.91,3.27-5.14-6.21-7.41-5.27-14.07,4.84,7.91,22.72,22.54,31.83,20.59,11.1-2.38,2.81-6.41-2.71-8.15-7.54-2.38-15.28-7.7-20.91-12.7-3.16-2.8-15.5-19.5-19.25-25.45-6.67-10.57-8.91-18.91-21.44-23.29-8.61-3.01-9.09-1.73-12.52-9.9-12.85-30.59-40.39-49.03-61.5-23.43-2.06,2.5-28.98,45.18-37.91,49.74-16.58,5.18-14.48-2.52-24.29,13.01-15.21,24.08-8.36,17.51-27.88,42.99-13.43,17.53-12.28,8.95-18.08,17.83,1.84.86-.32,2.99,6.21.31,4.57-3.57,9.15-7.14,13.72-10.71,5.29-5.15,10.22-11.21,14.3-17.44,14.33-21.86,20.23-45.74,40.26-34.88,4.24,2.3,4.87,4.2,10.42,3.91,1.04-1.31,1.17-.7,2.31-3.52,1.82-4.5.95-9.44,6.88-23.08,1.93-4.44,3.98-9.5,6.02-12.67,16.58-25.74,23.83-40.78,47.9-21.55,17.02,13.6,12.61,26.6,21.65,33.41,11.12,8.37,7.82-9.24,40.73,43.96-10.11-5.66-19.34-18.7-26.17-31.69-3.74-7.1-3.89-6.9-12.15-7.09-6.22-.14-8.01-.22-8.46-2.03-2.26-9.08-.07-8.12-11.95-23.46-3.89-5.02.03-2.5-5.72-4.58h0ZM273.97,167.86c7.13-.46,8.06-4.96,6.76-9.4-.04-.02.97-4.79-4.43-.11-3.29,2.86-2.29,5.17-2.34,9.51h0ZM324.9,131.05c-4.08,5.81,2.04,14.33,8.5,13.91.49-7.48-2.55-12.4-8.5-13.91h0ZM305.69,121.43c2.45,4.25,9.25,10.66,13.62,9.88,1.84-6.84-7.87-14.59-13.62-9.88h0ZM323,151.49c-.69-7.95-2.58-12.62-8.34-17.06-6.74,4.72,3.05,14.79,8.34,17.06h0ZM304.55,150.11c-1.28-5.38-3.88-3.63-7.02-3.85-1.49,6.69.82,10.85,2.09,16.91,2.9-.78,6.63-5.94,4.93-13.06h0ZM246.4,163.51c7.61-1.94,11.55-4.6,12.37-12.46-3.12.47-5.87.09-8.21,2.39-6.02,5.95-4.52,6.02-4.16,10.06h0ZM293.04,153.53c-1.05-5.01-1.29-4.89-5.11-4.7-.88,1.52-1.43.96-1.98,4.48-.09.62-.19,2.82-.1,3.43.85,5.76-.02,6.96,3.62,9.14.06-.57,5.38-3.72,3.57-12.34h0ZM266.81,162.66c2.74-.89,8.31-1.67,8.81-11.79-.56-.23,2.35-4.33-5.41-.56-.67.32-2.31,2.39-2.72,3.12-2.09,3.71-1.31,6.04-.68,9.24h0ZM284.82,140.88c1.9-2.09,7.94-13.02-1.21-12.77-1.15,1.33-3.24,1.76-3.96,6.84-.62,4.33,0,4.22,2.57,7.66.87-.58,1.73-1.16,2.6-1.74h0ZM345.58,218.09c-1.4-6.57-5.41-12.06-12.38-14.18-5.62,8.87,5.54,12.54,12.38,14.18h0ZM278.53,206.09c1.44,7.99,5.51,11.99,14.21,12.53-.81-7.84-5.75-13.82-14.21-12.53h0ZM279.76,189.26c-2.93-7.58-2.1-7.53-6.44-9.64,0,0-4.74,5.23.27,15.64,3.48,7.24,3.88,4.5,8.23,5.9-.39-2.51-1.4-10.19-2.06-11.91h0ZM299,143.91c4.38-2.38,4.76-14.4,1.68-20.24-5.26,1.92-5,1.51-5.84,8.87-1.3,11.4,2.45,10.07,4.17,11.37h0ZM380.5,182.84c2.48,4.23-1.24,6.89,7.05,10.62,9.83,3.59,13.29,4.29,23.12,7.88-2.28-5.44-4.29-7.82-11.41-10.78-9.61-3.4-9.15-4.33-18.77-7.72h0ZM365.5,195.29c4.26,2.98,6.56,3.72,11.38,4.22,1.52-9.4.07-6.11-6.8-10.61-2.6-1.7-15.06-9.98-9.2,1.67,1.43,2.84,2.26,3.07,4.62,4.72h0ZM256.85,164.03c-5.03-1.8-7.1,2.27-12.24,7.43-22.33,22.43,14,7.32,12.24-7.43h0ZM295.12,196.17c-4.43-15.74-2.08-9.88-7.3-11.19-4.61,7.16,2.31,22.58,7.55,25.42,3.64-5.37,1.74-7.14-.26-14.23h0ZM332.05,161.09c3.27,6.53,9.55,15.13,18.5,13.83-5.99-8.16-11.98-16.32-17.97-24.49-2.67,4.79-4.44,2.84-.53,10.66h0ZM344.96,184.57c-.52,11.93,15.77,23.02,21.94,25.11-1.37-8.41-5.15-9.87-9.46-14.25-7.29-7.4-2.49-8.44-12.47-10.86h0ZM237.46,155.31c-2.25-.26-7.15-2.58-9.19,3.17.52,2.31,5.01,4.34,9.09,4.45-4.03,3.66-10.85,8.24-13.66,14.46,3.64,2-1.99,4.96,7.46,1.13.21-.08,3.63-2.96,4.07-3.38,6.13-5.81,5.97-13.21,2.22-19.82h0ZM395.68,178.68c2.66,3.62-1.53,3.33,6.73,7.26,7.84,3.72,23.99,7.4,32.32,6.08-2.25-6.44-5.34-5.49-17.55-7.97-7.2-1.46-14.18-4.3-21.5-5.37h0ZM316.6,162.9c2.43,9.31,18.71,38.44,28.75,41.87,4.03-8.04-7.13-15.87-12.15-22.38-9.91-12.86-8.49-19.32-16.6-19.49h0ZM326.73,207.87c3.25-5.52-5.97-10.56-8.72-19.62-5.9-26.13.25-16.48-7.81-20.81-4.37,6.98-1.22,15.58,1.11,23.8,4.23,14.92,12.99,17.25,15.42,16.63h0ZM365.98,164.5c-20.57-16.01-13.37-32.15-28.74-24.42.9,1.33,1.79,2.67,2.69,4,9.21,10.85,6.79,11.9,12.78,18.81,4.41,5.08,14.98,11.54,24.19,14.07-2.29-7.71,2.1-2.06-5.44-8.32-.87-.72-3.82-2.85-5.49-4.15h0ZM316.42,220.86c.71-4.56-7.04-18.46-9.49-25.27-2.78-7.72-4.13-20.24-11.1-23.04-5.02,7.62,2.1,20.04,5.57,28.54,3.36,8.24,5.23,21.67,15.03,19.77h0Z"/>
    <path class="cls-1" d="M424.11,71.52c8.22-7.95,9.76-23.65,11.64-32.58l16.7.05c2.21,14.78-1.24,31.4-9.94,40.54l-4.71-11.06c-7.37.86-18.6,9.61-19.25,8.97l5.56-5.92h0ZM430.62,2.65c5.36,1.5,9.32,4.63,10.61,10.07.78,3.3.12,5.88.45,9.45-3.52-3.63-6.6-4.97-10.44-6.85l-.61-12.67h0ZM446.05,26.66c4.3-2.34,9.31-7.05,13.62-6.13l-.55-20.17c-7.6-1.86-13.04,3.94-16.32,6.37-4.32-4.85-10.07-7.79-16.6-6.34l.86,17.79c4.83,1.46,8.89,4.02,12.26,7.93.07,1.29.53,2.81.12,4.99l-20.21.51c2.3,6.35,3.1,6.59,8.13,10.73-.57,9.03-2.99,15.18-6.82,22.28-4.33,8.01-11.54,12.86-11.94,20.58,13.14-3.15,17.41-4.74,24.68-7.36l.09,16.13c3.66-2.16,7.66-4.91,10.98-8.91l.93,33.09c-17.14,10.63,9.27,9.85-26.59,13.29-.38,1.41-3.97-2.17-.09,2.4,1.83,2.16,13.02,1.72,21.07,2.43,5.69-.06,10.65-1.34,16.37-1.38,10.72-.08,13.62,1.04,20.29-2.4-2.16-5.22-3.07-1.43-11.24-3.82-1.28-.37-5.09-.3-6.78-.32.52-14.67-6.96-4.9-6.7-13.95l-1.5-33.82c2.96-4.88,5.92-8.5,7.96-15.67,2.32-8.17,2.22-14.67,2.54-23.55,5.82-5.39,4.07-3.41,8.1-9.84l-22.5-.45-.16-4.43h0ZM455.11,3.53l.77,12.01c-5.94.97-6.99,4.69-9.88,6.92-.32-9.22-2.06-15.48,9.11-18.93h0ZM443.39,138.43c-11.45-.98-8.85,4.11-9.03,4.62,5.23,1.83,16.97,2.46,21.53-.31-2.14-3.28-5.94-3.75-12.5-4.31h0Z"/>
    <path class="cls-1" d="M452.05,329.49c4.64-.79,8.15-4.09,10.22-8.65-8.1-4.12-13.44,3.1-16.8,8.42-.62.98,3.77.71,6.58.23h0ZM448.25,315.02c-2.24.73-3.95,2.69-5.41,5.33-.43.78-1.87,1.73.6,1.92,2.99.23,7.61-1.98,9.58-4.39,2.22-2.71-3.44-3.29-4.77-2.85h0ZM450.57,303.23c-9.63,4.36-6.32,9.71-16.63,11.64-3.77,1.73-4.76,1.62-8.16,4.67-3.53,8.12,11.52.29,14.77-1.76,5.59-3.52,10.02-6.99,10.01-14.55h0ZM456.53,296.51c8.07-1.8,12.82,2.18,19.64,3.18,7.07,1.03,11.98-1.62,17.95-2.56-4.77,2.38-6.31,3.76-12.04,6.38-5.08,2.32-7.31,2.17-10.45,6.77,8.34,5.34,37.1-8.92,25.34-14.03,34.16-8.12,25.91,7.7,49.42,15.4,12.65,4.15,18.57-1.39,30.37,1.24,12.89,2.87,20.76,8.75,26.59-3.97-14.81,0-16.73-2.58-28.43-4-21.61-2.63-21.7,6.98-40.92-10.16-21.56-19.22-46.06-.01-60.61-3.12-16.86-3.61-17.32-6.6-36.97,9.25-.94.75-4.29,3.88-7.85,6.24-4.65,3.07-9.22,5.51-4.86,6.53,2.29.08,4.93-.3,6.99-.62,8.68-1.35,15.44-14.2,25.84-16.52h0ZM520.52,315.12c-.11-6.22-3.05-7.11-9.62-4.65-.06,6.09,3.51,3.1,9.62,4.65h0ZM505.63,303.58c2.68,8.09,9.07,1,11.43-2.43-4.36-3.61-6.28.16-11.43,2.43h0ZM522.26,329.2c.31-.65,4.62,3.51.46-3.49-2.71-4.56-7.38-2.41-4,3.09,4.91,7.97,3.5.41,3.53.41h0ZM508.33,326.59c2.69,1.96,11.6.58,8.26-8.44-3.7.47-5.62,1.77-7.91,4.5-4.29,5.11-.41,3.7-.34,3.94h0ZM556.48,330.45c6.95,5.41,8.64,3.32,11.99-3.55-8.77-.7-7.8-3.68-11.99,3.55h0ZM497.97,324.6c6.41-1.13,4.4.42,7.58-4.17,1.06-1.53,1.75-4.18,2.29-6.89-8.94-1-10.16,1.97-9.87,11.07h0ZM549.68,323.98c4.09,2.33,2.87,2.28,8.97.31,3.39-2.36,7.04-.1,9.21-6.12-6.31-3.57-15.08-2.13-18.18,5.81h0ZM482.02,317.2c7.29,5.46,19.98-3.86,20.65-11.38-6.68-.36-6.16,1.36-11.77,4.71-4.64,2.76-5.44,1.31-8.88,6.67h0Z"/>
    <path class="cls-1" d="M38.9,172.52c-.85.57-.62,1.68-.63,5.18,4.1,2.34,5.9,1.18,9.86,1.18-3.04,5.54-4.64,4.93-2.42,9.98,6.98-.44,10.66-4.44,12.62-9.47l-7.88-1.08c8.03-2.63,5.73-1.85,8.33-9.2-6.32-1.36-7.24-.22-13.76,1.72-1.94.58-3.32.86-4.31,1.09,1.52-.59,2.95-1.41,5.02-2.77,4.45-2.92,3.82-1.81,6.23-7.88-13.64-3.95-16.1,7.9-18.06,5.26l-.39-.53c4.91-3.26,5.3-4.24,8.89-7.93,4.93-5.05,11.57-7.69,16.17-11.29-3.2-3.98-13.41,1.38-18.05-1.64,9.03-2.22,15.16-6.85,28.06-4.16,22.58,4.72,32.88,21.2,57.45,14.32,14.62-4.09,19.8,8.51,36.34,8.76-.56-4.55-7.01-5.35-9.98-8.65l-13.21-8.48c-8.28-2.88-13.65,1.26-21.47,1.76-15.11.97-27.77-10.53-42.39-14.57-29.41-8.11-43.42,10.27-57.79,19.22-8.73,5.44-9.26,3.25-14.3,5.04-2.92,1.04-1.66.83-3.25,2.15,8.32,13.39,29.43-8.39,39.43-10.21-2.79,5.58-7.22,7.53-12.73,10.98-14.48,9.06-12.81,0-18.57,7.96,7.04,7.15,17.85,1.48,23.17-1.88.43,4.09-4.41,8.4,7.6,5.12h0ZM84.87,166.21c-4.24-.28-10.77.37-13.49,1.95,2.55,7.69,13.77,4.75,13.49-1.95h0ZM122,181.36c5.28,2.49,11.5-.2,16.96-1.41-1.6-4.19-15.06-6.47-16.96,1.41h0ZM65.05,184.07c7.67.47,11.36,1.91,12.36-6.12-7.04-.96-11.53-.88-12.36,6.12h0ZM69.07,159.4c-8.95-1.98-10.07-2.55-17.18,3.53,6.22,4.52,11.93,3.49,17.18-3.53h0ZM18.45,181.17c.11.05.83,6.49,10.97-1.23-3.02-5.09-10.16-8-10.97,1.23h0ZM80.32,181.47c6.29-.55,14.29,3.05,14.98-5.05-8.3-.43-15.68-1.22-14.98,5.05h0ZM112.07,173.92s-.59,3.62,7.36-.83c2.86-1.6,3.39-2.38,3.54-3.06-.24-.34.81-7.3-7.74-2.8-3.73,1.96-3.17,4.33-3.16,6.69h0ZM93.15,165.48c6.24,2.85,8.77,2.4,16.32.99,9.3-1.74,8.59-1.16,12.46-7.86-8.38-.23-6.81,1.04-14.32,1.59-13.88,1.01-11.7,2.37-14.46,5.28h0Z"/>
    <path class="cls-1" d="M437.55,218.14c4.29,2.77,6.22,3.23,18.5,1.32,12.51-1.95,19.4-2.9,22.19-9.05-9.93-1.16-33.69,1.83-40.68,7.73h0ZM584.34,118.73c6.05-11.78,25.06-21.85,29.57-27.23-5.7-4.45-9.75-1.38-15.43,3.35-16.4,13.65-12.12,10.76-23.78,24.74-6.17,7.4-7.61,2.02-10.55,12.94-18.58.06-28.98,11.73-35.68,21.28-13.31,18.98-10.5,23.69-20.04,33.67-9.89,10.34-6.17,27.43-21.44,32.75-27.56,9.6-114.77,6.37-145.91,20.88-9.81,4.57-23.77,19.27-14.46,35.17,6.04,10.32,39.12,24.33,13.33,39.83-13.42,8.06-10.36,11.26,2.23,6.85,9.22-3.25,18.26-12.56,12.51-26.37-3.56-8.54-7.26-11.99-13.7-16.26-17.67-11.73-12.5-36.6,33.14-39l109.86-11.62c20.08-3.63,22.04-26.23,27.22-32.14,2.28-2.6,3.11-.75,6.47-8.49,5.07-11.67,7.42-18.14,15.24-29.17,5.67-7.99,21.81-25.32,33.74-18.88-12.67,4.6-27.29,18.6-24.83,33.61,15.26-6.5,6.7-22.66,29.41-26.49-5.46,13.15-31.37,21.04-28.43,51.07,10.96-6.87,1.4-15.29,28.1-39.51,24.64-22.34,23.5-14.02,46.47-17.72.57-6.36-1.92-6.88-5.21-10.37-6-6.37-1.43-1.9-3.58-8.95-7.08.49-5.86,1.34-11.23,4.11.69-11.3,6.47-7.8,10.61-15.54-.93-.63,1.06-3.62-6.7-1.35-4.81,1.41-7.29,8.5-16.93,8.85h0ZM360.4,318.76c6.12-2.74,8.81-8.9,8.59-15.34-.29-8.71-7.8-7.66-6.96,2.05.73,8.52-4.24,7.23-1.63,13.29h0ZM372.64,315.87c9.59-2.28,11.15-6.22,10.76-14.14-.37-7.47-2.93-8.67-6.67-2.15l-4.08,16.29h0ZM409.17,248.41c-8.66-4.44-30.38-6.58-36.71,2.57,5.15,4.48,23.61-1.61,36.71-2.57h0ZM362.28,254.45c-33.06-5.65-8.15,25.36-5.65,28.32,3.22,3.82,9.23,8.5,15.51,7.57-.18-15.46-20.57-14.07-18.72-26.04.42-2.69,1.96-5.77,8.87-9.85h0ZM441.42,240.1c1.89,2.05-.73,4.36,7.45,5.53,5.37.77,29.85-1.34,34.6-4.59-4.41-6.88-26.35-2.62-42.05-.94h0ZM499.42,173.9c4.87-11.63.38-5.08,9.44-13.24,4.47-4.03,6.94-7.16,10.53-11.93,3.96-5.25,5.76-6.57,9.66-12.57,23.39-35.91,20.32-3.8,38.84-17.65,6.41-4.79,15.53-16.12,20.76-22.17,51.41-59.49,51.81,9.85,59.49,20.49,3.84,5.32,14.65,19.2,22.07,21.09,4.92-4.99,7.12-12.11,11.97-17.27,16.65-.6,22.17,15.7,29.78,26.83,11.23,16.44,13.82,16.32,27.84,20.49,14.05,4.18,2.3,25.69,26.28,39.32,13.15,7.47,8.5.88,14.07,15.66,3.81,10.11,8.77,10.4,20.67,12.03-2.63-7.85,2.74-2.34-6.29-7.83-5.97-3.63-8.53-3.66-11.13-20.96-29.57-8.94-23.15-22.63-36.06-47.86-11.01-.35-3.4-.74-10.05,2.64-25.91-13.85-26.01-45.66-51.15-49.37-15.35-2.27-15.04,4.07-25.75,5.89-14.88-11.4-7.72-20.92-15.67-37.13-4.25-8.67-17.9-21.79-30.97-14.79-28.23,15.12-42.85,48.56-55.52,47.86-20.87-1.16-15.77-11.59-42.57,29.91-27.46,42.54-33.12,11.11-41.34,37.19-9.37,29.72-37.81,16.08-48,20.78,9.03,9.9,30.11,6.93,43.32.21,16.11-8.2,1.87-25.66,29.77-27.64h0ZM648.03,189.97c-4.64,9.11,10.01,26.29,5.59,35.2-5.53-7.94-.75-14.54-15.02-14.57,2.95,8.28,2.25,7.76,6.97,13.63-10.16,1.59-58.31.6-64.6,14.5,5.38,2.24,30.38-6.38,41.06-6.99,8.65-.49,17.51-.27,26.16.06l16.89,1.18c6.23,1.59,2.32.86,4.41,2.03-13.37,1.01-35.39-.46-44.34,6.98,5.6,5.16,8.89,2.59,17.75,1.49,7.82-.98,16.27-1.33,24.17-1.48,7.6-.15,16.16-.33,23.01.94,15.4,2.85,11.55,5.99,16.88,1.16-6.63-6.75-9.49-6.14-21.06-8.85,7.05-1.16,11.27-.71,18.3-.7,21.05.02,20.86-.41,23.8-2.41-8.55-6.86-39.32-4.44-49.39-4.04l.17-8.18,4.09-10.16c-13.5,2.63-4.26,8.21-12.99,16.88l-8.52-1.3c-1.76-8.72-2.68-35.67-13.35-35.37h0ZM721.78,168.24c-8.6,2.15-2.23,2.71-4.09,8.33,12.47,3.51,4.25-8.05,4.09-8.33h0ZM569.13,235.28c-2.63-4.19-16.52-6.14-19.91.16,3.58,2.09,13.61,4.55,19.91-.16h0ZM684.52,156.99c-4.11-4.99-9.71-7.36-14.93-3.42,2.52,3.32,11.94,7.48,14.93,3.42h0ZM715.05,170.69c-5.19-3.92-3.23-3.44-9.94-3.85,1.11,6.27-.42,5.33,7.01,8.03,4.59-1.94,2.4.62,2.93-4.18h0ZM714.31,220.89c.25-4.76-6.3-6.24-10.73-6.2.64,1.31.44,3.88,2.53,6.41,2.74,3.31,7.86,5.98,8.19-.21h0ZM697.55,211.31c-1.54-6.25-2.92-9.94-9.15-8.15-1.65,1.8-1.49,9.38,9.15,8.15h0ZM667.62,146.6c3.67-8.77-9.63-5.57-11.4-4.79.5.62,8.8,11.01,11.4,4.79h0ZM715.29,188.92c-3.64-6.23-1.84-5.71-11.82-6.26,1.56,6.81,8.97,13.22,11.82,6.26h0ZM651.44,181.05c-2.79-5.43-2.46-1.05-8.21-1.41.15,8.9-.84,5.57,3.9,8.25.84-.43,6.97-1.64,4.31-6.84h0ZM710.94,207.33c.16-7.84-1.75-8.79-8.21-7.78-4.96,4.82,3.37,7.29,8.21,7.78h0ZM789.69,244.24c-4.04-6.97-9.6-4.54-12.66-1.57,2.26,2.47.94,2.92,5.8,3.55,6.75.88,5.71-1.23,6.86-1.98h0ZM682.98,150.74c7.41-1.4,7.06.34,7.36-9.31-8.71-.18-8.78,1.24-7.36,9.31h0ZM518.65,225.93c5.9.13,8.78-5.56,8.47-10.79-8.13-1.78-10.57,3.31-8.47,10.79h0ZM550.54,245.46c1.66,1.82,2.16,3.92,12.54,4.33,7.43.3,10.24-1.45,11.26-3.73-4-6.78-18.03-4.4-23.8-.6h0ZM724.47,197.37c-8.3-4.04-4.34-1.45-9.12.89.59.18,1.34,2.65,1.69,3.06l4.46,3.12c5.06,1.84,3.58.91,7.91.83-.72-4.38-.86-5.91-4.93-7.89h0ZM591.11,163.59c5.08.53,9.37.4,13.56-8.84-9.62-2.32-13.9-1.16-13.56,8.84h0ZM676.43,144.46c7.95-2.34,3.93-.29,7.89-6.49,2.45-3.84,2.53-2.98,3.62-7.47-5.33-2.86-13.88,1.52-11.51,13.96h0ZM616.95,212.46c.83.27-2.67,4.42,5.46.21,2.54-1.32,6.37-7.49,6.75-14.23-8.76,1-12.91,6.38-12.21,14.02h0ZM514.85,215.51c-5.86.22-3.92.69-9.6,5.48l-7.91,8.82c-6.35,9.86,14.03-1.21,17.51-14.3h0ZM599.08,168.52c5.38,4.17,5.29,2.24,10.87-2.58,4.14-3.58,5.74-3.59,6.01-9.54-9.14.18-14.46,6.71-16.88,12.12h0ZM625.69,140.67c3.52,3.04-2.06,3.43,10.1,4.32l12.69-1.13c-4.04-8.74-17.54-8.09-22.79-3.19h0ZM664.57,223.27c6.64-2.86,3.15-.44,5.64-9.01,1.6-5.49-2.66-7.68,4.53-13.37-6.68-1.05-8.68,1.8-11.05,9.03-2.39,7.32-2.53,8.84.87,13.35h0ZM721.95,242.35c4.24,2.89,16.39,3.47,22.79-.01-1.71-5.52-3.95-5.66-12.52-5.39-7.5.24-8.68.13-10.27,5.41h0ZM732.91,215.26c-6.67-4.4-6.7-5.49-13.53-2.18l1.83,2.93c.29.33.69.8,1.02,1.13,3.83,3.73,13.61,8.47,18.84,8.56-1.21-6.1-3.08-7.1-8.15-10.44h0ZM600.61,212.05c.56.28,1.2,4.83,7.05-.63l12.8-19.8c-10.1-3.09-20.28,18.01-19.85,20.42h0ZM520.4,207c6.29-3.86,13.12-20.79,14.25-28.6-9.77,2.03-15.43,17.37-14.25,28.6h0ZM579.57,249.87c6.21,2.37,24.41,2.33,31.6-.66-3.41-9.88-29.28-5.66-31.6.66h0ZM578.52,199.02c7.08-2.32,4.41-3.98,8.78-10.95,2.7-4.29,5.52-6.92,8.04-10.16-9.71-8.03-22.12,13.11-16.83,21.1h0ZM476.13,205.99c8.66-.64,9.75-3.07,12.93-9.63,4.94-10.18,6.24-3.68,8.54-11.64-8.35-4.18-12.4-.36-14.5,6.03-3.46,10.49-5.51,7.41-6.97,15.23h0ZM555.96,215.84c2.03-.61,1.21,2.86,3.36-4.75,12.24-43.27,17.48-29.21,26.94-41.07-16.65-9.85-35.59,27.72-32,42.97l1.69,2.85h0ZM582.6,219.97c8.42-2.28,5.2-7.53,18.42-24.28,11.76-14.89,18.48-13.58,21.29-21.88-8.8-2.95-21.52,11.21-26.63,16.77-3.96,4.3-17.41,21.43-13.08,29.39h0ZM746.52,204.85c-6.15-10.89-11.59-27.09-24.98-24.24,3.56,7.08,1.1,2.21,6.34,7.53,14.1,14.34,11.51,37.71,44.68,45.36-2.26-9.85-5.86-9.11-14.12-14.37-5.87-3.74-8-7.37-11.91-14.29h0ZM382.72,279.12c-.72-26.82,19.43-16.95,38.55-17.07,13.71-.08,94.27-13.37,106.13-18.99,10.5-4.97,25.31-20.42,17.29-31.59-1.94,7.36-4.62,14.14-10.05,18.62-23.41,19.31-77.76,21.39-109.67,25.55-11.28,1.06-18.04-1.68-28.41.12-18.53,3.21-31.67,21.03-9.02,35.09,16.98,10.54,15.08,29.29-1.75,35.84-14.35,5.58-11.41,11.07-.32,7.36,11.04-3.69,22.16-14.1,22.94-22.21,1.5-15.57-18.02-26-25.67-32.72h0Z"/>
  </g>
</svg>